<svg width="250" height="250" viewBox="0 0 250 250" fill="none" xmlns="http://www.w3.org/2000/svg">
<g id="welcome/amico">
<g id="Floor--inject-1">
<path id="floor--inject-1" d="M36.6132 233.325C85.4308 255.546 164.571 255.546 213.389 233.325C262.207 211.104 262.201 175.032 213.389 152.8C164.577 130.568 85.4308 130.579 36.6132 152.8C-12.2044 175.021 -12.2044 211.104 36.6132 233.325Z" fill="#F5F5F5"/>
</g>
<g id="Shadows--inject-1">
<path id="Shadow--inject-1" d="M209.475 203.065C225.558 203.065 238.595 196.851 238.595 189.185C238.595 181.52 225.558 175.306 209.475 175.306C193.392 175.306 180.354 181.52 180.354 189.185C180.354 196.851 193.392 203.065 209.475 203.065Z" fill="#E0E0E0"/>
<path id="shadow--inject-1" d="M38.8125 210.307C54.8954 210.307 67.9332 204.092 67.9332 196.427C67.9332 188.762 54.8954 182.547 38.8125 182.547C22.7295 182.547 9.69171 188.762 9.69171 196.427C9.69171 204.092 22.7295 210.307 38.8125 210.307Z" fill="#E0E0E0"/>
</g>
<g id="character-2--inject-1">
<path id="Vector" d="M21.5087 193.487H26.8474V184.348H21.5087V193.487Z" fill="#B16668"/>
<path id="Vector_2" d="M43.3364 186.57L48.6751 186.752L48.9429 177.083L43.3364 176.901V186.57Z" fill="#B16668"/>
<path id="Vector_3" d="M23.104 119.543C23.104 124.637 23.3718 154.173 23.3718 154.173C23.2465 155.637 21.8391 158.247 21.7252 163.529C21.5656 171.186 21.2808 188.923 21.2808 188.923C22.2029 189.375 23.2128 189.619 24.2395 189.639C25.2661 189.659 26.2847 189.453 27.2234 189.037C27.2234 189.037 32.8812 163.814 33.8384 156.247C34.6703 149.626 36.1175 131.65 36.1175 131.65L40.197 154.019C39.5704 156.801 39.3383 159.657 39.5076 162.503C39.7583 166.007 43.006 183.585 43.006 183.585C43.9363 184.11 44.9706 184.424 46.0358 184.506C47.1011 184.588 48.1713 184.435 49.1708 184.057C49.1708 184.057 49.4899 156.481 49.5469 153.29C49.6209 149.621 48.0199 118.061 48.0199 118.061L23.104 119.543Z" fill="#37474F"/>
<path id="Vector_4" d="M26.8474 190.855V190.091C27.1323 190.091 27.3089 190.37 27.4172 191.054C27.4929 191.562 27.5956 192.066 27.7248 192.564C27.9639 193.499 28.2763 194.413 28.6592 195.299C29.4113 197.156 30.0438 197.851 31.7759 200.022C32.3665 200.624 32.9202 201.262 33.4339 201.931C33.753 202.501 33.8669 204.102 33.3199 204.466C31.303 205.811 28.2433 205.851 26.0782 205.213C25.2714 204.989 24.5463 204.537 23.9896 203.911C23.4328 203.286 23.068 202.513 22.9388 201.686C22.859 201.19 22.8875 200.689 22.8305 200.193C22.6432 199.067 22.1857 198.004 21.4973 197.094C21.0933 196.564 20.7493 195.99 20.4717 195.384C20.0216 194.285 20.3805 193.054 20.6654 191.966C20.9161 191.02 21.1839 189.983 21.503 190.074V190.644C22.2647 191.24 23.2077 191.558 24.1752 191.544C24.9615 191.607 26.8531 191.447 26.8474 190.855Z" fill="#263238"/>
<path id="Vector_5" d="M48.7321 185.106C49.0056 185.106 49.2335 185.51 49.8717 186.171C50.7851 187.099 51.8459 187.869 53.0111 188.45C55.011 189.453 58.8968 190.991 60.6516 191.783C61.7513 192.279 61.7 193.607 60.5662 194.359C59.4323 195.111 56.6861 195.658 53.3985 194.929C51.6037 194.53 49.2677 192.872 47.792 192.963C46.3163 193.054 43.5473 193.031 42.459 192.279C41.3707 191.527 41.8038 189.92 42.1114 188.541C42.4476 187.032 42.8692 184.684 43.3649 184.787V185.305C44.0088 186.279 47.3191 186.673 48.7321 185.96V185.106Z" fill="#263238"/>
<path id="Vector_6" d="M36.089 131.65C38.8389 130.786 41.3668 129.332 43.496 127.388C43.496 127.388 42.0601 130.072 37.7983 132.573L39.8608 152.47L36.089 131.65Z" fill="#263238"/>
<path id="Vector_7" d="M44.5728 107.35C41.0858 95.7379 41.7753 85.9038 41.12 82.8954L50.0597 95.379C50.438 99.4935 51.0487 103.583 51.8886 107.629C52.9199 112.067 54.3272 117.6 56.0137 121.041C56.3197 121.648 56.8363 122.122 57.4666 122.375C59.1759 123.064 59.9394 123.936 61.2898 124.933C62.3495 125.719 63.1529 125.822 63.0902 126.141C62.9731 126.5 62.7253 126.801 62.396 126.986C62.0667 127.171 61.6799 127.225 61.3126 127.138C60.4973 126.967 59.7054 126.699 58.9537 126.34C59.7118 127.626 60.674 128.781 61.8026 129.759C64.3893 132.009 64.7596 133.599 60.4636 134.379C57.7686 134.875 55.3357 133.582 52.2647 127.987C51.1014 125.951 50.0865 123.833 49.2278 121.651C47.1766 115.953 45.6269 110.865 44.5728 107.35Z" fill="#B16668"/>
<path id="Vector_8" d="M40.3964 80.0066C43.1712 80.4966 45.9175 81.1461 47.6211 83.8126C49.3247 86.4791 51.7861 99.0653 51.7861 99.0653C51.7861 99.0653 48.2079 101.578 44.1056 101.47L40.3964 80.0066Z" fill="#BA68C8"/>
<path id="Vector_9" opacity="0.1" d="M40.3964 80.0066C43.1712 80.4966 45.9175 81.1461 47.6211 83.8126C49.3247 86.4791 51.7861 99.0653 51.7861 99.0653C51.7861 99.0653 48.2079 101.578 44.1056 101.47L40.3964 80.0066Z" fill="black"/>
<path id="Vector_10" d="M21.2751 84.6844C19.4119 86.012 9.58346 108.21 9.20741 109.754C8.70032 111.857 8.93392 114.21 9.9652 114.973C10.9965 115.737 13.2698 114.643 14.4607 113.48C16.7397 111.201 24.7165 94.5984 24.7165 94.5984L21.2751 84.6844Z" fill="#9A4A4D"/>
<path id="Vector_11" d="M31.0466 80.058C26.4884 81.1519 20.7908 82.9809 18.7567 87.1516C16.7226 91.3223 13.6288 98.0968 13.6288 98.0968C15.7371 100.154 18.3086 101.674 21.1269 102.53L23.406 98.5412L23.0698 119.623C26.7448 122.3 40.2426 123.759 47.98 118.107C47.98 118.107 47.0342 92.8321 47.0342 88.895C47.0342 84.958 44.8463 80.2346 38.8125 79.8813L31.0466 80.058Z" fill="#BA68C8"/>
<path id="Vector_12" opacity="0.1" d="M23.4402 98.4899C23.4402 98.4899 25.7192 94.5528 26.2035 93.6013L23.3547 103.287L23.4402 98.4899Z" fill="black"/>
<path id="Vector_13" d="M39.6842 69.825C43.7341 69.825 47.0171 66.5419 47.0171 62.4921C47.0171 58.4422 43.7341 55.1592 39.6842 55.1592C35.6344 55.1592 32.3513 58.4422 32.3513 62.4921C32.3513 66.5419 35.6344 69.825 39.6842 69.825Z" fill="#263238"/>
<path id="Vector_14" d="M27.0012 67.7053C27.0012 67.7053 28.192 73.289 28.6706 74.2064C28.9868 74.7726 29.5093 75.1951 30.1292 75.3858L30.0495 71.4601L27.0012 67.7053Z" fill="#263238"/>
<path id="Vector_15" d="M28.494 59.7058C28.0781 59.6583 27.6568 59.706 27.262 59.8452C26.8672 59.9843 26.5092 60.2114 26.2149 60.5092C25.2406 61.5063 25.7876 64.64 27.0012 67.7053L29.2404 67.9617L28.494 59.7058Z" fill="#263238"/>
<path id="Vector_16" d="M29.9127 67.9675C29.4626 68.2353 28.8245 67.3693 28.2718 66.7938C27.7191 66.2184 25.9073 65.4207 25.007 67.318C24.1068 69.2153 25.8047 71.8135 27.2291 72.2636C29.6791 73.0328 30.078 71.4602 30.078 71.4602L30.2546 80.5765C33.3028 84.4851 41.7639 84.1546 38.2313 80.0751V77.3801C39.3234 77.5571 40.4315 77.6145 41.536 77.551C43.3421 77.2718 44.476 75.8417 45.0229 73.8988C45.9004 70.7651 46.2365 68.2011 45.4901 62.0648C44.6754 55.3073 36.8126 55.2276 32.5678 57.9112C28.3231 60.5948 29.9127 67.9675 29.9127 67.9675Z" fill="#B16668"/>
<path id="Vector_17" d="M29.9127 68.7195C29.6848 68.7195 28.8302 67.3008 28.2718 66.7937C27.4969 66.0872 28.494 59.7058 28.494 59.7058C28.2317 59.1477 28.1425 58.5238 28.238 57.9145C28.3335 57.3052 28.6092 56.7384 29.0296 56.2872C30.0893 55.1192 31.5707 53.6891 36.3796 54.2589C39.7982 54.6691 43.5472 55.7346 46.567 54.2589C46.8477 55.2433 46.8273 56.2893 46.5085 57.2621C46.1896 58.2348 45.5869 59.0899 44.7779 59.7172C44.7779 59.7172 43.684 60.418 40.7896 60.7713C38.1317 60.9707 35.461 60.9192 32.8128 60.6175C31.981 60.5035 31.8043 61.3126 31.3542 63.5176C31.001 65.4263 30.6705 68.7082 29.9127 68.7195Z" fill="#263238"/>
<path id="Vector_18" d="M28.4997 60.2016L25.7876 58.743C25.8747 58.561 25.9977 58.3985 26.1491 58.2652C26.3005 58.132 26.4773 58.0306 26.6688 57.9673C26.8604 57.904 27.0627 57.88 27.2638 57.8968C27.4648 57.9136 27.6604 57.9708 27.8388 58.0649C28.2028 58.2675 28.4747 58.6027 28.5978 59.0007C28.7209 59.3987 28.6857 59.8288 28.4997 60.2016Z" fill="#263238"/>
<path id="Vector_19" d="M38.2028 77.3743C38.2028 77.3743 34.1803 76.5653 32.773 75.8189C31.945 75.3869 31.266 74.7159 30.8244 73.8931C31.037 74.7189 31.4128 75.4939 31.9297 76.1721C32.961 77.4883 38.1971 78.4512 38.1971 78.4512L38.2028 77.3743Z" fill="#9A4A4D"/>
<path id="Vector_20" d="M37.2285 66.9533C37.2316 67.1714 37.1482 67.3819 36.9967 67.5388C36.8451 67.6958 36.6376 67.7863 36.4195 67.7908C36.2038 67.782 36.0001 67.6897 35.8512 67.5334C35.7024 67.3771 35.6201 67.1691 35.6218 66.9533C35.6187 66.7351 35.7021 66.5246 35.8537 66.3677C36.0052 66.2108 36.2127 66.1202 36.4309 66.1157C36.6465 66.1246 36.8502 66.2169 36.9991 66.3732C37.1479 66.5295 37.2302 66.7375 37.2285 66.9533Z" fill="#263238"/>
<path id="Vector_21" d="M36.3796 63.9108L34.6703 64.868C34.5461 64.6311 34.5183 64.3554 34.5926 64.0984C34.6669 63.8415 34.8377 63.6232 35.0691 63.4891C35.1824 63.4286 35.3067 63.3914 35.4346 63.3798C35.5626 63.3683 35.6915 63.3826 35.8138 63.422C35.9361 63.4613 36.0492 63.5249 36.1464 63.6088C36.2436 63.6928 36.3229 63.7955 36.3796 63.9108Z" fill="#263238"/>
<path id="Vector_22" d="M37.8382 72.5312L39.6842 73.2207C39.6446 73.3448 39.5802 73.4596 39.4949 73.5582C39.4096 73.6567 39.3052 73.7369 39.188 73.7939C39.0708 73.8509 38.9433 73.8835 38.8131 73.8898C38.6829 73.896 38.5529 73.8758 38.4307 73.8303C38.1825 73.7332 37.9819 73.5433 37.8713 73.3008C37.7607 73.0584 37.7488 72.7823 37.8382 72.5312Z" fill="#9A4A4D"/>
<path id="Vector_23" d="M44.4304 64.5831L42.8578 63.3752C42.9308 63.2679 43.0251 63.1768 43.1349 63.1075C43.2446 63.0382 43.3674 62.9922 43.4957 62.9725C43.624 62.9527 43.7549 62.9595 43.8804 62.9926C44.006 63.0256 44.1233 63.0841 44.2253 63.1644C44.4344 63.3298 44.5721 63.5691 44.6103 63.8329C44.6484 64.0968 44.5841 64.3652 44.4304 64.5831Z" fill="#263238"/>
<path id="Vector_24" d="M43.9461 66.7311C43.9394 66.8895 43.8863 67.0424 43.7934 67.1709C43.7006 67.2993 43.572 67.3977 43.4237 67.4537C43.2754 67.5098 43.1139 67.521 42.9593 67.486C42.8046 67.451 42.6637 67.3714 42.5539 67.257C42.4442 67.1426 42.3704 66.9985 42.3419 66.8426C42.3134 66.6866 42.3312 66.5257 42.3934 66.3799C42.4555 66.234 42.5591 66.1096 42.6913 66.0221C42.8235 65.9347 42.9785 65.888 43.137 65.8878C43.2455 65.89 43.3525 65.9136 43.4519 65.9572C43.5513 66.0008 43.6411 66.0635 43.7163 66.1418C43.7914 66.2201 43.8504 66.3125 43.8898 66.4136C43.9292 66.5147 43.9484 66.6226 43.9461 66.7311Z" fill="#263238"/>
<path id="Vector_25" d="M39.8381 65.9619L40.1002 70.8163L42.6356 69.9503L39.8381 65.9619Z" fill="#9A4A4D"/>
<path id="Vector_26" d="M18.3636 123.286C18.288 123.286 18.2155 123.256 18.1621 123.203C18.1087 123.149 18.0787 123.077 18.0787 123.001V33.3884C18.0787 33.3128 18.1087 33.2404 18.1621 33.187C18.2155 33.1335 18.288 33.1035 18.3636 33.1035C18.4391 33.1035 18.5116 33.1335 18.565 33.187C18.6184 33.2404 18.6484 33.3128 18.6484 33.3884V123.001C18.6484 123.077 18.6184 123.149 18.565 123.203C18.5116 123.256 18.4391 123.286 18.3636 123.286Z" fill="#37474F"/>
<path id="Vector_27" d="M20.5287 41.1885C20.5287 40.2712 18.6314 37.7699 18.2496 37.7699C17.8679 37.7699 16.1757 40.2256 16.1757 41.1885C16.193 41.3794 16.2606 41.5622 16.3717 41.7184C16.4829 41.8746 16.6334 41.9984 16.8081 42.0773C17.2819 42.3189 17.8061 42.4449 18.3379 42.4449C18.8697 42.4449 19.394 42.3189 19.8677 42.0773C20.0435 41.9992 20.1952 41.8757 20.3074 41.7195C20.4195 41.5633 20.4881 41.38 20.5059 41.1885H20.5287Z" fill="#BA68C8"/>
<path id="Vector_28" opacity="0.1" d="M20.5287 41.1885C20.5287 40.2712 18.6314 37.7699 18.2496 37.7699C17.8679 37.7699 16.1757 40.2256 16.1757 41.1885C16.193 41.3794 16.2606 41.5622 16.3717 41.7184C16.4829 41.8746 16.6334 41.9984 16.8081 42.0773C17.2819 42.3189 17.8061 42.4449 18.3379 42.4449C18.8697 42.4449 19.394 42.3189 19.8677 42.0773C20.0435 41.9992 20.1952 41.8757 20.3074 41.7195C20.4195 41.5633 20.4881 41.38 20.5059 41.1885H20.5287Z" fill="black"/>
<path id="Vector_29" d="M30.9612 21.3036C30.9612 28.3117 25.4572 37.1659 18.2668 38.841C11.0193 36.8183 5.57806 28.3117 5.57806 21.3036C5.57806 14.2955 10.0906 7.74316 18.2725 7.74316C26.4543 7.74316 30.9612 14.2898 30.9612 21.3036Z" fill="#BA68C8"/>
<path id="Vector_30" opacity="0.05" d="M6.04522 17.4576C5.73121 18.7154 5.57428 20.0072 5.57801 21.3036C5.57801 28.3117 11.0364 36.8183 18.2724 38.841C24.2493 37.4451 29.0581 31.0922 30.511 24.9615C30.511 24.9615 28.6194 31.6904 20.2951 32.2317C11.9708 32.773 5.25324 23.2579 6.04522 17.4576Z" fill="black"/>
<path id="Vector_31" d="M10.2501 115.11C8.73452 114.677 7.17906 110.142 7.29301 107.236C7.40697 104.33 11.3156 91.7609 11.8511 89.3451C12.4608 86.6786 12.4209 84.6502 12.9622 83.2657C13.7599 81.2202 16.3808 80.0978 16.3808 80.0978C16.3808 80.0978 19.7994 78.4626 21.0301 78.2176C22.2608 77.9726 22.7394 78.7873 22.6026 79.4312C22.4659 80.075 22.0329 81.7102 21.9189 82.5991C21.8377 83.7367 21.5049 84.842 20.9446 85.8354C20.3008 86.8666 17.6742 89.3337 17.5716 90.7069C17.469 92.08 16.7113 99.5325 16.2782 104.951C15.9193 109.384 15.4749 111.218 14.512 112.392C13.549 113.566 11.4295 115.44 10.2501 115.11Z" fill="#B16668"/>
</g>
<g id="character-1--inject-1">
<path id="Vector_32" d="M224.152 179.22H218.739V188.484H224.152V179.22Z" fill="#FFA8A7"/>
<path id="Vector_33" d="M205.389 178.73L199.982 178.912L199.715 169.112L205.389 168.924V178.73Z" fill="#FFA8A7"/>
<path id="Vector_34" d="M222.403 110.284C222.403 115.452 223.212 146.487 223.212 146.487C223.337 147.974 224.767 150.618 224.881 155.974C225.041 163.74 224.368 183.852 224.368 183.852C223.434 184.311 222.411 184.559 221.37 184.58C220.33 184.6 219.298 184.393 218.346 183.972C218.346 183.972 213.571 156.276 212.603 148.589C211.759 141.883 210.324 123.656 210.324 123.656L207.401 145.581C208.027 148.401 208.253 151.296 208.073 154.179C207.817 157.734 205.737 175.716 205.737 175.716C204.791 176.25 203.739 176.569 202.656 176.65C201.573 176.732 200.485 176.574 199.47 176.189C199.47 176.189 196.735 148.84 196.672 145.581C196.604 141.861 198.472 103.897 198.472 103.897L222.403 110.284Z" fill="#BA68C8"/>
<path id="Vector_35" d="M201.196 99.6123C204.683 87.9948 203.993 78.1606 204.649 75.1522L195.709 87.6358C195.33 91.7522 194.72 95.8439 193.88 99.8915C192.849 104.33 191.442 109.862 189.755 113.304C189.449 113.909 188.932 114.381 188.302 114.631C186.593 115.321 185.829 116.193 184.479 117.195C183.419 117.976 182.616 118.078 182.679 118.397C182.8 118.752 183.05 119.049 183.379 119.229C183.707 119.409 184.092 119.46 184.456 119.372C185.271 119.2 186.063 118.932 186.815 118.574C186.056 119.86 185.094 121.014 183.966 121.993C181.379 124.238 181.009 125.827 185.305 126.608C188 127.104 190.433 125.81 193.504 120.215C194.673 118.175 195.694 116.054 196.558 113.868C198.592 108.182 200.142 103.122 201.196 99.6123Z" fill="#FFA8A7"/>
<path id="Vector_36" d="M205.367 72.2635C202.592 72.7535 199.851 73.4031 198.148 76.0696C196.444 78.7361 193.983 91.3222 193.983 91.3222C193.983 91.3222 197.561 93.8349 201.663 93.7267L205.367 72.2635Z" fill="#E0E0E0"/>
<path id="Vector_37" d="M224.488 76.947C226.351 78.2689 236.18 100.467 236.556 102.017C237.057 104.119 236.829 106.478 235.798 107.236C234.767 107.994 232.493 106.905 231.302 105.743C229.023 103.464 221.018 86.8667 221.018 86.8667L224.488 76.947Z" fill="#F28F8F"/>
<path id="Vector_38" d="M214.813 72.2578C219.343 73.3518 225.069 75.1807 227.098 79.3514C229.126 83.5221 232.225 90.2909 232.225 90.2909C230.116 92.3487 227.542 93.8691 224.722 94.7237L222.443 90.7353L222.779 111.788C219.104 114.466 205.606 115.919 197.869 110.273C197.869 110.273 198.82 84.9921 198.82 81.0607C198.82 77.1293 201.002 72.4003 207.042 72.047L214.813 72.2578Z" fill="#F0F0F0"/>
<path id="Vector_39" d="M222.403 90.7182C222.403 90.7182 220.124 86.7754 219.639 85.8296L222.488 95.5156L222.403 90.7182Z" fill="#E0E0E0"/>
<path id="Vector_40" d="M218.739 185.812V185.037C218.221 185.265 217.03 189.852 214.87 191.812C213.161 193.367 210.836 195.168 210.244 196.9C209.651 198.632 213.486 199.703 215.081 199.418C216.933 199.094 220.146 197.789 220.95 196.569C221.753 195.35 222.135 193.578 222.79 192.695C223.445 191.812 224.955 190.815 225.308 189.789C225.502 189.219 225.274 187.994 225.001 186.94C224.727 185.886 224.477 184.929 224.152 185.02V185.59C223.38 186.194 222.425 186.516 221.445 186.502C220.653 186.604 218.733 186.416 218.739 185.812Z" fill="#263238"/>
<path id="Vector_41" d="M199.925 177.243C199.646 177.243 199.418 177.653 198.786 178.32C197.862 179.253 196.787 180.024 195.607 180.599C193.578 181.613 189.641 183.174 187.858 183.978C186.718 184.479 186.798 185.824 187.949 186.587C189.1 187.351 191.875 187.909 195.213 187.157C197.031 186.747 199.401 185.072 200.911 185.157C202.421 185.242 205.213 185.231 206.318 184.468C207.423 183.704 206.985 182.075 206.671 180.679C206.33 179.152 205.902 176.77 205.395 176.878V177.403C204.746 178.388 201.407 178.787 199.96 178.063L199.925 177.243Z" fill="#263238"/>
<path id="Vector_42" opacity="0.1" d="M210.335 123.656C207.537 122.784 204.965 121.31 202.797 119.338C202.797 119.338 204.256 122.061 208.574 124.591L207.651 143.684L210.335 123.656Z" fill="black"/>
<path id="Vector_43" d="M216.511 52.1394C216.918 52.0911 217.329 52.1363 217.716 52.2716C218.102 52.4069 218.452 52.6286 218.739 52.92C219.696 53.9 219.497 55.7118 218.739 59.8711L215.782 60.213L216.511 52.1394Z" fill="#263238"/>
<path id="Vector_44" d="M199.276 50.92C198.639 50.9229 198.009 50.7949 197.424 50.5439C196.518 50.0197 196.285 51.051 196.775 51.9456C197.103 52.5855 197.589 53.1308 198.187 53.5297C198.786 53.9286 199.476 54.1678 200.193 54.2246C200.193 54.0993 201.042 51.9456 201.042 51.9456L199.276 50.92Z" fill="#263238"/>
<path id="Vector_45" d="M215.127 60.1959C215.565 60.458 216.192 59.6261 216.733 59.0563C217.275 58.4866 219.041 57.7117 219.918 59.5691C220.796 61.4266 218.779 63.9791 217.582 64.811C216.158 65.8024 215.127 65.0275 215.127 65.0275L214.813 72.2635C214.813 72.2635 213.241 76.1037 208.99 76.6792C204.74 77.2547 205.617 73.7563 207.013 72.0356V69.4033C207.013 69.4033 204.82 69.8363 203.783 69.5685C203.031 69.3315 202.35 68.9118 201.8 68.3471C201.25 67.7823 200.849 67.0901 200.632 66.3322C199.464 62.4718 199.22 58.3906 199.92 54.4184C201.002 47.849 208.409 47.7408 212.557 50.3503C216.705 52.9598 215.127 60.1959 215.127 60.1959Z" fill="#FFA8A7"/>
<path id="Vector_46" d="M215.127 60.9366C215.343 60.9366 216.186 59.5464 216.733 59.0507C217.491 58.3612 216.511 52.1223 216.511 52.1223C216.511 52.1223 217.28 49.7578 215.782 48.1852C214.283 46.6126 211.383 46.8804 209.264 46.8064C206.66 46.8233 204.081 46.3055 201.686 45.2851C198.678 43.9746 198.45 43.8208 198.074 45.1427C197.698 46.4645 197.561 49.4957 199.361 51.524L200.854 52.0938C200.854 52.0938 201.663 52.806 204.472 53.1479C207.063 53.3442 209.667 53.2946 212.249 52.9997C213.064 52.8915 213.241 53.6778 213.679 55.8486C214.061 57.7117 214.38 60.9195 215.127 60.9366Z" fill="#263238"/>
<path id="Vector_47" d="M216.506 52.6066L219.161 51.1821C219.076 51.0038 218.956 50.8445 218.808 50.7137C218.66 50.583 218.487 50.4835 218.3 50.4212C218.113 50.3589 217.915 50.3352 217.718 50.3514C217.521 50.3676 217.33 50.4234 217.155 50.5155C216.798 50.7134 216.532 51.0412 216.411 51.4307C216.29 51.8202 216.324 52.2414 216.506 52.6066Z" fill="#263238"/>
<path id="Vector_48" d="M207.019 69.3976C207.019 69.3976 210.956 68.6056 212.329 67.8763C213.14 67.4548 213.803 66.7972 214.232 65.9904C214.025 66.7964 213.657 67.5523 213.15 68.2125C212.147 69.5001 207.019 70.4459 207.019 70.4459V69.3976Z" fill="#F28F8F"/>
<path id="Vector_49" d="M207.959 59.0791C207.965 59.2344 208.016 59.3847 208.106 59.5111C208.196 59.6375 208.322 59.7346 208.467 59.7902C208.612 59.8458 208.771 59.8575 208.922 59.8238C209.074 59.7901 209.212 59.7125 209.32 59.6007C209.428 59.4889 209.501 59.3478 209.529 59.195C209.558 59.0422 209.54 58.8844 209.48 58.7413C209.419 58.5983 209.317 58.4762 209.188 58.3904C209.058 58.3046 208.906 58.2588 208.751 58.2587C208.645 58.2601 208.54 58.2826 208.443 58.3247C208.346 58.3668 208.258 58.4277 208.184 58.504C208.111 58.5803 208.053 58.6704 208.014 58.7691C207.976 58.8678 207.957 58.9731 207.959 59.0791Z" fill="#263238"/>
<path id="Vector_50" d="M208.939 55.8143L210.648 56.7487C210.77 56.5174 210.797 56.2479 210.723 55.997C210.65 55.7462 210.482 55.5336 210.255 55.4041C210.143 55.3397 210.019 55.2992 209.89 55.285C209.761 55.2709 209.631 55.2835 209.508 55.322C209.384 55.3605 209.27 55.4241 209.172 55.5088C209.074 55.5936 208.995 55.6976 208.939 55.8143Z" fill="#263238"/>
<path id="Vector_51" d="M208.022 64.5603L206.221 65.244C206.26 65.3652 206.323 65.4772 206.407 65.5734C206.49 65.6696 206.592 65.748 206.706 65.8038C206.821 65.8597 206.945 65.8919 207.072 65.8985C207.2 65.9051 207.327 65.886 207.446 65.8423C207.691 65.7466 207.888 65.5587 207.996 65.3189C208.104 65.0792 208.113 64.8068 208.022 64.5603Z" fill="#F28F8F"/>
<path id="Vector_52" d="M200.564 56.9425L202.102 55.7574C202.03 55.6515 201.936 55.5616 201.828 55.4936C201.719 55.4255 201.597 55.3807 201.47 55.362C201.344 55.3433 201.214 55.351 201.09 55.3847C200.967 55.4185 200.851 55.4774 200.752 55.558C200.55 55.7215 200.418 55.9557 200.383 56.213C200.348 56.4702 200.413 56.7311 200.564 56.9425Z" fill="#263238"/>
<path id="Vector_53" d="M201.447 58.8569C201.452 59.0124 201.504 59.1628 201.594 59.2894C201.685 59.4159 201.811 59.513 201.956 59.5684C202.102 59.6238 202.26 59.6352 202.412 59.601C202.564 59.5668 202.702 59.4887 202.81 59.3763C202.918 59.2639 202.99 59.1223 203.017 58.9692C203.045 58.816 203.027 58.6581 202.965 58.5151C202.904 58.3722 202.802 58.2505 202.671 58.1654C202.541 58.0802 202.389 58.0354 202.233 58.0364C202.02 58.0424 201.819 58.1318 201.671 58.2853C201.524 58.4389 201.444 58.6442 201.447 58.8569Z" fill="#263238"/>
<path id="Vector_54" d="M205.76 58.2416L205.498 62.982L203.025 62.1388L205.76 58.2416Z" fill="#F28F8F"/>
<path id="Vector_55" d="M227.405 115.543C227.33 115.543 227.257 115.513 227.204 115.46C227.15 115.406 227.12 115.334 227.12 115.258V25.6452C227.12 25.5697 227.15 25.4972 227.204 25.4438C227.257 25.3904 227.33 25.3604 227.405 25.3604C227.481 25.3604 227.553 25.3904 227.607 25.4438C227.66 25.4972 227.69 25.5697 227.69 25.6452V115.258C227.69 115.334 227.66 115.406 227.607 115.46C227.553 115.513 227.481 115.543 227.405 115.543Z" fill="#37474F"/>
<path id="Vector_56" d="M225.251 33.4453C225.251 32.5337 227.149 30.0267 227.531 30.0267C227.912 30.0267 229.604 32.4824 229.604 33.4453C229.588 33.6364 229.52 33.8195 229.409 33.9758C229.298 34.132 229.147 34.2558 228.972 34.3342C228.498 34.5758 227.974 34.7017 227.442 34.7017C226.91 34.7017 226.386 34.5758 225.912 34.3342C225.732 34.2603 225.575 34.1385 225.458 33.9818C225.342 33.8252 225.27 33.6396 225.251 33.4453Z" fill="#BA68C8"/>
<path id="Vector_57" opacity="0.1" d="M225.251 33.4453C225.251 32.5337 227.149 30.0267 227.531 30.0267C227.912 30.0267 229.604 32.4824 229.604 33.4453C229.588 33.6364 229.52 33.8195 229.409 33.9758C229.298 34.132 229.147 34.2558 228.972 34.3342C228.498 34.5758 227.974 34.7017 227.442 34.7017C226.91 34.7017 226.386 34.5758 225.912 34.3342C225.732 34.2603 225.575 34.1385 225.458 33.9818C225.342 33.8252 225.27 33.6396 225.251 33.4453Z" fill="black"/>
<path id="Vector_58" d="M214.802 13.5604C214.802 20.5686 220.3 29.4227 227.496 31.0979C234.732 29.0752 240.191 20.5686 240.191 13.5604C240.191 6.55231 235.678 0 227.496 0C219.314 0 214.802 6.55801 214.802 13.5604Z" fill="#BA68C8"/>
<path id="Vector_59" opacity="0.05" d="M239.644 17.224C239.644 17.224 237.786 23.9472 229.428 24.4885C221.406 25.007 214.882 16.1984 215.127 10.364C214.909 11.4155 214.8 12.4866 214.802 13.5604C214.802 20.5685 220.3 29.4227 227.496 31.0978C233.496 29.4227 238.265 23.292 239.729 17.2525L239.644 17.224Z" fill="black"/>
<path id="Vector_60" d="M235.507 107.367C237.023 106.934 238.578 102.404 238.464 99.4926C238.35 96.5811 234.442 84.0235 233.906 81.602C233.297 78.9355 233.336 76.9071 232.795 75.5225C231.998 73.4828 229.377 72.3603 229.377 72.3603C229.377 72.3603 225.958 70.7194 224.727 70.4744C223.497 70.2294 223.018 71.0442 223.155 71.688C223.291 72.3319 223.725 73.9671 223.838 74.8559C223.919 75.9936 224.252 77.0992 224.813 78.0922C225.457 79.1235 228.083 81.5906 228.186 82.9637C228.288 84.3368 229.046 91.7951 229.479 97.2079C229.838 101.641 230.283 103.475 231.245 104.649C232.208 105.823 234.368 107.703 235.507 107.367Z" fill="#FFA8A7"/>
</g>
<g id="characters-with-banner--inject-1">
<path id="shadow--inject-1_2" d="M88.3765 190.575C104.459 190.575 117.497 184.361 117.497 176.696C117.497 169.03 104.459 162.816 88.3765 162.816C72.2935 162.816 59.2557 169.03 59.2557 176.696C59.2557 184.361 72.2935 190.575 88.3765 190.575Z" fill="#E0E0E0"/>
<path id="shadow--inject-1_3" d="M150.253 194.797C166.336 194.797 179.374 188.583 179.374 180.918C179.374 173.253 166.336 167.038 150.253 167.038C134.17 167.038 121.132 173.253 121.132 180.918C121.132 188.583 134.17 194.797 150.253 194.797Z" fill="#E0E0E0"/>
<path id="Vector_61" d="M95.7037 62.2242C97.2136 62.0077 98.4899 62.2242 101.128 65.8251C103.487 69.05 108.187 74.4628 108.187 74.4628C108.187 74.4628 112.438 63.3238 112.312 61.8253C112.187 60.3269 111.247 59.4038 110.632 56.6462C110.016 53.8885 109.84 53.3643 109.378 52.5609C108.917 51.7576 110.518 51.5639 111.161 52.5609C111.805 53.558 111.885 54.9654 112.335 54.7147C112.785 54.464 113.093 51.4328 112.711 49.2563C112.329 47.0798 113.321 46.5898 113.771 47.2849C114.032 47.6735 114.216 48.1088 114.312 48.5669C114.778 48.4717 115.261 48.5018 115.711 48.6539C116.162 48.806 116.564 49.0748 116.876 49.4329C118.016 50.675 118.962 52.5837 118.956 55.8143C118.95 59.0449 117.457 60.7713 117.247 62.2299C117.036 63.6885 114.398 77.209 112.529 81.7786C111.355 84.6274 109.731 85.4935 107.749 83.824C105.076 81.5735 97.7435 72.5597 97.7435 72.5597L95.7037 62.2242Z" fill="#FFA8A7"/>
<path id="Vector_62" d="M95.7037 62.2241C97.0654 61.8196 98.5525 62.1387 99.9314 63.791C101.31 65.4433 106.358 71.8361 106.358 71.8361C106.358 71.8361 106.21 75.1066 101.988 78.1377L97.1737 72.9528L95.7037 62.2241Z" fill="#BA68C8"/>
<path id="Vector_63" d="M102.837 167.722L102.792 166.964C103.151 167.836 104.769 171.597 106.996 173.391C108.763 174.821 111.161 176.457 111.845 178.126C112.529 179.795 108.803 180.69 107.219 180.502C105.378 180.291 102.957 179.397 101.578 177.898C100.609 176.844 99.9599 175.568 99.2648 174.736C98.5696 173.904 97.0256 173.027 96.6153 172.03C96.3931 171.488 96.547 170.258 96.7521 169.221C96.9572 168.184 97.2649 167.124 97.5896 167.192C97.576 167.416 97.5493 167.638 97.5099 167.859C98.3017 168.411 99.2596 168.672 100.222 168.6C101.003 168.582 102.883 168.315 102.837 167.722Z" fill="#263238"/>
<path id="Vector_64" d="M108.598 174.639C108.028 174.206 107.498 173.784 106.996 173.38C105.441 172.121 104.182 169.904 103.441 168.389V168.36C102.874 167.133 102.627 165.783 102.723 164.435L102.792 162.64L97.0939 162.754L97.5099 167.847V167.978H97.5384C97.8631 169.067 100.478 171.864 101.983 173.676C102.985 174.901 104.831 176.434 106.979 176.588C109.019 176.781 109.988 176.086 108.598 174.639Z" fill="#FFA8A7"/>
<path id="Vector_65" d="M71.0271 168.372C70.7536 168.212 70.3035 169.141 69.8306 169.847C69.323 170.726 69.0815 171.734 69.1355 172.747C69.2615 173.889 69.2019 175.043 68.9588 176.166C68.6398 178.058 68.0871 180.228 69.9901 181.972C71.6254 183.465 75.2719 184.16 76.4342 183.111C76.6704 182.919 76.8579 182.674 76.9817 182.396C77.1054 182.118 77.1618 181.814 77.1464 181.51C76.9132 180.685 76.5923 179.886 76.1892 179.129C75.7396 178.27 75.3364 177.387 74.9813 176.485L71.0271 168.372Z" fill="#263238"/>
<path id="Vector_66" d="M76.1664 165.17C75.9157 164.959 75.3744 171.956 75.2206 173.619C75.0667 175.283 75.3573 176.155 75.6308 177.927C75.767 178.345 75.7364 178.801 75.5453 179.197C75.4009 179.381 75.2153 179.528 75.0035 179.627C74.7918 179.726 74.5597 179.774 74.326 179.767C73.1181 179.767 72.1609 179.323 71.1467 178.177C70.6453 177.608 70.6112 176.098 70.6397 175.551C70.7222 174.634 70.7394 173.712 70.6909 172.793C70.5998 171.819 70.3149 170.674 70.4402 169.944C70.5474 169.379 70.7395 168.834 71.01 168.326C71.4715 167.272 71.7792 164.389 71.7792 164.389L76.1664 165.17Z" fill="#FFA8A7"/>
<path id="Vector_67" d="M78.5537 90.9917C75.5966 94.7921 75.0611 98.7121 75.7049 109.794C76.3487 120.876 75.4143 129.93 75.2491 130.551C75.0839 131.172 73.2093 137.291 72.3262 141.41C71.2949 146.236 71.1525 166.104 71.1525 166.104C71.1525 166.104 73.2549 167.244 76.5026 166.469C76.5026 166.469 84.3426 135.422 85.1744 132.921C86.0063 130.42 92.3022 104.621 92.3022 104.621L91.4988 89.7667L78.5537 90.9917Z" fill="#37474F"/>
<path id="Vector_68" d="M101.168 103.766C100.718 98.6379 99.618 89.7553 99.618 89.7553L86.5134 88.9861C84.3881 92.2964 85.3111 97.8004 85.8923 102.774L93.3904 132.129C93.2366 133.536 91.9432 136.516 93.3904 144.094C95.0029 152.538 96.98 163.7 96.98 163.7C96.98 163.7 100.057 164.953 102.883 163.762C102.883 163.762 103.965 137.029 103.276 129.73C102.518 121.805 101.475 107.276 101.168 103.766Z" fill="#37474F"/>
<path id="Vector_69" d="M90.0117 116.221L92.1483 105.452C94.0422 104.778 95.8406 103.86 97.4984 102.723C96.4394 104.062 95.1761 105.225 93.7551 106.17L90.0117 116.221Z" fill="#263238"/>
<path id="Vector_70" d="M79.3457 64.9135C77.8757 65.7624 75.4428 66.5373 74.4286 69.3975C73.0441 73.3859 69.3691 83.7442 67.9561 87.4648H74.7477L79.4483 77.8358C83.0834 74.7134 82.5934 66.0359 79.3457 64.9135Z" fill="#FFA8A7"/>
<path id="Vector_71" d="M98.7633 81.431C99.0881 84.4222 100.296 95.4871 100.296 95.4871C90.4105 100.757 78.1549 97.2648 76.2803 95.0939C77.9896 89.4988 79.8072 86.3138 81.2031 84.8382L79.4482 77.8357C79.4482 77.8357 83.5904 72.9072 79.3457 64.9134L84.8553 63.1016L92.399 62.4463L95.7037 62.2241C96.8831 63.3295 98.7405 67.2893 99.9484 70.3718C100.723 72.3603 101.561 75.5396 98.7633 81.431Z" fill="#F5F5F5"/>
<path id="Vector_72" d="M79.3457 64.9135C76.098 65.5516 74.6394 67.1469 73.3404 70.6909C71.9387 74.5254 70.2579 78.6676 70.2579 78.6676C71.1678 79.9825 72.4376 81.007 73.9151 81.6184C75.3925 82.2298 77.015 82.4021 78.5879 82.1147L80.6904 76.2518C80.6904 76.2518 83.5107 71.0783 79.3457 64.9135Z" fill="#BA68C8"/>
<path id="Vector_73" d="M80.3428 81.3569C80.4283 81.6988 82.7415 84.7755 83.8753 85.482C85.0092 86.1886 81.8698 87.1913 81.4254 88.9861C80.5308 92.5927 86.1202 97.2249 93.0657 97.8859C85.2086 99.1735 77.7276 96.7463 76.2975 95.094C78.0068 89.4989 79.8243 86.3139 81.2202 84.8382L80.3428 81.3569Z" fill="#E6E6E6"/>
<path id="Vector_74" d="M101.128 61.5234H90.5701C88.8729 61.5241 87.1922 61.1904 85.6241 60.5413C84.0559 59.8921 82.6311 58.9403 81.431 57.7402C80.2309 56.5401 79.2791 55.1153 78.6299 53.5471C77.9808 51.979 77.647 50.2983 77.6478 48.6011C77.6478 45.4882 78.8844 42.5028 81.0855 40.3016C83.2867 38.1005 86.2721 36.8639 89.385 36.8639C90.9268 36.8631 92.4537 37.1662 93.8784 37.7557C95.303 38.3452 96.5976 39.2096 97.6881 40.2996C98.7786 41.3896 99.6437 42.6837 100.234 44.1081C100.824 45.5325 101.128 47.0593 101.128 48.6011V61.5234Z" fill="#263238"/>
<path id="Vector_75" d="M96.9344 41.9747C98.1765 42.7097 99.7091 45.8263 99.5553 52.3673C99.4243 57.9054 97.6295 59.2785 96.7065 59.6717C95.7835 60.0648 94.0628 59.8255 92.3762 59.5406V62.8681C92.2714 63.5712 91.8924 64.2042 91.3222 64.6286C89.9433 65.489 88.3138 65.1642 87.3965 64.8338C85.3738 64.1045 84.975 63.1245 84.975 63.1245L85.0092 55.4725C85.0092 55.4725 84.0178 56.4411 82.3256 54.9654C80.9353 53.7461 80.4681 51.6949 81.5507 50.5896C81.8326 50.3275 82.1727 50.1363 82.5431 50.0316C82.9134 49.9269 83.3033 49.9118 83.6807 49.9875C84.058 50.0631 84.412 50.2275 84.7133 50.4669C85.0146 50.7063 85.2547 51.014 85.4137 51.3645C85.4137 51.3645 86.4051 51.4442 87.3965 49.5982C87.3965 49.5982 87.3623 44.5956 88.479 43.9461C92.0401 41.8836 94.5584 41.9747 96.9344 41.9747Z" fill="#FFA8A7"/>
<path id="Vector_76" d="M92.3934 50.6237C92.4003 50.7162 92.3888 50.8092 92.3596 50.8973C92.3303 50.9854 92.2839 51.0667 92.2229 51.1367C92.162 51.2067 92.0877 51.2638 92.0045 51.3049C91.9213 51.3459 91.8307 51.37 91.7381 51.3758C91.5941 51.3893 91.4493 51.3594 91.3225 51.2898C91.1957 51.2203 91.0926 51.1143 91.0266 50.9856C90.9606 50.8569 90.9346 50.7113 90.9522 50.5677C90.9697 50.4242 91.0298 50.2891 91.1249 50.18C91.2199 50.071 91.3454 49.9929 91.4852 49.9559C91.6251 49.9188 91.7728 49.9246 91.9093 49.9723C92.0459 50.0201 92.165 50.1077 92.2513 50.2238C92.3375 50.3399 92.387 50.4792 92.3934 50.6237Z" fill="#263238"/>
<g id="Group" style="mix-blend-mode:multiply" opacity="0.5">
<path id="Vector_77" d="M93.5557 55.6719L95.1738 56.1847C95.1439 56.2924 95.0925 56.3931 95.0227 56.4805C94.953 56.568 94.8663 56.6405 94.7679 56.6936C94.6695 56.7468 94.5614 56.7796 94.45 56.7901C94.3387 56.8005 94.2263 56.7884 94.1198 56.7544C93.9053 56.6801 93.7274 56.5266 93.6225 56.3253C93.5176 56.124 93.4937 55.8902 93.5557 55.6719Z" fill="#F28F8F"/>
</g>
<path id="Vector_78" d="M98.695 48.4529L97.2877 47.4786C97.3459 47.3831 97.4232 47.3007 97.5147 47.2364C97.6063 47.1721 97.71 47.1273 97.8196 47.1048C97.9292 47.0824 98.0422 47.0827 98.1516 47.1059C98.2611 47.129 98.3646 47.1744 98.4557 47.2393C98.6442 47.3718 98.7743 47.572 98.8189 47.7981C98.8635 48.0241 98.8191 48.2587 98.695 48.4529Z" fill="#263238"/>
<path id="Vector_79" d="M91.4248 48.1509L89.8237 48.7662C89.7777 48.6642 89.7532 48.5539 89.7517 48.442C89.7503 48.3301 89.7719 48.2191 89.8152 48.116C89.8585 48.0128 89.9225 47.9196 90.0034 47.8423C90.0843 47.765 90.1802 47.7052 90.2852 47.6666C90.5011 47.5862 90.7395 47.5916 90.9515 47.6817C91.1634 47.7718 91.3328 47.9397 91.4248 48.1509Z" fill="#263238"/>
<path id="Vector_80" d="M98.3132 50.4699C98.3153 50.6075 98.2768 50.7426 98.2026 50.8585C98.1284 50.9744 98.0217 51.0658 97.8958 51.1214C97.77 51.1771 97.6306 51.1944 97.4949 51.1713C97.3593 51.1483 97.2334 51.0857 97.133 50.9916C97.0327 50.8975 96.9623 50.7759 96.9305 50.642C96.8988 50.5081 96.9072 50.3678 96.9547 50.2387C97.0022 50.1095 97.0866 49.9972 97.1975 49.9157C97.3084 49.8343 97.4408 49.7872 97.5782 49.7805C97.7667 49.7759 97.9495 49.8456 98.087 49.9746C98.2245 50.1036 98.3058 50.2815 98.3132 50.4699Z" fill="#263238"/>
<g id="Group_2" style="mix-blend-mode:multiply" opacity="0.5">
<path id="Vector_81" d="M94.9687 50.071L95.0769 54.2645L97.2876 53.5808L94.9687 50.071Z" fill="#F28F8F"/>
</g>
<g id="Group_3" style="mix-blend-mode:multiply" opacity="0.5">
<path id="Vector_82" d="M92.3991 59.5463C90.6157 59.3127 86.9464 58.2643 86.3766 56.8114C86.6046 57.5467 87.0544 58.1935 87.6643 58.6631C88.7582 59.6033 92.3991 60.6573 92.3991 60.6573V59.5463Z" fill="#F28F8F"/>
</g>
<path id="Vector_83" d="M87.6871 37.4906L87.4193 34.4139C87.6207 34.3835 87.8263 34.3947 88.0233 34.4468C88.2202 34.4989 88.4044 34.5908 88.5646 34.7167C88.7247 34.8427 88.8573 35.0001 88.9543 35.1793C89.0513 35.3584 89.1106 35.5556 89.1286 35.7585C89.1591 36.1776 89.026 36.5923 88.7572 36.9153C88.4884 37.2383 88.1048 37.4445 87.6871 37.4906Z" fill="#263238"/>
<path id="Vector_84" d="M87.5219 37.7983L85.032 35.9751C85.1435 35.8053 85.2883 35.66 85.4576 35.5479C85.627 35.4358 85.8174 35.3594 86.0172 35.3231C86.217 35.2869 86.4221 35.2916 86.6201 35.3371C86.818 35.3826 87.0046 35.4678 87.1686 35.5876C87.4999 35.8404 87.7213 36.2109 87.7871 36.6224C87.8528 37.0339 87.7579 37.4549 87.5219 37.7983Z" fill="#263238"/>
<path id="Vector_85" d="M85.4365 51.3531V54.2646C85.9624 54.2646 86.4667 54.0557 86.8385 53.6838C87.2104 53.312 87.4193 52.8077 87.4193 52.2818V49.5868L85.4365 51.3531Z" fill="#263238"/>
<path id="Vector_86" d="M93.3677 37.5532C95.9819 37.5532 98.4891 38.5917 100.338 40.4403C102.186 42.2888 103.225 44.796 103.225 47.4102V48.6865H98.4044C97.319 48.6869 96.2701 48.294 95.452 47.5807C94.6339 46.8673 94.1019 45.8817 93.9545 44.8063L93.7779 48.6865C92.8858 48.6871 92.0258 48.3533 91.3677 47.7511C90.7095 47.1488 90.3009 46.3218 90.2226 45.4331L90.1656 44.795C90.0811 45.854 89.601 46.8424 88.8208 47.5635C88.0405 48.2846 87.0174 48.6855 85.955 48.6865H85.522L85.032 41.7239L93.3677 37.5532Z" fill="#263238"/>
<path id="Vector_87" d="M160.366 175.391V174.639C160.064 175.534 158.657 179.385 156.555 181.311C154.874 182.844 152.566 184.616 151.997 186.325C151.427 188.034 155.187 188.701 156.76 188.422C158.583 188.103 160.948 187.066 162.23 185.488C163.136 184.376 163.711 183.06 164.355 182.189C164.999 181.317 166.486 180.337 166.833 179.34C167.027 178.77 166.799 177.568 166.531 176.542C166.264 175.517 166.019 174.565 165.694 174.651V175.22C164.935 175.819 163.993 176.137 163.027 176.121C162.252 176.143 160.361 175.99 160.366 175.391Z" fill="#263238"/>
<path id="Vector_88" d="M155.033 182.65C155.558 182.183 156.082 181.733 156.555 181.294C158.036 179.949 159.159 177.665 159.808 176.103C160.178 175.215 160.372 174.263 160.378 173.3V170.263H165.705V175.209V175.34H165.677C165.42 176.445 162.976 179.397 161.586 181.317C160.657 182.604 158.885 184.24 156.771 184.525C154.754 184.804 153.734 184.171 155.033 182.65Z" fill="#B16668"/>
<path id="Vector_89" d="M139.576 170.138V169.375C139.279 170.269 137.866 174.121 135.77 176.046C134.089 177.579 131.781 179.351 131.212 181.06C130.642 182.77 134.402 183.436 135.975 183.157C137.798 182.832 140.157 181.801 141.445 180.223C142.345 179.112 142.92 177.796 143.57 176.924C144.219 176.052 145.701 175.072 146.048 174.075C146.242 173.505 146.014 172.303 145.746 171.278C145.496 170.337 145.228 169.3 144.909 169.386V169.956C144.15 170.554 143.208 170.872 142.242 170.856C141.462 170.89 139.57 170.736 139.576 170.138Z" fill="#263238"/>
<path id="Vector_90" d="M134.248 177.397C134.767 176.93 135.291 176.479 135.77 176.041C137.245 174.696 138.374 172.411 139.017 170.85C139.391 169.963 139.584 169.01 139.587 168.047V165.01H144.914V169.95V170.081H144.886C144.63 171.186 142.185 174.132 140.795 176.058C139.861 177.345 138.094 178.981 135.981 179.266C133.969 179.55 132.949 178.918 134.248 177.397Z" fill="#B16668"/>
<path id="Vector_91" d="M164.634 92.5927C168.765 101.618 164.486 133.405 164.486 133.405C164.611 134.869 166.281 137.752 166.907 144.196C167.642 151.809 165.768 170.93 165.768 170.93C164.956 171.401 164.041 171.667 163.103 171.705C162.164 171.743 161.231 171.551 160.384 171.146C160.384 171.146 155.284 142.322 154.333 134.755C153.495 128.152 151.9 113.623 151.9 113.623L147.342 134.704C148.003 136.834 148.484 139.017 148.777 141.228C149.21 145.684 144.897 166.417 144.897 166.417C144.897 166.417 143.057 167.09 139.564 166.577C139.564 166.577 138.043 139.057 137.638 133.696C136.96 124.682 139.348 96.5697 141.006 91.2367L164.634 92.5927Z" fill="#37474F"/>
<path id="Vector_92" d="M151.9 113.617L150.555 105.236C150.555 105.236 144.857 104.056 142.311 101.641C142.311 101.641 145.006 104.997 149.017 106.096L150.527 112.535L147.894 132.072L151.9 113.617Z" fill="#263238"/>
<path id="Vector_93" d="M149.119 60.9763C147.835 60.7644 146.517 60.9157 145.314 61.413C144.111 61.9104 143.07 62.734 142.311 63.791C140.516 66.1783 133.61 86.2626 133.61 86.2626H139.826L148.333 69.4317L149.119 60.9763Z" fill="#B16668"/>
<path id="Vector_94" d="M157.347 61.2214C162.646 61.586 163.016 64.1443 164.338 66.919C165.316 69.0767 165.406 71.5327 164.588 73.7562L160.902 84.4336C160.902 84.4336 162.611 88.61 164.634 92.5585C155.37 97.7263 143.803 95.0085 141.017 91.2367C140.903 90.439 141.587 84.183 142.06 80.0977C140.425 76.0011 139.997 73.4087 140.687 70.7023C141.963 65.6826 146.92 60.7883 149.119 60.965L157.347 61.2214Z" fill="#F5F5F5"/>
<path id="Vector_95" d="M154.976 93.5727C155.704 93.4059 156.391 93.0953 156.996 92.6591C157.602 92.2229 158.114 91.67 158.502 91.0329C158.891 90.3958 159.148 89.6874 159.259 88.9494C159.37 88.2113 159.332 87.4586 159.147 86.7355C159.124 86.636 159.091 86.5387 159.05 86.445C158.924 86.0566 158.67 85.7222 158.33 85.4958C157.989 85.2694 157.583 85.1642 157.176 85.1972C157.771 84.8047 158.282 84.2979 158.679 83.7061C159.076 83.1143 159.351 82.4494 159.489 81.7501L160.629 76.1037C160.629 76.1037 158.538 69.4716 158.748 67.1982L164.064 67.5059L164.754 67.9845C165.318 69.8738 165.265 71.8941 164.6 73.7506L160.913 84.428C160.913 84.428 162.623 88.6044 164.645 92.5529C161.632 94.1738 158.305 95.1296 154.891 95.3557C151.476 95.5817 148.053 95.0728 144.852 93.8633C148.215 94.4057 151.65 94.3071 154.976 93.5727Z" fill="#E6E6E6"/>
<path id="Vector_96" d="M176.85 87.6985C176.85 87.6985 171.591 77.3515 168.115 69.4317C165.608 63.7341 165.044 62.4236 161.05 61.8026L159.643 61.5861C157.751 67.8022 159.073 70.6226 161.546 74.8787L170.201 91.288C172.161 90.8835 176.89 88.291 176.85 87.6985Z" fill="#B16668"/>
<path id="Vector_97" d="M155.147 56.8285H151.393C148.744 56.8285 146.203 55.7762 144.33 53.9031C142.457 52.03 141.405 49.4895 141.405 46.8405V45.1654C141.405 42.5013 142.463 39.9463 144.347 38.0625C146.231 36.1787 148.786 35.1204 151.45 35.1204H155.062C157.726 35.1204 160.281 36.1787 162.165 38.0625C164.049 39.9463 165.107 42.5013 165.107 45.1654V46.8405C165.107 49.4895 164.055 52.03 162.182 53.9031C160.308 55.7762 157.768 56.8285 155.119 56.8285H155.147Z" fill="#263238"/>
<path id="Vector_98" d="M145.325 39.9121C144.071 40.6528 142.521 43.8036 142.675 50.4072C142.806 56.0023 144.618 57.3811 145.524 57.78C146.43 58.1788 148.191 57.9338 149.9 57.6546V61.0106C149.9 61.0106 147.535 63.7511 147.689 65.2895C147.843 66.8279 151.108 67.1925 153.301 65.6883C154.734 64.6588 155.963 63.3721 156.925 61.8937V53.7802C156.925 53.7802 158.065 55.3186 159.962 54.0651C161.859 52.8116 161.922 49.7178 160.828 48.601C159.734 47.4843 157.364 47.8433 156.925 49.3816C156.925 49.3816 154.202 49.4785 150.578 47.4843C149.168 46.7252 147.957 45.6437 147.044 44.3278C146.131 43.0119 145.542 41.4989 145.325 39.9121Z" fill="#B16668"/>
<path id="Vector_99" d="M149.547 48.9999C149.545 49.1386 149.583 49.2749 149.658 49.3917C149.733 49.5085 149.841 49.6007 149.967 49.6567C150.094 49.7128 150.235 49.7303 150.372 49.707C150.508 49.6837 150.635 49.6206 150.736 49.5257C150.838 49.4307 150.909 49.3081 150.941 49.1731C150.972 49.0381 150.964 48.8967 150.916 48.7665C150.868 48.6363 150.783 48.5231 150.671 48.441C150.559 48.3589 150.426 48.3115 150.287 48.3048C150.193 48.3018 150.099 48.3174 150.011 48.3506C149.922 48.3839 149.842 48.4343 149.773 48.4989C149.704 48.5634 149.649 48.6409 149.61 48.7269C149.571 48.8129 149.55 48.9056 149.547 48.9999Z" fill="#263238"/>
<path id="Vector_100" d="M148.732 53.7404L147.102 54.2645C147.133 54.3725 147.185 54.4733 147.255 54.5608C147.325 54.6483 147.413 54.7207 147.512 54.7739C147.61 54.827 147.719 54.8598 147.831 54.8701C147.942 54.8805 148.055 54.8683 148.162 54.8343C148.378 54.7576 148.556 54.6022 148.662 54.3993C148.768 54.1964 148.793 53.9609 148.732 53.7404Z" fill="#9A4A4D"/>
<path id="Vector_101" d="M143.775 46.8404L145.199 45.8491C145.139 45.7537 145.06 45.6715 144.967 45.6075C144.874 45.5435 144.768 45.499 144.658 45.4767C144.547 45.4543 144.433 45.4546 144.322 45.4774C144.212 45.5003 144.107 45.5453 144.014 45.6097C143.823 45.7445 143.692 45.9477 143.647 46.177C143.603 46.4063 143.648 46.644 143.775 46.8404Z" fill="#263238"/>
<path id="Vector_102" d="M144.105 48.4928C144.104 48.6313 144.144 48.767 144.22 48.883C144.295 48.9991 144.403 49.0904 144.53 49.1456C144.657 49.2008 144.798 49.2175 144.934 49.1935C145.07 49.1695 145.197 49.106 145.297 49.0109C145.398 48.9157 145.468 48.793 145.5 48.6582C145.531 48.5233 145.522 48.3822 145.474 48.2523C145.426 48.1224 145.341 48.0096 145.229 47.9277C145.118 47.8459 144.984 47.7987 144.846 47.792C144.656 47.7888 144.471 47.8604 144.333 47.9914C144.194 48.1224 144.113 48.3023 144.105 48.4928Z" fill="#263238"/>
<path id="Vector_103" d="M147.547 48.0883L147.433 52.3216L145.205 51.6322L147.547 48.0883Z" fill="#9A4A4D"/>
<path id="Vector_104" d="M149.906 57.6546C151.7 57.4153 155.404 56.3498 155.979 54.8912C155.751 55.6309 155.299 56.2818 154.686 56.7544C153.581 57.7059 149.906 58.7713 149.906 58.7713V57.6546Z" fill="#9A4A4D"/>
<path id="Vector_105" d="M163.66 36.3909C161.346 37.3538 161.865 39.3366 162.834 41.6499C163.802 43.9631 164.856 45.7237 167.135 44.7323C167.747 44.5488 168.314 44.2387 168.798 43.8222C169.282 43.4057 169.674 42.892 169.947 42.3145C170.22 41.737 170.368 41.1086 170.383 40.47C170.397 39.8314 170.277 39.1968 170.031 38.6075C169.784 38.0182 169.417 37.4873 168.952 37.0492C168.487 36.6111 167.935 36.2756 167.332 36.0644C166.73 35.8533 166.089 35.7712 165.452 35.8235C164.816 35.8759 164.197 36.0614 163.637 36.3681L163.66 36.3909Z" fill="#263238"/>
<path id="Vector_106" d="M161.626 38.4649L160.817 34.6076C161.064 34.5452 161.322 34.5332 161.575 34.5723C161.827 34.6114 162.069 34.7008 162.287 34.8353C162.504 34.9697 162.692 35.1464 162.84 35.3549C162.988 35.5634 163.092 35.7995 163.147 36.0491C163.254 36.5702 163.155 37.1125 162.872 37.5627C162.588 38.0129 162.142 38.3361 161.626 38.4649Z" fill="#263238"/>
<path id="Vector_107" d="M180.61 86.2626H59.8483V113.913H180.61V86.2626Z" fill="#BA68C8"/>
<path id="Vector_108" d="M76.2747 106.467C76.1702 106.37 76.0951 106.245 76.0581 106.108L73.1238 96.581C73.1136 96.5226 73.1136 96.4629 73.1238 96.4044C73.1238 96.2164 73.2378 96.1252 73.4714 96.1252H75.1465C75.2742 96.1118 75.4027 96.1419 75.5112 96.2107C75.5967 96.2899 75.6513 96.3969 75.665 96.5127L77.5566 103.162L79.7046 97.4642C79.7457 97.3456 79.814 97.2383 79.9041 97.1508C80.0034 97.0755 80.1277 97.0409 80.2516 97.054H81.186C81.3045 97.0439 81.4229 97.074 81.5222 97.1394C81.6069 97.2324 81.6693 97.3435 81.7045 97.4642L83.8355 103.162L85.7442 96.5127C85.7725 96.4019 85.8251 96.2988 85.898 96.2107C86.008 96.1407 86.1388 96.1105 86.2684 96.1252H87.9378C88.1714 96.1252 88.2853 96.2164 88.2853 96.4044C88.2924 96.4631 88.2924 96.5224 88.2853 96.581L85.3055 106.096C85.2749 106.237 85.2036 106.366 85.1003 106.467C84.9846 106.533 84.8515 106.563 84.7186 106.552H83.3796C83.256 106.561 83.133 106.527 83.0321 106.455C82.9373 106.351 82.8638 106.229 82.8156 106.096L80.6448 100.25L78.4683 106.096C78.4211 106.232 78.343 106.355 78.2403 106.455C78.1349 106.527 78.0085 106.561 77.8814 106.552H76.645C76.516 106.559 76.3877 106.529 76.2747 106.467Z" fill="white"/>
<path id="Vector_109" d="M91.5501 106.313C90.6615 105.949 89.9017 105.328 89.3679 104.529C88.7966 103.633 88.5123 102.583 88.5531 101.521C88.5531 99.6521 89.0526 98.2334 90.0516 97.2648C91.0487 96.2962 92.4674 95.8062 94.3078 95.8062C96.1481 95.8062 97.5156 96.2791 98.45 97.2192C99.3844 98.1593 99.8516 99.4982 99.8516 101.304C99.8516 101.811 99.618 102.068 99.1565 102.068H91.1798C91.1581 102.489 91.2379 102.909 91.4125 103.293C91.587 103.676 91.8511 104.012 92.1825 104.273C92.9984 104.831 93.9765 105.101 94.963 105.042C96.0413 105.058 97.1047 104.789 98.0454 104.261C98.1173 104.213 98.1991 104.182 98.2847 104.17C98.3873 104.17 98.4671 104.239 98.524 104.37L99.0482 105.304C99.0864 105.378 99.1078 105.46 99.1109 105.543C99.1047 105.603 99.0837 105.659 99.0498 105.708C99.016 105.757 98.9703 105.796 98.9172 105.823C98.3201 106.187 97.6706 106.458 96.9914 106.626C96.2134 106.812 95.4152 106.9 94.6155 106.888C93.5655 106.903 92.5232 106.707 91.5501 106.313ZM97.3275 100.455C97.349 100.073 97.2941 99.6901 97.166 99.3291C97.0378 98.9681 96.839 98.6363 96.5811 98.353C96.2768 98.0807 95.9205 97.8727 95.5338 97.7415C95.1471 97.6103 94.7378 97.5586 94.3306 97.5895C93.4798 97.5341 92.6411 97.8144 91.9945 98.3701C91.7213 98.642 91.5078 98.9679 91.3675 99.3269C91.2272 99.686 91.1633 100.07 91.1798 100.455H97.3275Z" fill="white"/>
<path id="Vector_110" d="M102.182 106.37C102.05 106.21 101.983 106.007 101.994 105.8V92.5927C101.976 92.3729 102.043 92.1547 102.182 91.9831C102.266 91.91 102.363 91.8551 102.469 91.8217C102.575 91.7884 102.687 91.7774 102.797 91.7894H103.937C104.165 91.7677 104.392 91.8374 104.569 91.9831C104.64 92.0669 104.694 92.1639 104.727 92.2685C104.76 92.3732 104.773 92.4834 104.763 92.5927V105.783C104.776 105.989 104.71 106.192 104.581 106.353C104.4 106.499 104.169 106.569 103.937 106.546H102.797C102.688 106.559 102.577 106.55 102.472 106.52C102.366 106.49 102.268 106.439 102.182 106.37Z" fill="white"/>
<path id="Vector_111" d="M108.506 105.464C107.952 104.947 107.52 104.313 107.24 103.608C106.96 102.904 106.84 102.146 106.888 101.39C106.867 100.37 107.123 99.3639 107.629 98.4784C108.129 97.6327 108.863 96.9499 109.743 96.5127C110.749 96.025 111.856 95.7829 112.973 95.8062C113.756 95.793 114.538 95.8811 115.298 96.0683C115.936 96.2431 116.538 96.5306 117.076 96.9173C117.13 96.9435 117.176 96.9827 117.211 97.0315C117.246 97.0803 117.268 97.137 117.275 97.1965C117.266 97.3066 117.229 97.4126 117.167 97.5041L116.597 98.524C116.506 98.6665 116.426 98.7405 116.358 98.7405C116.244 98.7286 116.137 98.683 116.05 98.6095C115.632 98.3509 115.185 98.1442 114.717 97.9941C114.205 97.8431 113.672 97.772 113.139 97.7833C112.667 97.7592 112.197 97.8327 111.755 97.9994C111.314 98.1661 110.912 98.4223 110.575 98.7519C110.253 99.1084 110.005 99.525 109.844 99.9777C109.684 100.43 109.615 100.91 109.64 101.39C109.604 101.871 109.668 102.355 109.829 102.81C109.99 103.265 110.244 103.682 110.575 104.034C111.341 104.668 112.323 104.982 113.315 104.911C114.344 104.941 115.355 104.644 116.204 104.062C116.288 104.003 116.386 103.966 116.489 103.954C116.574 103.954 116.66 104.028 116.745 104.17L117.378 105.236C117.432 105.304 117.462 105.388 117.463 105.475C117.463 105.578 117.389 105.68 117.247 105.783C116.672 106.157 116.041 106.438 115.378 106.615C114.611 106.809 113.821 106.901 113.03 106.888C111.093 106.888 109.585 106.413 108.506 105.464Z" fill="white"/>
<path id="Vector_112" d="M120.694 105.401C119.706 104.283 119.161 102.842 119.161 101.35C119.161 99.8579 119.706 98.4172 120.694 97.2989C121.714 96.3075 123.166 95.8062 125.052 95.8062C126.938 95.8062 128.391 96.3075 129.417 97.2989C130.411 98.4139 130.961 99.8558 130.961 101.35C130.961 102.844 130.411 104.286 129.417 105.401C128.391 106.392 126.933 106.888 125.052 106.888C123.172 106.888 121.714 106.392 120.694 105.401ZM127.394 103.954C127.983 103.219 128.272 102.289 128.203 101.35C128.271 100.42 127.982 99.4988 127.394 98.7746C126.748 98.2054 125.916 97.8913 125.055 97.8913C124.194 97.8913 123.362 98.2054 122.716 98.7746C122.125 99.4969 121.833 100.419 121.902 101.35C121.836 102.286 122.127 103.212 122.716 103.942C123.357 104.522 124.191 104.843 125.055 104.843C125.92 104.843 126.753 104.522 127.394 103.942V103.954Z" fill="white"/>
<path id="Vector_113" d="M133.285 106.37C133.147 106.213 133.076 106.009 133.086 105.8V96.7406C133.071 96.5783 133.112 96.4159 133.2 96.2791C133.268 96.1936 133.422 96.1537 133.656 96.1537H134.795C134.919 96.1412 135.043 96.1758 135.143 96.2506C135.225 96.3439 135.271 96.4628 135.274 96.5868L135.337 97.4984C135.727 96.989 136.22 96.5677 136.784 96.262C137.385 95.9568 138.053 95.806 138.727 95.8233C139.31 95.8092 139.886 95.9571 140.39 96.2506C140.866 96.5373 141.23 96.9774 141.422 97.4984C141.81 96.9513 142.33 96.511 142.933 96.2182C143.537 95.9254 144.205 95.7896 144.875 95.8233C145.324 95.8013 145.774 95.873 146.195 96.0339C146.616 96.1947 146.998 96.4412 147.319 96.7577C147.97 97.5315 148.293 98.5293 148.219 99.5381V105.806C148.229 106.011 148.165 106.214 148.037 106.375C147.856 106.522 147.625 106.591 147.393 106.569H146.436C146.21 106.587 145.986 106.517 145.809 106.375C145.673 106.218 145.604 106.013 145.615 105.806V99.6749C145.664 99.159 145.511 98.6442 145.188 98.2391C145.016 98.0849 144.815 97.967 144.597 97.8926C144.379 97.8182 144.147 97.7888 143.917 97.8061C143.65 97.7942 143.384 97.8388 143.136 97.937C142.887 98.0352 142.662 98.1847 142.476 98.3758C142.086 98.8087 141.881 99.3775 141.906 99.9598V105.766C141.918 105.974 141.848 106.178 141.712 106.335C141.534 106.478 141.308 106.548 141.08 106.529H140.191C139.965 106.549 139.74 106.48 139.564 106.335C139.426 106.179 139.355 105.974 139.365 105.766V99.5666C139.406 99.0913 139.272 98.6172 138.989 98.2334C138.83 98.0801 138.639 97.9627 138.431 97.889C138.223 97.8153 138.001 97.787 137.781 97.8061C137.498 97.7959 137.216 97.8461 136.954 97.9531C136.691 98.0602 136.455 98.2217 136.26 98.4271C135.863 98.8698 135.658 99.4517 135.69 100.045V105.783C135.7 105.989 135.635 106.191 135.508 106.353C135.327 106.499 135.095 106.568 134.864 106.546H133.907C133.685 106.568 133.463 106.505 133.285 106.37Z" fill="white"/>
<path id="Vector_114" d="M153.25 106.313C152.365 105.956 151.606 105.346 151.068 104.558C150.497 103.661 150.212 102.612 150.253 101.549C150.253 99.6806 150.753 98.2619 151.752 97.2933C152.749 96.3247 154.167 95.8347 156.008 95.8347C157.848 95.8347 159.216 96.3076 160.15 97.2477C161.084 98.1878 161.552 99.5268 161.552 101.333C161.552 101.84 161.318 102.096 160.856 102.096H152.891C152.87 102.517 152.949 102.937 153.124 103.321C153.298 103.705 153.562 104.041 153.894 104.301C154.709 104.86 155.688 105.131 156.674 105.071C157.753 105.086 158.816 104.817 159.757 104.29C159.829 104.242 159.91 104.211 159.996 104.199C160.099 104.199 160.178 104.267 160.235 104.398L160.76 105.333C160.798 105.407 160.819 105.489 160.822 105.572C160.816 105.631 160.795 105.688 160.761 105.736C160.727 105.785 160.682 105.825 160.629 105.851C160.032 106.216 159.382 106.487 158.703 106.655C157.925 106.84 157.127 106.928 156.327 106.917C155.271 106.924 154.225 106.719 153.25 106.313ZM159.028 100.456C159.049 100.073 158.994 99.6902 158.866 99.3292C158.738 98.9682 158.539 98.6364 158.281 98.3531C157.977 98.0811 157.62 97.8732 157.234 97.742C156.847 97.6109 156.438 97.559 156.031 97.5896C155.18 97.533 154.34 97.8133 153.695 98.3702C153.423 98.6431 153.212 98.9694 153.074 99.3284C152.935 99.6874 152.873 100.071 152.891 100.456H159.028Z" fill="white"/>
<path id="Vector_115" d="M163.244 105.697V105.236C163.244 104.632 163.671 104.324 164.526 104.324H165.096C165.95 104.324 166.378 104.632 166.378 105.236V105.697C166.378 106.29 165.95 106.586 165.096 106.586H164.526C163.671 106.571 163.244 106.275 163.244 105.697ZM163.711 102.279C163.587 102.105 163.529 101.893 163.546 101.681L163.42 92.5927C163.401 92.3737 163.466 92.1555 163.603 91.9831C163.688 91.9104 163.787 91.8558 163.893 91.8225C164 91.7892 164.113 91.7779 164.224 91.7894H165.426C165.537 91.7779 165.65 91.7892 165.756 91.8225C165.863 91.8558 165.962 91.9104 166.047 91.9831C166.184 92.1555 166.249 92.3737 166.229 92.5927L166.081 101.675C166.098 101.887 166.04 102.099 165.916 102.273C165.757 102.406 165.553 102.471 165.346 102.455H164.281C164.18 102.47 164.076 102.462 163.979 102.431C163.881 102.401 163.792 102.349 163.717 102.279H163.711Z" fill="white"/>
<path id="Vector_116" d="M59.8483 91.2538C59.495 92.2395 58.7087 92.7067 58.139 93.6867C57.5692 94.6667 57.3299 97.5953 57.9738 98.8146C58.4646 99.67 59.1542 100.395 59.9843 100.927C60.8144 101.46 61.7605 101.785 62.7427 101.874C63.5667 101.908 64.3802 101.681 65.0673 101.225C65.3874 101.01 65.6703 100.744 65.9049 100.438C66.1191 100.11 66.2806 99.7509 66.3835 99.373C66.3916 99.3429 66.4073 99.3155 66.4291 99.2932C66.4599 99.2735 66.4952 99.2618 66.5316 99.259C66.7812 99.2231 67.016 99.1185 67.2097 98.957C67.3062 98.8761 67.3838 98.775 67.437 98.6608C67.4901 98.5466 67.5176 98.4221 67.5173 98.2961C67.4983 98.1359 67.4414 97.9825 67.3512 97.8488C67.261 97.715 67.1402 97.6046 66.9989 97.5269C66.7109 97.3787 66.407 97.264 66.0929 97.1851C65.3351 96.9401 64.6343 96.5583 63.8936 96.2791C62.3926 95.7452 61.0147 94.9139 59.8426 93.8348L59.8483 91.2538Z" fill="#FFA8A7"/>
<path id="Vector_117" d="M180.616 92.1426C180.969 93.1397 181.756 93.6126 182.325 94.6097C182.895 95.6068 183.146 98.598 182.496 99.8116C181.998 100.681 181.298 101.416 180.455 101.957C179.612 102.498 178.651 102.827 177.653 102.917C176.861 102.972 176.072 102.768 175.405 102.337C174.739 101.905 174.23 101.269 173.955 100.524C173.437 98.7291 174.331 98.051 176.485 97.2363C178.01 96.6966 179.409 95.8535 180.599 94.7578L180.616 92.1426Z" fill="#B16668"/>
<path id="Vector_118" d="M127.821 83.8581C131.012 84.3766 131.929 86.2626 131.929 86.2626H129.32C129.32 86.2626 128.989 87.14 129.89 90.4275C130.197 91.5671 128.494 91.6127 128.442 91.1796C128.135 91.8862 125.89 92.8889 124.215 91.7494C122.676 90.7295 121.993 89.1684 122.335 86.2455C122.899 82.9921 127.252 83.767 127.821 83.8581Z" fill="#B16668"/>
</g>
</g>
</svg>
