<svg width="24" height="24" viewBox="0 0 24 24" fill="none" xmlns="http://www.w3.org/2000/svg">
<g id="vuesax/bulk/archive">
<g id="archive">
<path id="Vector" opacity="0.4" d="M16.82 2H7.18001C5.05001 2 3.32001 3.74 3.32001 5.86V19.95C3.32001 21.75 4.61001 22.51 6.19001 21.64L11.07 18.93C11.59 18.64 12.43 18.64 12.94 18.93L17.82 21.64C19.4 22.52 20.69 21.76 20.69 19.95V5.86C20.68 3.74 18.95 2 16.82 2Z" fill="#7A2D93"/>
<path id="Vector_2" d="M12 10.28C10.98 10.28 9.96 10.1 8.99 9.74999C8.6 9.60999 8.4 9.17999 8.54 8.78999C8.69 8.39999 9.12 8.19999 9.51 8.33999C11.12 8.91999 12.89 8.91999 14.5 8.33999C14.89 8.19999 15.32 8.39999 15.46 8.78999C15.6 9.17999 15.4 9.60999 15.01 9.74999C14.04 10.1 13.02 10.28 12 10.28Z" fill="#7A2D93"/>
</g>
</g>
</svg>
