<svg width="30" height="30" viewBox="0 0 30 30" fill="none" xmlns="http://www.w3.org/2000/svg">
<g id="vuesax/bulk/copy">
<g id="copy">
<path id="Vector" d="M20 16.125V21.375C20 25.75 18.25 27.5 13.875 27.5H8.625C4.25 27.5 2.5 25.75 2.5 21.375V16.125C2.5 11.75 4.25 10 8.625 10H13.875C18.25 10 20 11.75 20 16.125Z" fill="#7A2D93"/>
<path id="Vector_2" opacity="0.4" d="M21.3747 2.5H16.1247C11.8122 2.5 10.0622 4.2125 10.0122 8.4375H13.8747C19.1247 8.4375 21.5622 10.875 21.5622 16.125V19.9875C25.7872 19.9375 27.4997 18.1875 27.4997 13.875V8.625C27.4997 4.25 25.7497 2.5 21.3747 2.5Z" fill="#7A2D93"/>
</g>
</g>
</svg>
