<svg width="200" height="202" viewBox="0 0 200 202" fill="none" xmlns="http://www.w3.org/2000/svg">
<g id="Group 431">
<g id="done/pana">
<g id="background-complete">
<path id="Vector" d="M50.2172 1.16846H11.4189V41.5135H50.2172V1.16846Z" fill="#E0E0E0"/>
<path id="Vector_2" d="M47.5898 1.16846H8.79144V41.5135H47.5898V1.16846Z" fill="#EBEBEB"/>
<path id="Vector_3" d="M42.3762 6.59277H14.0097V36.0892H42.3762V6.59277Z" fill="#FAFAFA"/>
<path id="Vector_4" d="M14.0098 36.285C13.8011 36.5823 13.5639 36.8586 13.3016 37.1101C12.8447 37.5659 12.2049 38.2268 11.4739 38.9334C10.7428 39.6399 10.103 40.2644 9.64611 40.7065C9.39897 40.9623 9.12818 41.1943 8.83734 41.3994C9.03787 41.1011 9.26912 40.8246 9.52731 40.5743C9.98425 40.1185 10.624 39.453 11.3551 38.751C12.0861 38.0491 12.7259 37.42 13.2056 36.9733C13.4477 36.7152 13.7173 36.4844 14.0098 36.285Z" fill="#E0E0E0"/>
<path id="Vector_5" d="M42.3759 36.1985C42.666 36.4079 42.9353 36.6445 43.1801 36.905C43.6371 37.3608 44.2996 37.999 45.0079 38.7283C45.7161 39.4576 46.3375 40.0958 46.7853 40.5516C47.0431 40.7969 47.2757 41.0672 47.4799 41.3584C47.1876 41.1536 46.918 40.9183 46.6757 40.6564C46.2187 40.2006 45.5562 39.5625 44.8479 38.8331C44.1397 38.1038 43.5183 37.4657 43.0705 37.0099C42.8109 36.7646 42.5781 36.4926 42.3759 36.1985Z" fill="#E0E0E0"/>
<path id="Vector_6" d="M42.2983 6.67029C42.5064 6.37956 42.7437 6.11075 43.0065 5.86804C43.4635 5.41222 44.0986 4.75127 44.8114 4.04474C45.5242 3.33822 46.1822 2.71374 46.662 2.27159C46.91 2.01492 47.1824 1.78288 47.4753 1.57874C47.2663 1.86734 47.029 2.13455 46.7671 2.37643C46.3102 2.83225 45.675 3.49776 44.9394 4.19972C44.2037 4.90169 43.5686 5.53073 43.0842 5.97744C42.8464 6.23427 42.583 6.4664 42.2983 6.67029Z" fill="#E0E0E0"/>
<path id="Vector_7" d="M13.932 6.74318C13.642 6.53381 13.3727 6.29722 13.1278 6.03665C12.6709 5.58083 12.0038 4.94268 11.3001 4.21336C10.5964 3.48404 9.96583 2.84589 9.51803 2.39006C9.26073 2.14561 9.02951 1.87523 8.82806 1.58325C9.11701 1.79055 9.38485 2.02567 9.6277 2.28522C10.0846 2.74104 10.7518 3.3792 11.4554 4.10852C12.1591 4.83784 12.7897 5.47599 13.2375 5.93181C13.497 6.17709 13.7298 6.44906 13.932 6.74318Z" fill="#E0E0E0"/>
<path id="Vector_8" d="M42.2982 36.0892C42.2982 36.0892 42.2982 36.039 42.2982 35.9478C42.2982 35.8567 42.2982 35.7108 42.2982 35.5376C42.2982 35.1684 42.2982 34.626 42.2982 33.9468C42.2982 32.552 42.2982 30.519 42.2982 27.9345C42.2982 22.77 42.2708 15.4084 42.248 6.59277L42.3439 6.68394H14.0551L14.1602 6.5791C14.1602 17.4049 14.1602 27.547 14.1602 36.0755L14.0688 35.9843L34.5577 36.0299L40.306 36.0572H41.8276H40.3288H34.5943L14.0322 36.1028H13.9409V36.0117C13.9409 27.4695 13.9409 17.3229 13.9409 6.51528V6.40588H14.0505H42.3393H42.4307V6.50161C42.4307 15.34 42.3942 22.7244 42.385 27.9253C42.385 30.5007 42.385 32.5246 42.3576 33.9149C42.3576 34.5986 42.3576 35.1274 42.3576 35.4875C42.3576 35.6607 42.3576 35.7929 42.3576 35.8886C42.3576 35.9843 42.2982 36.0892 42.2982 36.0892Z" fill="#E0E0E0"/>
<path id="Vector_9" d="M21.4941 18.9137C21.4941 18.9137 20.8864 26.2069 28.8051 26.2069C28.8142 22.3187 25.5928 19.2419 21.4941 18.9137Z" fill="#EBEBEB"/>
<path id="Vector_10" d="M36.0018 18.9182C36.0018 18.9182 28.6909 18.312 28.6909 26.2114C32.5885 26.2251 35.6728 23.0069 36.0018 18.9182Z" fill="#EBEBEB"/>
<path id="Vector_11" d="M28.4623 14.9207C28.4623 14.9207 22.4811 20.2766 28.7913 26.216C31.7249 23.1164 31.4598 18.2527 28.4623 14.9207Z" fill="#E0E0E0"/>
<path id="Vector_12" d="M150.108 148.905C147.693 147.4 144.966 146.465 142.134 146.171C140.832 146.038 139.393 146.075 138.36 146.863C138.24 146.934 138.141 147.035 138.073 147.156C138.005 147.276 137.97 147.413 137.972 147.552C138.037 147.743 138.168 147.904 138.342 148.007C141.586 150.474 146.494 150.788 150.108 148.896" fill="#E0E0E0"/>
<path id="Vector_13" d="M149.902 148.678C148.055 147.326 146.332 145.815 144.752 144.161C143.166 142.495 142.052 140.439 141.522 138.203C141.385 137.524 141.344 136.749 141.778 136.211C145.89 139.402 149.089 143.545 149.902 148.678Z" fill="#E0E0E0"/>
<path id="Vector_14" d="M150.066 148.874C149.685 146.638 149.716 144.352 150.158 142.128C150.674 139.926 151.876 137.82 153.763 136.562C154.471 138.217 154.165 140.122 153.667 141.85C152.893 144.528 151.686 147.062 150.094 149.352" fill="#E0E0E0"/>
<path id="Vector_15" d="M154.087 156.08C151.647 156.377 149.518 157.662 147.69 159.308C145.859 160.974 144.583 163.16 144.035 165.571C146.434 165.425 148.467 163.747 149.938 161.851C151.41 159.955 152.438 157.885 154.051 156.117" fill="#E0E0E0"/>
<path id="Vector_16" d="M154.965 157.215C154.004 154.78 153.667 152.143 153.987 149.545C154.306 146.947 155.27 144.469 156.792 142.337C158.186 147.274 157.674 152.853 154.965 157.215Z" fill="#E0E0E0"/>
<path id="Vector_17" d="M160.279 163.533C158.046 163.394 155.821 163.914 153.883 165.028C151.944 166.141 150.377 167.8 149.376 169.796C149.239 170.065 149.121 170.407 149.303 170.648C149.397 170.739 149.512 170.806 149.638 170.843C149.764 170.879 149.897 170.885 150.025 170.858C152.173 170.721 154.078 169.431 155.65 167.964C157.222 166.496 158.593 164.796 160.329 163.528" fill="#E0E0E0"/>
<path id="Vector_18" d="M160.11 163.191C158.966 159.514 158.896 155.588 159.909 151.873C160.306 150.414 160.978 148.883 162.33 148.199C162.384 148.163 162.445 148.139 162.509 148.128C162.572 148.117 162.638 148.119 162.701 148.135C162.809 148.193 162.893 148.289 162.934 148.404C163.386 149.423 163.582 150.538 163.505 151.65C163.424 152.757 163.252 153.856 162.993 154.936C162.568 156.946 162.344 159.107 161.238 160.839C160.976 161.255 160.741 161.688 160.535 162.134C160.325 162.589 160.325 162.731 160.133 163.082" fill="#E0E0E0"/>
<path id="Vector_19" d="M174.183 165.283C173.142 161.322 174.247 156.527 176.747 153.282C176.934 153.045 177.176 152.789 177.478 152.826C177.935 152.867 178.058 153.482 178.035 153.943C177.848 158.012 176.513 161.946 174.183 165.293" fill="#E0E0E0"/>
<path id="Vector_20" d="M175.454 166.145C180.274 167.399 185.803 166.182 189.81 163.232C187.408 162.031 184.664 161.696 182.043 162.284C179.447 162.877 177.076 164.035 175.458 166.145" fill="#E0E0E0"/>
<path id="Vector_21" d="M176.523 163.51C179.223 159.121 184.396 156.258 189.555 155.998C188.961 158.091 187.233 159.713 185.291 160.698C183.349 161.682 181.179 162.106 179.036 162.521C178.204 162.681 177.062 162.858 176.523 163.51Z" fill="#E0E0E0"/>
<path id="Vector_22" d="M174.453 150.729C175.184 148.231 175.92 145.715 176.121 143.117C176.322 140.518 175.947 137.815 174.599 135.586C172.077 140.455 171.826 146.139 174.375 150.989" fill="#E0E0E0"/>
<path id="Vector_23" d="M182.943 146.449C185.89 141.102 191.903 136.835 197.99 136.234C195.641 142.068 189.239 146.572 182.943 146.449Z" fill="#E0E0E0"/>
<path id="Vector_24" d="M181.088 147.497C185.484 148.163 189.23 150.966 193.338 152.662C194.198 153.078 195.154 153.26 196.107 153.19C196.552 153.188 196.985 153.049 197.348 152.793C197.711 152.536 197.986 152.175 198.136 151.757C198.285 151.339 198.303 150.886 198.185 150.458C198.067 150.03 197.821 149.649 197.478 149.366C196.896 148.831 196.212 148.417 195.468 148.149C190.99 146.289 186.192 146.244 181.476 147.369" fill="#E0E0E0"/>
<path id="Vector_25" d="M178.542 150.574C179.539 150.857 179.877 151.372 180.667 152.042C183.355 154.321 186.534 155.949 189.957 156.801C190.313 156.887 190.775 156.924 190.953 156.605C191.131 156.286 190.912 155.985 190.711 155.739C189.218 153.991 187.282 152.678 185.104 151.937C182.956 151.144 181.101 150.182 178.542 150.387" fill="#E0E0E0"/>
<path id="Vector_26" d="M175.668 131.99C177.473 133.646 179.605 134.907 181.927 135.692C184.249 136.477 186.711 136.769 189.153 136.548C189.377 136.553 189.595 136.475 189.765 136.33C190.103 135.96 189.696 135.391 189.308 135.085C185.342 132.004 180.544 130.723 175.673 131.972" fill="#E0E0E0"/>
<path id="Vector_27" d="M179.073 130.75C181.459 128.997 184.228 127.832 187.152 127.351C190.076 126.869 193.072 127.084 195.897 127.979C193.777 130.062 190.839 131.169 187.878 131.489C184.922 131.759 181.942 131.509 179.073 130.75Z" fill="#E0E0E0"/>
<path id="Vector_28" d="M177.72 122.213C177.332 118.265 177.583 115.152 177.309 111.186C177.309 110.867 177.222 110.489 176.925 110.375C176.509 110.215 176.167 110.721 176.011 111.141C175.435 112.979 175.287 114.924 175.58 116.828C175.872 118.732 176.596 120.544 177.697 122.126" fill="#E0E0E0"/>
<path id="Vector_29" d="M177.437 122.646C180.119 120.991 182.13 118.835 183.989 116.296C185.283 114.527 186.375 112.412 186.082 110.243C184.254 110.206 182.536 111.204 181.353 112.586C180.225 114.015 179.405 115.662 178.945 117.422C178.419 119.159 178.054 120.941 177.437 122.646Z" fill="#E0E0E0"/>
<path id="Vector_30" d="M183.875 120.863C189.773 118.684 195.234 115.472 200 111.378C198.076 110.603 195.887 111.068 193.946 111.833C189.545 113.607 185.949 116.597 183.792 120.809" fill="#E0E0E0"/>
<path id="Vector_31" d="M179.247 124.806C182.226 125.13 185.251 125.344 188.202 124.852C191.154 124.359 193.85 123.22 196.56 122.08C196.801 122.007 197.006 121.844 197.131 121.625C197.173 121.499 197.176 121.364 197.139 121.237C197.102 121.11 197.028 120.997 196.925 120.913C196.717 120.748 196.473 120.634 196.213 120.581C193.265 119.756 190.08 120.125 187.179 121.119C184.414 122.054 181.756 123.276 179.247 124.765" fill="#E0E0E0"/>
<path id="Vector_32" d="M162.248 132.127C160.219 128.024 160.352 123.265 162.102 119.049C163.34 120.927 163.473 123.316 163.262 125.554C163.052 127.792 162.348 130.085 162.312 132.332" fill="#E0E0E0"/>
<path id="Vector_33" d="M154.133 128.043C151.591 128.01 149.07 128.506 146.73 129.501C144.391 130.495 142.286 131.966 140.549 133.818C143.08 134.214 145.685 133.563 147.988 132.45C150.291 131.338 152.338 129.756 154.385 128.193" fill="#E0E0E0"/>
<path id="Vector_34" d="M148.682 126.224C146.201 126.023 143.811 125.718 141.426 126.447C139.04 127.176 136.856 128.831 135.901 131.124C138.242 131.311 140.59 130.869 142.7 129.843C144.798 128.817 146.8 127.606 148.682 126.224Z" fill="#E0E0E0"/>
<path id="Vector_35" d="M156.756 126.306C154.526 124.847 152.232 123.366 149.637 122.76C147.042 122.153 144.026 122.6 142.212 124.556C144.318 125.786 146.868 125.923 149.308 125.923C151.748 125.923 154.736 125.891 157.035 126.703" fill="#E0E0E0"/>
<path id="Vector_36" d="M156.77 126.424C152.954 122.686 151.51 115.972 153.046 110.867C156.056 115.466 157.373 120.965 156.77 126.424Z" fill="#E0E0E0"/>
<path id="Vector_37" d="M167.261 115.836C167.983 114.167 168.486 112.417 169.135 110.717C169.722 108.993 170.625 107.393 171.799 105.999C172.993 104.598 174.691 103.721 176.528 103.556C175.94 106.13 174.821 108.554 173.242 110.673C171.663 112.792 169.659 114.559 167.357 115.863" fill="#E0E0E0"/>
<path id="Vector_38" d="M165.365 118.042C164.172 116.41 162.797 114.19 161.184 112.968C159.571 111.747 157.464 111.008 155.495 111.478C156.516 113.262 157.939 114.784 159.653 115.923C161.366 117.062 163.322 117.788 165.365 118.042Z" fill="#E0E0E0"/>
<path id="Vector_39" d="M165.744 115.968C164.962 113.989 164.177 111.988 163.861 109.887C163.546 107.786 163.738 105.538 164.816 103.706C166.909 107.653 167.585 111.911 165.849 116.013" fill="#E0E0E0"/>
<path id="Vector_40" d="M167.279 103.711C168.467 99.7952 172.059 96.9098 175.938 95.5879C176.42 95.3932 176.942 95.3151 177.46 95.36C177.717 95.3899 177.961 95.4942 178.16 95.6603C178.358 95.8263 178.504 96.0467 178.579 96.2944C178.721 96.9599 178.168 97.5571 177.665 97.9992C174.631 100.582 171.105 102.525 167.298 103.711" fill="#E0E0E0"/>
<path id="Vector_41" d="M167.325 100.506C167.476 97.9854 167.631 95.4237 168.454 93.0306C169.276 90.6376 170.866 88.3949 173.174 87.3511C173.567 89.8991 172.438 92.4335 171.077 94.6443C169.715 96.855 168.079 98.9062 167.261 101.354" fill="#E0E0E0"/>
<path id="Vector_42" d="M167.261 102.247C166.283 99.3939 166.178 95.7701 164.469 93.2813C163.272 91.5446 161.353 90.3594 160.32 88.5225C159.697 90.2864 159.784 92.2225 160.562 93.924C161.34 95.6082 162.413 97.1408 163.729 98.4503C164.999 99.8178 166.082 100.816 167.261 102.247Z" fill="#E0E0E0"/>
<path id="Vector_43" d="M167.279 186.27C167.206 186.27 167.138 167.234 167.133 143.764C167.128 120.294 167.183 101.249 167.261 101.249C167.339 101.249 167.403 120.28 167.407 143.764C167.412 167.248 167.357 186.27 167.279 186.27Z" fill="#E0E0E0"/>
<path id="Vector_44" d="M183.953 129.255C183.723 129.367 183.483 129.457 183.236 129.524L181.262 130.19C179.598 130.755 177.309 131.557 174.828 132.587C172.347 133.617 170.053 134.493 168.733 135.632C168.207 136.072 167.788 136.625 167.508 137.25C167.321 137.706 167.289 137.97 167.261 137.966C167.25 137.9 167.25 137.832 167.261 137.765C167.291 137.576 167.338 137.39 167.403 137.209C167.652 136.546 168.061 135.954 168.595 135.486C169.392 134.815 170.284 134.263 171.241 133.85C172.297 133.358 173.471 132.842 174.714 132.332C177.204 131.315 179.512 130.509 181.193 130.003C182.034 129.743 182.719 129.547 183.199 129.419C183.445 129.341 183.697 129.286 183.953 129.255Z" fill="#E0E0E0"/>
<path id="Vector_45" d="M189.418 115.863C189.418 115.863 189.358 115.945 189.217 116.077L188.604 116.652L186.32 118.721L178.712 125.481C175.742 128.116 173.178 130.636 171.401 132.533C170.51 133.481 169.806 134.265 169.326 134.812C169.107 135.067 168.924 135.267 168.773 135.441C168.623 135.614 168.577 135.659 168.568 135.65C168.615 135.565 168.67 135.484 168.732 135.409C168.847 135.254 169.016 135.026 169.244 134.743C169.701 134.174 170.382 133.376 171.255 132.4C173.551 129.898 175.979 127.52 178.529 125.276C181.508 122.641 184.222 120.262 186.192 118.575L188.536 116.57L189.18 116.036C189.252 115.97 189.332 115.912 189.418 115.863Z" fill="#E0E0E0"/>
<path id="Vector_46" d="M175.509 128.161C175.431 128.125 176.048 126.698 176.669 124.888C177.291 123.079 177.583 121.556 177.665 121.57C177.748 121.584 177.56 123.147 176.93 124.979C176.666 125.755 176.361 126.516 176.016 127.259C175.891 127.582 175.72 127.886 175.509 128.161Z" fill="#E0E0E0"/>
<path id="Vector_47" d="M167.297 139.671C167.127 139.511 166.973 139.334 166.84 139.142L165.666 137.642C164.683 136.371 163.322 134.62 161.796 132.701C160.269 130.782 158.867 129.055 157.852 127.819L156.66 126.347C156.503 126.174 156.365 125.984 156.248 125.782C156.429 125.93 156.595 126.097 156.742 126.279C157.048 126.607 157.482 127.095 158.008 127.701C159.063 128.918 160.493 130.618 162.02 132.542C163.546 134.465 164.889 136.234 165.835 137.533C166.292 138.185 166.68 138.713 166.936 139.087C167.073 139.271 167.194 139.466 167.297 139.671Z" fill="#E0E0E0"/>
<path id="Vector_48" d="M163.642 134.998C163.596 135.049 162.623 133.891 162.111 132.14C161.823 131.207 161.706 130.23 161.764 129.255H161.883C161.833 129.474 161.791 129.592 161.769 129.588C161.746 129.583 161.746 129.46 161.769 129.237H161.892C161.949 130.187 162.113 131.127 162.381 132.04C162.87 133.745 163.715 134.953 163.642 134.998Z" fill="#E0E0E0"/>
<path id="Vector_49" d="M158.944 129.077C158.616 128.826 158.256 128.618 157.875 128.457C156.913 128.17 155.901 128.09 154.905 128.22C153.897 128.298 152.897 128.459 151.917 128.703C151.515 128.832 151.104 128.929 150.687 128.995C151.054 128.778 151.452 128.617 151.866 128.517C152.848 128.212 153.861 128.021 154.887 127.947C155.919 127.81 156.969 127.922 157.948 128.275C158.365 128.417 158.717 128.701 158.944 129.077Z" fill="#E0E0E0"/>
<path id="Vector_50" d="M157.802 127.642C157.802 127.683 157.181 127.391 156.166 127.044C153.513 126.137 150.67 125.922 147.91 126.42C146.854 126.607 146.214 126.803 146.201 126.757C146.334 126.673 146.481 126.612 146.635 126.575C147.04 126.433 147.453 126.318 147.873 126.228C150.661 125.618 153.567 125.838 156.23 126.862C156.63 127.015 157.021 127.192 157.4 127.391C157.67 127.537 157.811 127.623 157.802 127.642Z" fill="#E0E0E0"/>
<path id="Vector_51" d="M167.261 121.57C167.187 121.57 166.653 119.746 166.068 117.431C165.483 115.115 165.063 113.242 165.154 113.224C165.245 113.205 165.762 115.047 166.347 117.362C166.932 119.678 167.334 121.551 167.261 121.57Z" fill="#E0E0E0"/>
<path id="Vector_52" d="M167.339 121.57C167.256 121.597 166.909 120.357 166.014 119.09C165.452 118.341 164.796 117.667 164.062 117.084C164.34 117.154 164.599 117.286 164.816 117.472C165.369 117.876 165.85 118.371 166.237 118.935C166.829 119.702 167.208 120.611 167.339 121.57Z" fill="#E0E0E0"/>
<path id="Vector_53" d="M167.279 176.137C167.252 176.137 167.192 175.681 166.978 174.869C166.663 173.731 166.236 172.628 165.703 171.574C164.387 168.889 161.988 165.479 158.94 162.07C157.428 160.347 155.966 158.724 154.723 157.17C153.606 155.801 152.597 154.348 151.702 152.826C151.104 151.798 150.595 150.722 150.181 149.608C150.039 149.206 149.939 148.901 149.879 148.696C149.84 148.578 149.815 148.455 149.806 148.331C149.834 148.331 149.971 148.787 150.286 149.544C150.737 150.636 151.269 151.693 151.876 152.707C152.787 154.206 153.806 155.636 154.924 156.987C156.171 158.524 157.638 160.142 159.15 161.865C162.207 165.288 164.602 168.734 165.886 171.469C166.407 172.541 166.809 173.665 167.087 174.824C167.163 175.138 167.22 175.456 167.256 175.776C167.278 175.895 167.286 176.016 167.279 176.137Z" fill="#E0E0E0"/>
<path id="Vector_54" d="M182.349 159.148C182.095 159.315 181.831 159.468 181.558 159.604C180.844 160.01 180.16 160.467 179.511 160.971C178.551 161.716 177.651 162.534 176.82 163.419C175.874 164.413 174.901 165.571 173.909 166.806C171.926 169.29 170.071 171.487 168.961 173.242C168.394 174.113 167.983 174.847 167.713 175.362C167.589 175.637 167.444 175.902 167.279 176.155C167.292 176.077 167.317 176.002 167.352 175.931C167.412 175.79 167.494 175.576 167.617 175.316C167.966 174.568 168.358 173.84 168.792 173.137C169.875 171.341 171.716 169.112 173.695 166.633C174.691 165.393 175.673 164.235 176.637 163.241C177.482 162.359 178.399 161.548 179.379 160.816C180.045 160.325 180.753 159.893 181.494 159.526C181.755 159.394 181.951 159.312 182.111 159.253C182.182 159.202 182.263 159.166 182.349 159.148Z" fill="#E0E0E0"/>
<path id="Vector_55" d="M182.641 164.654C182.092 164.777 181.535 164.858 180.974 164.896C179.634 165.035 178.309 165.294 177.016 165.671C175.739 166.087 174.54 166.714 173.471 167.526C172.653 168.16 172.269 168.679 172.232 168.647C172.29 168.505 172.373 168.375 172.479 168.265C172.738 167.934 173.029 167.628 173.347 167.353C174.404 166.475 175.62 165.808 176.93 165.388C178.24 165.001 179.591 164.762 180.955 164.677C181.515 164.618 182.08 164.61 182.641 164.654Z" fill="#E0E0E0"/>
<path id="Vector_56" d="M172.716 168.046C172.629 167.995 173.383 166.847 173.964 165.311C174.544 163.775 174.64 162.393 174.74 162.407C174.784 162.71 174.774 163.019 174.713 163.319C174.63 164.037 174.466 164.743 174.224 165.425C173.972 166.1 173.647 166.747 173.255 167.353C173.115 167.612 172.933 167.846 172.716 168.046Z" fill="#E0E0E0"/>
<path id="Vector_57" d="M187.229 144.361C187.143 144.416 187.053 144.463 186.959 144.502L186.173 144.858C185.831 145.004 185.415 145.191 184.944 145.437C184.474 145.683 183.925 145.929 183.349 146.276L182.436 146.791C182.12 146.973 181.805 147.187 181.476 147.392C180.804 147.803 180.133 148.304 179.415 148.81C176.342 151.099 173.66 153.87 171.474 157.015C170.989 157.749 170.51 158.437 170.126 159.121C169.929 159.458 169.724 159.777 169.555 160.096L169.066 161.008C168.741 161.591 168.513 162.147 168.284 162.626C168.056 163.105 167.878 163.538 167.745 163.875L167.416 164.668C167.383 164.764 167.338 164.856 167.284 164.942C167.297 164.841 167.323 164.743 167.361 164.65C167.439 164.436 167.53 164.167 167.645 163.834C167.789 163.403 167.956 162.981 168.143 162.567C168.357 162.079 168.577 161.514 168.892 160.921L169.349 159.982C169.513 159.659 169.715 159.335 169.911 158.988C170.286 158.296 170.761 157.621 171.245 156.86C173.422 153.676 176.126 150.884 179.242 148.605C179.973 148.094 180.654 147.597 181.334 147.196C181.673 146.991 181.988 146.782 182.308 146.604L183.222 146.098C183.802 145.765 184.364 145.523 184.844 145.296C185.251 145.093 185.669 144.912 186.096 144.753L186.904 144.448C187.008 144.403 187.117 144.374 187.229 144.361Z" fill="#E0E0E0"/>
<path id="Vector_58" d="M175.303 152.329C175.414 151.946 175.643 151.606 175.956 151.358C176.69 150.719 177.628 150.36 178.602 150.346C179.555 150.34 180.5 150.524 181.38 150.889C181.753 151.006 182.107 151.176 182.431 151.394C182.056 151.32 181.688 151.21 181.334 151.066C180.462 150.769 179.547 150.615 178.625 150.61C177.711 150.63 176.827 150.94 176.102 151.495C175.816 151.754 175.549 152.032 175.303 152.329Z" fill="#E0E0E0"/>
<path id="Vector_59" d="M173.521 154.166C173.443 154.125 174.115 153.14 174.27 151.732C174.426 150.323 174.019 149.211 174.101 149.188C174.183 149.165 174.284 149.434 174.412 149.899C174.737 151.125 174.586 152.428 173.987 153.546C173.754 153.965 173.567 154.184 173.521 154.166Z" fill="#E0E0E0"/>
<path id="Vector_60" d="M154.101 178.872C154.512 186.165 156.71 193.545 160.091 201.025H174.786C178.012 193.595 180.055 186.21 180.42 178.872H154.101Z" fill="#E0E0E0"/>
<path id="Vector_61" d="M178.04 190.619C178.04 190.696 173.201 190.76 167.229 190.76C161.257 190.76 156.422 190.696 156.422 190.619C156.422 190.541 161.261 190.481 167.229 190.481C173.196 190.481 178.04 190.545 178.04 190.619Z" fill="#FAFAFA"/>
<path id="Vector_62" d="M177.711 193.253C177.711 193.331 173.174 193.395 167.581 193.395C161.988 193.395 157.446 193.331 157.446 193.253C157.446 193.175 161.984 193.116 167.581 193.116C173.178 193.116 177.711 193.18 177.711 193.253Z" fill="#FAFAFA"/>
<path id="Vector_63" d="M160.315 183.626C160.498 185.874 160.498 188.133 160.315 190.381C160.238 190.381 160.178 188.868 160.178 187.003C160.178 185.139 160.251 183.626 160.315 183.626Z" fill="#FAFAFA"/>
<path id="Vector_64" d="M168.202 183.626C168.28 183.626 168.34 185.189 168.34 187.122C168.34 189.055 168.28 190.618 168.202 190.618C168.125 190.618 168.065 189.055 168.065 187.122C168.065 185.189 168.125 183.626 168.202 183.626Z" fill="#FAFAFA"/>
<path id="Vector_65" d="M175.596 183.566C175.673 183.566 175.733 185.162 175.733 187.131C175.733 189.1 175.673 190.7 175.596 190.7C175.518 190.7 175.458 189.105 175.458 187.131C175.458 185.157 175.518 183.566 175.596 183.566Z" fill="#FAFAFA"/>
<path id="Vector_66" d="M179.964 183.626C179.964 183.704 174.289 183.763 167.289 183.763C160.288 183.763 154.613 183.704 154.613 183.626C154.613 183.548 160.284 183.489 167.289 183.489C174.293 183.489 179.964 183.548 179.964 183.626Z" fill="#FAFAFA"/>
<path id="Vector_67" d="M172.068 111.059H5.52435V116.177H172.068V111.059Z" fill="#EBEBEB"/>
<path id="Vector_68" d="M19.9315 115.548L7.45258 201.002H10.1302L25.5198 116.177L19.9315 115.548Z" fill="#EBEBEB"/>
<path id="Vector_69" d="M160.306 115.006L173.47 201.002H170.797L154.713 115.79L160.306 115.006Z" fill="#EBEBEB"/>
<path id="Vector_70" d="M11.8481 90.4415V101.965H9.91986V103.205H11.8481V110.917H47.9094V103.897H45.2409V102.366H47.9094V100.087H49.0974V99.0475H47.6809V90.4415H11.8481Z" fill="#F5F5F5"/>
<path id="Vector_71" d="M38.3276 90.4599V110.785H47.9004V103.77H45.2319V102.371L47.9004 102.416V100.123H49.1112L49.0884 98.9382L47.681 98.9063V90.428L38.3276 90.4599Z" fill="#E0E0E0"/>
<path id="Vector_72" d="M39.0083 103.036C39.0083 103.109 32.4878 103.164 24.4412 103.164C16.3946 103.164 9.86957 103.109 9.86957 103.036C9.86957 102.963 16.3946 102.908 24.4412 102.908C32.4878 102.908 39.0083 102.968 39.0083 103.036Z" fill="#E0E0E0"/>
<path id="Vector_73" d="M39.0083 101.865C39.0083 101.938 32.4878 101.993 24.4412 101.993C16.3946 101.993 9.86957 101.938 9.86957 101.865C9.86957 101.792 16.3946 101.737 24.4412 101.737C32.4878 101.737 39.0083 101.796 39.0083 101.865Z" fill="#E0E0E0"/>
<path id="Vector_74" d="M40.8818 98.7151C40.8818 98.7882 34.3568 98.843 26.3147 98.843C18.2727 98.843 11.7431 98.7882 11.7431 98.7151C11.7431 98.642 18.2636 98.5872 26.3147 98.5872C34.3659 98.5872 40.8818 98.6466 40.8818 98.7151Z" fill="#E0E0E0"/>
<path id="Vector_75" d="M41.0557 107.307C41.0557 107.38 34.5352 107.44 26.4886 107.44C18.442 107.44 11.9169 107.38 11.9169 107.307C11.9169 107.234 18.4374 107.179 26.4886 107.179C34.5398 107.179 41.0557 107.23 41.0557 107.307Z" fill="#E0E0E0"/>
<path id="Vector_76" d="M50.5735 82.7108H44.2861V90.1681H50.5735V82.7108Z" fill="#F5F5F5"/>
<path id="Vector_77" d="M44.501 82.223H16.0888V90.633H44.501V82.223Z" fill="#E0E0E0"/>
<path id="Vector_78" d="M50.7608 82.9342H43.7377V82.2368H50.7608C50.8553 82.2368 50.946 82.2743 51.0128 82.341C51.0797 82.4076 51.1172 82.4981 51.1172 82.5924C51.1137 82.6843 51.0746 82.7712 51.0081 82.835C50.9417 82.8987 50.853 82.9343 50.7608 82.9342Z" fill="#E0E0E0"/>
<path id="Vector_79" d="M50.7608 90.6376H43.7377V89.9265H50.7608C50.8553 89.9265 50.946 89.964 51.0128 90.0306C51.0797 90.0973 51.1172 90.1878 51.1172 90.2821C51.1172 90.3764 51.0797 90.4668 51.0128 90.5335C50.946 90.6001 50.8553 90.6376 50.7608 90.6376Z" fill="#E0E0E0"/>
<path id="Vector_80" d="M42.271 82.223H38.9125V90.633H42.271V82.223Z" fill="#EBEBEB"/>
<path id="Vector_81" d="M22.1519 82.3187H18.7934V90.7287H22.1519V82.3187Z" fill="#EBEBEB"/>
<path id="Vector_82" d="M50.5734 83.9463C50.5734 83.9463 49.2026 83.9828 47.5348 83.9828C45.867 83.9828 44.4916 83.9828 44.4916 83.9463C44.4916 83.9097 45.8624 83.9052 47.5348 83.9052C49.2072 83.9052 50.5734 83.9234 50.5734 83.9463Z" fill="#E0E0E0"/>
<path id="Vector_83" d="M50.5734 85.0629C50.5734 85.0629 49.2026 85.0995 47.5348 85.0995C45.867 85.0995 44.4916 85.0995 44.4916 85.0629C44.4916 85.0264 45.8624 85.0264 47.5348 85.0264C49.2072 85.0264 50.5734 85.0401 50.5734 85.0629Z" fill="#E0E0E0"/>
<path id="Vector_84" d="M50.5734 86.4395C50.5734 86.4395 49.2026 86.4761 47.5348 86.4761C45.867 86.4761 44.4916 86.4761 44.4916 86.4395C44.4916 86.403 45.8624 86.403 47.5348 86.403C49.2072 86.403 50.5734 86.4167 50.5734 86.4395Z" fill="#E0E0E0"/>
<path id="Vector_85" d="M50.5734 87.8161C50.5734 87.8161 49.2026 87.8527 47.5348 87.8527C45.867 87.8527 44.4916 87.8527 44.4916 87.8161C44.4916 87.7795 45.8624 87.7795 47.5348 87.7795C49.2072 87.7795 50.5734 87.7932 50.5734 87.8161Z" fill="#E0E0E0"/>
<path id="Vector_86" d="M50.5734 89.1928C50.5734 89.1928 49.2026 89.2294 47.5348 89.2294C45.867 89.2294 44.4916 89.2294 44.4916 89.1928C44.4916 89.1563 45.8624 89.1562 47.5348 89.1562C49.2072 89.1562 50.5734 89.17 50.5734 89.1928Z" fill="#E0E0E0"/>
<path id="Vector_87" d="M37.1032 85.6827H24.3227V87.1961H37.1032V85.6827Z" fill="#EBEBEB"/>
<path id="Vector_88" d="M38.5333 74.0593L42.07 82.3462H39.7944L38.2226 77.9202L38.5333 74.0593Z" fill="#E0E0E0"/>
<path id="Vector_89" d="M27.6767 66.5654L26.3105 82.3461H37.8664L39.1366 66.5654H27.6767Z" fill="#EBEBEB"/>
<path id="Vector_90" d="M28.805 67.8144L27.6078 81.0333L36.285 81.1473L37.4548 67.7369L28.805 67.8144Z" fill="#FAFAFA"/>
<path id="Vector_91" d="M30.6466 69.6469L29.9658 78.7405H34.5945L35.4078 69.6469H30.6466Z" fill="#E0E0E0"/>
<path id="Vector_92" d="M163.442 7.90822L159.169 7.93127L159.284 29.1405L163.557 29.1174L163.442 7.90822Z" fill="#E0E0E0"/>
<path id="Vector_93" d="M133.216 7.96212L122.149 8.02185L122.213 19.7318L133.28 19.6721L133.216 7.96212Z" fill="#EBEBEB"/>
<path id="Vector_94" d="M144.228 7.90731L133.161 7.96704L133.225 19.677L144.291 19.6173L144.228 7.90731Z" fill="#F5F5F5"/>
<path id="Vector_95" d="M122.166 11.2658C129.518 11.3297 136.893 11.2658 144.245 11.1653C144.272 11.1599 144.297 11.1453 144.314 11.1241C144.331 11.1029 144.341 11.0762 144.341 11.0487C144.341 11.0213 144.331 10.9946 144.314 10.9734C144.297 10.9521 144.272 10.9376 144.245 10.9322C136.895 10.8896 129.537 10.9337 122.171 11.0647C122.144 11.0647 122.119 11.0753 122.1 11.0942C122.081 11.113 122.07 11.1386 122.07 11.1653C122.07 11.1919 122.081 11.2175 122.1 11.2363C122.119 11.2552 122.144 11.2658 122.171 11.2658H122.166Z" fill="#E0E0E0"/>
<path id="Vector_96" d="M135.358 19.4828L115.253 19.5913L115.305 29.1316L135.409 29.0231L135.358 19.4828Z" fill="#EBEBEB"/>
<path id="Vector_97" d="M155.366 19.3702L135.261 19.4788L135.313 29.019L155.418 28.9105L155.366 19.3702Z" fill="#F5F5F5"/>
<path id="Vector_98" d="M115.262 22.2504C128.618 22.4008 142.02 22.2504 155.376 22.0543C155.407 22.0543 155.438 22.0419 155.46 22.0196C155.482 21.9974 155.495 21.9673 155.495 21.9358C155.495 21.9044 155.482 21.8743 155.46 21.852C155.438 21.8298 155.407 21.8173 155.376 21.8173C142.02 21.7489 128.613 21.7535 115.262 22.0498C115.235 22.0498 115.209 22.0604 115.191 22.0792C115.172 22.098 115.161 22.1235 115.161 22.1501C115.161 22.1767 115.172 22.2022 115.191 22.221C115.209 22.2398 115.235 22.2504 115.262 22.2504Z" fill="#E0E0E0"/>
<path id="Vector_99" d="M185.634 29.1378H107.745V32.5565H185.634V29.1378Z" fill="#E0E0E0"/>
<path id="Vector_100" d="M123.66 30.7833H120.498V42.4479H123.66V30.7833Z" fill="#E0E0E0"/>
<path id="Vector_101" d="M170.861 30.7833H167.699V42.4479H170.861V30.7833Z" fill="#E0E0E0"/>
<path id="Vector_102" d="M167.607 -4.4155e-05L163.335 0.0230713L163.492 29.1954L167.765 29.1723L167.607 -4.4155e-05Z" fill="#EBEBEB"/>
<path id="Vector_103" d="M174.285 5.43389L167.646 5.46973L167.774 29.1084L174.413 29.0726L174.285 5.43389Z" fill="#F5F5F5"/>
<path id="Vector_104" d="M174.243 9.99338C173.139 10.1078 172.029 10.146 170.921 10.1076C169.814 10.1461 168.705 10.1079 167.603 9.99338C169.814 9.84107 172.032 9.84107 174.243 9.99338Z" fill="#E0E0E0"/>
<path id="Vector_105" d="M174.243 8.99973C173.139 9.11417 172.029 9.15234 170.921 9.11396C169.814 9.15243 168.705 9.11427 167.603 8.99973C169.814 8.84742 172.032 8.84742 174.243 8.99973Z" fill="#E0E0E0"/>
<path id="Vector_106" d="M174.243 25.5234C172.032 25.6757 169.814 25.6757 167.603 25.5234C169.814 25.3711 172.032 25.3711 174.243 25.5234Z" fill="#E0E0E0"/>
<path id="Vector_107" d="M174.243 24.5298C172.032 24.6821 169.814 24.6821 167.603 24.5298C169.814 24.3775 172.032 24.3775 174.243 24.5298Z" fill="#E0E0E0"/>
<path id="Vector_108" d="M171.031 22.3643C170.967 22.3643 170.912 19.9803 170.912 17.0357C170.912 14.0911 170.967 11.7117 171.031 11.7117C171.095 11.7117 171.145 14.0956 171.145 17.0357C171.145 19.9758 171.09 22.3643 171.031 22.3643Z" fill="#E0E0E0"/>
<path id="Vector_109" d="M181.54 11.2467H174.311V29.0922H181.54V11.2467Z" fill="#EBEBEB"/>
<path id="Vector_110" d="M166.639 4.98821C166.64 5.23092 166.569 5.46843 166.434 5.67067C166.3 5.87291 166.108 6.03078 165.884 6.12429C165.659 6.21779 165.412 6.24273 165.173 6.19593C164.935 6.14913 164.715 6.03271 164.543 5.86141C164.37 5.69011 164.253 5.47164 164.205 5.23366C164.157 4.99569 164.181 4.74891 164.274 4.52459C164.367 4.30028 164.525 4.10851 164.727 3.97357C164.929 3.83863 165.167 3.7666 165.41 3.7666C165.735 3.7666 166.047 3.89516 166.278 4.12412C166.508 4.35309 166.638 4.6638 166.639 4.98821Z" fill="#E0E0E0"/>
<path id="Vector_111" d="M165.789 8.36133H165.031V25.7146H165.789V8.36133Z" fill="#E0E0E0"/>
</g>
<g id="Floor">
<path id="Vector_112" d="M191.775 201.002C191.775 201.066 148.824 201.121 95.8923 201.121C42.961 201.121 0 201.066 0 201.002C0 200.938 42.9244 200.883 95.8923 200.883C148.86 200.883 191.775 200.934 191.775 201.002Z" fill="#263238"/>
</g>
<g id="Chair">
<path id="Vector_113" d="M95.1064 143.258L113.946 201.002H110.514L88.4443 143.258H95.1064Z" fill="#E0E0E0"/>
<path id="Vector_114" d="M95.1064 143.258H94.6494H93.37L88.426 143.285L88.4717 143.217C92.2551 153.049 100.411 174.313 109.861 198.928C110.117 199.602 110.373 200.295 110.628 200.938L110.519 200.865H113.946L113.832 201.02C108.572 184.834 103.88 170.407 100.503 160.023C98.8213 154.822 97.4687 150.638 96.5366 147.743C96.0796 146.298 95.7141 145.177 95.4674 144.411L95.1932 143.54C95.1338 143.344 95.1064 143.24 95.1064 143.24C95.1064 143.24 95.1429 143.331 95.2069 143.522L95.4948 144.375C95.7461 145.136 96.1162 146.243 96.5914 147.675C97.5418 150.56 98.9126 154.731 100.622 159.909C104.026 170.306 108.755 184.747 114.055 200.933L114.106 201.088H110.45L110.418 201.011C110.167 200.345 109.906 199.675 109.651 199.001C100.261 174.35 92.15 153.063 88.4077 143.244V143.176H88.4808L93.4523 143.203H94.718C94.9739 143.249 95.1064 143.258 95.1064 143.258Z" fill="#263238"/>
<path id="Vector_115" d="M58.0303 143.258L39.1909 201.002H42.6179L64.6924 143.258H58.0303Z" fill="#E0E0E0"/>
<path id="Vector_116" d="M58.0306 143.258C58.0306 143.258 58.1722 143.258 58.4555 143.258H59.7212L64.6927 143.23H64.7658L64.7384 143.299C61.0006 153.117 52.89 174.404 43.5 199.055L42.7278 201.065L42.7004 201.143H39.0449L39.0952 200.988L52.5336 159.964L56.5638 147.729C57.0207 146.298 57.4091 145.191 57.6604 144.429L57.9483 143.577C58.0123 143.385 58.0488 143.294 58.0488 143.294C58.0488 143.294 58.0214 143.399 57.962 143.595L57.6879 144.466C57.4411 145.232 57.0801 146.353 56.6186 147.798C55.6819 150.692 54.334 154.877 52.6524 160.078C49.2711 170.461 44.583 184.888 39.3237 201.075L39.2094 200.92H42.6364L42.5268 200.993L43.2944 198.982C52.7438 174.368 60.9001 153.085 64.6607 143.276L64.7109 143.344L59.7623 143.317H58.4875L58.0306 143.258Z" fill="#263238"/>
<path id="Vector_117" d="M88.9286 144.525C88.8253 144.613 88.7153 144.692 88.5996 144.762L87.6309 145.4L84.0622 147.734C81.051 149.712 76.8975 152.456 72.3327 155.511L60.6443 163.373L57.0985 165.748L56.1344 166.359C56.0255 166.44 55.9092 166.51 55.7871 166.569C55.8877 166.479 55.9946 166.397 56.107 166.323L57.0482 165.653L60.5529 163.219C63.5184 161.176 67.6354 158.373 72.2048 155.319C76.7741 152.265 80.9368 149.539 83.9754 147.597C85.4924 146.631 86.717 145.852 87.5852 145.318L88.5767 144.717C88.689 144.644 88.8066 144.58 88.9286 144.525Z" fill="#263238"/>
<path id="Vector_118" d="M52.7849 81.6989C52.7849 81.6989 46.8813 82.3052 46.0223 85.8515C45.1633 89.3978 42.3668 133.257 46.0223 139.47C49.6778 145.683 96.7421 144.817 100.009 143.965C103.276 143.112 104.816 140.997 104.483 138.413C104.149 135.828 72.0996 132.624 72.0996 132.624L74.0553 86.8497C74.0553 86.8497 62.5314 81.0608 52.7849 81.6989Z" fill="#263238"/>
<path id="Vector_119" d="M104.51 139.52H104.368H103.948L102.335 139.561C100.932 139.598 98.9034 139.616 96.3948 139.611C91.3685 139.611 84.446 139.438 76.8106 138.891C72.9952 138.613 69.3625 138.262 66.0681 137.888C62.7736 137.514 59.8126 137.104 57.336 136.717C56.0932 136.534 54.9782 136.338 53.9958 136.174C53.0134 136.01 52.1681 135.86 51.4781 135.719L49.8926 135.413L49.4813 135.331L49.3442 135.295C49.3913 135.289 49.4389 135.289 49.4859 135.295L49.9017 135.354L51.4964 135.614C52.1864 135.732 53.0317 135.874 54.0187 136.019C55.0057 136.165 56.1206 136.357 57.3589 136.525C59.84 136.895 62.801 137.273 66.0909 137.647C69.3808 138.02 73.0135 138.353 76.8289 138.631C84.4597 139.178 91.3822 139.365 96.3948 139.42C98.8988 139.447 100.928 139.452 102.335 139.447H104.373L104.51 139.52Z" fill="#455A64"/>
<path id="Vector_120" d="M97.6012 167.216C97.5646 167.271 90.1074 162.042 80.9504 155.547C71.7935 149.051 64.3957 143.732 64.4323 143.696C64.4688 143.659 71.926 148.869 81.0875 155.369C90.2491 161.869 97.6377 167.161 97.6012 167.216Z" fill="#263238"/>
</g>
<g id="speech-bubble">
<path id="Vector_121" d="M56.9567 42.3202L53.187 35.6971C55.5153 31.926 56.3454 27.4225 55.5141 23.0719C54.6828 18.7213 52.2503 14.8382 48.6948 12.1859C45.1392 9.53354 40.7177 8.30385 36.2994 8.73852C31.8811 9.17318 27.7855 11.2407 24.8178 14.5348C21.8501 17.8289 20.2248 22.1112 20.2614 26.54C20.2981 30.9688 21.994 35.2237 25.0158 38.4685C28.0376 41.7132 32.1668 43.7131 36.5917 44.0749C41.0166 44.4368 45.4172 43.1345 48.9284 40.424L56.9567 42.3202Z" fill="white"/>
<path id="Vector_122" d="M56.9567 42.3202L48.9056 40.4969H48.7959L48.8644 40.4057L48.965 40.506C46.4899 42.4351 43.5461 43.6746 40.434 44.0979C39.502 44.23 38.56 44.2789 37.6193 44.2438C37.1349 44.2164 36.6414 44.2027 36.1434 44.1617L34.6401 43.9384C30.1603 43.0615 26.1835 40.5157 23.5183 36.8184C22.0381 34.7791 21.0115 32.448 20.5071 29.981C19.9952 27.3644 20.0669 24.6674 20.7173 22.0816C21.3903 19.3827 22.6982 16.8827 24.5327 14.7884C26.3951 12.6388 28.7448 10.9636 31.3867 9.90196C33.9207 8.90375 36.6472 8.48627 39.3648 8.68035C41.9311 8.85694 44.4271 9.59457 46.6757 10.841C50.717 13.071 53.7461 16.7634 55.1382 21.1563C55.6866 23.0314 55.947 24.9786 55.9104 26.9316C55.8135 30.0467 54.8946 33.0813 53.2464 35.729V35.656L56.9567 42.3156C56.71 41.8963 55.5494 39.8952 53.1276 35.7244V35.6925V35.656C54.7403 33.0207 55.6306 30.009 55.7093 26.9224C55.7391 24.9944 55.4741 23.073 54.9234 21.2246C53.5478 16.882 50.5572 13.2299 46.5661 11.0187C44.3474 9.79416 41.8856 9.07205 39.3556 8.90371C36.6797 8.7142 33.9954 9.12702 31.5009 10.1116C28.9011 11.1583 26.589 12.8085 24.7566 14.9251C22.9495 16.9876 21.6619 19.4504 21.0006 22.1089C20.3557 24.6536 20.2824 27.309 20.7858 29.8853C21.2743 32.3259 22.2808 34.6339 23.7376 36.6543C26.361 40.3106 30.2826 42.8323 34.704 43.7059L36.1891 43.9338C36.6826 43.9748 37.1669 43.9885 37.6467 44.0204C38.5764 44.0577 39.5075 44.0134 40.4294 43.8882C43.5129 43.4823 46.4348 42.2733 48.901 40.3829L49.3579 40.0411L49.0152 40.4969L48.9741 40.3875L56.9567 42.3202Z" fill="#263238"/>
<path id="Vector_123" d="M35.0103 24.0416H36.1344L38.5835 20.632V18.3939C38.5835 18.3939 40.3199 18.2891 40.1188 21.2155C39.9178 24.1418 40.1188 23.3988 40.1188 23.3988C40.1188 23.3988 43.8063 23.3989 44.1124 23.7362C44.3363 23.9641 44.4369 27.6198 44.4734 29.5981C44.4989 30.0762 44.3629 30.549 44.087 30.9407C43.8111 31.3325 43.4113 31.6205 42.9518 31.7587C42.8224 31.7947 42.6887 31.8131 42.5543 31.8134C41.6404 31.8134 36.9386 31.0658 36.9386 31.0658H34.9966L35.0103 24.0416Z" fill="#7A2D93"/>
<path id="Vector_124" d="M31.7935 23.4263L32.488 31.0887H34.4117V23.5812L31.7935 23.4263Z" fill="#7A2D93"/>
</g>
<g id="Character">
<path id="Vector_125" d="M128.043 120.526C128.043 120.526 138.616 120.526 139.05 130.354C139.484 140.181 108.271 192.027 108.271 192.027L98.3875 187.345L119.58 137.036L73.5942 132.523L74.8965 120.982L128.043 120.526Z" fill="#FFBE9D"/>
<path id="Vector_126" d="M110.359 189.036L110.053 189.734C110.053 189.734 119.74 199.671 118.872 201.959L95.5181 191.475L99.3335 183.863C102.08 187.031 105.635 188.845 110.359 189.036Z" fill="#455A64"/>
<g id="Group" opacity="0.6">
<path id="Vector_127" d="M100.581 187.409C100.325 187.377 100.067 187.44 99.8546 187.585C99.6423 187.73 99.4909 187.948 99.4291 188.198C99.3869 188.451 99.4439 188.711 99.5885 188.924C99.733 189.137 99.9541 189.287 100.206 189.342C100.476 189.375 100.75 189.307 100.973 189.151C101.197 188.996 101.355 188.763 101.417 188.498C101.435 188.23 101.347 187.965 101.172 187.76C100.997 187.554 100.749 187.425 100.48 187.4" fill="white"/>
</g>
<g id="Group_2" opacity="0.6">
<path id="Vector_128" d="M95.5176 191.48L96.4314 189.656L118.479 200.373C118.479 200.373 119.315 201.284 118.867 201.968L95.5176 191.48Z" fill="white"/>
</g>
<path id="Vector_129" d="M110.103 189.834C110.048 189.943 109.454 189.743 108.732 189.857C108.01 189.971 107.49 190.313 107.403 190.221C107.316 190.13 107.787 189.547 108.668 189.424C109.55 189.301 110.176 189.738 110.103 189.834Z" fill="#263238"/>
<path id="Vector_130" d="M112.1 191.945C112.077 192.063 111.492 192.036 110.889 192.346C110.286 192.656 109.943 193.112 109.833 193.057C109.724 193.002 109.939 192.323 110.697 191.954C111.456 191.585 112.146 191.835 112.1 191.945Z" fill="#263238"/>
<path id="Vector_131" d="M112.173 195.491C112.059 195.491 112.173 194.83 112.726 194.338C113.279 193.845 113.946 193.841 113.951 193.955C113.955 194.069 113.494 194.256 113.037 194.666C112.58 195.076 112.292 195.532 112.173 195.491Z" fill="#263238"/>
<path id="Vector_132" d="M108.038 83.472L109.916 89.2018L99.676 89.9994L98.4834 86.9317L108.038 83.472Z" fill="#FFBE9D"/>
<path id="Vector_133" d="M137.113 90.9885C137.309 91.3805 137.821 91.4443 138.214 91.6495C138.58 91.8585 138.88 92.1659 139.079 92.5366C139.279 92.9073 139.37 93.3264 139.342 93.7463C139.277 94.5859 138.998 95.3952 138.534 96.0983C138.391 96.3841 138.183 96.6323 137.926 96.8231C137.796 96.9133 137.641 96.9616 137.483 96.9616C137.324 96.9616 137.17 96.9133 137.04 96.8231C136.738 96.5724 136.774 96.1074 136.838 95.72C137.081 94.2659 136.765 92.4289 137.108 90.9931" fill="#FFBE9D"/>
<path id="Vector_134" d="M69.0112 19.1462C68.9244 18.507 69.0808 17.8585 69.4496 17.3286C69.8184 16.7988 70.3727 16.4259 71.0034 16.2836L82.308 9.10893C86.6169 8.14259 92.0453 15.3218 92.8175 19.6521C93.5978 24.4117 93.9039 29.2365 93.7314 34.0562C93.4206 41.4679 88.5497 42.261 88.5497 42.261L92.2052 66.9074L74.5904 56.0725L69.0112 19.1462Z" fill="#FFBE9D"/>
<path id="Vector_135" d="M90.4688 25.8012C90.499 26.0436 90.4333 26.2881 90.2857 26.483C90.1382 26.6779 89.9203 26.8078 89.6783 26.845C89.4402 26.889 89.1943 26.8369 88.9947 26.7001C88.7951 26.5634 88.658 26.3532 88.6136 26.1157C88.5834 25.8733 88.6491 25.6287 88.7967 25.4339C88.9443 25.239 89.1622 25.1091 89.4041 25.0719C89.6422 25.0279 89.8881 25.08 90.0877 25.2168C90.2873 25.3535 90.4244 25.5637 90.4688 25.8012Z" fill="#263238"/>
<path id="Vector_136" d="M91.9219 23.1391C91.8305 23.2394 91.0811 23.2257 90.1353 23.5949C89.1894 23.9641 88.5634 24.4564 88.4446 24.4291C88.3258 24.4017 88.4446 24.2696 88.7325 24.0416C89.1294 23.7182 89.5792 23.4653 90.0622 23.2941C90.5229 23.1172 91.0123 23.026 91.5061 23.0252C91.8351 23.016 91.9676 23.0935 91.9219 23.1391Z" fill="#263238"/>
<path id="Vector_137" d="M81.1109 26.2525C81.1398 26.4953 81.0731 26.7399 80.9248 26.9346C80.7765 27.1294 80.5581 27.259 80.3158 27.2963C80.0784 27.3389 79.8337 27.2862 79.6352 27.1496C79.4366 27.0129 79.3002 26.8035 79.2558 26.567C79.2244 26.3244 79.2896 26.0792 79.4374 25.8841C79.5852 25.6889 79.8038 25.5593 80.0463 25.5232C80.2844 25.4792 80.5302 25.5313 80.7299 25.6681C80.9295 25.8048 81.0665 26.015 81.1109 26.2525Z" fill="#263238"/>
<path id="Vector_138" d="M82.0932 25.049C81.9561 25.1037 81.2524 24.6844 80.1603 24.5248C79.0682 24.3653 78.2138 24.5248 78.1087 24.4519C78.0036 24.379 78.2138 24.3015 78.5656 24.2149C79.1138 24.1063 79.6769 24.0955 80.2289 24.183C80.7638 24.256 81.28 24.4292 81.7505 24.6935C82.0749 24.8804 82.18 25.0262 82.0932 25.049Z" fill="#263238"/>
<path id="Vector_139" d="M86.5528 31.2483C87.0627 31.018 87.6002 30.8541 88.1521 30.7605C88.4034 30.7058 88.641 30.6283 88.6638 30.446C88.6558 30.1789 88.5648 29.9209 88.4034 29.7076C88.0988 29.0998 87.7698 28.4784 87.4164 27.8432C86.0456 25.1858 85.0038 22.9887 85.1317 22.934C85.2597 22.8793 86.4477 24.9898 87.8276 27.6472L88.7826 29.5252C88.9811 29.8166 89.0701 30.1685 89.0339 30.5189C89.0069 30.6136 88.9587 30.7009 88.8931 30.7743C88.8274 30.8477 88.7459 30.9053 88.6547 30.9429C88.5166 30.9968 88.3723 31.0336 88.2252 31.0523C87.6781 31.1869 87.1163 31.2528 86.5528 31.2483Z" fill="#263238"/>
<path id="Vector_140" d="M88.5452 42.2792C85.1322 42.7826 81.646 42.3084 78.4927 40.9117C78.4927 40.9117 81.4947 46.0352 88.7143 44.5036L88.5452 42.2792Z" fill="#EB996E"/>
<path id="Vector_141" d="M86.667 33.7052C86.4213 33.3859 86.107 33.1255 85.7472 32.9433C85.3874 32.7611 84.9913 32.6616 84.5879 32.6522C84.3547 32.6571 84.1285 32.7325 83.9392 32.8684C83.7499 33.0043 83.6064 33.1944 83.5278 33.4134C83.4489 33.6964 83.4397 33.9942 83.5009 34.2815C83.5622 34.5688 83.6921 34.8371 83.8797 35.0635C84.0639 35.3031 84.3142 35.4838 84.6 35.5834C84.8857 35.683 85.1944 35.6972 85.4881 35.6242C85.9647 35.428 86.3709 35.0928 86.6533 34.6624C86.7557 34.5528 86.8294 34.4197 86.868 34.275C86.8847 34.1836 86.8811 34.0897 86.8574 33.9999C86.8337 33.9101 86.7906 33.8266 86.7309 33.7553" fill="#EB996E"/>
<path id="Vector_142" d="M83.6695 32.2876C83.834 32.2556 83.9619 33.3451 84.9854 34.0106C86.009 34.6761 87.1604 34.4208 87.1879 34.5712C87.1879 34.6396 86.9548 34.8128 86.4613 34.8858C85.8232 34.9687 85.1762 34.8251 84.6336 34.4801C84.1126 34.146 83.7423 33.6229 83.6009 33.0214C83.505 32.5519 83.5964 32.2876 83.6695 32.2876Z" fill="#263238"/>
<path id="Vector_143" d="M82.4129 20.5684C82.3169 20.8419 81.3026 20.7279 80.1282 20.892C78.9539 21.0561 77.9852 21.3888 77.8207 21.1473C77.7476 21.0287 77.9121 20.7689 78.2777 20.4954C78.7887 20.1588 79.37 19.9428 79.9772 19.8638C80.5845 19.7848 81.2018 19.845 81.7823 20.0396C82.2301 20.2447 82.454 20.4362 82.4129 20.5684Z" fill="#263238"/>
<path id="Vector_144" d="M91.9764 20.892C91.7799 21.1427 90.8935 21.006 89.8562 21.1108C88.819 21.2156 87.9599 21.48 87.7315 21.2612C87.6264 21.1564 87.7315 20.9102 88.1016 20.655C88.6046 20.3333 89.1783 20.138 89.7735 20.0856C90.3687 20.0332 90.9677 20.1253 91.5195 20.3541C91.9124 20.5501 92.0586 20.7689 91.9764 20.892Z" fill="#263238"/>
<path id="Vector_145" d="M64.0533 38.0904C64.2361 34.7856 64.7661 24.206 66.9046 18.4352C69.043 12.6645 72.0542 10.08 75.1522 8.86291C76.3223 8.36419 77.6016 8.17515 78.8664 8.3141C80.1312 8.45304 81.3386 8.91527 82.3718 9.65605C83.9619 10.7774 84.885 14.4696 84.885 14.4696C84.885 14.4696 77.3684 17.0586 75.2893 21.7627C72.8813 27.1415 72.4518 29.7579 72.4518 29.7579L71.8029 32.625C71.8029 32.625 73.2148 45.0873 73.85 47.6672L63.6603 57.4948C63.9939 54.2493 63.8705 41.3905 64.0533 38.0904Z" fill="#263238"/>
<path id="Vector_146" d="M85.1089 14.4876C85.1089 14.4876 89.4634 13.5076 91.6613 18.2892C92.6574 20.4544 93.6444 27.0091 93.6444 27.0091C93.6444 27.0091 94.0145 21.6532 93.4388 18.7405C92.863 15.8278 90.9668 12.2723 88.4719 10.4718C85.977 8.67132 84.0853 7.99214 80.1831 8.67588C81.3581 8.96897 82.425 9.59042 83.2583 10.4673C83.8477 11.1556 84.1402 11.7664 85.1089 14.4876Z" fill="#263238"/>
<path id="Vector_147" d="M72.5339 30.1133C72.2689 28.5088 70.3863 27.6336 69.0795 28.6045C68.3621 29.1333 67.8778 30.0905 68.1428 31.7953C68.8556 36.3535 73.2742 34.6852 73.2605 34.5576C73.2467 34.43 72.8446 31.9868 72.5339 30.1133Z" fill="#FFBE9D"/>
<path id="Vector_148" d="M71.602 33.0488C71.602 33.0488 71.5334 33.1172 71.41 33.1992C71.2322 33.3071 71.0202 33.3445 70.816 33.3041C70.3088 33.2038 69.7879 32.5018 69.6371 31.6904C69.5641 31.303 69.5797 30.9041 69.6828 30.5235C69.7015 30.3747 69.7568 30.2327 69.8437 30.1103C69.9306 29.9878 70.0464 29.8887 70.1809 29.8216C70.2687 29.7847 70.3666 29.7791 70.4581 29.8057C70.5496 29.8322 70.6292 29.8893 70.6835 29.9674C70.7658 30.0859 70.7475 30.1771 70.7749 30.1817C70.8023 30.1862 70.8617 30.0905 70.7749 29.9082C70.7323 29.7997 70.6531 29.7095 70.551 29.6529C70.4105 29.5787 70.2465 29.5623 70.0941 29.6073C69.9126 29.6737 69.7511 29.7852 69.6248 29.9311C69.4985 30.0771 69.4115 30.2527 69.3721 30.4415C69.241 30.8635 69.2158 31.3112 69.299 31.7451C69.4681 32.6568 70.0712 33.4408 70.7612 33.5274C70.8884 33.5435 71.0177 33.531 71.1395 33.4908C71.2612 33.4506 71.3724 33.3836 71.4649 33.2949C71.6111 33.1582 71.6202 33.0534 71.602 33.0488Z" fill="#EB996E"/>
<path id="Vector_149" d="M76.948 8.36132C76.948 8.39778 77.5786 8.30662 78.5838 8.32485C79.172 8.33637 79.7547 8.43941 80.311 8.63026C80.9867 8.8795 81.6074 9.25722 82.1388 9.74247C83.1222 10.6192 83.8886 11.7114 84.3778 12.9332C84.7524 13.8449 84.8347 14.4922 84.8895 14.483C84.8829 14.3369 84.8615 14.1918 84.8255 14.05C84.4613 12.3423 83.5581 10.7959 82.2484 9.63763C81.7004 9.13116 81.0554 8.74044 80.3522 8.48895C79.7809 8.29828 79.1816 8.2043 78.5793 8.2109C78.1759 8.21073 77.7729 8.23661 77.3729 8.28839C77.2295 8.30092 77.0874 8.32531 76.948 8.36132Z" fill="#455A64"/>
<path id="Vector_150" d="M68.6819 33.892C68.6836 33.8662 68.6836 33.8404 68.6819 33.8146L68.6179 33.6094C68.586 33.5137 68.554 33.3998 68.5128 33.2721L68.3895 32.8163C68.1404 31.8198 68.0358 30.7929 68.0788 29.7668C68.1369 28.2448 68.5119 26.7514 69.18 25.3818C70.0339 23.7236 71.2523 22.2792 72.7441 21.1563C73.5096 20.5669 74.3108 20.025 75.143 19.5336C75.9472 19.0504 76.7559 18.6493 77.5053 18.2026C78.8158 17.405 80.0624 16.5074 81.2339 15.5178C82.2346 14.6745 83.0068 13.9497 83.5186 13.4392C83.779 13.184 83.9755 12.9834 84.108 12.8421L84.2588 12.6826C84.2908 12.6461 84.3091 12.6278 84.3045 12.6233L84.2497 12.6689L84.0852 12.8193L83.482 13.4073C82.9474 13.9042 82.166 14.6152 81.1562 15.4403C79.9805 16.4135 78.7342 17.2987 77.4276 18.0886C76.6874 18.5444 75.8695 18.9228 75.0607 19.4105C74.2204 19.9017 73.413 20.4468 72.6435 21.0424C71.1266 22.176 69.8889 23.6398 69.0246 25.3226C68.3543 26.7113 67.9868 28.226 67.9462 29.7668C67.9148 30.8015 68.0365 31.8352 68.3072 32.8345L68.4443 33.2904C68.4946 33.418 68.5357 33.5274 68.5677 33.6231L68.6499 33.8282C68.6682 33.8693 68.6773 33.892 68.6819 33.892Z" fill="#455A64"/>
<path id="Vector_151" d="M67.4254 32.2876C67.4254 32.2876 67.4254 32.2603 67.4254 32.2147L67.398 31.9959C67.398 31.8044 67.3249 31.5401 67.2884 31.1617C67.1807 30.135 67.1639 29.1009 67.2381 28.0712C67.3497 26.5463 67.6568 25.042 68.152 23.595C68.7705 21.8278 69.6733 20.1727 70.825 18.6949C72.0111 17.2344 73.3952 15.9458 74.9374 14.866C76.3082 13.845 77.679 13.0427 78.7711 12.3225C79.8632 11.6023 80.7725 11.0508 81.3802 10.6314C81.6864 10.4308 81.9148 10.2622 82.0702 10.1482L82.2484 10.0206L82.3078 9.97046C82.3078 9.97046 82.2804 9.97046 82.2393 10.0069L82.0519 10.1209L81.3437 10.5767C80.7314 10.9733 79.8266 11.5339 78.7071 12.2177C77.5877 12.9014 76.2534 13.7219 74.846 14.7429C73.3005 15.8239 71.9159 17.1176 70.7336 18.5855C69.559 20.0775 68.6403 21.7533 68.0149 23.5449C67.5139 25.006 67.2067 26.5261 67.101 28.0667C67.0375 29.1009 67.0726 30.1387 67.2061 31.1663C67.2518 31.5309 67.3158 31.809 67.3477 32.0004C67.3477 32.087 67.3797 32.16 67.3934 32.2147C67.4072 32.2694 67.4209 32.2876 67.4254 32.2876Z" fill="#455A64"/>
<path id="Vector_152" d="M91.8213 49.8413C91.8213 49.8413 97.7112 52.2298 98.8398 55.2884C99.9684 58.347 108.531 83.6042 108.531 83.6042L98.5931 87.4058L94.0603 66.6202L91.8213 49.8413Z" fill="#455A64"/>
<path id="Vector_153" d="M61.3709 121.565C61.3709 121.565 122.143 118.78 125.959 119.783C129.774 120.786 132.054 122.705 132.813 127.268C133.571 131.83 145.287 192.282 145.287 192.282L134.631 195.409C134.631 195.409 119.68 161.359 119.045 155.661C118.41 149.963 116.304 138.285 116.304 138.285C116.304 138.285 93.201 138.663 76.1893 138.285C59.1776 137.907 61.4623 122.199 61.4623 122.199L61.3709 121.565Z" fill="#FFBE9D"/>
<path id="Vector_154" d="M134.499 195.682L134.421 195.5C133.809 194.105 119.452 161.354 118.822 155.684C118.237 150.455 116.395 140.049 116.121 138.513C113.836 138.549 92.1914 138.868 76.1941 138.513C70.9074 138.394 66.9275 136.794 64.3549 133.763C60.4619 129.173 61.1564 122.746 61.2432 122.203L61.1016 121.351H61.3574C63.8432 121.237 122.217 118.575 126.018 119.578C130.286 120.704 132.319 122.924 133.041 127.24C133.791 131.744 145.379 191.648 145.516 192.255L145.552 192.455L134.499 195.682ZM116.5 138.052L116.537 138.244C116.56 138.358 118.648 149.995 119.278 155.634C119.877 161.017 133.576 192.423 134.764 195.131L145.031 192.122C144.282 188.252 133.325 131.68 132.594 127.304C131.908 123.202 129.971 121.078 125.904 120.011C122.303 119.058 65.9496 121.593 61.6407 121.789L61.7093 122.203V122.235C61.7093 122.304 60.7954 128.863 64.7159 133.476C67.2016 136.402 71.0673 137.943 76.2124 138.062C93.023 138.435 116.085 138.062 116.318 138.062L116.5 138.052Z" fill="#EB996E"/>
<path id="Vector_155" d="M65.4745 88.8691L67.0053 98.3138C67.0053 98.3138 60.3569 110.881 59.6075 121.684C59.2511 126.816 62.2029 137.328 62.2029 137.328C62.2029 137.328 85.6162 139.894 98.2459 139.566L111.721 138.978L114.097 117.978L98.9724 115.799L99.2009 87.1825C99.2009 87.1825 101.942 79.6477 102.153 77.4188C102.637 72.7147 102.436 67.9559 97.725 61.8569L91.8214 49.8414L89.852 48.9298L90.7887 63.4842L73.8182 47.3982L65.2232 50.475L62.7878 61.939L65.4745 88.8691Z" fill="#455A64"/>
<g id="Group_3" opacity="0.3">
<path id="Vector_156" d="M94.8914 119.277C93.7902 119.468 85.8441 119.582 84.7429 119.774C84.5555 119.831 84.3584 119.85 84.1636 119.828C83.9688 119.807 83.7803 119.747 83.6097 119.651C83.4721 119.521 83.3768 119.353 83.3361 119.168C83.2954 118.984 83.3111 118.791 83.3812 118.616C83.5269 118.263 83.7557 117.95 84.0483 117.704C85.972 115.881 88.4715 114.828 90.9024 113.798C91.6791 113.474 92.5199 113.142 93.3332 113.342C93.7321 113.474 94.0927 113.7 94.3841 114.002C94.6755 114.304 94.8888 114.672 95.0056 115.074C95.2373 115.878 95.3331 116.714 95.2889 117.549" fill="black"/>
</g>
<g id="Group_4" opacity="0.3">
<path id="Vector_157" d="M66.1 95.4557C68.9375 94.7948 70.7196 92.0051 71.871 89.334C73.0225 86.6629 73.9729 83.7137 76.2302 81.8721C77.8843 80.5047 80.1004 79.903 81.5306 78.3167C82.2104 77.5397 82.6612 76.59 82.833 75.573C83.0048 74.556 82.8909 73.5115 82.5039 72.5551C82.0927 71.5796 81.2656 70.6589 80.2192 70.6042C78.9855 70.5404 78.0259 71.607 77.272 72.587C73.8237 77.0936 70.5718 81.743 67.5165 86.5352C65.8761 89.1106 64.2402 92.2376 65.3826 95.0683" fill="black"/>
</g>
<path id="Vector_158" d="M66.1189 51.9791C66.1189 51.9791 61.3165 53.5016 59.5801 56.5055C57.8438 59.5093 54.9651 74.0957 54.2705 78.0249C53.576 81.9541 50.2175 98.1222 54.2705 100.666C58.3235 103.209 63.6514 99.2982 65.0405 96.969C66.4296 94.6397 72.1001 82.5285 72.1001 82.5285L67.0053 78.2574C67.0053 78.2574 67.9192 66.7068 67.5856 64.2773C67.252 61.8477 66.1189 51.9791 66.1189 51.9791Z" fill="#FFBE9D"/>
<path id="Vector_159" d="M51.0581 81.9678L62.2027 82.6925L67.293 76.7304L68.7004 67.3404L68.3257 49.3763C68.3257 49.3763 58.3782 51.7968 56.226 59.3407C54.6313 64.9154 51.0581 81.9678 51.0581 81.9678Z" fill="#455A64"/>
<path id="Vector_160" d="M70.7793 60.7219C70.1396 60.6353 69.3217 61.3874 69.8654 63.2016C70.3224 64.7149 71.1814 66.1872 71.1174 67.0305C71.0535 67.8738 70.7245 69.6287 70.7245 70.5403C70.6847 71.4316 70.5977 72.3202 70.464 73.2023L62.8789 82.3188L69.4451 88.0987L74.6404 79.9577C74.6404 79.9577 76.2077 80.2175 77.117 79.1782L78.4878 77.6147C78.4878 77.6147 82.0062 76.3156 81.2888 74.424C81.2888 74.424 82.3306 73.4348 81.3848 71.8486C81.3848 71.8486 81.8783 70.1985 81.1609 69.2276C81.1609 69.2276 81.0969 67.0168 80.5074 66.6248C79.918 66.2328 73.8225 66.169 73.8225 66.169C73.4905 65.1582 73.1077 64.1648 72.6756 63.1925C72.0085 62.0939 71.6703 60.8404 70.7793 60.7219Z" fill="#FFBE9D"/>
<path id="Vector_161" d="M73.3748 69.6878C73.3748 69.7106 73.2148 69.624 73.0732 69.4098C72.8886 69.1211 72.808 68.7784 72.8445 68.4379C72.8811 68.0975 73.0326 67.7795 73.2742 67.5364C73.457 67.3586 73.6124 67.3039 73.6261 67.3267C73.3544 67.6549 73.1676 68.0446 73.0823 68.4617C73.0828 68.8875 73.1829 69.3074 73.3748 69.6878Z" fill="#EB996E"/>
<path id="Vector_162" d="M80.9053 69.0635C79.9864 69.3307 79.0411 69.4973 78.086 69.5603C77.139 69.6977 76.1797 69.7298 75.2256 69.656C76.1646 69.4929 77.1119 69.3818 78.0632 69.3233C79.0048 69.1826 79.9537 69.0958 80.9053 69.0635Z" fill="#EB996E"/>
<path id="Vector_163" d="M81.4442 71.6708C80.6868 71.9776 79.8872 72.1681 79.0727 72.236C78.2695 72.3843 77.4486 72.4119 76.6372 72.318C76.6372 72.2497 77.7156 72.1813 79.0407 71.9989C80.3658 71.8166 81.4305 71.6069 81.4442 71.6708Z" fill="#EB996E"/>
<path id="Vector_164" d="M81.3117 74.3464C80.1294 74.709 78.8866 74.8317 77.6562 74.7074C78.2574 74.5759 78.8691 74.4979 79.484 74.4743C80.0884 74.3787 80.6999 74.3359 81.3117 74.3464Z" fill="#EB996E"/>
<path id="Vector_165" d="M75.5542 75.167C75.5542 75.1943 75.4262 75.167 75.2709 75.0804C75.0661 74.9411 74.9223 74.7292 74.8688 74.4878C74.8102 74.2491 74.8428 73.9973 74.9602 73.7813C75.0515 73.6217 75.1521 73.5579 75.1749 73.5761C75.1978 73.5944 74.9876 73.9727 75.0972 74.4331C75.2069 74.8935 75.5862 75.1077 75.5542 75.167Z" fill="#EB996E"/>
<path id="Vector_166" d="M74.0555 72.9973C74.0555 73.0201 73.9047 72.9426 73.7631 72.7466C73.5813 72.4876 73.4767 72.1826 73.4615 71.8668C73.4427 71.5502 73.5123 71.2346 73.6626 70.9552C73.7859 70.7455 73.9047 70.6543 73.9276 70.6726C73.7878 71.0496 73.7107 71.4468 73.6991 71.8486C73.7574 72.2476 73.8777 72.6351 74.0555 72.9973Z" fill="#EB996E"/>
<path id="Vector_167" d="M79.4385 77.2226C79.1071 77.3978 78.7432 77.5033 78.3693 77.5326C78.0073 77.6365 77.6274 77.6629 77.2544 77.6101C77.585 77.4329 77.9493 77.3273 78.3236 77.3001C78.6852 77.1935 79.0657 77.1671 79.4385 77.2226Z" fill="#EB996E"/>
<path id="Vector_168" d="M76.5 66.21C76.5 66.2784 75.5861 66.2784 74.4301 66.3924C73.274 66.5063 72.383 66.6841 72.3647 66.6203C73.0124 66.3466 73.7044 66.1921 74.4072 66.1644C75.102 66.0559 75.8106 66.0714 76.5 66.21Z" fill="#EB996E"/>
<path id="Vector_169" d="M96.5641 88.1216H134.334C135.001 88.1216 135.64 88.3857 136.111 88.8559C136.583 89.326 136.847 89.9637 136.847 90.6286V117.335H94.0601V90.6241C94.0613 89.9615 94.3253 89.3264 94.7945 88.8575C95.2637 88.3886 95.8999 88.124 96.5641 88.1216Z" fill="#E0E0E0"/>
<path id="Vector_170" d="M136.848 119.277H86.585C86.585 118.767 86.7881 118.278 87.1497 117.917C87.5114 117.556 88.0018 117.354 88.5132 117.354H136.848V119.277Z" fill="#E0E0E0"/>
<path id="Vector_171" d="M135.267 89.9995H95.3579V117.354H135.267V89.9995Z" fill="white"/>
<path id="Vector_172" d="M135.262 117.335C135.262 117.335 135.262 117.162 135.262 116.834C135.262 116.506 135.262 116.013 135.262 115.384C135.262 114.113 135.262 112.253 135.235 109.873C135.235 105.115 135.207 98.2909 135.184 89.9813L135.28 90.077H95.3762L95.495 89.9585C95.495 99.7268 95.495 109.003 95.495 117.308L95.3899 117.199L124.136 117.253L132.36 117.285H134.549H135.111H135.308H135.125H134.572H132.406L124.222 117.312L95.4036 117.367H95.2939V117.335C95.2939 109.026 95.2939 99.7496 95.2939 89.9858V89.8673H95.4128H135.317H135.413V89.9858C135.413 98.3183 135.376 105.165 135.363 109.937C135.363 112.308 135.363 114.158 135.363 115.407C135.363 116.032 135.363 116.51 135.363 116.838C135.363 117.167 135.262 117.335 135.262 117.335Z" fill="#263238"/>
<path id="Vector_173" d="M136.637 117.336C136.637 117.404 125.849 117.454 112.543 117.454C99.2371 117.454 88.4443 117.404 88.4443 117.336C88.4443 117.267 99.2326 117.217 112.543 117.217C125.854 117.217 136.637 117.29 136.637 117.336Z" fill="#263238"/>
<path id="Vector_174" d="M115.307 114.14C121.099 114.14 125.794 109.456 125.794 103.679C125.794 97.9012 121.099 93.2175 115.307 93.2175C109.516 93.2175 104.821 97.9012 104.821 103.679C104.821 109.456 109.516 114.14 115.307 114.14Z" fill="#7A2D93"/>
<path id="Vector_175" d="M108.792 103.934L111.013 101.837L114.079 104.654L120.115 98.9883L122.308 101.058L114.047 108.88L108.792 103.934Z" fill="white"/>
<path id="Vector_176" d="M70.4734 73.2024C70.5237 73.2434 67.3754 77.0358 63.4412 81.667C59.507 86.2982 56.2764 90.0177 56.2262 89.9858C56.1759 89.9539 59.3242 86.1569 63.2584 81.5212C67.1926 76.8854 70.4231 73.1613 70.4734 73.2024Z" fill="#EB996E"/>
<path id="Vector_177" d="M69.9294 67.3268C69.8267 68.6492 69.6451 69.9643 69.3857 71.2651C69.2058 72.5801 68.9464 73.8831 68.6089 75.167C68.7114 73.8431 68.893 72.5264 69.1526 71.2241C69.3355 69.911 69.5948 68.6097 69.9294 67.3268Z" fill="#263238"/>
<path id="Vector_178" d="M99.2006 87.1824C99.2169 87.0893 99.2414 86.9978 99.2737 86.9089L99.5205 86.1432C99.7398 85.4822 100.064 84.525 100.434 83.3353C100.876 81.9454 101.245 80.5334 101.54 79.1052C101.908 77.3614 102.072 75.5809 102.029 73.7994C101.864 70.5558 100.951 67.3939 99.3605 64.5599C98.8883 63.6969 98.3697 62.86 97.8069 62.0528C97.615 61.7657 97.4505 61.5514 97.35 61.401C97.2912 61.3261 97.2407 61.2451 97.1992 61.1594C97.269 61.2224 97.3318 61.2927 97.3866 61.3691C97.5054 61.515 97.6836 61.7201 97.8892 62.0027C98.4831 62.7928 99.0264 63.6194 99.5159 64.4778C100.243 65.7557 100.842 67.1025 101.302 68.4982C101.876 70.2079 102.206 71.9892 102.285 73.7903C102.331 75.5912 102.159 77.391 101.773 79.1508C101.466 80.5828 101.078 81.9965 100.613 83.3854C100.22 84.5706 99.8723 85.5232 99.6255 86.1751C99.5067 86.4789 99.4108 86.7296 99.3377 86.9272C99.3026 87.0175 99.2565 87.1032 99.2006 87.1824Z" fill="#263238"/>
<path id="Vector_179" d="M89.4911 72.988C89.5098 73.2003 89.5098 73.4139 89.4911 73.6262C89.4904 73.8763 89.4721 74.1261 89.4362 74.3737C89.4033 74.7043 89.3529 75.033 89.2854 75.3583C89.2123 75.753 89.1146 76.1427 88.993 76.5252C88.8643 76.9691 88.7117 77.4058 88.5361 77.8334C88.1143 78.798 87.5905 79.7149 86.9734 80.5684C86.3408 81.4202 85.616 82.1999 84.8121 82.8931C84.4597 83.1934 84.0905 83.4734 83.7063 83.7318C83.3775 83.9648 83.0341 84.1764 82.6782 84.3654C82.383 84.5356 82.0779 84.6878 81.7643 84.8212C81.5398 84.9304 81.3076 85.0233 81.0698 85.0993C80.872 85.1805 80.667 85.2431 80.4575 85.2862C80.4346 85.236 81.3119 84.9671 82.5731 84.2332C82.918 84.0355 83.252 83.8194 83.5738 83.5859C83.9302 83.3489 84.2729 83.0481 84.6476 82.7427C86.222 81.3608 87.4703 79.6485 88.303 77.7286C88.4773 77.3113 88.6298 76.8853 88.76 76.4523C88.8862 76.0755 88.9915 75.692 89.0753 75.3036C89.4545 73.8997 89.4454 72.988 89.4911 72.988Z" fill="#263238"/>
<path id="Vector_180" d="M102.052 77.1315C102.026 77.1064 102.004 77.0771 101.988 77.0449L101.828 76.7668C101.677 76.5161 101.471 76.1742 101.211 75.7503C100.95 75.3264 100.544 74.8068 100.119 74.2142C99.6939 73.6216 99.1547 72.9744 98.5835 72.2496C96.2349 69.387 92.7667 65.6265 88.7914 61.6107C84.8161 57.5948 81.0829 54.0941 78.3459 51.5825L76.4816 49.9188C75.9333 49.4356 75.4581 49.0071 75.0605 48.6789L74.1466 47.9086L73.9136 47.7035C73.8836 47.6822 73.8573 47.656 73.8359 47.626C73.8687 47.642 73.8993 47.6619 73.9273 47.6852C73.9959 47.7354 74.0781 47.7946 74.1741 47.8721L75.1153 48.606L76.5638 49.8185C77.1259 50.3017 77.7564 50.8532 78.451 51.4595C81.2246 53.9209 84.9669 57.4171 88.9605 61.4283C92.9541 65.4396 96.3948 69.232 98.7115 72.1265C99.2781 72.8604 99.7898 73.5213 100.228 74.1139L101.289 75.6819C101.531 76.1378 101.746 76.466 101.869 76.7258L102.015 76.9993C102.046 77.0874 102.058 77.1315 102.052 77.1315Z" fill="#263238"/>
<path id="Vector_181" d="M93.1782 98.2179C93.0943 98.2472 93.0065 98.2641 92.9177 98.2681L92.1729 98.3729C91.5241 98.4595 90.5782 98.5598 89.4313 98.6646C87.0964 98.8743 83.8567 99.043 80.2926 99.0019C76.7285 98.9609 73.4751 98.7011 71.1539 98.4367C69.9887 98.3045 69.0474 98.1769 68.4123 98.0721L67.6675 97.9535C67.5802 97.944 67.4943 97.9241 67.4116 97.8943C67.4996 97.8832 67.5887 97.8832 67.6766 97.8943L68.426 97.9718C69.0749 98.0493 70.0207 98.1495 71.1676 98.2589C73.4934 98.4823 76.724 98.7148 80.3063 98.7558C83.8887 98.7968 87.1101 98.6509 89.445 98.4868C90.6102 98.4048 91.556 98.3319 92.1866 98.2726L92.936 98.2134C93.0167 98.2065 93.0978 98.208 93.1782 98.2179Z" fill="#263238"/>
<path id="Vector_182" d="M112.968 88.0896C112.968 88.0896 120.453 85.1769 121.161 84.9444C121.869 84.7119 128.413 84.2014 128.413 84.2014L136.848 87.2235C136.848 87.2235 136.925 88.9511 134.956 88.7186C133.22 88.4261 131.508 88.0056 129.834 87.4606L128.65 88.1625L112.968 88.0896Z" fill="#FFBE9D"/>
<path id="Vector_183" d="M136.441 89.1972C136.637 89.5938 137.149 89.653 137.542 89.8627C137.906 90.0745 138.204 90.3824 138.403 90.7525C138.602 91.1225 138.695 91.5402 138.671 91.9595C138.605 92.7977 138.327 93.6055 137.862 94.307C137.719 94.5902 137.513 94.8367 137.259 95.0272C137.129 95.1174 136.974 95.1657 136.816 95.1657C136.657 95.1657 136.503 95.1174 136.372 95.0272C136.248 94.8756 136.164 94.6947 136.129 94.5016C136.093 94.3086 136.108 94.1098 136.171 93.9241C136.414 92.47 136.098 90.6285 136.441 89.1926" fill="#FFBE9D"/>
<path id="Vector_184" d="M144.921 190.026L145.177 190.737C145.177 190.737 159.068 191.279 160.019 193.531L135.856 202L133.356 193.864C137.537 194.265 141.362 193.134 144.921 190.026Z" fill="#455A64"/>
<g id="Group_5" opacity="0.6">
<path id="Vector_185" d="M136.71 195.568C136.502 195.721 136.358 195.945 136.305 196.197C136.252 196.449 136.293 196.712 136.422 196.936C136.568 197.153 136.792 197.305 137.048 197.36C137.304 197.415 137.571 197.369 137.793 197.232C138.014 197.071 138.166 196.834 138.221 196.567C138.276 196.3 138.229 196.022 138.09 195.787C137.916 195.582 137.669 195.452 137.401 195.424C137.133 195.396 136.864 195.472 136.651 195.637" fill="white"/>
</g>
<g id="Group_6" opacity="0.6">
<path id="Vector_186" d="M135.856 202L135.257 200.044L158.634 192.642C158.634 192.642 159.872 192.733 160.005 193.553L135.856 202Z" fill="white"/>
</g>
<path id="Vector_187" d="M145.287 190.778C145.324 190.896 144.752 191.156 144.305 191.739C143.857 192.323 143.724 192.924 143.601 192.915C143.478 192.906 143.409 192.163 143.962 191.47C144.515 190.778 145.273 190.659 145.287 190.778Z" fill="#263238"/>
<path id="Vector_188" d="M148.189 190.933C148.257 191.037 147.814 191.416 147.59 192.054C147.366 192.692 147.435 193.262 147.316 193.298C147.197 193.335 146.886 192.692 147.183 191.903C147.48 191.115 148.148 190.823 148.189 190.933Z" fill="#263238"/>
<path id="Vector_189" d="M150.693 193.458C150.597 193.522 150.236 193.002 150.3 192.241C150.364 191.48 150.839 191.042 150.921 191.119C151.004 191.197 150.789 191.666 150.734 192.282C150.679 192.897 150.807 193.403 150.693 193.458Z" fill="#263238"/>
</g>
</g>
</g>
</svg>
