<svg width="206" height="202" viewBox="0 0 206 202" fill="none" xmlns="http://www.w3.org/2000/svg">
<g id="Group 432">
<g id="waiting/amico">
<g id="Window">
<g id="window">
<path id="Vector" d="M47.3073 58.8829L3.59864 84.2204V33.3332L47.3073 8.00024V58.8829Z" fill="white"/>
<path id="Vector_2" d="M2.73985 84.7169L3.59414 85.2316L48.1616 59.3975L47.3073 58.8828L2.73985 84.7169Z" fill="#FAFAFA"/>
<path id="Vector_3" d="M49.7802 4.68176L1.97999 32.3941V88.0444L49.7802 60.3321V4.68176ZM48.1616 59.3975L3.59866 85.2316V33.3332L48.1616 7.49453V59.3975Z" fill="#F0F0F0"/>
<path id="Vector_4" d="M48.1617 59.3975L47.3073 58.8828V8.00017L48.1617 7.49451V59.3975Z" fill="#E0E0E0"/>
<path id="Vector_5" d="M49.7804 4.68182L48.9082 4.18518L1.1079 31.893L1.98019 32.3941L49.7804 4.68182Z" fill="#FAFAFA"/>
<path id="Vector_6" d="M1.1079 31.8929L1.98036 32.3941V88.0444L1.1079 87.5433V31.8929Z" fill="#E0E0E0"/>
<path id="Vector_7" d="M4.30906 57.4697V58.481L48.1616 33.0217L47.3073 32.507L4.30906 57.4697Z" fill="#FAFAFA"/>
<path id="Vector_8" d="M24.502 21.2199L25.3699 20.7142V72.6172L24.502 72.1161V21.2199Z" fill="#E0E0E0"/>
<path id="Vector_9" d="M26.9888 19.7795L25.3698 20.7141V72.6171L26.9888 71.678V19.7795Z" fill="#F0F0F0"/>
<path id="Vector_10" d="M48.1616 33.0217V34.8954L3.58066 60.8379V58.9642L48.1616 33.0217Z" fill="#F0F0F0"/>
<path id="Vector_11" d="M25.3698 46.2864L24.502 45.7491L3.59416 57.8806V58.9642L25.3698 46.2864Z" fill="#FAFAFA"/>
</g>
</g>
<g id="Pictures">
<g id="Picture">
<g id="Frame">
<path id="Vector_12" d="M56.4528 23.8566L57.1767 24.29L72.0055 15.6937L71.2816 15.2603L56.4528 23.8566Z" fill="#FAFAFA"/>
<path id="Vector_13" d="M71.2816 15.2603L57.1767 23.4367V11.391L71.2816 3.21912V15.2603Z" fill="white"/>
<path id="Vector_14" d="M73.368 0.419922L55.8324 10.601V26.6604L73.368 16.4838V0.419922ZM72.0191 15.6937L57.1813 24.272V11.3911L72.0191 2.8128V15.6937Z" fill="#F0F0F0"/>
<path id="Vector_15" d="M72.0056 15.6938L71.2816 15.2604V3.2192L72.0056 2.7948V15.6938Z" fill="#E0E0E0"/>
<path id="Vector_16" d="M73.3679 0.419883L72.635 0L55.0769 10.1765L55.8098 10.6009L73.3679 0.419883Z" fill="#FAFAFA"/>
<path id="Vector_17" d="M55.0769 10.1765L55.8099 10.6009V26.6603L55.0769 26.2404V10.1765Z" fill="#E0E0E0"/>
</g>
<g id="Land">
<path id="Vector_18" d="M70.733 14.8133L57.7252 22.3577V21.3734L60.976 13.8336L63.0039 15.7208L62.7206 17.468L66.7673 9.23743L70.733 13.8336V14.8133Z" fill="#F0F0F0"/>
<path id="Vector_19" d="M62.8826 10.1946C62.6021 10.3769 62.3686 10.6233 62.2014 10.9137C62.0341 11.2041 61.9377 11.5301 61.9202 11.8651C61.9202 12.4836 62.3475 12.732 62.8826 12.425C63.163 12.2414 63.3963 11.9941 63.5635 11.7031C63.7307 11.412 63.8272 11.0855 63.845 10.7499C63.845 10.1359 63.4133 9.88759 62.8826 10.1946Z" fill="#F0F0F0"/>
</g>
</g>
<g id="picture">
<g id="frame">
<path id="Vector_20" d="M56.5562 48.8555L57.2801 49.2889L72.1134 40.6926L71.3895 40.2592L56.5562 48.8555Z" fill="#FAFAFA"/>
<path id="Vector_21" d="M71.3895 40.2592L57.2801 48.4356V36.3899L71.3895 28.218V40.2592Z" fill="white"/>
<path id="Vector_22" d="M73.476 25.4188L55.9404 35.5999V51.6593L73.476 41.4827V25.4188ZM72.1271 40.6926L57.2892 49.2709V36.39L72.1271 27.8117V40.6926Z" fill="#F0F0F0"/>
<path id="Vector_23" d="M72.1136 40.6927L71.3895 40.2593V28.2181L72.1136 27.7937V40.6927Z" fill="#E0E0E0"/>
<path id="Vector_24" d="M73.4758 25.4188L72.7429 24.9989L55.1848 35.1799L55.9177 35.5998L73.4758 25.4188Z" fill="#FAFAFA"/>
<path id="Vector_25" d="M55.1848 35.1799L55.9179 35.5998V51.6592L55.1848 51.2393V35.1799Z" fill="#E0E0E0"/>
</g>
<g id="land">
<path id="Vector_26" d="M70.8365 39.8167L57.8331 47.3566V46.3723L61.084 38.8325L63.1073 40.7197L62.8285 42.4669L66.8707 34.2363L70.8365 38.8325V39.8167Z" fill="#F0F0F0"/>
<path id="Vector_27" d="M62.9861 35.1936C62.7057 35.3771 62.4724 35.6245 62.3052 35.9155C62.138 36.2066 62.0415 36.5331 62.0237 36.8687C62.0237 37.4827 62.4734 37.731 62.9861 37.424C63.2658 37.2409 63.4988 36.9943 63.6659 36.7041C63.8331 36.4139 63.9299 36.0882 63.9485 35.7535C63.9485 35.1349 63.5167 34.8866 62.9861 35.1936Z" fill="#F0F0F0"/>
</g>
</g>
<g id="picture_2">
<g id="frame_2">
<path id="Vector_28" d="M131.91 57.3569L130.912 57.9574L115.359 48.9412L116.357 48.3407L131.91 57.3569Z" fill="#FAFAFA"/>
<path id="Vector_29" d="M116.357 48.3408L130.912 56.7745V18.9309L116.357 10.5016V48.3408Z" fill="white"/>
<path id="Vector_30" d="M113.475 50.0338L132.809 61.2352V17.8337L113.475 6.63232V50.0338ZM115.345 9.91464L130.898 18.9444V57.971L115.345 48.9412V9.91464Z" fill="#F0F0F0"/>
<path id="Vector_31" d="M115.359 48.9411L116.357 48.3407V10.5015L115.359 9.91455V48.9411Z" fill="#E0E0E0"/>
<path id="Vector_32" d="M113.47 6.63235L114.487 6.04993L133.812 17.2513L132.796 17.8338L113.47 6.63235Z" fill="#FAFAFA"/>
<path id="Vector_33" d="M133.812 17.2513L132.796 17.8338V61.2398L133.812 60.6528V17.2513Z" fill="#E0E0E0"/>
</g>
<g id="land_2">
<path id="Vector_34" d="M117.823 47.1715L129.455 53.9122V20.7053L117.823 13.9601V47.1715Z" fill="#F0F0F0"/>
</g>
<g id="land_3">
<path id="Vector_35" d="M117.823 47.1715L129.455 53.9122V20.7053L117.823 13.9601V47.1715Z" fill="#F0F0F0"/>
</g>
<path id="Vector_36" d="M129.455 42.4217C128.915 42.61 128.358 42.7416 127.791 42.8145C125.898 43.0864 123.969 42.9619 122.126 42.4488C120.718 42.0514 119.311 41.4374 117.823 41.7444V47.1623L119.397 48.0653C119.951 47.168 120.688 46.3986 121.559 45.8078C123.807 44.4127 126.096 45.4602 128.398 45.266C128.755 45.2326 129.108 45.1707 129.455 45.0809V42.4217Z" fill="#FAFAFA"/>
<path id="Vector_37" d="M129.455 36.9001C126.851 36.4486 124.181 36.1822 122.324 33.9067C120.826 32.0737 120.125 29.1932 119.626 26.3262C119.127 23.4593 118.794 20.4569 117.85 17.924C117.85 17.897 117.827 17.8744 117.818 17.8473V35.1573C117.962 35.4327 118.111 35.7081 118.268 35.97C119.977 38.864 122.495 41.0131 125.372 40.5165C126.721 40.2817 128.115 39.4871 129.455 39.162V36.9001Z" fill="#FAFAFA"/>
<path id="Vector_38" d="M129.455 29.8613C127.458 27.8341 126.388 24.0507 126.878 20.1633C126.914 19.8744 126.959 19.5854 127.009 19.301L122.54 16.6914C122.54 17.1113 122.571 17.5267 122.58 17.9465C122.625 20.3801 122.58 22.8723 122.944 25.1703C123.583 29.017 125.498 32.0871 128.043 33.3468C128.494 33.567 128.97 33.7337 129.459 33.8434L129.455 29.8613Z" fill="#FAFAFA"/>
</g>
</g>
<g id="Door">
<g id="door">
<g id="Interior">
<path id="Vector_39" d="M151.347 152.029L197.223 178.595V126.191L151.347 152.029Z" fill="#E0E0E0"/>
</g>
<g id="interior" opacity="0.15">
<path id="Vector_40" d="M151.347 152.029L197.223 178.595V126.191L151.347 152.029Z" fill="black"/>
</g>
<g id="door_2">
<g id="door_3">
<path id="Vector_41" d="M153.519 20.0957V150.806L199.381 177.367V46.6567L153.519 20.0957ZM172.898 89.1462L159.063 81.1142V28.7146L172.898 36.7466V89.1462ZM192.997 100.79L179.112 92.7671V40.363L192.997 48.3724V100.79Z" fill="#455A64"/>
<path id="Vector_42" d="M179.112 92.7852L177.615 93.6565L192.997 102.551V100.79L179.112 92.7852Z" fill="#263238"/>
<path id="Vector_43" d="M159.063 81.1368L157.561 82.0082L172.898 90.907L174.395 90.0357L159.063 81.1368Z" fill="#263238"/>
<path id="Vector_44" d="M159.063 81.1367V28.7145L157.557 27.8431L157.561 82.0081L159.063 81.1367Z" fill="#37474F"/>
<path id="Vector_45" d="M177.616 93.6566L172.898 90.907V36.7646L177.616 39.5142V93.6566Z" fill="#455A64"/>
<path id="Vector_46" d="M177.615 93.6565L179.112 92.7852V40.363L177.615 39.5142V93.6565Z" fill="#37474F"/>
<path id="Vector_47" opacity="0.1" d="M177.615 100.894L192.997 109.784V165.606L177.615 156.711V100.894Z" fill="black"/>
<path id="Vector_48" d="M178.671 104.406L190.569 111.278V161.294L178.671 154.422V104.406Z" fill="#455A64"/>
<path id="Vector_49" d="M192.997 109.784L190.569 111.278V161.294L192.997 165.606V109.784Z" fill="#37474F"/>
<path id="Vector_50" d="M177.615 100.894L178.672 104.407V154.422L177.615 156.711V100.894Z" fill="#37474F"/>
<path id="Vector_51" d="M177.615 156.711L178.671 154.422L190.569 161.294L192.997 165.606L177.615 156.711Z" fill="#263238"/>
<path id="Vector_52" opacity="0.1" d="M157.557 89.241L172.898 98.1398L172.894 153.962L157.557 145.063V89.241Z" fill="black"/>
<path id="Vector_53" d="M158.613 92.7537L170.47 99.6343V149.65L158.613 142.774V92.7537Z" fill="#455A64"/>
<path id="Vector_54" d="M172.899 98.1399L170.47 99.6343V149.65L172.894 153.962L172.899 98.1399Z" fill="#37474F"/>
<path id="Vector_55" d="M157.557 89.241L158.614 92.7535V142.774L157.557 145.063V89.241Z" fill="#37474F"/>
<path id="Vector_56" d="M157.557 145.063L158.613 142.774L170.47 149.65L172.894 153.962L157.557 145.063Z" fill="#263238"/>
<g id="Latch">
<path id="Vector_57" d="M197.992 104.122L197.223 104.569L197.219 117.382L197.992 116.935V104.122Z" fill="#E0E0E0"/>
<path id="Vector_58" d="M197.224 104.569L193.078 102.167V114.98L197.22 117.382L197.224 104.569Z" fill="#FAFAFA"/>
<path id="Vector_59" opacity="0.05" d="M193.078 105.711L194.876 106.763V108.845C194.876 108.888 194.865 108.931 194.844 108.968C194.822 109.006 194.791 109.037 194.754 109.059C194.717 109.081 194.674 109.093 194.631 109.093C194.588 109.094 194.545 109.083 194.508 109.061L193.064 108.221L193.078 105.711Z" fill="black"/>
<path id="Vector_60" d="M193.078 102.167L193.847 101.72L197.993 104.122L197.224 104.569L193.078 102.167Z" fill="#EBEBEB"/>
<path id="Vector_61" d="M195.632 106.316L193.73 107.418L192.97 106.09L194.872 104.989C194.934 104.962 195.001 104.951 195.068 104.958C195.135 104.966 195.199 104.99 195.254 105.029C195.41 105.132 195.54 105.27 195.633 105.432C195.726 105.595 195.78 105.777 195.789 105.964C195.796 106.031 195.786 106.099 195.758 106.161C195.73 106.223 195.687 106.276 195.632 106.316Z" fill="#E0E0E0"/>
<path id="Vector_62" opacity="0.1" d="M194.89 106.745L194.202 107.147V106.235L193.464 105.806L194.157 105.404L194.89 105.833V106.745Z" fill="black"/>
<path id="Vector_63" d="M193.972 106.375L193.968 108.38L186.369 103.973V101.973L193.972 106.375Z" fill="#FAFAFA"/>
<path id="Vector_64" d="M193.972 106.375L194.66 105.978V107.978L193.968 108.379L193.972 106.375Z" fill="#E0E0E0"/>
<path id="Vector_65" d="M186.369 101.973L187.062 101.571L194.66 105.978L193.972 106.375L186.369 101.973Z" fill="#EBEBEB"/>
<path id="Vector_66" d="M195.83 111.96C195.816 111.717 195.746 111.48 195.625 111.269C195.504 111.058 195.335 110.879 195.133 110.745C194.746 110.52 194.431 110.7 194.431 111.147C194.452 111.516 194.601 111.866 194.854 112.136V113.445C194.858 113.527 194.882 113.607 194.924 113.677C194.965 113.748 195.023 113.808 195.092 113.851L195.173 113.901C195.303 113.978 195.407 113.901 195.407 113.766V112.456C195.672 112.483 195.83 112.289 195.83 111.96Z" fill="#455A64"/>
</g>
<path id="Vector_67" d="M159.063 28.7146L172.898 36.7646V89.1643L159.063 81.1368V28.7146Z" fill="#7A2D93"/>
<path id="Vector_68" opacity="0.4" d="M159.063 28.7146L172.898 36.7646V89.1643L159.063 81.1368V28.7146Z" fill="white"/>
<path id="Vector_69" d="M179.112 40.363L192.997 48.386V100.79L179.112 92.7898V40.363Z" fill="#7A2D93"/>
<path id="Vector_70" opacity="0.4" d="M179.112 40.363L192.997 48.386V100.79L179.112 92.7898V40.363Z" fill="white"/>
<path id="Vector_71" opacity="0.2" d="M169.18 34.6019L159.063 44.7604V47.4287L170.861 35.5816L169.18 34.6019ZM163.074 31.0487L159.063 35.076V40.5796L166.545 33.0669L163.074 31.0487ZM168.469 86.5817L172.898 82.1436V79.4753L166.783 85.6155L168.469 86.5817ZM179.117 40.3494V40.4893L179.206 40.4035L179.117 40.3494ZM164.566 84.3152L172.898 75.9627V73.2944L162.88 83.3535L164.566 84.3152ZM182.862 42.512L179.117 46.2729V48.9457L184.548 43.4872L182.862 42.512ZM189.157 46.1239L179.139 56.183V61.6867L192.628 48.142L189.157 46.1239ZM159.09 60.6121L172.898 46.7469V39.794L159.063 53.6863L159.09 60.6121ZM179.139 91.3991L193.024 77.4571V70.5268L179.112 84.4913L179.139 91.3991ZM183.073 95.011L193.024 85.0195V82.3512L181.383 94.0357L183.073 95.011ZM179.112 75.913L192.997 61.9621V59.2938L179.112 73.2357V75.913ZM159.063 81.1458L159.513 81.4076L172.898 67.9533V62.4497L159.063 76.3645V81.1458ZM189.494 98.7809L192.997 95.2638V89.7511L186.014 96.7627L189.494 98.7809ZM159.063 69.1001L172.898 55.1988V52.5305L159.063 66.4318V69.1001ZM179.112 67.0639V69.7322L192.997 55.7902V53.1129L179.112 67.0639Z" fill="white"/>
</g>
<path id="Vector_72" d="M201.576 176.098L199.39 177.367V46.6567L201.576 45.3926V176.098Z" fill="#263238"/>
<path id="Vector_73" d="M155.7 18.827L201.576 45.3925L199.39 46.6567L153.519 20.0957L155.7 18.827Z" fill="#37474F"/>
</g>
<g id="Casing">
<path id="Vector_74" d="M153.519 150.806L151.347 152.029V18.8361L153.515 20.0912L153.519 150.806Z" fill="#E0E0E0"/>
<path id="Vector_75" d="M151.347 152.029L144.711 148.178V7.2915L203.869 41.5504V182.428L197.223 178.595V45.4016L151.352 18.836L151.347 152.029Z" fill="#F5F5F5"/>
<path id="Vector_76" d="M145.16 8.07258L203.419 41.8122V181.651L197.673 178.333V45.1442L197.448 45.0133L151.586 18.4478L150.911 18.0595V151.248L145.174 147.921V8.07258M144.724 7.2915V148.183L151.361 152.029V18.8406L197.223 45.4061V178.595L203.869 182.428V41.5639L144.711 7.28699L144.724 7.2915Z" fill="#E0E0E0"/>
<path id="Vector_77" d="M144.711 7.29152L203.869 41.5504L206 40.3088L146.842 6.04993L144.711 7.29152Z" fill="#FAFAFA"/>
<path id="Vector_78" d="M203.869 182.428V41.5504L206 40.3088V181.196L203.869 182.428Z" fill="#E0E0E0"/>
</g>
</g>
</g>
<g id="Plant">
<g id="plant">
<g id="Pot">
<path id="Vector_79" d="M124.477 147.7C121.249 144.354 119.352 135.938 122.499 133.284H138.528C141.676 135.938 139.783 144.345 136.555 147.695L136.469 147.785L136.357 147.898C136.267 147.989 136.168 148.074 136.064 148.16L135.988 148.223C135.907 148.287 135.831 148.35 135.745 148.409C135.611 148.507 135.471 148.597 135.327 148.679C132.67 150.237 128.362 150.237 125.705 148.679C125.558 148.598 125.417 148.508 125.282 148.409L125.057 148.232L124.963 148.156C124.86 148.074 124.77 147.989 124.68 147.903L124.554 147.776L124.477 147.7Z" fill="#EBEBEB"/>
<path id="Vector_80" d="M137.139 132.236C140.795 134.376 140.795 137.853 137.139 139.997C133.484 142.142 127.548 142.142 123.893 139.997C120.237 137.853 120.237 134.376 123.893 132.236C127.548 130.096 133.479 130.092 137.139 132.236Z" fill="#FAFAFA"/>
<path id="Vector_81" d="M135.376 133.252C138.074 134.828 138.074 137.379 135.376 138.954C132.679 140.53 128.34 140.53 125.651 138.954C122.962 137.379 122.953 134.828 125.651 133.252C128.349 131.676 132.692 131.69 135.376 133.252Z" fill="#E0E0E0"/>
<path id="Vector_82" d="M125.651 135.961C128.349 134.39 132.692 134.39 135.376 135.961C136.028 136.319 136.581 136.834 136.986 137.46C136.581 138.085 136.028 138.6 135.376 138.959C132.679 140.534 128.34 140.534 125.651 138.959C125 138.602 124.448 138.086 124.046 137.46C124.448 136.833 125 136.318 125.651 135.961Z" fill="#EBEBEB"/>
</g>
<path id="Vector_83" d="M129.437 114.506C128.209 115.861 124.797 116.213 123.38 112.601C122.054 109.215 120.624 106.005 120.233 104.759C120.175 104.596 120.151 104.424 120.161 104.252C120.172 104.08 120.216 103.912 120.293 103.758C120.369 103.604 120.476 103.467 120.606 103.355C120.736 103.243 120.888 103.158 121.051 103.106C121.051 103.106 121.15 101.246 124.289 102.506C127.427 103.765 129.644 105.666 131.033 108.777C132.422 111.888 131.532 114.091 129.437 114.506Z" fill="#E0E0E0"/>
<path id="Vector_84" opacity="0.45" d="M129.437 114.506C128.209 115.861 124.797 116.213 123.38 112.601C122.054 109.215 120.624 106.005 120.233 104.759C120.175 104.596 120.151 104.424 120.161 104.252C120.172 104.08 120.216 103.912 120.293 103.758C120.369 103.604 120.476 103.467 120.606 103.355C120.736 103.243 120.888 103.158 121.051 103.106C121.051 103.106 121.15 101.246 124.289 102.506C127.427 103.765 129.644 105.666 131.033 108.777C132.422 111.888 131.532 114.091 129.437 114.506Z" fill="white"/>
<path id="Vector_85" d="M130.795 119.283C130.741 118.651 130.651 118.022 130.525 117.4C130.265 116.165 129.917 114.95 129.482 113.766C128.599 111.353 127.374 109.081 125.844 107.021C124.995 105.847 124.037 104.755 122.985 103.761C122.953 103.734 122.926 103.806 122.949 103.829C126.47 107.515 128.915 112.102 130.017 117.089C130.174 117.775 130.318 118.466 130.444 119.157C130.57 119.847 130.646 120.57 130.763 121.274C130.763 121.346 130.885 121.387 130.889 121.274C130.908 120.609 130.877 119.943 130.795 119.283Z" fill="#E0E0E0"/>
<path id="Vector_86" opacity="0.1" d="M130.795 119.283C130.741 118.651 130.651 118.022 130.525 117.4C130.265 116.165 129.917 114.95 129.482 113.766C128.599 111.353 127.374 109.081 125.844 107.021C124.995 105.847 124.037 104.755 122.985 103.761C122.953 103.734 122.926 103.806 122.949 103.829C126.47 107.515 128.915 112.102 130.017 117.089C130.174 117.775 130.318 118.466 130.444 119.157C130.57 119.847 130.646 120.57 130.763 121.274C130.763 121.346 130.885 121.387 130.889 121.274C130.908 120.609 130.877 119.943 130.795 119.283Z" fill="black"/>
<path id="Vector_87" d="M131.847 113.572C129.023 114.448 126.928 112.217 127.656 108.772C128.385 105.327 132.009 101.454 133.376 102.488C134.234 101.63 136.118 101.937 137.004 104.745C137.89 107.553 137.085 114.8 131.847 113.572Z" fill="#E0E0E0"/>
<path id="Vector_88" opacity="0.25" d="M131.847 113.572C129.023 114.448 126.928 112.217 127.656 108.772C128.385 105.327 132.009 101.454 133.376 102.488C134.234 101.63 136.118 101.937 137.004 104.745C137.89 107.553 137.085 114.8 131.847 113.572Z" fill="white"/>
<path id="Vector_89" d="M133.502 104.596C132.7 106.615 132.072 108.7 131.627 110.827C131.145 112.98 130.782 115.158 130.539 117.351C130.082 121.595 129.893 125.864 129.972 130.132C129.972 131.311 129.994 132.489 130.017 133.667C130.039 134.846 130.017 136.11 130.125 137.32C130.165 137.771 130.822 137.659 130.831 137.234C130.871 135.112 130.754 132.977 130.732 130.855C130.709 128.733 130.732 126.656 130.772 124.556C130.844 120.28 131.226 116.014 131.915 111.793C132.117 110.614 132.342 109.441 132.612 108.28C132.882 107.12 133.25 105.856 133.57 104.646C133.583 104.596 133.529 104.533 133.502 104.596Z" fill="#E0E0E0"/>
<path id="Vector_90" opacity="0.1" d="M133.502 104.596C132.7 106.615 132.072 108.7 131.627 110.827C131.145 112.98 130.782 115.158 130.539 117.351C130.082 121.595 129.893 125.864 129.972 130.132C129.972 131.311 129.994 132.489 130.017 133.667C130.039 134.846 130.017 136.11 130.125 137.32C130.165 137.771 130.822 137.659 130.831 137.234C130.871 135.112 130.754 132.977 130.732 130.855C130.709 128.733 130.732 126.656 130.772 124.556C130.844 120.28 131.226 116.014 131.915 111.793C132.117 110.614 132.342 109.441 132.612 108.28C132.882 107.12 133.25 105.856 133.57 104.646C133.583 104.596 133.529 104.533 133.502 104.596Z" fill="black"/>
<path id="Vector_91" d="M127.256 123.739C126.024 125.139 123.209 125.017 121.308 122.516C119.406 120.014 118.272 110.614 120.939 111.228C121.505 109.973 128.87 112.989 129.815 119.12C130.502 123.568 127.256 123.739 127.256 123.739Z" fill="#E0E0E0"/>
<path id="Vector_92" opacity="0.25" d="M127.256 123.739C126.024 125.139 123.209 125.017 121.308 122.516C119.406 120.014 118.272 110.614 120.939 111.228C121.505 109.973 128.87 112.989 129.815 119.12C130.502 123.568 127.256 123.739 127.256 123.739Z" fill="white"/>
<path id="Vector_93" d="M129.459 128.177C129.376 127.599 129.254 127.028 129.095 126.466C128.788 125.315 128.422 124.18 127.998 123.066C127.125 120.796 126.022 118.622 124.707 116.579C123.999 115.426 123.22 114.319 122.373 113.265C122.351 113.238 122.328 113.301 122.342 113.323C122.998 114.285 123.664 115.238 124.257 116.244C124.851 117.251 125.422 118.371 125.925 119.468C126.904 121.588 127.718 123.781 128.358 126.028C128.538 126.665 128.686 127.31 128.87 127.947C129.055 128.584 129.32 129.252 129.477 129.92C129.5 130.015 129.626 130.051 129.612 129.92C129.554 129.329 129.536 128.737 129.459 128.177Z" fill="#E0E0E0"/>
<path id="Vector_94" opacity="0.1" d="M129.459 128.177C129.376 127.599 129.254 127.028 129.095 126.466C128.788 125.315 128.422 124.18 127.998 123.066C127.125 120.796 126.022 118.622 124.707 116.579C123.999 115.426 123.22 114.319 122.373 113.265C122.351 113.238 122.328 113.301 122.342 113.323C122.998 114.285 123.664 115.238 124.257 116.244C124.851 117.251 125.422 118.371 125.925 119.468C126.904 121.588 127.718 123.781 128.358 126.028C128.538 126.665 128.686 127.31 128.87 127.947C129.055 128.584 129.32 129.252 129.477 129.92C129.5 130.015 129.626 130.051 129.612 129.92C129.554 129.329 129.536 128.737 129.459 128.177Z" fill="black"/>
<path id="Vector_95" d="M131.766 122.348C130.152 121.978 130.071 120.037 132.09 117.648C134.109 115.26 139.18 114.222 139.423 115.229C140.552 115.229 140.552 118.777 138.052 122.037C135.552 125.297 131.914 124.538 131.766 122.348Z" fill="#E0E0E0"/>
<path id="Vector_96" opacity="0.25" d="M131.766 122.348C130.152 121.978 130.071 120.037 132.09 117.648C134.109 115.26 139.18 114.222 139.423 115.229C140.552 115.229 140.552 118.777 138.052 122.037C135.552 125.297 131.914 124.538 131.766 122.348Z" fill="white"/>
<path id="Vector_97" d="M134.923 118.881C132.791 120.372 131.164 122.481 130.26 124.927C130.206 125.067 130.444 125.27 130.503 125.116C131.417 122.697 132.944 120.559 134.932 118.913C134.932 118.913 134.946 118.863 134.923 118.881Z" fill="#E0E0E0"/>
<path id="Vector_98" opacity="0.1" d="M134.923 118.881C132.791 120.372 131.164 122.481 130.26 124.927C130.206 125.067 130.444 125.27 130.503 125.116C131.417 122.697 132.944 120.559 134.932 118.913C134.932 118.913 134.946 118.863 134.923 118.881Z" fill="black"/>
<path id="Vector_99" d="M133.605 134.191C131.357 135.094 132.332 137.767 134.504 139.799C136.387 141.439 138.811 142.315 141.303 142.255C142.8 142.146 143.187 141.939 143.187 141.939C143.321 140.705 143.321 139.461 143.187 138.227C142.946 136.871 142.322 135.613 141.388 134.605C140.454 133.596 139.251 132.878 137.921 132.539C134.441 131.59 133.605 132.859 133.605 134.191Z" fill="#E0E0E0"/>
<path id="Vector_100" opacity="0.45" d="M133.605 134.191C131.357 135.094 132.332 137.767 134.504 139.799C136.387 141.439 138.811 142.315 141.303 142.255C142.8 142.146 143.187 141.939 143.187 141.939C143.321 140.705 143.321 139.461 143.187 138.227C142.946 136.871 142.322 135.613 141.388 134.605C140.454 133.596 139.251 132.878 137.921 132.539C134.441 131.59 133.605 132.859 133.605 134.191Z" fill="white"/>
<path id="Vector_101" d="M139.787 138.132C138.788 136.936 137.64 135.874 136.37 134.972C135.098 134.132 133.403 133.414 131.874 133.938C131.285 134.141 130.363 134.733 130.475 135.469C130.475 135.541 130.615 135.721 130.7 135.622C130.937 135.281 131.206 134.965 131.505 134.679C131.857 134.421 132.272 134.265 132.706 134.227C133.802 134.146 134.898 134.394 135.853 134.94C137.364 135.744 138.582 136.995 139.783 138.187C139.783 138.182 139.801 138.146 139.787 138.132Z" fill="#E0E0E0"/>
<path id="Vector_102" opacity="0.1" d="M139.787 138.132C138.788 136.936 137.64 135.874 136.37 134.972C135.098 134.132 133.403 133.414 131.874 133.938C131.285 134.141 130.363 134.733 130.475 135.469C130.475 135.541 130.615 135.721 130.7 135.622C130.937 135.281 131.206 134.965 131.505 134.679C131.857 134.421 132.272 134.265 132.706 134.227C133.802 134.146 134.898 134.394 135.853 134.94C137.364 135.744 138.582 136.995 139.783 138.187C139.783 138.182 139.801 138.146 139.787 138.132Z" fill="black"/>
<path id="Vector_103" d="M125.107 122.71C125.318 121.689 123.848 119.247 119.262 118.777C114.675 118.308 111.254 120.258 110.561 121.148C109.869 122.037 109.523 122.976 110.355 123.211C111.186 123.446 114.041 123.721 115.921 124.592C117.8 125.464 121.618 128.024 124.221 127.261C126.824 126.498 126.402 123.726 125.107 122.71Z" fill="#E0E0E0"/>
<path id="Vector_104" opacity="0.45" d="M125.107 122.71C125.318 121.689 123.848 119.247 119.262 118.777C114.675 118.308 111.254 120.258 110.561 121.148C109.869 122.037 109.523 122.976 110.355 123.211C111.186 123.446 114.041 123.721 115.921 124.592C117.8 125.464 121.618 128.024 124.221 127.261C126.824 126.498 126.402 123.726 125.107 122.71Z" fill="white"/>
<path id="Vector_105" d="M128.587 126.267C126.654 122.263 121.676 121.062 117.594 121.062C116.255 121.065 114.923 121.238 113.628 121.576C113.628 121.576 113.605 121.626 113.628 121.626C115.82 121.252 118.057 121.229 120.255 121.558C122.431 121.843 124.508 122.647 126.312 123.902C127.187 124.562 127.923 125.39 128.475 126.34C128.551 126.443 128.623 126.353 128.587 126.267Z" fill="#E0E0E0"/>
<path id="Vector_106" opacity="0.1" d="M128.587 126.267C126.654 122.263 121.676 121.062 117.594 121.062C116.255 121.065 114.923 121.238 113.628 121.576C113.628 121.576 113.605 121.626 113.628 121.626C115.82 121.252 118.057 121.229 120.255 121.558C122.431 121.843 124.508 122.647 126.312 123.902C127.187 124.562 127.923 125.39 128.475 126.34C128.551 126.443 128.623 126.353 128.587 126.267Z" fill="black"/>
<path id="Vector_107" d="M135.772 117.346C135.714 118.953 137.966 119.888 140.147 118.497C142.328 117.107 144.612 115.752 146.635 115.229C148.659 114.705 149.612 113.048 148.973 112.249C148.335 111.45 147.319 109.427 142.009 110.086C136.698 110.745 134.814 113.152 134.086 114.849C133.358 116.547 134.972 117.811 135.772 117.346Z" fill="#E0E0E0"/>
<path id="Vector_108" opacity="0.45" d="M135.772 117.346C135.714 118.953 137.966 119.888 140.147 118.497C142.328 117.107 144.612 115.752 146.635 115.229C148.659 114.705 149.612 113.048 148.973 112.249C148.335 111.45 147.319 109.427 142.009 110.086C136.698 110.745 134.814 113.152 134.086 114.849C133.358 116.547 134.972 117.811 135.772 117.346Z" fill="white"/>
<path id="Vector_109" d="M144.419 112.244C143.65 112.168 142.875 112.249 142.139 112.484C141.468 112.656 140.815 112.89 140.188 113.183C138.937 113.769 137.809 114.589 136.865 115.599C136.597 115.883 136.347 116.185 136.118 116.502C135.884 116.784 135.692 117.099 135.547 117.436C135.511 117.54 135.669 117.712 135.759 117.603C136.024 117.301 136.208 116.926 136.469 116.606C136.733 116.261 137.019 115.934 137.323 115.626C137.937 115.004 138.624 114.46 139.369 114.005C140.08 113.562 140.833 113.192 141.617 112.899C142.067 112.741 142.494 112.61 142.939 112.497C143.408 112.354 143.897 112.287 144.387 112.298C144.428 112.303 144.441 112.244 144.419 112.244Z" fill="#E0E0E0"/>
<path id="Vector_110" opacity="0.1" d="M144.419 112.244C143.65 112.168 142.875 112.249 142.139 112.484C141.468 112.656 140.815 112.89 140.188 113.183C138.937 113.769 137.809 114.589 136.865 115.599C136.597 115.883 136.347 116.185 136.118 116.502C135.884 116.784 135.692 117.099 135.547 117.436C135.511 117.54 135.669 117.712 135.759 117.603C136.024 117.301 136.208 116.926 136.469 116.606C136.733 116.261 137.019 115.934 137.323 115.626C137.937 115.004 138.624 114.46 139.369 114.005C140.08 113.562 140.833 113.192 141.617 112.899C142.067 112.741 142.494 112.61 142.939 112.497C143.408 112.354 143.897 112.287 144.387 112.298C144.428 112.303 144.441 112.244 144.419 112.244Z" fill="black"/>
<path id="Vector_111" d="M131.982 126.028C131.235 125.279 129.217 125.455 128.259 127.663C127.301 129.87 129.311 132.29 129.536 132.968C130.458 132.435 131.177 132.751 132.8 132.435C133.705 132.22 134.51 131.699 135.077 130.959C135.645 130.219 135.941 129.305 135.916 128.371C135.786 126.344 134.936 125.008 131.982 126.028Z" fill="#E0E0E0"/>
<path id="Vector_112" opacity="0.45" d="M131.982 126.028C131.235 125.279 129.217 125.455 128.259 127.663C127.301 129.87 129.311 132.29 129.536 132.968C130.458 132.435 131.177 132.751 132.8 132.435C133.705 132.22 134.51 131.699 135.077 130.959C135.645 130.219 135.941 129.305 135.916 128.371C135.786 126.344 134.936 125.008 131.982 126.028Z" fill="white"/>
<path id="Vector_113" d="M131.933 125.802C131.527 126.06 131.187 126.412 130.943 126.827C130.681 127.212 130.467 127.627 130.305 128.064C129.957 128.959 129.861 129.931 130.026 130.877C130.026 130.913 130.062 130.877 130.057 130.877C129.978 129.927 130.132 128.972 130.507 128.096C130.686 127.699 130.911 127.325 131.177 126.981C131.315 126.796 131.465 126.621 131.627 126.457C131.785 126.322 131.928 126.171 132.054 126.005C132.131 125.929 132.045 125.744 131.933 125.802Z" fill="#E0E0E0"/>
<path id="Vector_114" opacity="0.1" d="M131.933 125.802C131.527 126.06 131.187 126.412 130.943 126.827C130.681 127.212 130.467 127.627 130.305 128.064C129.957 128.959 129.861 129.931 130.026 130.877C130.026 130.913 130.062 130.877 130.057 130.877C129.978 129.927 130.132 128.972 130.507 128.096C130.686 127.699 130.911 127.325 131.177 126.981C131.315 126.796 131.465 126.621 131.627 126.457C131.785 126.322 131.928 126.171 132.054 126.005C132.131 125.929 132.045 125.744 131.933 125.802Z" fill="black"/>
<path id="Vector_115" d="M128.457 130.498C128.389 128.854 126.613 127.554 124.086 126.8C122.846 126.409 121.522 126.38 120.266 126.715C119.01 127.05 117.875 127.735 116.991 128.692C115.148 130.706 114.194 132.417 114.945 132.9C115.696 133.383 119.037 134.611 121.24 135.297C123.443 135.983 126.289 136.2 128.475 134.886C130.66 133.572 130.502 131.32 128.457 130.498Z" fill="#E0E0E0"/>
<path id="Vector_116" opacity="0.25" d="M128.457 130.498C128.389 128.854 126.613 127.554 124.086 126.8C122.846 126.409 121.522 126.38 120.266 126.715C119.01 127.05 117.875 127.735 116.991 128.692C115.148 130.706 114.194 132.417 114.945 132.9C115.696 133.383 119.037 134.611 121.24 135.297C123.443 135.983 126.289 136.2 128.475 134.886C130.66 133.572 130.502 131.32 128.457 130.498Z" fill="white"/>
<path id="Vector_117" d="M128.596 130.313C127.742 129.881 126.808 129.631 125.853 129.577C124.939 129.489 124.018 129.502 123.106 129.613C122.142 129.733 121.19 129.935 120.26 130.218C119.774 130.358 119.293 130.52 118.817 130.697C118.362 130.844 117.92 131.026 117.495 131.243C117.495 131.243 117.468 131.306 117.495 131.297C117.944 131.202 118.394 131.022 118.844 130.882C119.293 130.742 119.819 130.588 120.314 130.457C121.233 130.21 122.169 130.032 123.115 129.924C124.062 129.816 125.019 129.816 125.966 129.924C126.843 130.069 127.707 130.282 128.551 130.561C128.749 130.62 128.695 130.371 128.596 130.313Z" fill="#E0E0E0"/>
<path id="Vector_118" opacity="0.1" d="M128.596 130.313C127.742 129.881 126.808 129.631 125.853 129.577C124.939 129.489 124.018 129.502 123.106 129.613C122.142 129.733 121.19 129.935 120.26 130.218C119.774 130.358 119.293 130.52 118.817 130.697C118.362 130.844 117.92 131.026 117.495 131.243C117.495 131.243 117.468 131.306 117.495 131.297C117.944 131.202 118.394 131.022 118.844 130.882C119.293 130.742 119.819 130.588 120.314 130.457C121.233 130.21 122.169 130.032 123.115 129.924C124.062 129.816 125.019 129.816 125.966 129.924C126.843 130.069 127.707 130.282 128.551 130.561C128.749 130.62 128.695 130.371 128.596 130.313Z" fill="black"/>
<path id="Vector_119" d="M133.663 128.051C131.865 126.61 132.463 123.157 138.78 122.971C145.097 122.786 149.607 124.443 149.405 126.484C150.421 127.504 149.909 130.362 144.792 131.256C139.675 132.15 132.364 131.703 133.663 128.051Z" fill="#E0E0E0"/>
<path id="Vector_120" opacity="0.25" d="M133.663 128.051C131.865 126.61 132.463 123.157 138.78 122.971C145.097 122.786 149.607 124.443 149.405 126.484C150.421 127.504 149.909 130.362 144.792 131.256C139.675 132.15 132.364 131.703 133.663 128.051Z" fill="white"/>
<path id="Vector_121" d="M146.433 126.507C144.569 126.198 142.677 126.088 140.79 126.177C139.035 126.164 137.285 126.366 135.579 126.778C135.142 126.89 134.716 127.041 134.306 127.229C134.116 127.318 133.932 127.417 133.753 127.527C133.609 127.613 133.452 127.69 133.398 127.857C133.393 127.883 133.394 127.911 133.402 127.937C133.409 127.963 133.422 127.987 133.441 128.007C133.459 128.027 133.482 128.042 133.508 128.051C133.533 128.06 133.56 128.063 133.587 128.06C133.971 127.909 134.341 127.725 134.693 127.509C135.048 127.351 135.413 127.218 135.786 127.112C136.503 126.9 137.237 126.749 137.98 126.66C139.747 126.443 141.527 126.345 143.308 126.367C144.347 126.367 145.381 126.462 146.419 126.543C146.455 126.584 146.464 126.511 146.433 126.507Z" fill="#E0E0E0"/>
<path id="Vector_122" opacity="0.1" d="M146.433 126.507C144.569 126.198 142.677 126.088 140.79 126.177C139.035 126.164 137.285 126.366 135.579 126.778C135.142 126.89 134.716 127.041 134.306 127.229C134.116 127.318 133.932 127.417 133.753 127.527C133.609 127.613 133.452 127.69 133.398 127.857C133.393 127.883 133.394 127.911 133.402 127.937C133.409 127.963 133.422 127.987 133.441 128.007C133.459 128.027 133.482 128.042 133.508 128.051C133.533 128.06 133.56 128.063 133.587 128.06C133.971 127.909 134.341 127.725 134.693 127.509C135.048 127.351 135.413 127.218 135.786 127.112C136.503 126.9 137.237 126.749 137.98 126.66C139.747 126.443 141.527 126.345 143.308 126.367C144.347 126.367 145.381 126.462 146.419 126.543C146.455 126.584 146.464 126.511 146.433 126.507Z" fill="black"/>
</g>
</g>
<g id="Chairs">
<g id="Chair">
<path id="Vector_123" d="M85.2561 142.733C85.1719 142.734 85.0884 142.717 85.011 142.684C84.9335 142.65 84.8639 142.601 84.8065 142.539L62.2035 118.525L39.6411 142.453C39.5284 142.573 39.3729 142.643 39.2089 142.648C39.0449 142.652 38.8858 142.591 38.7665 142.478C38.6473 142.365 38.5777 142.209 38.573 142.044C38.5684 141.88 38.6291 141.72 38.7418 141.6L61.7539 117.22C61.812 117.159 61.8818 117.11 61.959 117.077C62.0363 117.043 62.1194 117.026 62.2035 117.026C62.2876 117.026 62.3708 117.043 62.4481 117.077C62.5253 117.11 62.5951 117.159 62.6532 117.22L85.7013 141.713C85.7585 141.77 85.8039 141.838 85.8349 141.913C85.8659 141.987 85.8819 142.068 85.8819 142.149C85.8819 142.23 85.8659 142.31 85.8349 142.385C85.8039 142.459 85.7585 142.527 85.7013 142.584C85.5778 142.69 85.4181 142.744 85.2561 142.733Z" fill="#263238"/>
<path id="Vector_124" d="M62.2037 160.933C62.0402 160.933 61.8835 160.868 61.768 160.752C61.6524 160.636 61.5875 160.478 61.5875 160.314V120.538C61.5875 120.374 61.6524 120.217 61.768 120.101C61.8835 119.985 62.0402 119.92 62.2037 119.92C62.3671 119.92 62.5238 119.985 62.6393 120.101C62.7549 120.217 62.8198 120.374 62.8198 120.538V160.314C62.8198 160.478 62.7549 160.636 62.6393 160.752C62.5238 160.868 62.3671 160.933 62.2037 160.933Z" fill="#37474F"/>
<path id="Vector_125" d="M86.7129 146.454C86.59 146.453 86.47 146.416 86.3682 146.347C86.2665 146.278 86.1876 146.18 86.1419 146.065L73.9794 115.193C73.9474 115.116 73.9308 115.035 73.9308 114.952C73.9308 114.87 73.9472 114.788 73.9791 114.712C74.011 114.636 74.0578 114.567 74.1167 114.509C74.1756 114.451 74.2453 114.406 74.3219 114.376C74.3985 114.346 74.4803 114.331 74.5625 114.333C74.6447 114.336 74.7257 114.354 74.8006 114.388C74.8756 114.422 74.9429 114.471 74.9988 114.532C75.0547 114.592 75.0979 114.663 75.1259 114.741L87.266 145.614C87.3249 145.767 87.3211 145.938 87.2554 146.088C87.1897 146.239 87.0675 146.357 86.9153 146.417C86.8502 146.44 86.7819 146.452 86.7129 146.454Z" fill="#37474F"/>
<path id="Vector_126" d="M37.6942 146.453C37.6175 146.453 37.5415 146.439 37.4694 146.413C37.318 146.352 37.1968 146.233 37.132 146.082C37.0672 145.932 37.064 145.762 37.1232 145.609L49.2632 114.736C49.2875 114.654 49.3286 114.578 49.3838 114.513C49.439 114.447 49.5071 114.394 49.5838 114.356C49.6606 114.319 49.7443 114.298 49.8296 114.294C49.9149 114.291 50 114.306 50.0794 114.337C50.1589 114.368 50.2309 114.416 50.2911 114.477C50.3512 114.538 50.3981 114.61 50.4287 114.69C50.4593 114.771 50.4731 114.856 50.4691 114.942C50.465 115.027 50.4433 115.111 50.4053 115.188L38.2653 146.061C38.2197 146.176 38.1411 146.274 38.0394 146.344C37.9377 146.414 37.8175 146.452 37.6942 146.453Z" fill="#37474F"/>
<path id="Vector_127" d="M85.8769 141.794L87.4823 146.047C87.4867 146.083 87.4867 146.12 87.4823 146.156C87.4869 146.182 87.4869 146.21 87.4823 146.237C87.4376 146.353 87.3509 146.448 87.2395 146.503C87.0886 146.581 86.9213 146.622 86.7516 146.622C86.5818 146.622 86.4145 146.581 86.2636 146.503C86.18 146.46 86.1134 146.39 86.0747 146.305V146.246L84.5817 142.255L85.8769 141.794Z" fill="#E0E0E0"/>
<path id="Vector_128" d="M38.5353 141.794L36.9298 146.047C36.9233 146.083 36.9233 146.12 36.9298 146.156V146.237C36.9777 146.351 37.0635 146.445 37.1727 146.503C37.3236 146.581 37.4909 146.622 37.6606 146.622C37.8304 146.622 37.9976 146.581 38.1486 146.503C38.2322 146.459 38.2999 146.39 38.3419 146.305V146.246L39.8305 142.255L38.5353 141.794Z" fill="#E0E0E0"/>
<path id="Vector_129" d="M62.9142 157.235V160.757C62.9084 160.819 62.8862 160.879 62.8498 160.929C62.8135 160.98 62.7643 161.02 62.7074 161.046C62.5522 161.126 62.3803 161.167 62.2059 161.167C62.0315 161.167 61.8596 161.126 61.7045 161.046C61.647 161.02 61.5972 160.98 61.56 160.93C61.5229 160.879 61.4998 160.819 61.4931 160.757V157.235C61.7116 157.117 61.9557 157.056 62.2037 157.056C62.4517 157.056 62.6958 157.117 62.9142 157.235Z" fill="#E0E0E0"/>
<g id="chair">
<path id="Vector_130" d="M85.2786 117.066C85.2786 116.208 84.5232 115.283 82.9315 114.249C79.9909 112.33 69.3617 106.122 65.243 103.815C65.2412 103.807 65.2367 103.799 65.2302 103.793C65.2237 103.788 65.2156 103.784 65.2071 103.783C62.0372 101.851 60.1847 87.0288 57.9905 80.0443C57.8633 79.6077 57.7132 79.1782 57.5409 78.7575C57.5409 78.7259 57.5139 78.6943 57.5049 78.6627C57.4959 78.6311 57.4195 78.4776 57.379 78.3783C57.3385 78.279 57.334 78.2835 57.316 78.2383C56.969 77.4423 56.4712 76.7216 55.8502 76.1163C55.6388 75.9112 55.3978 75.7392 55.1353 75.6062L53.8404 74.8793C51.6867 73.5835 46.6058 76.3376 43.0852 78.2744C40.8955 79.4799 39.0385 80.9111 37.892 83.5794C37.2766 85.1122 36.9093 86.734 36.8039 88.3832C36.4936 92.0674 37.7031 105.684 38.427 111.016C39.5017 119.929 40.8281 119.942 42.748 121.432C46.0573 124.001 55.5715 129.031 58.7144 130.272C64.4067 132.53 69.0559 129.053 72.5315 127.333C76.461 125.306 80.2848 123.079 83.9881 120.66C84.8514 120.028 85.3056 119.387 85.2966 118.71C85.2741 118.443 85.2786 117.351 85.2786 117.066Z" fill="#E0E0E0"/>
<path id="Vector_131" d="M72.5136 125.676C76.443 123.649 80.2669 121.422 83.9702 119.003C85.944 117.563 85.7687 116.091 82.9315 114.249C79.0017 111.689 62.9814 102.56 62.9814 102.56C62.9814 102.56 40.4639 115.766 41.3362 117.983C42.2085 120.2 54.7442 127.053 58.6964 128.615C64.3887 130.864 69.0334 127.383 72.5136 125.676Z" fill="#F5F5F5"/>
<path id="Vector_132" d="M55.1176 75.6062C52.9863 74.4865 47.9549 77.2135 44.5243 79.1007C42.3301 80.3107 40.4776 81.7419 39.322 84.4192L37.8742 83.5885C39.0118 80.9202 40.8778 79.489 43.0675 78.2835C46.5881 76.3466 51.6689 73.5925 53.8226 74.8883L55.1176 75.6062Z" fill="#F5F5F5"/>
<path id="Vector_133" d="M57.9905 80.0443C57.941 79.8953 57.2081 77.3354 55.8323 76.1164C55.1955 75.5338 54.3646 75.2117 53.5032 75.2134C51.6417 75.2134 47.1454 77.6514 44.5106 79.0917L43.8631 79.4619L43.6203 79.6064L43.3325 79.7915L43.1167 79.9314C42.6549 80.2361 42.2148 80.5725 41.7993 80.9383C41.7318 80.9969 41.6644 81.0556 41.6015 81.1188C41.3366 81.3646 41.0859 81.6254 40.8506 81.8999L40.7247 82.0489L40.5763 82.234L40.4324 82.4236L40.293 82.6223C40.1041 82.8925 39.93 83.1729 39.7715 83.4621L39.7085 83.5749C39.6636 83.6523 39.6231 83.7322 39.5871 83.8142C39.5287 83.9316 39.4702 84.049 39.4162 84.1664C38.7368 85.7639 38.3353 87.4666 38.2292 89.2005C37.7211 95.2549 39.731 116.94 41.8263 118.665C41.8263 118.665 42.2759 116.859 45.6751 114.073C48.9676 111.447 52.4735 109.103 56.156 107.066C63.0803 103.147 65.2071 103.765 65.2071 103.765C62.0372 101.851 60.1847 87.0288 57.9905 80.0443Z" fill="#EBEBEB"/>
</g>
</g>
<g id="chair_2">
<path id="Vector_134" d="M48.5078 164.432C48.4237 164.431 48.3406 164.414 48.2634 164.38C48.1862 164.347 48.1164 164.299 48.0581 164.238L25.4552 140.219L2.89721 164.147C2.8417 164.207 2.77511 164.254 2.70124 164.288C2.62736 164.321 2.54765 164.34 2.46665 164.342C2.38565 164.345 2.30495 164.331 2.22916 164.303C2.15337 164.274 2.08397 164.23 2.02492 164.174C1.96588 164.119 1.91834 164.052 1.88503 163.978C1.85172 163.904 1.83328 163.824 1.83078 163.742C1.82827 163.661 1.84175 163.58 1.87043 163.504C1.89911 163.428 1.94244 163.358 1.99794 163.299L25.0056 138.918C25.063 138.856 25.1326 138.807 25.21 138.774C25.2874 138.74 25.3709 138.723 25.4552 138.724C25.5394 138.723 25.6229 138.74 25.7004 138.774C25.7778 138.807 25.8474 138.856 25.9048 138.918L48.9574 163.411C49.038 163.5 49.0913 163.61 49.111 163.729C49.1307 163.847 49.116 163.969 49.0685 164.079C49.021 164.189 48.9428 164.283 48.8433 164.35C48.7438 164.416 48.6273 164.453 48.5078 164.454V164.432Z" fill="#263238"/>
<path id="Vector_135" d="M25.4598 182.618C25.2987 182.618 25.144 182.554 25.0289 182.441C24.9137 182.328 24.8472 182.174 24.8437 182.013V142.237C24.8437 142.155 24.8597 142.075 24.8906 142C24.9216 141.925 24.967 141.857 25.0242 141.799C25.0814 141.742 25.1493 141.696 25.2241 141.665C25.2988 141.634 25.3789 141.618 25.4598 141.618C25.5407 141.618 25.6209 141.634 25.6956 141.665C25.7704 141.696 25.8383 141.742 25.8955 141.799C25.9527 141.857 25.9981 141.925 26.029 142C26.06 142.075 26.0759 142.155 26.0759 142.237V182.013C26.0724 182.174 26.006 182.328 25.8908 182.441C25.7756 182.554 25.6209 182.618 25.4598 182.618Z" fill="#37474F"/>
<path id="Vector_136" d="M49.9691 168.138C49.8449 168.139 49.7235 168.101 49.6208 168.031C49.5181 167.961 49.4389 167.862 49.3935 167.745L37.2535 136.873C37.224 136.797 37.2095 136.717 37.2109 136.636C37.2124 136.555 37.2296 136.475 37.2618 136.401C37.2939 136.327 37.3403 136.26 37.3983 136.204C37.4563 136.147 37.5247 136.103 37.5997 136.074C37.6747 136.044 37.7548 136.029 37.8354 136.031C37.9159 136.032 37.9954 136.05 38.0694 136.082C38.1433 136.114 38.2101 136.161 38.2661 136.219C38.322 136.277 38.366 136.346 38.3956 136.421L50.5356 167.294C50.5654 167.369 50.5801 167.45 50.5788 167.531C50.5776 167.612 50.5603 167.692 50.5282 167.766C50.496 167.84 50.4495 167.907 50.3913 167.963C50.3332 168.02 50.2646 168.064 50.1894 168.093C50.1195 168.122 50.0447 168.138 49.9691 168.138Z" fill="#37474F"/>
<path id="Vector_137" d="M0.950396 168.138C0.873152 168.139 0.796595 168.124 0.725581 168.093C0.573714 168.034 0.451525 167.916 0.385787 167.767C0.32005 167.617 0.316123 167.447 0.374868 167.294L12.5149 136.421C12.5774 136.273 12.6952 136.155 12.8432 136.092C12.9912 136.03 13.1577 136.028 13.3072 136.086C13.4567 136.145 13.5774 136.26 13.6436 136.407C13.7098 136.554 13.7162 136.721 13.6615 136.873L1.52143 167.746C1.47639 167.861 1.39787 167.96 1.29605 168.03C1.19423 168.1 1.07381 168.138 0.950396 168.138Z" fill="#37474F"/>
<path id="Vector_138" d="M49.1285 163.501L50.734 167.754C50.7405 167.79 50.7405 167.827 50.734 167.863V167.94C50.688 168.056 50.6018 168.152 50.4911 168.21C50.3394 168.289 50.1714 168.329 50.001 168.329C49.8305 168.329 49.6625 168.289 49.5108 168.21C49.4281 168.164 49.362 168.093 49.3219 168.007V167.949L47.8378 163.953L49.1285 163.501Z" fill="#E0E0E0"/>
<path id="Vector_139" d="M1.78698 163.501L0.181487 167.754C0.177154 167.79 0.177154 167.827 0.181487 167.863C0.177033 167.888 0.177033 167.914 0.181487 167.94C0.224517 168.058 0.311552 168.155 0.424335 168.21C0.575246 168.288 0.742535 168.329 0.912279 168.329C1.08202 168.329 1.24931 168.288 1.40022 168.21C1.48433 168.166 1.55094 168.095 1.5891 168.007V167.949L3.08217 163.953L1.78698 163.501Z" fill="#E0E0E0"/>
<path id="Vector_140" d="M26.1704 178.92V182.437C26.1645 182.5 26.1418 182.561 26.1046 182.613C26.0674 182.664 26.0172 182.705 25.959 182.73C25.8033 182.808 25.6316 182.849 25.4576 182.849C25.2836 182.849 25.1119 182.808 24.9562 182.73C24.8986 182.705 24.849 182.664 24.8126 182.612C24.7762 182.561 24.7543 182.5 24.7493 182.437V178.92C24.9678 178.802 25.2119 178.74 25.4599 178.74C25.7078 178.74 25.9519 178.802 26.1704 178.92Z" fill="#E0E0E0"/>
<g id="chair_3">
<path id="Vector_141" d="M48.5348 138.751C48.5348 137.893 47.7794 136.968 46.1832 135.934C43.2426 134.015 32.6133 127.807 28.4947 125.5C28.493 125.491 28.4887 125.483 28.4823 125.476C28.4759 125.47 28.4677 125.465 28.4587 125.464C25.3113 123.536 23.4364 108.714 21.2422 101.729C21.1138 101.293 20.9637 100.863 20.7925 100.442L20.7521 100.347L20.6262 100.063C20.6262 100.018 20.5857 99.9682 20.5632 99.9231C20.2163 99.1257 19.7185 98.4035 19.0974 97.7966C18.881 97.5968 18.6391 97.4267 18.378 97.2909C18.0228 97.0877 17.2719 96.6724 17.0876 96.5595C14.9338 95.2682 9.84852 98.0223 6.33241 99.9592C4.1427 101.165 2.28573 102.596 1.13917 105.264C0.52172 106.796 0.154304 108.418 0.051063 110.068C-0.263679 113.752 0.950325 127.369 1.67423 132.701C2.75334 141.613 4.07526 141.631 5.99968 143.121C9.30896 145.69 18.8187 150.72 21.9616 151.962C27.6584 154.219 32.3031 150.743 35.7832 149.018C39.7115 146.993 43.5338 144.767 47.2353 142.349C48.1031 141.717 48.5527 141.076 48.5438 140.399C48.5258 140.128 48.5348 139.035 48.5348 138.751Z" fill="#E0E0E0"/>
<path id="Vector_142" d="M35.7607 147.356C39.688 145.33 43.5103 143.104 47.2128 140.688C49.1867 139.248 49.0114 137.776 46.1742 135.934C42.2444 133.374 26.2241 124.245 26.2241 124.245C26.2241 124.245 3.72005 137.451 4.59233 139.663C5.46461 141.875 18.0003 148.738 21.9481 150.3C27.6674 152.548 32.2986 149.081 35.7607 147.356Z" fill="#F5F5F5"/>
<path id="Vector_143" d="M18.3692 97.291C16.238 96.1668 11.2066 98.8983 7.78044 100.786C5.58174 101.991 3.71128 103.427 2.57821 106.104L1.13939 105.26C2.27696 102.591 4.14292 101.16 6.33263 99.9548C9.84874 98.0179 14.9341 95.2638 17.0878 96.5551C17.2632 96.6815 18.014 97.0879 18.3692 97.291Z" fill="#F5F5F5"/>
<path id="Vector_144" d="M21.2422 101.729C21.1972 101.58 20.4643 99.0201 19.0884 97.7965C18.4475 97.2178 17.6168 96.8964 16.7549 96.8936C14.8934 96.8936 10.3971 99.3316 7.76224 100.772C7.54192 100.894 7.31261 101.016 7.11477 101.142C7.02934 101.187 6.94841 101.237 6.86747 101.287L6.57971 101.472C6.50658 101.514 6.43601 101.561 6.36838 101.612C5.90602 101.916 5.4644 102.251 5.04647 102.614C4.97902 102.673 4.91607 102.731 4.84863 102.799C4.58411 103.044 4.33484 103.305 4.10224 103.58L3.97635 103.729C3.92689 103.788 3.87293 103.851 3.82797 103.914C3.783 103.977 3.73355 104.041 3.68409 104.104C3.63463 104.167 3.58966 104.23 3.5447 104.298C3.35432 104.57 3.1787 104.851 3.01863 105.142C2.99499 105.178 2.97395 105.216 2.95568 105.255L2.83428 105.49C2.77583 105.607 2.72188 105.729 2.66342 105.847C1.98285 107.444 1.58131 109.147 1.4764 110.881C0.968316 116.935 2.97817 138.62 5.07345 140.345C5.07345 140.345 5.52308 138.539 8.92678 135.753C12.2207 133.128 15.7298 130.787 19.4167 128.755C26.3365 124.836 28.4632 125.45 28.4632 125.45C25.2933 123.536 23.4364 108.713 21.2422 101.729Z" fill="#EBEBEB"/>
</g>
</g>
</g>
<g id="Shadows">
<path id="Shadow" d="M102.846 202C123.28 202 139.846 192.396 139.846 180.55C139.846 168.703 123.28 159.1 102.846 159.1C82.4111 159.1 65.8456 168.703 65.8456 180.55C65.8456 192.396 82.4111 202 102.846 202Z" fill="#E0E0E0"/>
<path id="shadow" d="M44.659 195.191L33.6115 188.785C31.6781 187.665 31.6781 185.85 33.6115 184.721L67.6261 165C68.7102 164.448 69.9087 164.161 71.1242 164.161C72.3398 164.161 73.5382 164.448 74.6224 165L85.6698 171.416C87.6032 172.536 87.6032 174.351 85.6698 175.479L51.6552 195.2C50.5704 195.751 49.3716 196.037 48.156 196.036C46.9404 196.034 45.7424 195.745 44.659 195.191Z" fill="#E0E0E0"/>
</g>
<g id="Clock">
<g id="clock">
<path id="Vector_145" d="M78.8041 129.161L70.3466 124.258H70.3151L70.2522 124.222C66.0796 121.847 60.3603 122.213 54.007 125.888C41.2555 133.252 30.9139 151.248 30.9139 166.03C30.9139 173.38 33.4723 178.549 37.6045 180.992L37.6674 181.028H37.6989L46.1564 185.931L47.6267 182.053C49.8692 181.473 52.0188 180.578 54.0115 179.394C66.763 172.003 77.1 154.025 77.1 139.238C77.1185 136.93 76.8158 134.631 76.2008 132.407L78.8041 129.161Z" fill="#7A2D93"/>
<path id="Vector_146" opacity="0.4" d="M78.8041 129.161L70.3466 124.258H70.3151L70.2522 124.222C66.0796 121.847 60.3603 122.213 54.007 125.888C41.2555 133.252 30.9139 151.248 30.9139 166.03C30.9139 173.38 33.4723 178.549 37.6045 180.992L37.6674 181.028H37.6989L46.1564 185.931L47.6267 182.053C49.8692 181.473 52.0188 180.578 54.0115 179.394C66.763 172.003 77.1 154.025 77.1 139.238C77.1185 136.93 76.8158 134.631 76.2008 132.407L78.8041 129.161Z" fill="white"/>
<path id="Vector_147" opacity="0.4" d="M31.1163 162.418C30.9871 163.618 30.9196 164.823 30.9139 166.03C30.9139 173.38 33.4723 178.55 37.6045 180.992L37.6674 181.028H37.6989L46.1564 185.931L47.6267 182.053C48.1033 181.931 48.5889 181.791 49.0835 181.629L51.2642 174.071L31.1163 162.418Z" fill="#7A2D93"/>
<path id="Vector_148" d="M78.8906 167.069C87.9085 151.388 87.9088 134.438 78.8911 129.211C69.8734 123.985 55.2526 132.459 46.2346 148.14C37.2166 163.821 37.2164 180.771 46.2341 185.998C55.2518 191.224 69.8726 182.75 78.8906 167.069Z" fill="#7A2D93"/>
<path id="Vector_149" d="M52.2442 183.895C46.5159 183.895 43.0987 179.069 43.0987 170.992C43.0987 157.619 52.8422 140.674 64.3708 133.992C67.3968 132.241 70.3329 131.315 72.8688 131.315C78.5971 131.315 82.0143 136.137 82.0143 144.218C82.0143 157.587 72.2708 174.531 60.7423 181.218C57.7207 182.97 54.7802 183.895 52.2442 183.895Z" fill="#7A2D93"/>
<path id="Vector_150" opacity="0.15" d="M52.2442 183.895C46.5159 183.895 43.0987 179.069 43.0987 170.992C43.0987 157.619 52.8422 140.674 64.3708 133.992C67.3968 132.241 70.3329 131.315 72.8688 131.315C78.5971 131.315 82.0143 136.137 82.0143 144.218C82.0143 157.587 72.2708 174.531 60.7423 181.218C57.7207 182.97 54.7802 183.895 52.2442 183.895Z" fill="black"/>
<path id="Vector_151" d="M79.8875 142.95C79.8875 137.803 78.4982 133.988 76.0117 131.888C75.0081 131.499 73.9401 131.305 72.8643 131.315C70.3284 131.315 67.3923 132.241 64.3663 133.992C52.8467 140.674 43.0987 157.632 43.0987 170.992C43.0987 176.134 44.4881 179.954 46.9746 182.053C47.9791 182.439 49.0465 182.634 50.122 182.627C52.6579 182.627 55.594 181.701 58.6155 179.949C70.1485 173.263 79.8875 156.318 79.8875 142.95Z" fill="#FAFAFA"/>
<path id="Vector_152" d="M68.5074 160.499C68.3843 160.499 68.2624 160.476 68.1477 160.431L58.9302 156.869L68.1342 139.537C68.1918 139.412 68.2742 139.301 68.3761 139.209C68.4781 139.117 68.5976 139.048 68.7273 139.004C68.857 138.96 68.9943 138.944 69.1306 138.955C69.267 138.966 69.3996 139.005 69.5204 139.07C69.6412 139.134 69.7477 139.223 69.8333 139.33C69.9189 139.437 69.9818 139.561 70.0183 139.693C70.0548 139.826 70.064 139.964 70.0454 140.1C70.0269 140.236 69.9808 140.367 69.9102 140.485L61.8169 155.804L68.8716 158.535C69.0911 158.62 69.2741 158.78 69.3888 158.986C69.5034 159.192 69.5425 159.433 69.4992 159.665C69.456 159.897 69.3331 160.107 69.1519 160.258C68.9707 160.408 68.7427 160.491 68.5074 160.49V160.499Z" fill="#37474F"/>
<path id="Vector_153" d="M60.432 160.152C61.3902 159.524 62.1876 158.679 62.7595 157.684C63.3313 156.69 63.6615 155.574 63.7233 154.427C63.7233 152.318 62.2485 151.465 60.432 152.517C59.4735 153.145 58.6759 153.991 58.1041 154.987C57.5322 155.982 57.2022 157.099 57.1407 158.246C57.1407 160.341 58.6155 161.208 60.432 160.152Z" fill="#455A64"/>
<path id="Vector_154" d="M60.4321 176.595C60.1623 176.753 59.9419 176.595 59.9419 176.274V172.383C59.9465 172.204 59.9934 172.029 60.0786 171.872C60.1638 171.715 60.285 171.58 60.4321 171.48C60.7019 171.326 60.9223 171.48 60.9223 171.805V175.692C60.918 175.871 60.8713 176.046 60.7861 176.203C60.7008 176.36 60.5795 176.494 60.4321 176.595Z" fill="#7A2D93"/>
<path id="Vector_155" d="M60.3916 142.562C60.1218 142.72 59.9059 142.562 59.9059 142.241V138.345C59.9097 138.166 59.9557 137.991 60.0402 137.834C60.1246 137.677 60.2451 137.543 60.3916 137.442C60.6615 137.288 60.8818 137.442 60.8818 137.767V141.659C60.8772 141.837 60.8303 142.012 60.7451 142.169C60.6599 142.326 60.5387 142.461 60.3916 142.562Z" fill="#7A2D93"/>
<path id="Vector_156" d="M43.998 166.721C44.0111 166.545 44.0657 166.375 44.1572 166.224C44.2486 166.073 44.3744 165.946 44.5242 165.854L47.9016 163.908C48.1939 163.741 48.4232 163.858 48.4232 164.17C48.4091 164.346 48.3541 164.516 48.2627 164.666C48.1713 164.817 48.0461 164.944 47.8971 165.037L44.5422 166.983C44.2274 167.154 43.9935 167.037 43.998 166.721Z" fill="#7A2D93"/>
<path id="Vector_157" d="M73.188 149.758C73.2022 149.583 73.2572 149.413 73.3486 149.262C73.44 149.112 73.5652 148.985 73.7142 148.892L77.0736 146.941C77.3614 146.774 77.5953 146.891 77.5908 147.208C77.5777 147.384 77.5231 147.554 77.4316 147.705C77.3402 147.855 77.2144 147.982 77.0646 148.074L73.7097 150.02C73.4219 150.187 73.188 150.07 73.188 149.758Z" fill="#7A2D93"/>
</g>
</g>
<g id="Character">
<g id="character">
<g id="Bottom">
<path id="Vector_158" d="M83.8353 172.482C84.2849 166.36 83.5475 159.633 84.0511 150.079C84.0961 147.632 84.186 145.009 84.3478 142.675C84.9009 134.837 86.1059 132.155 86.2138 130.643C86.2138 130.643 86.8073 115.613 87.3154 98.456C87.5582 90.3834 89.8873 87.9409 91.7488 83.6562H113.871C116.344 94.2256 117.045 117.283 116.973 128.177C116.933 133.731 114.702 163.448 114.657 164.129C114.5 166.554 114.711 167.511 115.656 168.531C117.639 170.667 120.512 172.703 122.994 174.563C122.634 175.516 119.648 175.466 118.169 174.757C116.23 173.744 114.382 172.562 112.648 171.227C110.606 169.71 107.998 168.491 107.962 166.184C107.953 166.045 107.931 165.907 107.895 165.773C107.859 164.418 104.748 144.553 104.469 139.934C104.244 135.966 104.725 129.238 104.725 129.238L102.176 112.439C102.176 112.439 100.22 125.193 98.6326 131.974C97.3377 137.492 95.2019 146.91 93.7496 153.7C92.3513 161.529 90.3414 169.132 89.9862 173.051C89.8828 173.985 88.8262 183.164 88.39 185.268C87.9539 187.372 83.4216 187.431 83.1069 183.819C82.9135 181.403 83.7543 173.633 83.8353 172.482Z" fill="#9E6767"/>
<path id="Vector_159" d="M127.22 177.001C127.346 177.001 127.553 178.396 126.874 178.997C126.087 179.692 123.776 180.843 120.701 180.478C117.625 180.112 115.952 179.177 114.711 178.157C113.47 177.137 111.735 175.696 110.341 175.408C109.046 175.132 107.643 174.563 107.221 174.166C106.798 173.769 106.843 171.99 106.843 171.99L127.22 177.001Z" fill="#263238"/>
<path id="Vector_160" d="M107.841 165.118C107.841 165.118 107.607 165.118 107.535 165.543C107.445 166.035 107.36 167.461 107.162 168.251C106.861 169.674 106.775 171.133 106.906 172.581C107.086 173.484 109.199 174.103 110.548 174.604C112.137 175.28 113.615 176.193 114.932 177.313C116.389 178.496 119.428 179.661 121.438 179.67C124.495 179.67 126.465 178.825 127.067 177.719C127.809 176.365 127.207 175.561 123.677 173.963C123.007 173.66 120.66 172.301 119.86 171.805C119.01 171.285 118.204 170.696 117.45 170.044C117.069 169.714 116.707 169.363 116.366 168.992C116.011 168.662 115.708 168.28 115.467 167.859C115.426 167.768 115.399 167.66 115.363 167.561C115.26 167.295 115.18 167.02 115.125 166.739C115.067 166.446 115.026 166.021 114.743 165.836C114.345 165.676 113.911 165.629 113.488 165.701C113.035 165.738 112.584 165.808 112.14 165.908C111.622 166.03 111.029 166.084 110.728 166.572C110.526 166.968 110.43 167.41 110.449 167.854C110.449 168.062 110.449 168.27 110.449 168.473C110.449 168.563 110.489 168.721 110.368 168.685C110.247 168.649 110.116 168.346 110.071 168.233C109.972 168.008 109.905 167.759 109.797 167.534C109.675 167.271 109.525 167.022 109.347 166.793C109.183 166.583 108.994 166.394 108.785 166.229C108.575 166.114 108.372 165.986 108.178 165.845C107.999 165.64 107.882 165.388 107.841 165.118Z" fill="#37474F"/>
<path id="Vector_161" d="M124.248 174.252C119.824 174.604 118.461 177.362 118.29 179.06C119.301 179.432 120.363 179.645 121.438 179.692C124.495 179.692 126.591 178.848 127.193 177.742C127.89 176.446 127.396 175.412 124.248 174.252Z" fill="#FAFAFA"/>
<path id="Vector_162" d="M117.616 174.365C117.566 174.367 117.516 174.351 117.477 174.319C117.454 174.301 117.436 174.279 117.422 174.254C117.408 174.229 117.4 174.201 117.397 174.172C117.394 174.144 117.397 174.115 117.405 174.088C117.413 174.06 117.427 174.035 117.445 174.012C117.955 173.472 118.573 173.047 119.26 172.767C119.946 172.487 120.685 172.357 121.425 172.387C121.455 172.39 121.483 172.398 121.51 172.412C121.536 172.426 121.559 172.445 121.578 172.467C121.597 172.49 121.612 172.517 121.62 172.545C121.629 172.574 121.632 172.603 121.63 172.633C121.627 172.663 121.619 172.692 121.605 172.718C121.591 172.744 121.572 172.768 121.55 172.787C121.527 172.806 121.501 172.82 121.472 172.829C121.444 172.838 121.414 172.841 121.385 172.838C120.717 172.818 120.052 172.938 119.432 173.19C118.813 173.441 118.253 173.82 117.787 174.301C117.765 174.324 117.738 174.341 117.709 174.352C117.679 174.363 117.647 174.367 117.616 174.365Z" fill="#F0F0F0"/>
<path id="Vector_163" d="M115.696 173.272C115.647 173.273 115.6 173.257 115.561 173.227C115.517 173.191 115.488 173.138 115.481 173.081C115.474 173.023 115.49 172.966 115.525 172.92C116.035 172.379 116.655 171.954 117.342 171.673C118.029 171.393 118.769 171.264 119.51 171.294C119.54 171.294 119.57 171.3 119.598 171.312C119.626 171.324 119.651 171.342 119.672 171.364C119.692 171.387 119.708 171.413 119.718 171.442C119.727 171.471 119.731 171.501 119.728 171.532C119.725 171.562 119.716 171.591 119.701 171.618C119.686 171.644 119.666 171.667 119.641 171.685C119.617 171.704 119.589 171.716 119.559 171.723C119.53 171.729 119.499 171.73 119.469 171.723C118.801 171.704 118.136 171.825 117.517 172.078C116.898 172.33 116.337 172.709 115.872 173.191C115.851 173.218 115.824 173.239 115.794 173.253C115.763 173.267 115.73 173.274 115.696 173.272Z" fill="#F0F0F0"/>
<path id="Vector_164" d="M113.92 172.017C113.87 172.018 113.821 172.002 113.781 171.972C113.736 171.935 113.707 171.883 113.7 171.826C113.694 171.768 113.71 171.711 113.745 171.665C114.255 171.125 114.875 170.701 115.562 170.42C116.249 170.14 116.988 170.01 117.729 170.039C117.758 170.042 117.785 170.05 117.811 170.063C117.836 170.076 117.858 170.094 117.877 170.115C117.895 170.137 117.909 170.163 117.918 170.19C117.926 170.217 117.93 170.246 117.927 170.274C117.925 170.303 117.917 170.331 117.904 170.357C117.89 170.382 117.872 170.405 117.85 170.423C117.827 170.441 117.801 170.454 117.774 170.462C117.746 170.47 117.717 170.472 117.689 170.468C117.021 170.45 116.356 170.571 115.737 170.823C115.117 171.076 114.557 171.455 114.091 171.936C114.071 171.962 114.045 171.983 114.016 171.998C113.986 172.012 113.953 172.018 113.92 172.017Z" fill="#F0F0F0"/>
<path id="Vector_165" d="M112.198 170.762C112.149 170.763 112.102 170.747 112.063 170.716C112.018 170.682 111.988 170.63 111.981 170.574C111.973 170.517 111.988 170.46 112.023 170.414C112.859 169.33 114.766 168.608 116.376 168.762C116.405 168.764 116.434 168.773 116.46 168.786C116.487 168.8 116.51 168.819 116.529 168.842C116.548 168.865 116.562 168.891 116.571 168.92C116.58 168.948 116.583 168.978 116.581 169.008C116.578 169.037 116.569 169.066 116.556 169.092C116.542 169.119 116.523 169.142 116.5 169.161C116.478 169.18 116.451 169.195 116.423 169.204C116.395 169.212 116.365 169.216 116.335 169.213C114.887 169.073 113.106 169.741 112.364 170.703C112.343 170.724 112.317 170.741 112.288 170.751C112.259 170.761 112.228 170.765 112.198 170.762Z" fill="#F0F0F0"/>
<path id="Vector_166" d="M89.8334 186.907C89.712 189.002 89.3837 190.392 88.6463 191.621C87.9089 192.849 86.5106 193.232 85.0943 192.876C83.6779 192.519 81.8704 191.553 81.4612 189.747C81.0521 187.941 80.8228 186.699 81.142 184.753L89.8334 186.907Z" fill="#263238"/>
<path id="Vector_167" d="M83.8713 171.732C83.2913 171.778 83.1159 174.59 82.7832 177.408C82.4235 180.428 81.5242 181.679 81.2005 184.153C80.8318 186.984 81.2994 188.243 82.2886 189.954C83.2778 191.666 86.7849 193.345 88.489 190.894C89.8918 188.898 89.9503 186.681 89.8379 183.859C89.7627 181.471 89.8258 179.08 90.0267 176.699C90.1391 174.581 90.6068 172.446 90.0987 172.211C90.0582 172.523 90.0222 172.915 89.9818 173.222C89.962 173.605 89.8987 173.983 89.7929 174.351C89.7345 174.509 89.6041 174.676 89.5501 174.419C89.5231 174.244 89.5231 174.066 89.5501 173.891C89.6356 173.109 89.2444 173.046 89.033 172.988C88.1414 172.811 87.2408 172.682 86.3353 172.604C85.8856 172.572 84.3524 172.504 84.1501 172.762C84.0199 173.014 83.9535 173.295 83.9567 173.579C83.9073 174.003 83.8083 174.315 83.7948 174.179C83.7679 173.877 83.8263 173.082 83.8353 172.893C83.8443 172.703 83.8713 172.441 83.8758 172.274C83.8803 172.107 83.8713 171.913 83.8713 171.732Z" fill="#37474F"/>
<path id="Vector_168" d="M81.0522 185.792C80.9469 187.305 81.33 188.812 82.1449 190.09C83.1295 191.801 86.9064 193.485 88.6285 191.034C89.4873 189.815 89.7166 188.374 89.8335 186.902C88.8174 185.015 82.6799 184.184 81.0522 185.792Z" fill="#FAFAFA"/>
<path id="Vector_169" d="M88.5609 183.819C88.5371 183.823 88.5128 183.823 88.489 183.819C88.4665 183.819 85.7687 182.685 83.1429 183.295C83.1144 183.305 83.0842 183.308 83.0543 183.306C83.0243 183.303 82.9953 183.294 82.9689 183.279C82.9426 183.265 82.9197 183.245 82.9015 183.221C82.8833 183.197 82.8704 183.169 82.8634 183.14C82.8565 183.11 82.8558 183.08 82.8613 183.05C82.8668 183.02 82.8784 182.992 82.8954 182.967C82.9124 182.942 82.9344 182.921 82.96 182.905C82.9856 182.89 83.0142 182.879 83.0439 182.875C85.8227 182.229 88.5744 183.376 88.6778 183.426C88.729 183.451 88.7681 183.496 88.7866 183.55C88.8052 183.604 88.8016 183.663 88.7767 183.715C88.7554 183.752 88.7234 183.782 88.6849 183.8C88.6463 183.819 88.6031 183.825 88.5609 183.819Z" fill="#F0F0F0"/>
<path id="Vector_170" d="M83.2732 181.182C83.2314 181.178 83.1917 181.162 83.1589 181.135C83.1262 181.109 83.1018 181.073 83.0889 181.033C83.0715 180.979 83.0759 180.919 83.101 180.868C83.1262 180.817 83.1702 180.777 83.2238 180.758C85.8406 179.855 88.7407 181.209 88.8487 181.259C88.8919 181.29 88.9225 181.336 88.9349 181.387C88.9472 181.439 88.9404 181.494 88.9158 181.541C88.8911 181.589 88.8503 181.625 88.8007 181.645C88.7512 181.664 88.6964 181.665 88.6463 181.647C88.6238 181.647 85.7957 180.338 83.3632 181.168C83.3346 181.18 83.3038 181.185 83.2732 181.182Z" fill="#F0F0F0"/>
<path id="Vector_171" d="M83.3677 179.191C83.327 179.187 83.2883 179.172 83.2557 179.147C83.2232 179.122 83.1981 179.089 83.1833 179.051C83.1733 179.024 83.1688 178.995 83.1699 178.967C83.1711 178.938 83.178 178.91 83.1901 178.883C83.2022 178.857 83.2194 178.834 83.2406 178.815C83.2619 178.795 83.2867 178.781 83.3137 178.771C86.1869 177.737 88.9431 179.195 89.042 179.259C89.0909 179.288 89.1259 179.337 89.1394 179.393C89.1529 179.448 89.1438 179.507 89.114 179.557C89.0841 179.606 89.0361 179.641 88.9805 179.654C88.9248 179.668 88.8661 179.659 88.8172 179.629C88.7947 179.629 86.1194 178.22 83.4621 179.177C83.4319 179.188 83.3997 179.193 83.3677 179.191Z" fill="#F0F0F0"/>
<path id="Vector_172" d="M83.5071 177.236C83.4675 177.231 83.4302 177.215 83.3986 177.19C83.3671 177.166 83.3425 177.133 83.3272 177.096C83.3171 177.07 83.3123 177.041 83.3132 177.013C83.3141 176.984 83.3205 176.956 83.3322 176.93C83.3439 176.904 83.3606 176.881 83.3814 176.861C83.4021 176.841 83.4265 176.826 83.4531 176.816C86.1509 175.805 89.1095 177.299 89.2219 177.363C89.2714 177.392 89.3076 177.439 89.3227 177.495C89.3378 177.551 89.3307 177.61 89.3028 177.661C89.2884 177.685 89.2693 177.707 89.2466 177.724C89.2238 177.741 89.1979 177.754 89.1703 177.761C89.1428 177.768 89.114 177.77 89.0858 177.766C89.0576 177.762 89.0305 177.752 89.006 177.737C88.9791 177.737 86.1059 176.279 83.6105 177.223C83.5773 177.234 83.5421 177.239 83.5071 177.236Z" fill="#EBEBEB"/>
<path id="Vector_173" d="M89.4917 83.6562C87.0591 89.67 86.2228 93.0878 85.9576 107.359C85.6923 121.631 85.7192 127.812 85.6608 129.532C85.6023 131.252 84.6087 134.327 83.7319 142.806C82.8551 151.285 83.6599 161.204 83.6599 161.204C83.6599 161.204 84.4963 162.743 87.7066 163.01C90.6832 163.281 92.158 162.156 92.158 162.156C92.158 162.156 96.2406 145.65 97.3737 140.548C98.5068 135.446 102.167 115.829 102.167 115.829L104.114 129.442C104.114 129.442 103.214 134.119 104.114 141.555C105.013 148.991 106.623 156.599 106.623 156.599C108.092 157.114 109.639 157.369 111.195 157.353C112.605 157.374 113.993 157.009 115.211 156.296C115.211 156.296 117.737 134.173 117.737 125.757C117.737 117.342 117.634 96.1038 114.99 83.6337L89.4917 83.6562Z" fill="#455A64"/>
<path id="Vector_174" d="M98.1875 131.952C98.1875 131.952 96.9061 130.092 93.7586 129.695C90.6112 129.297 88.9791 131.026 88.9791 131.026C88.9791 131.026 94.8198 130.426 98.1875 131.952ZM88.6239 132.291C92.6705 133.099 94.532 132.932 96.3845 132.562C96.3845 132.562 90.5483 131.821 88.6239 132.291Z" fill="#9E6767"/>
<path id="Vector_175" d="M117.715 127.979L117.742 127.076C115.044 126.714 110.714 127.595 109.554 128.263C112.258 127.887 114.992 127.792 117.715 127.979ZM111.479 129.311C113.277 129.798 117.621 130.019 117.621 130.019L117.665 129.162C117.665 129.162 114.572 129.067 111.479 129.311Z" fill="#9E6767"/>
<path id="Vector_176" d="M84.4513 161.989C84.5929 162.097 84.7433 162.192 84.9009 162.274C84.0781 148.955 85.7282 141.307 86.8253 136.209C86.9332 135.717 87.0322 135.252 87.1266 134.81C87.9584 130.823 88.3316 122.823 88.3181 116.272C88.3181 114.299 88.3181 112.263 88.3181 110.095C88.3181 107.563 88.4125 104.939 88.6194 102.348C93.2461 101.793 94.2487 97.2054 95.5122 91.4173C95.6831 90.6227 95.8644 89.8055 96.0563 88.9658L95.6471 88.8709C95.4537 89.7107 95.2739 90.5324 95.0985 91.327C93.8351 97.1287 92.9043 101.341 88.6553 101.905C89.1589 96.0361 90.3684 90.3067 93.2461 86.1801L92.9043 85.9363C88.6194 92.0765 87.9584 101.594 87.8955 110.091C87.8955 112.258 87.8955 114.299 87.8955 116.272C87.8955 122.8 87.5358 130.783 86.7129 134.724L86.4162 136.119C85.3101 141.198 83.6689 148.801 84.4513 161.989ZM104.842 99.648L102.185 115.852L104.132 129.464L103.875 116.24L105.674 106.195C105.741 107.192 105.813 108.217 105.881 109.26C106.47 117.874 107.131 127.636 106.686 129.69C105.454 135.32 105.813 138.873 106.47 145.325C106.537 145.98 106.609 146.679 106.681 147.384C107.041 151.027 107.441 154.608 107.711 156.951L108.16 157.05C107.891 154.711 107.481 151.063 107.113 147.343C107.041 146.621 106.973 145.939 106.906 145.284C106.254 138.878 105.894 135.352 107.108 129.78C107.558 127.667 106.933 118.294 106.317 109.233C106.204 107.585 106.097 105.996 105.998 104.479L106.51 101.625C108.534 101.138 112.989 98.7766 113.583 95.9728C110.453 99.2461 104.842 99.648 104.842 99.648Z" fill="#37474F"/>
</g>
<g id="Top">
<path id="Vector_177" d="M127.81 76.5723C127.472 76.3872 126.838 76.947 126.011 77.7371C125.804 77.9321 125.643 78.1713 125.54 78.437C125.437 78.7026 125.395 78.988 125.417 79.2722C125.991 79.1651 126.512 78.864 126.892 78.4189C127.335 77.8818 127.648 77.2501 127.81 76.5723Z" fill="#263238"/>
<path id="Vector_178" d="M129.734 83.0421C129.41 82.9383 129.284 82.7983 129.734 82.3785C130.183 81.9586 131.667 80.8795 131.667 80.8795L132.041 81.5116C132.041 81.5116 130.296 83.1686 129.734 83.0421Z" fill="black"/>
<path id="Vector_179" d="M139.279 72.8024C139.068 71.8723 138.052 71.1861 136.217 70.1612L136.168 70.1341L135.912 69.9896C132.868 68.4275 117.89 61.6236 115.467 60.689C113.611 59.9026 111.651 59.393 109.649 59.1765L113.007 71.0461C113.007 71.0461 124.136 74.5451 128.744 75.9673C127.481 77.4708 126.244 78.9246 125.107 79.4483L129.603 83.2724C130.601 81.7238 136.671 78.6176 138.016 76.5001C138.974 74.947 139.482 73.7099 139.279 72.8024Z" fill="#9E6767"/>
<path id="Vector_180" d="M134.796 71.1905C131.73 70.861 129.19 73.5022 127.994 74.8792C127.872 75.0192 127.62 75.3307 127.418 75.5655L128.713 75.9673C128.78 75.8905 129.293 75.2088 129.612 74.7799C130.848 72.9904 132.691 71.7144 134.796 71.1905Z" fill="#874C4C"/>
<path id="Vector_181" d="M129.217 79.8954C128.708 79.4439 127.467 78.3017 126.676 78.6358C125.435 79.164 124.851 79.6606 122.985 80.5365C121.636 81.1731 119.995 82.0219 119.639 82.4418C118.74 83.5163 119.046 86.2614 119.406 87.4082C119.447 87.5547 119.52 87.6904 119.619 87.8058C119.718 87.9213 119.841 88.0138 119.979 88.0769C120.117 88.14 120.267 88.1723 120.419 88.1714C120.571 88.1705 120.72 88.1365 120.858 88.0718C120.966 88.3111 121.267 88.8258 122.207 88.6317C122.279 88.9884 122.823 89.4173 123.664 89.2457C123.771 89.6385 124.527 89.7785 125.035 89.5437C125.741 89.2277 126.474 88.2163 126.919 87.8326C127.364 87.4488 127.575 87.3043 127.584 87.065C127.584 86.74 127.238 86.4104 126.645 86.4645C127.345 86.2686 127.971 85.8678 128.443 85.3133C128.806 84.8062 129.108 84.2576 129.342 83.6789C129.524 83.1964 129.801 82.7557 130.156 82.3831C130.813 81.6427 129.833 80.532 129.302 80.0128L129.217 79.8954Z" fill="#9E6767"/>
<path id="Vector_182" d="M126.659 86.478C126.454 86.5852 126.262 86.7155 126.087 86.8663C126.004 86.9429 125.929 87.0276 125.863 87.1191C125.791 87.2094 125.741 87.3088 125.66 87.4081L125.62 87.4578L125.566 87.4307C125.217 87.2935 124.841 87.2424 124.468 87.2817C124.842 87.1303 125.26 87.1303 125.633 87.2817H125.539C125.659 87.0794 125.811 86.898 125.988 86.7444C126.192 86.6111 126.42 86.5205 126.659 86.478Z" fill="#874C4C"/>
<path id="Vector_183" d="M125.354 88.3878C125.399 88.2027 125.462 88.0447 125.498 87.8776C125.542 87.7068 125.575 87.5334 125.597 87.3584C125.684 87.5302 125.703 87.7284 125.651 87.9137C125.606 88.1001 125.502 88.2666 125.354 88.3878Z" fill="#874C4C"/>
<path id="Vector_184" d="M123.677 89.2593C123.458 88.8101 123.328 88.3225 123.295 87.8235C123.244 87.3255 123.291 86.8223 123.434 86.3427C123.404 86.8316 123.411 87.3222 123.457 87.81C123.49 88.2984 123.564 88.7831 123.677 89.2593Z" fill="#874C4C"/>
<path id="Vector_185" d="M122.22 88.6451C122.015 88.0834 121.88 87.4978 121.82 86.9024C121.747 86.3003 121.773 85.6901 121.897 85.0964C121.887 85.689 121.914 86.2816 121.977 86.8708C122.031 87.4758 122.135 88.0582 122.22 88.6451Z" fill="#874C4C"/>
<path id="Vector_186" d="M120.858 88.1032C120.322 86.9766 120.214 85.6926 120.552 84.4913C120.499 85.0921 120.499 85.6965 120.552 86.2973C120.602 86.907 120.705 87.5112 120.858 88.1032Z" fill="#874C4C"/>
<path id="Vector_187" d="M120.633 83.5342C120.622 83.3798 120.649 83.225 120.71 83.0827C120.773 82.9433 120.867 82.8199 120.984 82.7216C121.225 82.5507 121.505 82.4422 121.798 82.4055C121.672 82.4823 121.546 82.55 121.425 82.6177C121.302 82.6807 121.186 82.7563 121.078 82.8435C120.862 83.0218 120.707 83.2632 120.633 83.5342Z" fill="#874C4C"/>
<path id="Vector_188" d="M122.027 84.0806C122.012 83.9264 122.037 83.7709 122.099 83.6291C122.162 83.4885 122.258 83.3648 122.378 83.2679C122.616 83.094 122.895 82.9851 123.187 82.9519L122.814 83.1596C122.693 83.2259 122.577 83.3013 122.468 83.3853C122.252 83.5655 122.098 83.8085 122.027 84.0806Z" fill="#874C4C"/>
<path id="Vector_189" d="M123.713 84.8482C123.698 84.694 123.723 84.5385 123.785 84.3967C123.849 84.2561 123.944 84.1324 124.064 84.0355C124.303 83.8634 124.581 83.7546 124.873 83.7195C124.747 83.7962 124.621 83.864 124.5 83.9317C124.377 83.9947 124.261 84.0703 124.154 84.1574C123.936 84.3339 123.782 84.5762 123.713 84.8482Z" fill="#874C4C"/>
<g id="Watch">
<path id="Vector_190" d="M130.754 76.9652L128.866 76.3286C128.651 76.2685 128.425 76.2601 128.206 76.3041C127.987 76.348 127.782 76.443 127.607 76.5814L126.109 77.9043C126.044 77.9513 125.992 78.0151 125.96 78.089C125.928 78.1628 125.915 78.244 125.925 78.3242C125.925 78.419 126.015 78.7757 126.037 78.8795C126.06 78.9564 126.103 79.0259 126.162 79.0806C126.22 79.1354 126.292 79.1735 126.37 79.191L128.259 79.8321C128.473 79.8918 128.699 79.9 128.918 79.8561C129.137 79.8122 129.342 79.7174 129.517 79.5793L131.01 78.2519C131.074 78.2075 131.126 78.1471 131.16 78.0767C131.194 78.0062 131.209 77.9282 131.204 77.8501C131.204 77.7463 131.109 77.3986 131.087 77.2812C131.065 77.2034 131.022 77.1331 130.963 77.0775C130.905 77.0219 130.833 76.9831 130.754 76.9652Z" fill="#37474F"/>
<path id="Vector_191" d="M126.11 77.9043L127.607 76.5814C127.782 76.443 127.988 76.348 128.206 76.3041C128.425 76.2601 128.651 76.2685 128.866 76.3286L130.754 76.9652C130.836 76.9748 130.913 77.0101 130.974 77.0661C131.034 77.122 131.076 77.1958 131.092 77.2769C131.109 77.358 131.099 77.4423 131.065 77.5176C131.031 77.593 130.974 77.6556 130.903 77.6966L129.405 79.0195C129.23 79.1579 129.025 79.2529 128.806 79.2968C128.587 79.3407 128.361 79.3323 128.146 79.2723L126.258 78.6357C126.176 78.6261 126.099 78.5908 126.039 78.5348C125.978 78.4788 125.936 78.405 125.92 78.3239C125.904 78.2429 125.913 78.1586 125.947 78.0833C125.981 78.0079 126.038 77.9453 126.11 77.9043Z" fill="#455A64"/>
<path id="Vector_192" d="M128.772 79.1144C128.586 79.1627 128.391 79.1627 128.205 79.1144L126.317 78.4778C126.195 78.4371 126.119 78.3739 126.105 78.3017C126.092 78.2295 126.137 78.1482 126.236 78.0624L127.729 76.7396C127.878 76.6199 128.054 76.5392 128.241 76.5048C128.427 76.4564 128.622 76.4564 128.808 76.5048L130.697 77.1414C130.818 77.182 130.895 77.2452 130.908 77.3175C130.922 77.3897 130.877 77.471 130.778 77.5567L129.285 78.8796C129.136 78.9993 128.96 79.08 128.772 79.1144Z" fill="#263238"/>
<path id="Vector_193" d="M127.935 79.5251H127.904L126.555 79.0736C126.547 79.071 126.539 79.0669 126.533 79.0614C126.526 79.0559 126.521 79.0491 126.517 79.0416C126.514 79.034 126.511 79.0257 126.511 79.0172C126.51 79.0088 126.512 79.0003 126.514 78.9923C126.52 78.9758 126.531 78.962 126.546 78.9536C126.561 78.9452 126.579 78.9429 126.595 78.9472L127.944 79.3987C127.953 79.4006 127.961 79.4043 127.968 79.4097C127.974 79.4151 127.98 79.4219 127.984 79.4297C127.988 79.4374 127.99 79.446 127.99 79.4547C127.99 79.4634 127.988 79.472 127.985 79.4799C127.981 79.4909 127.974 79.5007 127.966 79.5086C127.957 79.5165 127.947 79.5221 127.935 79.5251Z" fill="#455A64"/>
<path id="Vector_194" d="M129.527 79.2316C129.81 79.3174 130.426 79.7056 130.692 80.8389C130.957 81.9721 130.363 82.9112 129.72 83.0421C129.949 83.1956 130.494 82.9699 131.164 82.4642L131.721 82.0443C131.943 81.8787 132.121 81.6605 132.239 81.4093C132.357 81.158 132.411 80.8814 132.396 80.6041C132.387 80.4335 132.361 80.2641 132.32 80.0984C132.252 79.6673 132.094 79.2556 131.856 78.8905C131.618 78.5254 131.305 78.2153 130.939 77.981L129.527 79.2316Z" fill="#263238"/>
</g>
<path id="Vector_195" d="M86.1194 94.0043C87.1536 89.2727 88.7273 82.2972 88.7632 81.2497C88.9161 77.0148 87.828 73.8589 87.4368 71.2267C86.5825 65.4883 88.7228 60.6709 90.0537 59.5377C90.0537 59.5377 91.4385 59.2217 93.0887 58.8244C94.0277 58.5954 94.9797 58.4235 95.9394 58.3097C98.4715 57.9535 101.035 57.8838 103.583 58.102C104.204 58.1652 107.14 58.6709 107.14 58.6709C108.039 58.8785 109.653 59.1765 109.658 59.1765C111.232 60.6341 112.547 62.3502 113.547 64.2512C114.995 66.8518 115.71 69.028 115.516 74.5993C115.462 76.2743 115.395 79.2677 115.462 81.6561C115.602 86.7714 115.988 88.8799 116.636 93.5212C110.795 97.1331 96.0608 98.7991 86.1194 94.0043Z" fill="#263238"/>
<g id="Head">
<path id="Vector_196" d="M96.389 55.1447C96.8295 55.0356 97.2586 54.8844 97.6704 54.6933C98.2649 54.3854 98.9261 54.2303 99.5948 54.2418C100.418 54.3276 101.092 54.8829 101.874 55.0951C102.316 55.2039 102.775 55.2223 103.223 55.1493C103.502 55.1086 103.767 55.0183 104.042 54.9551C104.49 54.8462 104.955 54.8202 105.413 54.8784C105.879 54.9846 106.363 54.9846 106.829 54.8784C107.558 54.6255 107.976 53.84 108.677 53.5239C109.46 53.1627 110.386 53.4742 111.231 53.3162C111.61 53.2336 111.967 53.0698 112.278 52.8361C112.588 52.6023 112.845 52.3041 113.03 51.9618C113.392 51.2688 113.533 50.4807 113.434 49.7043C113.306 49.1809 113.306 48.634 113.434 48.1106C113.6 47.7844 113.822 47.4907 114.091 47.2437C114.581 46.7019 114.99 45.957 114.761 45.2617C114.563 44.6522 113.911 44.2278 113.862 43.5867C113.861 43.4393 113.893 43.2936 113.955 43.1601C114.017 43.0266 114.108 42.9087 114.221 42.8149C114.334 42.7211 114.467 42.6538 114.609 42.6178C114.752 42.5819 114.9 42.5781 115.044 42.6069C115.183 42.6525 115.311 42.7281 115.418 42.8283C115.526 42.9285 115.61 43.0511 115.665 43.1873C115.72 43.3236 115.745 43.4703 115.738 43.6173C115.731 43.7642 115.692 43.9079 115.624 44.0382C115.935 43.8404 116.197 43.5758 116.393 43.2634C116.589 42.951 116.714 42.5988 116.757 42.2322C116.71 41.599 116.416 41.0101 115.939 40.5933C115.489 40.1418 114.986 39.7761 114.59 39.2885C114.38 39.022 114.227 38.7145 114.14 38.3855C114.099 38.225 114.082 38.059 114.091 37.8934C114.091 37.5999 114.226 37.311 114.271 37.0175C114.35 36.4143 114.212 35.8027 113.882 35.2923C113.553 34.7818 113.053 34.4059 112.472 34.2318C111.843 34.0648 111.087 34.1099 110.674 33.6133C110.363 33.2521 110.355 32.7103 110.179 32.2859C109.73 31.1617 108.196 30.8231 107.068 31.2656C106.51 31.4823 105.948 31.8525 105.368 31.7171C104.976 31.5723 104.624 31.3372 104.338 31.0308C103.811 30.5887 103.199 30.2599 102.54 30.0646C102.212 29.9662 101.874 29.9011 101.533 29.8705C101.362 29.8705 101.191 29.8705 101.02 29.8705C100.89 29.8846 100.76 29.8922 100.629 29.8931C100.519 29.8743 100.408 29.8623 100.296 29.8569C100.155 29.8583 100.014 29.8689 99.8736 29.8885C99.3179 29.9629 98.7827 30.1486 98.2999 30.4348C97.9074 30.6647 97.5576 30.9611 97.2657 31.3107C97.0701 31.5802 96.852 31.8324 96.6138 32.0647C95.9708 32.611 95.0536 32.602 94.2172 32.7058C93.2489 32.8048 92.3248 33.1635 91.5419 33.7442C91.1575 34.0402 90.8389 34.4136 90.6066 34.8404C90.3743 35.2673 90.2334 35.7382 90.193 36.2229C90.2327 36.6567 90.1791 37.094 90.0357 37.5051C89.8563 37.7906 89.5987 38.0179 89.2938 38.1598C88.5883 38.4816 87.9008 38.8418 87.2345 39.2388C86.9029 39.4424 86.6286 39.7275 86.4374 40.0672C86.2462 40.407 86.1445 40.79 86.1419 41.1802C86.1958 41.8349 86.6455 42.3767 87.0411 42.914C87.4368 43.4512 87.765 44.1149 87.5672 44.7425C87.3851 45.1172 87.1683 45.474 86.9197 45.808C86.6919 46.2696 86.6543 46.8027 86.815 47.292C86.9757 47.7812 87.3219 48.1872 87.7785 48.4221C88.3586 48.693 89.1814 48.7652 89.3477 49.3838C89.3713 49.741 89.3208 50.0992 89.1994 50.4357C89.0195 51.4967 90.0357 52.4674 91.1013 52.6119C91.6993 52.6977 92.3738 52.6119 92.8549 52.9776C93.264 53.2936 93.3944 53.8535 93.6822 54.2869C93.9722 54.7151 94.412 55.018 94.9142 55.1357C95.157 55.1944 95.4133 55.1583 95.6516 55.2215C95.9 55.2491 96.1514 55.2229 96.389 55.1447Z" fill="#263238"/>
<path id="Vector_197" d="M96.2181 56.5579C96.2181 55.6188 96.1012 50.9008 96.1012 50.9008C96.0607 51.253 94.3521 52.2101 92.8324 50.3906C91.3126 48.5711 91.2137 46.6342 92.131 45.4243C93.1426 44.0698 95.7865 44.1014 96.0382 46.3995C97.3512 46.3498 97.9852 45.7809 97.4636 43.6093C97.5805 42.3451 98.8125 41.8033 99.1632 39.7762C99.2801 39.0042 99.6557 38.2955 100.228 37.7668C100.8 37.2382 101.535 36.9213 102.311 36.8686C102.932 36.8193 103.557 36.9095 104.139 37.1329C104.722 37.3562 105.248 37.707 105.678 38.1598C105.836 37.8514 106.059 37.582 106.333 37.3712C106.607 37.1603 106.924 37.0133 107.261 36.9408C108.115 36.8266 108.98 37.0431 109.681 37.5462C110.381 38.0494 110.865 38.8015 111.033 39.6497C111.493 41.8272 111.687 44.053 111.609 46.2776C111.425 51.2846 110.085 53.7 108.489 54.5398C107.414 55.0996 106.447 55.2306 104.581 55.0725L104.662 56.6437C104.698 57.4338 104.626 57.9982 105.391 58.2736C105.899 58.4452 107.113 58.6799 107.113 58.6799C107.113 58.6799 108.889 61.7591 103.997 62.0345C96.2001 62.486 93.0752 58.8334 93.0752 58.8334L94.8018 58.3007C96.0742 57.8943 96.2091 57.5016 96.2181 56.5579Z" fill="#9E6767"/>
<path id="Vector_198" d="M105.665 49.6049C105.538 49.4396 105.362 49.3193 105.162 49.2618C104.983 49.2087 104.799 49.1754 104.613 49.1625C104.432 49.1481 104.251 49.1587 104.073 49.1941C103.974 49.2137 103.876 49.2408 103.781 49.2753C103.701 49.3124 103.627 49.3611 103.561 49.4198C103.52 49.4514 103.462 49.6275 103.561 49.6275C103.655 49.6366 103.75 49.6366 103.844 49.6275L104.091 49.6049C104.267 49.5959 104.442 49.5959 104.617 49.6049C104.788 49.6148 104.957 49.6451 105.121 49.6952C105.193 49.7178 105.265 49.7268 105.337 49.7449C105.409 49.763 105.418 49.7675 105.458 49.772C105.511 49.7765 105.563 49.7765 105.616 49.772C105.679 49.763 105.697 49.6456 105.665 49.6049Z" fill="#874C4C"/>
<path id="Vector_199" opacity="0.2" d="M105.665 49.6049C105.538 49.4396 105.362 49.3193 105.162 49.2618C104.983 49.2087 104.799 49.1754 104.613 49.1625C104.432 49.1481 104.251 49.1587 104.073 49.1941C103.974 49.2137 103.876 49.2408 103.781 49.2753C103.701 49.3124 103.627 49.3611 103.561 49.4198C103.52 49.4514 103.462 49.6275 103.561 49.6275C103.655 49.6366 103.75 49.6366 103.844 49.6275L104.091 49.6049C104.267 49.5959 104.442 49.5959 104.617 49.6049C104.788 49.6148 104.957 49.6451 105.121 49.6952C105.193 49.7178 105.265 49.7268 105.337 49.7449C105.409 49.763 105.418 49.7675 105.458 49.772C105.511 49.7765 105.563 49.7765 105.616 49.772C105.679 49.763 105.697 49.6456 105.665 49.6049Z" fill="black"/>
<path id="Vector_200" d="M110.162 41.8394L108.201 41.0538C108.245 40.9215 108.316 40.7998 108.409 40.6961C108.502 40.5925 108.615 40.5091 108.742 40.4511C108.868 40.3931 109.005 40.3618 109.144 40.3591C109.283 40.3564 109.421 40.3823 109.55 40.4353C109.811 40.5465 110.02 40.754 110.134 41.0152C110.248 41.2763 110.258 41.5712 110.162 41.8394Z" fill="#263238"/>
<path id="Vector_201" d="M103.467 41.1938L101.375 40.7423C101.339 40.8773 101.331 41.0183 101.351 41.1566C101.371 41.2949 101.419 41.4276 101.492 41.5467C101.565 41.6659 101.661 41.7689 101.775 41.8495C101.888 41.93 102.017 41.9865 102.153 42.0155C102.436 42.0745 102.73 42.022 102.974 41.869C103.219 41.7159 103.395 41.4741 103.467 41.1938Z" fill="#263238"/>
<path id="Vector_202" d="M108.021 43.7356C108.003 43.9709 108.078 44.2038 108.23 44.3844C108.381 44.5649 108.597 44.6789 108.83 44.7018C108.944 44.7149 109.059 44.7049 109.169 44.6725C109.279 44.6401 109.381 44.5858 109.47 44.5129C109.558 44.4401 109.631 44.3501 109.684 44.2484C109.738 44.1467 109.77 44.0353 109.779 43.9207C109.797 43.6854 109.722 43.4526 109.571 43.272C109.419 43.0914 109.204 42.9775 108.97 42.9546C108.856 42.9415 108.741 42.9514 108.631 42.9839C108.521 43.0163 108.419 43.0706 108.331 43.1434C108.242 43.2163 108.169 43.3063 108.116 43.408C108.063 43.5097 108.03 43.6211 108.021 43.7356Z" fill="#263238"/>
<path id="Vector_203" d="M101.636 43.8575C101.619 44.0928 101.693 44.3257 101.845 44.5063C101.996 44.6868 102.212 44.8008 102.446 44.8237C102.559 44.8375 102.674 44.8281 102.784 44.7962C102.894 44.7643 102.996 44.7105 103.085 44.638C103.173 44.5655 103.246 44.4758 103.3 44.3743C103.353 44.2728 103.385 44.1615 103.395 44.0472C103.412 43.8119 103.337 43.579 103.186 43.3984C103.035 43.2179 102.819 43.1039 102.585 43.081C102.472 43.0672 102.357 43.0766 102.247 43.1085C102.137 43.1404 102.035 43.1942 101.946 43.2667C101.858 43.3392 101.784 43.4289 101.731 43.5304C101.678 43.6319 101.646 43.7432 101.636 43.8575Z" fill="#263238"/>
<path id="Vector_204" d="M108.817 46.8148L105.939 47.8713L105.175 42.8507C106.281 42.8778 107.702 44.6296 108.817 46.8148Z" fill="#874C4C"/>
<path id="Vector_205" d="M104.581 55.0634C101.231 54.7158 98.0256 53.6096 97.2792 52.0746C97.4137 53.038 97.8933 53.9192 98.6281 54.5533C100.876 56.4314 104.653 56.2508 104.653 56.2508L104.581 55.0634Z" fill="#874C4C"/>
</g>
<g id="Arm">
<path id="Vector_206" d="M84.6184 101.901C83.2063 102.303 81.3984 100.546 80.9037 99.9278C80.409 99.3092 81.0431 97.8554 81.3534 96.6274C81.6637 95.3993 81.3534 93.318 82.869 93.9185C84.3845 94.5189 87.5595 98.5868 84.6184 101.901Z" fill="#874C4C"/>
<path id="Vector_207" d="M90.0402 59.5377C86.1104 60.1247 84.2894 61.0683 82.1267 65.4341C79.6087 70.5179 75.5351 77.5882 74.9056 79.796C74.3166 81.8502 73.1476 83.3176 75.3867 86.4373C77.4325 89.2953 83.8713 96.7809 84.829 97.878C85.6653 98.8487 85.2022 101.634 82.3245 101.219C82.3245 101.219 84.5142 103.165 85.7147 102.948C86.7534 102.763 88.3855 101.851 89.8828 98.6907C90.827 96.6951 90.0357 95.133 88.6014 92.9117C86.8838 90.2614 83.1743 82.8706 83.1743 82.8706L89.8109 71.0461C89.8109 71.0461 93.3854 63.0458 90.0402 59.5377Z" fill="#9E6767"/>
</g>
</g>
<path id="Vector_208" d="M129.882 176.143C129.836 175.507 129.55 174.913 129.082 174.482C128.676 174.03 128.123 173.737 127.521 173.656C127.418 173.656 127.364 173.805 127.36 173.886C127.352 173.944 127.36 174.002 127.382 174.056C127.404 174.11 127.44 174.157 127.485 174.193C127.93 174.426 128.345 174.711 128.722 175.042C128.874 175.204 129.003 175.386 129.104 175.584C129.131 175.633 129.155 175.685 129.176 175.737V175.764L129.212 175.859C129.253 175.976 129.307 176.094 129.338 176.216C129.376 176.438 129.396 176.663 129.397 176.888C129.396 176.962 129.413 177.035 129.446 177.101C129.563 177.272 129.725 176.961 129.77 176.843C129.854 176.62 129.893 176.382 129.882 176.143Z" fill="#FAFAFA"/>
<path id="Vector_209" d="M130.782 173.331C130.343 172.812 129.801 172.392 129.19 172.098C128.577 171.745 127.85 171.648 127.166 171.827C126.995 171.89 127.013 172.279 127.166 172.319C127.788 172.454 128.398 172.636 128.992 172.866C129.46 173.078 129.88 173.386 130.224 173.769C131.083 174.721 131.353 176.049 131.358 177.299C131.358 177.389 131.452 177.38 131.484 177.299C132.158 175.999 131.672 174.401 130.782 173.331Z" fill="#FAFAFA"/>
</g>
</g>
<g id="speech-bubble">
<g id="speech-bubble_2">
<g id="speech-bubble_3">
<path id="Vector_210" d="M38.9531 44.0154C41.4081 49.0179 47.1814 53.2574 57.2801 53.2664C61.7764 53.2664 65.4139 52.4176 68.2871 51.0406C70.216 53.4244 74.1323 54.3093 76.9874 53.1987C77.0713 53.1654 77.1432 53.1076 77.194 53.0327C77.2447 52.9578 77.2718 52.8693 77.2718 52.7788C77.2718 52.6882 77.2447 52.5998 77.194 52.5249C77.1432 52.45 77.0713 52.3922 76.9874 52.3589C74.1053 51.1489 73.2735 49.0946 73.0487 47.6454C74.0814 46.5817 74.943 45.3632 75.6026 44.0335C76.9269 41.4077 77.5274 38.4738 77.3416 35.5363C77.1558 32.5989 76.1905 29.7649 74.5459 27.3284C71.2906 22.3395 64.1325 19.2017 57.2756 19.2017C50.4187 19.2017 43.2606 22.335 40.0053 27.3284C38.3656 29.7637 37.4036 32.5945 37.2186 35.5282C37.0336 38.4619 37.6325 41.392 38.9531 44.0154Z" fill="white"/>
<path id="Vector_211" d="M74.3346 53.8398C72.019 53.8398 69.6314 52.8872 68.2421 51.2483C65.1711 52.6931 61.4976 53.429 57.2981 53.429H57.2666C45.1895 53.429 40.5178 47.5596 38.8047 44.0922C37.4702 41.441 36.8653 38.4798 37.0527 35.5151C37.24 32.5504 38.2128 29.6898 39.8704 27.2292C43.0717 22.3215 50.068 19.0256 57.2801 19.0256C64.4922 19.0256 71.4884 22.317 74.6898 27.2246C76.3531 29.6831 77.3311 32.5437 77.5224 35.5096C77.7138 38.4755 77.1114 41.4388 75.7779 44.0922C75.1211 45.4168 74.2692 46.6345 73.251 47.7041C73.4983 49.1444 74.3706 51.0677 77.0773 52.219C77.1915 52.2664 77.2887 52.3474 77.3561 52.4514C77.4236 52.5553 77.458 52.6774 77.455 52.8014C77.4569 52.9241 77.4206 53.0444 77.3513 53.1455C77.282 53.2466 77.1831 53.3236 77.0683 53.3658C76.1943 53.6929 75.2672 53.8537 74.3346 53.8398ZM68.332 50.8329L68.4129 50.9368C70.2564 53.1942 74.0738 54.1559 76.929 53.0407C76.981 53.0216 77.0255 52.9863 77.0563 52.9401C77.087 52.8938 77.1022 52.8389 77.0998 52.7834C77.1031 52.7259 77.0883 52.6689 77.0577 52.6204C77.0271 52.5718 76.982 52.534 76.929 52.5125C74.0288 51.2934 73.1296 49.2076 72.8823 47.6725V47.5912L72.9407 47.5326C73.9652 46.4681 74.8178 45.2494 75.4676 43.9207C76.7736 41.3248 77.3658 38.4259 77.1832 35.5235C77.0006 32.621 76.0498 29.82 74.429 27.4098C71.3355 22.6737 64.2943 19.3643 57.2981 19.3643C50.3018 19.3643 43.2606 22.6737 40.1671 27.4098C38.5407 29.8217 37.5859 32.6263 37.4017 35.5333C37.2176 38.4402 37.8106 41.3438 39.1195 43.9432C40.7966 47.361 45.3873 53.0904 57.2981 53.0994C61.5021 53.0994 65.1801 52.3544 68.2331 50.8916L68.332 50.8329Z" fill="#455A64"/>
</g>
<path id="Vector_212" d="M61.4616 39.627C62.6577 40.9499 62.7656 42.5572 62.7656 44.485H51.7631C51.7631 42.5572 51.871 40.9499 53.067 39.627C54.263 38.3042 55.2253 37.8482 55.7154 37.3696C55.9008 37.246 56.053 37.0783 56.1583 36.8814C56.2635 36.6844 56.3186 36.4644 56.3186 36.2409C56.3186 36.0173 56.2635 35.7973 56.1583 35.6004C56.053 35.4034 55.9008 35.2357 55.7154 35.1121C55.2253 34.6336 54.2585 34.1731 53.067 32.8547C51.8755 31.5364 51.7631 29.9246 51.7631 27.9967H62.7656C62.7656 29.9246 62.6577 31.5364 61.4616 32.8547C60.2656 34.1731 59.3034 34.6336 58.8133 35.1121C58.6278 35.2357 58.4756 35.4034 58.3704 35.6004C58.2651 35.7973 58.21 36.0173 58.21 36.2409C58.21 36.4644 58.2651 36.6844 58.3704 36.8814C58.4756 37.0783 58.6278 37.246 58.8133 37.3696C59.0786 37.6269 59.4878 37.8843 59.9913 38.2726C60.5213 38.6783 61.0135 39.1317 61.4616 39.627Z" fill="#7A2D93"/>
<path id="Vector_213" opacity="0.6" d="M61.4616 39.627C62.6577 40.9499 62.7656 42.5572 62.7656 44.485H51.7631C51.7631 42.5572 51.871 40.9499 53.067 39.627C54.263 38.3042 55.2253 37.8482 55.7154 37.3696C55.9008 37.246 56.053 37.0783 56.1583 36.8814C56.2635 36.6844 56.3186 36.4644 56.3186 36.2409C56.3186 36.0173 56.2635 35.7973 56.1583 35.6004C56.053 35.4034 55.9008 35.2357 55.7154 35.1121C55.2253 34.6336 54.2585 34.1731 53.067 32.8547C51.8755 31.5364 51.7631 29.9246 51.7631 27.9967H62.7656C62.7656 29.9246 62.6577 31.5364 61.4616 32.8547C60.2656 34.1731 59.3034 34.6336 58.8133 35.1121C58.6278 35.2357 58.4756 35.4034 58.3704 35.6004C58.2651 35.7973 58.21 36.0173 58.21 36.2409C58.21 36.4644 58.2651 36.6844 58.3704 36.8814C58.4756 37.0783 58.6278 37.246 58.8133 37.3696C59.0786 37.6269 59.4878 37.8843 59.9913 38.2726C60.5213 38.6783 61.0135 39.1317 61.4616 39.627Z" fill="white"/>
<path id="Vector_214" opacity="0.5" d="M52.0734 44.2593C52.0435 44.2593 52.015 44.2475 51.9939 44.2263C51.9728 44.2051 51.9609 44.1764 51.9609 44.1465C51.9609 42.5256 52.0779 40.9861 53.2157 39.7038C53.8009 39.0607 54.4572 38.4866 55.1719 37.9927C55.4134 37.8299 55.6433 37.6503 55.86 37.4554C56.0613 37.3149 56.2258 37.1275 56.3393 36.9094C56.4529 36.6912 56.5122 36.4487 56.5122 36.2025C56.5122 35.9564 56.4529 35.7139 56.3393 35.4957C56.2258 35.2776 56.0613 35.0902 55.86 34.9497C55.6441 34.7558 55.4157 34.5763 55.1764 34.4124C54.4604 33.9167 53.8026 33.3411 53.2157 32.6967C52.0779 31.4371 51.9744 29.8795 51.9609 28.2586C51.9609 28.2287 51.9728 28.2 51.9939 28.1788C52.015 28.1576 52.0435 28.1458 52.0734 28.1458C52.102 28.1458 52.1294 28.1572 52.1497 28.1775C52.1699 28.1978 52.1813 28.2254 52.1813 28.2541C52.1813 29.8343 52.2937 31.3468 53.3775 32.5523C53.9536 33.1823 54.5994 33.7443 55.3023 34.2273C55.5455 34.3996 55.7769 34.5882 55.9949 34.7916C56.2161 34.9538 56.396 35.1662 56.52 35.4113C56.6441 35.6565 56.7087 35.9276 56.7087 36.2025C56.7087 36.4775 56.6441 36.7486 56.52 36.9938C56.396 37.2389 56.2161 37.4512 55.9949 37.6134C55.7712 37.8163 55.5338 38.0033 55.2844 38.1733C54.5804 38.6567 53.9345 39.2203 53.3596 39.8528C52.2757 41.0538 52.1768 42.5617 52.1633 44.1465C52.1638 44.1729 52.1551 44.1986 52.1387 44.2193C52.1223 44.2399 52.0991 44.2541 52.0734 44.2593Z" fill="white"/>
<path id="Vector_215" d="M60.976 40.0424C61.8753 41.0311 62.0641 42.2998 62.0956 43.7581H52.4645C52.496 42.2772 52.6534 41.0221 53.5841 40.0424C54.5148 39.0627 55.6614 38.6337 57.2801 38.6337C57.9584 38.6104 58.6346 38.723 59.2691 38.9648C59.9037 39.2067 60.4839 39.573 60.976 40.0424Z" fill="#FAFAFA"/>
<path id="Vector_216" d="M62.0507 29.5454C62.0169 30.5788 61.6385 31.571 60.976 32.3626C60.4137 32.979 59.7831 33.5288 59.0966 34.0015C58.8361 34.1814 58.5882 34.379 58.3547 34.593C58.1188 34.7916 57.9261 35.0367 57.7884 35.3132C57.6507 35.5897 57.5711 35.8916 57.5544 36.2003C57.5544 36.7421 57.4644 36.882 57.2801 36.882C57.0957 36.882 57.0058 36.7556 57.0058 36.2003C56.9891 35.8916 56.9094 35.5897 56.7718 35.3132C56.6341 35.0367 56.4413 34.7916 56.2055 34.593C55.9736 34.379 55.7272 34.1813 55.4681 34.0015C54.7791 33.5301 54.1469 32.9802 53.5841 32.3626C53.3775 32.1338 53.1994 31.8806 53.0535 31.6086C53.0436 31.5888 53.0395 31.5665 53.0418 31.5443C53.044 31.5222 53.0524 31.5012 53.0661 31.4837C53.0797 31.4662 53.0981 31.4529 53.1189 31.4455C53.1398 31.438 53.1623 31.4367 53.1839 31.4416C54.0521 31.6494 54.9454 31.7315 55.8368 31.6854C57.6083 31.577 58.4042 31.2791 59.5147 30.3309C60.1802 29.7711 60.6838 28.9765 61.1289 28.8049C61.2396 28.7435 61.3659 28.7165 61.4919 28.7273C61.6178 28.7381 61.7378 28.7862 61.8365 28.8655C61.9352 28.9448 62.0083 29.0517 62.0464 29.1728C62.0845 29.2938 62.086 29.4235 62.0507 29.5454Z" fill="#FAFAFA"/>
<path id="Vector_217" d="M57.2801 38.0017C57.4614 38.0017 57.6084 37.8541 57.6084 37.6721C57.6084 37.4901 57.4614 37.3425 57.2801 37.3425C57.0988 37.3425 56.9518 37.4901 56.9518 37.6721C56.9518 37.8541 57.0988 38.0017 57.2801 38.0017Z" fill="#FAFAFA"/>
<path id="Vector_218" opacity="0.3" d="M59.9914 38.2726C60.5213 38.6784 61.0135 39.1317 61.4616 39.627C62.6577 40.9499 62.7656 42.5572 62.7656 44.4851H53.0266C54.4969 44.4851 58.611 43.7943 60.0813 42.3495C61.637 40.8099 60.8726 39.5051 59.9914 38.2726Z" fill="#7A2D93"/>
<path id="Vector_219" opacity="0.3" d="M62.7656 28.0103C62.7656 29.9381 62.6577 31.5499 61.4617 32.8683C60.2656 34.1866 59.3034 34.6471 58.8133 35.1257C58.6278 35.2492 58.4757 35.417 58.3704 35.6139C58.2651 35.8109 58.2101 36.0309 58.2101 36.2544C58.2101 36.4779 58.2651 36.698 58.3704 36.8949C58.4757 37.0919 58.6278 37.2596 58.8133 37.3831C57.1992 36.3989 57.4644 35.4101 57.7612 34.751C58.0579 34.0918 60.0723 32.8457 59.9599 31.0217C59.8475 29.1977 57.0193 28.0238 54.3305 28.0238L62.7656 28.0103Z" fill="#7A2D93"/>
<path id="Vector_220" d="M63.7593 26.5294C63.7593 26.7893 63.6565 27.0385 63.4735 27.2222C63.2905 27.4059 63.0423 27.5091 62.7836 27.5091H51.7811C51.5223 27.5091 51.2742 27.4059 51.0912 27.2222C50.9082 27.0385 50.8054 26.7893 50.8054 26.5294H63.7593Z" fill="#7A2D93"/>
<path id="Vector_221" opacity="0.2" d="M59.3079 26.5294C59.3067 26.7897 59.2029 27.0389 59.0192 27.2225C58.8356 27.4061 58.5869 27.5091 58.3277 27.5091H51.7811C51.5223 27.5091 51.2742 27.4059 51.0912 27.2222C50.9082 27.0385 50.8054 26.7893 50.8054 26.5294H59.3079Z" fill="white"/>
<path id="Vector_222" d="M64.5371 25.3148V25.694C64.5371 25.9156 64.4495 26.128 64.2935 26.2847C64.1375 26.4413 63.9259 26.5293 63.7053 26.5293H50.8683C50.6477 26.5293 50.4361 26.4413 50.2801 26.2847C50.1242 26.128 50.0365 25.9156 50.0365 25.694V25.3148C50.0377 25.2689 50.0567 25.2253 50.0894 25.1932C50.1222 25.1611 50.1661 25.1432 50.2119 25.1432H64.3528C64.3763 25.1414 64.4 25.1444 64.4223 25.1522C64.4446 25.16 64.4651 25.1723 64.4824 25.1884C64.4997 25.2046 64.5135 25.2241 64.5229 25.2459C64.5324 25.2676 64.5372 25.2911 64.5371 25.3148Z" fill="#7A2D93"/>
<path id="Vector_223" opacity="0.15" d="M64.5101 25.3149V25.6941C64.5101 25.9156 64.4225 26.1281 64.2665 26.2847C64.1105 26.4414 63.8989 26.5294 63.6783 26.5294H50.8549C50.6342 26.5294 50.4227 26.4414 50.2667 26.2847C50.1107 26.1281 50.023 25.9156 50.023 25.6941V25.3149C50.023 25.2694 50.041 25.2257 50.0731 25.1936C50.1051 25.1614 50.1486 25.1433 50.1939 25.1433H64.3348C64.3805 25.1433 64.4245 25.1612 64.4572 25.1933C64.49 25.2253 64.509 25.269 64.5101 25.3149Z" fill="black"/>
<path id="Vector_224" d="M60.8366 25.3149V25.6941C60.8366 25.9156 60.749 26.1281 60.593 26.2847C60.437 26.4414 60.2254 26.5294 60.0048 26.5294H50.8683C50.6477 26.5294 50.4361 26.4414 50.2801 26.2847C50.1242 26.1281 50.0365 25.9156 50.0365 25.6941V25.3149C50.0377 25.269 50.0567 25.2253 50.0894 25.1933C50.1222 25.1612 50.1661 25.1433 50.2119 25.1433H60.6658C60.7111 25.1433 60.7546 25.1614 60.7866 25.1936C60.8186 25.2257 60.8366 25.2694 60.8366 25.3149Z" fill="#7A2D93"/>
<path id="Vector_225" opacity="0.2" d="M52.2398 26.5294C52.0785 26.3347 51.9901 26.0895 51.9901 25.8363C51.9901 25.5831 52.0785 25.3379 52.2398 25.1433H55.1854C55.3492 25.3368 55.4392 25.5824 55.4392 25.8363C55.4392 26.0903 55.3492 26.3359 55.1854 26.5294H52.2398Z" fill="white"/>
<path id="Vector_226" opacity="0.2" d="M52.7388 27.5091C52.6305 27.369 52.5718 27.1967 52.5718 27.0193C52.5718 26.8419 52.6305 26.6696 52.7388 26.5294H54.6906C54.7989 26.6696 54.8577 26.8419 54.8577 27.0193C54.8577 27.1967 54.7989 27.369 54.6906 27.5091H52.7388Z" fill="white"/>
<path id="Vector_227" d="M50.8054 45.8711C50.8054 45.6112 50.9082 45.362 51.0912 45.1783C51.2742 44.9946 51.5223 44.8914 51.7811 44.8914H62.7836C63.0423 44.8914 63.2905 44.9946 63.4735 45.1783C63.6565 45.362 63.7593 45.6112 63.7593 45.8711H50.8054Z" fill="#7A2D93"/>
<path id="Vector_228" opacity="0.2" d="M55.2567 45.8711C55.2567 45.6112 55.3595 45.362 55.5425 45.1783C55.7255 44.9946 55.9737 44.8914 56.2324 44.8914H62.7836C63.0423 44.8914 63.2905 44.9946 63.4735 45.1783C63.6565 45.362 63.7593 45.6112 63.7593 45.8711H55.2567Z" fill="white"/>
<path id="Vector_229" d="M50.0365 47.0856V46.7063C50.0365 46.4848 50.1242 46.2724 50.2801 46.1157C50.4361 45.9591 50.6477 45.8711 50.8683 45.8711H63.6918C63.9124 45.8711 64.124 45.9591 64.28 46.1157C64.436 46.2724 64.5236 46.4848 64.5236 46.7063V47.0856C64.5242 47.1085 64.5202 47.1313 64.5119 47.1526C64.5036 47.174 64.4911 47.1934 64.4752 47.2098C64.4593 47.2263 64.4402 47.2393 64.4192 47.2482C64.3982 47.2571 64.3756 47.2617 64.3528 47.2617H50.2119C50.1654 47.2617 50.1208 47.2431 50.0879 47.2101C50.055 47.1771 50.0365 47.1323 50.0365 47.0856Z" fill="#7A2D93"/>
<path id="Vector_230" opacity="0.15" d="M50.0365 47.0856V46.7063C50.0365 46.4848 50.1242 46.2724 50.2801 46.1157C50.4361 45.9591 50.6477 45.8711 50.8683 45.8711H63.6918C63.9124 45.8711 64.124 45.9591 64.28 46.1157C64.436 46.2724 64.5236 46.4848 64.5236 46.7063V47.0856C64.5242 47.1085 64.5202 47.1313 64.5119 47.1526C64.5036 47.174 64.4911 47.1934 64.4752 47.2098C64.4593 47.2263 64.4402 47.2393 64.4192 47.2482C64.3982 47.2571 64.3756 47.2617 64.3528 47.2617H50.2119C50.1654 47.2617 50.1208 47.2431 50.0879 47.2101C50.055 47.1771 50.0365 47.1323 50.0365 47.0856Z" fill="black"/>
<path id="Vector_231" d="M53.746 47.0856V46.7063C53.746 46.4848 53.8336 46.2724 53.9896 46.1157C54.1456 45.9591 54.3572 45.8711 54.5778 45.8711H63.7143C63.9349 45.8711 64.1465 45.9591 64.3025 46.1157C64.4585 46.2724 64.5461 46.4848 64.5461 46.7063V47.0856C64.5467 47.1085 64.5427 47.1313 64.5344 47.1526C64.5261 47.174 64.5136 47.1934 64.4977 47.2098C64.4817 47.2263 64.4627 47.2393 64.4417 47.2482C64.4207 47.2571 64.3981 47.2617 64.3752 47.2617H53.8988C53.8559 47.2571 53.8163 47.2365 53.7879 47.2038C53.7596 47.1711 53.7446 47.1289 53.746 47.0856Z" fill="#7A2D93"/>
<path id="Vector_232" opacity="0.2" d="M62.3211 45.8711C62.4844 46.0657 62.5739 46.3119 62.5739 46.5664C62.5739 46.8208 62.4844 47.0671 62.3211 47.2617H59.3754C59.2138 47.0663 59.1253 46.8204 59.1253 46.5664C59.1253 46.3124 59.2138 46.0664 59.3754 45.8711H62.3211Z" fill="white"/>
<path id="Vector_233" opacity="0.2" d="M61.8398 44.8914C61.9481 45.0315 62.0068 45.2038 62.0068 45.3812C62.0068 45.5586 61.9481 45.7309 61.8398 45.8711H59.8835C59.7759 45.7306 59.7176 45.5584 59.7176 45.3812C59.7176 45.204 59.7759 45.0318 59.8835 44.8914H61.8398Z" fill="white"/>
</g>
</g>
</g>
</g>
</svg>
