<svg width="184" height="175" viewBox="0 0 184 175" fill="none" xmlns="http://www.w3.org/2000/svg">
<g id="Group 429">
<g id="fingerprint/cuate">
<g id="background-complete">
<path id="Vector" d="M28.1611 144.128L19.3992 144.259C16.4596 144.302 13.4936 144.324 10.5365 144.328H10.335V144.128V139.244V139.026H10.5584L19.3685 139.057L23.7758 139.096L28.183 139.148H28.2794V139.24L28.1611 144.128ZM28.1611 144.128L28.0648 139.244L28.1611 139.34L23.7539 139.393L19.3466 139.432L10.5365 139.462L10.7512 139.244V144.128L10.5496 143.927C13.4674 143.927 16.3763 143.953 19.3116 143.997L28.1611 144.128Z" fill="#EBEBEB"/>
<path id="Vector_2" d="M18.3258 145.402H0.701172V150.286H18.3258V145.402Z" fill="#EBEBEB"/>
<path id="Vector_3" d="M113.493 162.998H95.8687V167.882H113.493V162.998Z" fill="#EBEBEB"/>
<path id="Vector_4" d="M183.282 104.291H165.658V109.175H183.282V104.291Z" fill="#EBEBEB"/>
<path id="Vector_5" d="M135.192 5.10175L126.43 5.23268C123.491 5.27632 120.525 5.29814 117.563 5.3025H117.362V5.10175V0.21821V0H117.581L126.395 0.0305509L130.798 0.0698271L135.206 0.122199H135.302V0.213846L135.192 5.10175ZM135.192 5.10175L135.1 0.213846L135.192 0.309859L130.785 0.362229L126.382 0.401507L117.568 0.432056L117.787 0.213846V5.09738L117.585 4.89663C120.499 4.89663 123.412 4.92282 126.347 4.96646L135.192 5.10175Z" fill="#EBEBEB"/>
<path id="Vector_6" d="M145.024 6.3761H127.399V11.2596H145.024V6.3761Z" fill="#EBEBEB"/>
<path id="Vector_7" d="M18.3257 5.10175L9.56373 5.23268C6.6241 5.27632 3.65818 5.29814 0.696641 5.3025H0.495117V5.10175V0.21821V0H0.714166L9.52868 0.0305509L13.9359 0.0698271L18.3169 0.122199H18.4133V0.213846L18.3257 5.10175ZM18.3257 5.10175L18.2337 0.213846L18.3257 0.309859L13.9447 0.362229L9.53744 0.401507L0.722926 0.432056L0.941975 0.213846V5.09738L0.740451 4.89663C3.6538 4.89663 6.56714 4.92282 9.50239 4.96646L18.3257 5.10175Z" fill="#EBEBEB"/>
<path id="Vector_8" d="M97.9235 71.3809H80.2988V76.2644H97.9235V71.3809Z" fill="#EBEBEB"/>
<path id="Vector_9" d="M177.898 3.25568H148.287V39.0377H177.898V3.25568Z" fill="#EBEBEB"/>
<path id="Vector_10" d="M174.516 6.52008H151.669V35.7689H174.516V6.52008Z" fill="white"/>
<path id="Vector_11" d="M152.559 6.52008H151.669V35.7689H152.559V6.52008Z" fill="#C7C7C7"/>
<path id="Vector_12" d="M178.788 3.25568H177.898V39.0377H178.788V3.25568Z" fill="#C7C7C7"/>
<path id="Vector_13" d="M163.599 29.2707H168.987V13.2846H163.599V29.2707Z" fill="#EBEBEB"/>
<path id="Vector_14" d="M171.559 18.6046H156.756V10.3126H171.559V18.6046ZM157.194 18.1682H171.121V10.749H157.194V18.1682Z" fill="#EBEBEB"/>
<path id="Vector_15" d="M177.898 91.4343H148.287V127.216H177.898V91.4343Z" fill="#EBEBEB"/>
<path id="Vector_16" d="M174.516 94.7031H151.669V123.952H174.516V94.7031Z" fill="white"/>
<path id="Vector_17" d="M152.559 94.7031H151.669V123.952H152.559V94.7031Z" fill="#C7C7C7"/>
<path id="Vector_18" d="M178.788 91.4343H177.898V127.216H178.788V91.4343Z" fill="#C7C7C7"/>
<path id="Vector_19" d="M164.716 101.468H159.327V117.454H164.716V101.468Z" fill="#EBEBEB"/>
<path id="Vector_20" d="M171.559 106.787H156.756V98.5173H171.559V106.787ZM157.194 106.351H171.121V98.9538H157.194V106.351Z" fill="#EBEBEB"/>
<path id="Vector_21" d="M177.898 47.5087H148.287V83.2907H177.898V47.5087Z" fill="#EBEBEB"/>
<path id="Vector_22" d="M174.516 50.7731H151.669V80.0219H174.516V50.7731Z" fill="white"/>
<path id="Vector_23" d="M152.559 50.7731H151.669V80.0219H152.559V50.7731Z" fill="#C7C7C7"/>
<path id="Vector_24" d="M178.788 47.5087H177.898V83.2907H178.788V47.5087Z" fill="#C7C7C7"/>
<path id="Vector_25" d="M165.491 58.3319H160.878V69.9538H165.491V58.3319Z" fill="#EBEBEB"/>
<path id="Vector_26" d="M170.573 73.6284H157.737V65.1793H170.573V73.6284ZM158.175 73.192H170.135V65.6157H158.175V73.192Z" fill="#DBDBDB"/>
</g>
<g id="Plant">
<path id="Vector_27" d="M16.551 131.031C23.8015 138.123 25.0194 149.033 23.4904 158.634C23.451 158.853 23.1136 158.791 23.1136 158.591C23.1136 156.409 23.1794 154.226 23.1706 152.092C23.1312 151.992 23.1005 151.9 23.0611 151.8C21.1685 150.43 19.4249 148.88 18.3472 146.759C17.138 144.385 16.6605 141.71 15.7186 139.231C15.6309 138.995 15.885 139.065 16.0515 139.187C20.4632 142.426 21.8695 145.913 23.1356 150.574C23.108 148.137 22.8514 145.709 22.3689 143.32C21.4138 138.895 19.53 134.513 16.3407 131.232C16.3274 131.218 16.3171 131.202 16.3101 131.184C16.3032 131.166 16.2998 131.147 16.3002 131.128C16.3006 131.109 16.3048 131.09 16.3125 131.073C16.3202 131.055 16.3312 131.04 16.345 131.026C16.3589 131.013 16.3751 131.003 16.393 130.996C16.4108 130.989 16.4298 130.986 16.4489 130.986C16.468 130.987 16.4869 130.991 16.5044 130.998C16.5219 131.006 16.5377 131.017 16.551 131.031Z" fill="#263238"/>
<path id="Vector_28" d="M15.1887 131.856C13.9401 131.899 13.1559 133.885 12.1834 134.474C12.0812 134.556 11.9629 134.616 11.836 134.65C11.7091 134.684 11.5765 134.691 11.4468 134.67C11.3171 134.649 11.1932 134.602 11.0831 134.531C10.973 134.459 10.8792 134.366 10.8077 134.256C9.84393 132.916 11.167 131.266 12.4112 130.328C11.535 130.69 10.7858 131.332 9.8264 131.511C9.70384 131.552 9.57386 131.566 9.44535 131.552C9.31684 131.538 9.19283 131.497 9.08178 131.431C8.97073 131.365 8.87526 131.276 8.80189 131.17C8.72853 131.064 8.679 130.944 8.65668 130.817C8.21858 128.993 10.5361 128.198 12.1133 128.142C11.3466 127.609 9.15611 126.169 10.3215 125.462C11.4868 124.755 14.0716 126.811 14.9127 127.487C16.1438 128.486 17.6158 129.975 17.6727 131.533C17.7428 133.357 16.1481 132.24 15.1887 131.856Z" fill="#7A2D93"/>
<path id="Vector_29" opacity="0.1" d="M15.1887 131.856C13.9401 131.899 13.1559 133.885 12.1834 134.474C12.0812 134.556 11.9629 134.616 11.836 134.65C11.7091 134.684 11.5765 134.691 11.4468 134.67C11.3171 134.649 11.1932 134.602 11.0831 134.531C10.973 134.459 10.8792 134.366 10.8077 134.256C9.84393 132.916 11.167 131.266 12.4112 130.328C11.535 130.69 10.7858 131.332 9.8264 131.511C9.70384 131.552 9.57386 131.566 9.44535 131.552C9.31684 131.538 9.19283 131.497 9.08178 131.431C8.97073 131.365 8.87526 131.276 8.80189 131.17C8.72853 131.064 8.679 130.944 8.65668 130.817C8.21858 128.993 10.5361 128.198 12.1133 128.142C11.3466 127.609 9.15611 126.169 10.3215 125.462C11.4868 124.755 14.0716 126.811 14.9127 127.487C16.1438 128.486 17.6158 129.975 17.6727 131.533C17.7428 133.357 16.1481 132.24 15.1887 131.856Z" fill="black"/>
<path id="Vector_30" d="M15.5481 132.161C13.9534 131.441 10.8911 132.48 10.6283 131.877C10.1025 130.655 12.5471 129.813 13.8702 129.652C12.6523 129.324 10.3216 128.801 10.3917 127.631C10.4793 126.204 13.9709 127.43 15.7365 128.779C17.962 130.481 17.927 132.122 17.5765 132.449C17.077 132.886 15.8109 132.283 15.5481 132.161Z" fill="#7A2D93"/>
<path id="Vector_31" d="M33.0632 130.333C25.5454 137.123 23.9113 148.008 25.0723 157.644C25.1073 157.862 25.4447 157.814 25.4534 157.613C25.5367 155.431 25.5542 153.249 25.6418 151.115C25.6856 151.019 25.7207 150.927 25.7645 150.831C27.7096 149.522 29.5058 148.051 30.6668 145.969C31.9811 143.643 32.5418 140.99 33.5626 138.55C33.659 138.315 33.4005 138.376 33.2296 138.489C28.6997 141.544 27.162 144.992 25.7207 149.6C25.839 147.166 26.1881 144.747 26.7633 142.378C27.8849 138.014 29.9351 133.689 33.2472 130.529C33.3698 130.411 33.1946 130.21 33.0632 130.333Z" fill="#263238"/>
<path id="Vector_32" d="M34.3949 131.205C35.6391 131.297 36.3444 133.309 37.2907 133.929C37.3894 134.015 37.5054 134.081 37.6311 134.12C37.7569 134.159 37.8895 134.171 38.0202 134.155C38.151 134.139 38.277 134.096 38.3898 134.029C38.5027 133.961 38.5999 133.87 38.6751 133.763C39.6915 132.453 38.4341 130.76 37.225 129.791C38.1012 130.188 38.8109 130.856 39.7616 131.07C39.8826 131.116 40.0121 131.135 40.1412 131.126C40.2703 131.117 40.3959 131.08 40.5095 131.018C40.6231 130.957 40.7219 130.871 40.7992 130.768C40.8766 130.665 40.9306 130.546 40.9576 130.42C41.4482 128.613 39.2052 127.714 37.6061 127.614C38.3903 127.116 40.6378 125.759 39.4987 124.995C38.3596 124.231 35.7004 126.2 34.833 126.845C33.5625 127.793 32.0379 129.224 31.924 130.773C31.7794 132.611 33.4179 131.55 34.3949 131.205Z" fill="#7A2D93"/>
<path id="Vector_33" opacity="0.1" d="M34.3949 131.205C35.6391 131.297 36.3444 133.309 37.2907 133.929C37.3894 134.015 37.5054 134.081 37.6311 134.12C37.7569 134.159 37.8895 134.171 38.0202 134.155C38.151 134.139 38.277 134.096 38.3898 134.029C38.5027 133.961 38.5999 133.87 38.6751 133.763C39.6915 132.453 38.4341 130.76 37.225 129.791C38.1012 130.188 38.8109 130.856 39.7616 131.07C39.8826 131.116 40.0121 131.135 40.1412 131.126C40.2703 131.117 40.3959 131.08 40.5095 131.018C40.6231 130.957 40.7219 130.871 40.7992 130.768C40.8766 130.665 40.9306 130.546 40.9576 130.42C41.4482 128.613 39.2052 127.714 37.6061 127.614C38.3903 127.116 40.6378 125.759 39.4987 124.995C38.3596 124.231 35.7004 126.2 34.833 126.845C33.5625 127.793 32.0379 129.224 31.924 130.773C31.7794 132.611 33.4179 131.55 34.3949 131.205Z" fill="black"/>
<path id="Vector_34" d="M34.0226 131.498C35.6435 130.839 38.662 131.991 38.9468 131.402C39.5207 130.197 37.1068 129.267 35.7925 129.054C37.0235 128.774 39.3717 128.338 39.3455 127.168C39.3104 125.737 35.7793 126.832 33.9612 128.111C31.6744 129.726 31.6262 131.367 31.981 131.707C32.4673 132.178 33.751 131.607 34.0226 131.498Z" fill="#7A2D93"/>
<path id="Vector_35" d="M25.4005 148.269C24.8908 151.902 24.1103 155.492 23.0655 159.01C23.051 159.079 23.0093 159.14 22.9498 159.179C22.8902 159.218 22.8176 159.231 22.7479 159.217C22.6782 159.202 22.6171 159.161 22.578 159.102C22.539 159.042 22.5253 158.97 22.5398 158.9C23.0348 155.592 23.9329 152.354 24.428 149.033C24.9663 145.685 25.1601 142.291 25.0063 138.904C24.6865 133.331 23.1663 127.395 19.5169 123.035C19.4337 122.931 19.6045 122.782 19.6878 122.878C26.9996 131.375 25.8211 141.788 25.8211 142.722C26.8594 139.205 27.924 135.177 31.8406 131.594C32.0114 131.441 32.1429 131.515 32.1122 131.777C31.4112 138.297 29.5931 141.706 25.7948 145.193C25.6766 146.222 25.5407 147.252 25.4005 148.269Z" fill="#263238"/>
<path id="Vector_36" d="M19.4253 124.009C18.111 123.428 16.2973 125.095 14.9961 125.213C14.3083 125.274 13.7957 125.004 13.6818 124.297C13.3576 122.424 15.5657 121.373 17.3224 121.037C16.214 120.967 15.1319 121.264 14.0411 120.971C13.892 120.954 13.7485 120.904 13.6205 120.826C13.4926 120.747 13.3832 120.642 13.2999 120.518C13.2166 120.393 13.1614 120.252 13.1381 120.105C13.1148 119.957 13.1239 119.806 13.1649 119.662C13.6468 117.558 16.4462 117.868 18.1022 118.619C17.5765 117.685 16.03 115.093 17.594 114.94C19.158 114.787 20.8053 118.222 21.3354 119.348C22.1108 120.997 22.8819 123.275 22.1546 124.925C21.3222 126.85 20.2314 124.886 19.4253 124.009Z" fill="#7A2D93"/>
<path id="Vector_37" opacity="0.1" d="M19.4253 124.009C18.111 123.428 16.2973 125.095 14.9961 125.213C14.3083 125.274 13.7957 125.004 13.6818 124.297C13.3576 122.424 15.5657 121.373 17.3224 121.037C16.214 120.967 15.1319 121.264 14.0411 120.971C13.892 120.954 13.7485 120.904 13.6205 120.826C13.4926 120.747 13.3832 120.642 13.2999 120.518C13.2166 120.393 13.1614 120.252 13.1381 120.105C13.1148 119.957 13.1239 119.806 13.1649 119.662C13.6468 117.558 16.4462 117.868 18.1022 118.619C17.5765 117.685 16.03 115.093 17.594 114.94C19.158 114.787 20.8053 118.222 21.3354 119.348C22.1108 120.997 22.8819 123.275 22.1546 124.925C21.3222 126.85 20.2314 124.886 19.4253 124.009Z" fill="black"/>
<path id="Vector_38" d="M19.6484 124.511C18.3341 122.961 14.6541 122.503 14.6848 121.748C14.7549 120.212 17.7208 120.57 19.1753 121.063C18.08 120.111 15.9246 118.401 16.5861 117.222C17.401 115.787 20.4019 118.811 21.5497 121.093C22.9998 123.974 22.1587 125.667 21.6111 125.824C20.8575 126.038 19.8587 124.764 19.6484 124.511Z" fill="#7A2D93"/>
<path id="Vector_39" d="M30.189 150.233L33.4134 174.782H13.7866C14.1897 172.6 17.8434 150.203 17.8434 150.203L30.189 150.233Z" fill="#7A2D93"/>
</g>
<g id="Fingerprint">
<path id="Vector_40" d="M63.0774 73.9339C62.6544 72.4706 61.9992 71.0842 61.1367 69.8272C60.2409 68.5839 59.198 67.4527 58.0305 66.458C53.3736 62.4211 46.9555 60.8587 40.8878 61.2733C38.1158 61.4402 35.3983 62.1133 32.8706 63.259C31.6389 63.8313 30.4968 64.578 29.4798 65.476C28.5378 66.3096 27.4776 67.3352 27.0395 68.531C27.0255 68.574 27.0259 68.6204 27.0405 68.6632C27.0552 68.706 27.0834 68.7429 27.1208 68.7685C27.1583 68.794 27.2031 68.8068 27.2484 68.8049C27.2938 68.803 27.3373 68.7865 27.3725 68.7579C27.9289 68.3215 28.3977 67.7716 28.9278 67.2916C29.4625 66.8156 30.0305 66.378 30.6276 65.9823C31.8004 65.2134 33.0479 64.5643 34.3514 64.0446C39.5604 61.9498 45.7419 62.0021 50.9991 63.8962C53.5485 64.8233 55.9019 66.2161 57.9385 68.0029C58.8981 68.8477 59.778 69.7783 60.5671 70.7829C61.4132 71.8031 62.1931 72.876 62.9022 73.995C62.981 74.0561 63.1169 74.0299 63.0774 73.9339Z" fill="#263238"/>
<path id="Vector_41" d="M59.2354 65.6768C58.709 64.8397 58.0473 64.095 57.2771 63.4729C56.4704 62.8825 55.6178 62.3572 54.7274 61.9018C51.4663 60.1492 47.8961 59.0407 44.213 58.6373C42.436 58.4424 40.6392 58.5308 38.8901 58.8992C38.0612 59.0839 37.2436 59.3156 36.4412 59.5931C35.624 59.8335 34.8473 60.1939 34.1368 60.6623C34.1201 60.6781 34.1088 60.6986 34.1045 60.7211C34.1002 60.7436 34.1031 60.7669 34.1128 60.7876C34.1224 60.8084 34.1384 60.8255 34.1585 60.8367C34.1785 60.8479 34.2016 60.8526 34.2244 60.85C35.1619 60.658 36.06 60.3132 37.0019 60.1343C37.9439 59.9553 38.8244 59.9204 39.7444 59.8331C50.5085 58.8381 58.2935 65.4673 59.0558 65.8645C59.0815 65.8828 59.1131 65.8913 59.1446 65.8884C59.1761 65.8854 59.2056 65.8712 59.2274 65.8484C59.2493 65.8255 59.2621 65.7956 59.2636 65.7641C59.265 65.7325 59.255 65.7016 59.2354 65.6768Z" fill="#263238"/>
<path id="Vector_42" d="M21.9923 99.6171C24.1828 101.027 26.7763 99.9968 28.4936 98.3428C30.2811 96.6233 31.499 94.3714 32.4365 92.1064C33.3127 90.0377 33.9304 87.8774 34.627 85.7434C35.3236 83.6093 35.9413 81.3792 37.0453 79.4284C38.0784 77.5626 39.811 76.1802 41.8644 75.5835C44.0891 74.9871 46.4544 75.199 48.5366 76.1814C49.6394 76.666 50.6399 77.3546 51.485 78.2107C52.2589 79.0484 52.8615 80.0282 53.2593 81.0955C54.1836 83.3998 54.648 85.8525 55.2088 88.2571C55.6688 90.2472 56.6238 92.0409 58.4945 93.0228C60.0892 93.8608 62.0519 94.1139 63.6728 93.2105C63.697 93.199 63.7161 93.179 63.7265 93.1544C63.7369 93.1298 63.7378 93.1022 63.7292 93.0769C63.7206 93.0517 63.7029 93.0304 63.6796 93.0172C63.6563 93.004 63.629 92.9998 63.6027 93.0054C62.5818 93.2033 61.5288 93.1637 60.5257 92.8897C59.5226 92.6156 58.5966 92.1146 57.8199 91.4255C57.0192 90.6183 56.4647 89.6013 56.2208 88.4928C55.8703 87.1835 55.6075 85.835 55.2482 84.517C54.6524 82.3349 54.061 79.9477 52.6196 78.1322C51.1516 76.3735 49.1727 75.1111 46.955 74.5186C44.8202 73.8998 42.5402 73.998 40.4668 74.7979C38.4054 75.6472 36.7239 77.2137 35.7354 79.2058C33.6676 83.1336 33.0016 87.6112 31.407 91.7223C30.6731 93.7632 29.5781 95.6567 28.1738 97.3128C26.715 98.9363 24.3711 100.141 22.1894 99.2375C22.1391 99.2136 22.0814 99.2101 22.0286 99.2278C21.9758 99.2454 21.9319 99.2829 21.9063 99.3322C21.8807 99.3815 21.8754 99.4388 21.8914 99.492C21.9074 99.5452 21.9436 99.5901 21.9923 99.6171Z" fill="#263238"/>
<path id="Vector_43" d="M21.515 92.7349C22.5226 92.8701 23.447 92.1151 23.9158 91.2859C24.553 90.0928 25.0415 88.8265 25.3702 87.5153C26.0643 84.8027 26.9425 82.1402 27.9988 79.5462C29.7512 75.4832 32.4806 71.5641 36.4103 69.3122C38.3575 68.1827 40.529 67.4908 42.7728 67.2849C45.0165 67.0791 47.2784 67.3644 49.3999 68.1208C51.4199 68.8546 53.2662 69.9956 54.8235 71.4725C56.4261 73.0432 57.7163 74.9015 58.6262 76.9495C59.5355 79.0724 60.2824 81.2608 60.8605 83.4958C61.119 84.3905 61.4826 85.4772 62.35 85.9616C62.6735 86.1635 63.0585 86.2445 63.4364 86.1902C63.8142 86.1359 64.1605 85.9497 64.4135 85.6649C64.4617 85.6081 64.3828 85.547 64.3302 85.5819C64.0845 85.7445 63.791 85.82 63.497 85.7962C63.2029 85.7725 62.9255 85.6509 62.7093 85.451C62.2412 85.0551 61.9304 84.5057 61.8331 83.9017C61.5395 82.6972 61.303 81.484 60.9569 80.2838C60.3095 77.8454 59.2885 75.521 57.9296 73.3927C56.7056 71.5668 55.1311 70.0001 53.2969 68.7828C51.4626 67.5655 49.4047 66.7217 47.2417 66.2998C45.0788 65.878 42.8534 65.8865 40.6937 66.3248C38.5341 66.7632 36.4828 67.6227 34.6579 68.854C30.8727 71.4114 28.3099 75.3522 26.6144 79.5113C25.7382 81.7909 25.0066 84.1231 24.4239 86.494C24.1348 87.693 23.7779 88.8746 23.355 90.0334C23.157 90.5412 22.9228 91.0341 22.654 91.5085C22.5573 91.7265 22.404 91.915 22.21 92.0546C22.016 92.1942 21.7882 92.2798 21.55 92.3028C21.4925 92.2982 21.4355 92.3165 21.3916 92.3537C21.3476 92.391 21.3203 92.4441 21.3156 92.5014C21.311 92.5587 21.3294 92.6155 21.3668 92.6592C21.4042 92.703 21.4575 92.7302 21.515 92.7349Z" fill="#263238"/>
<path id="Vector_44" d="M22.7371 101.503C22.7305 101.551 22.7428 101.6 22.7713 101.64C22.7997 101.679 22.8423 101.707 22.8904 101.716C23.246 101.8 23.6079 101.856 23.9725 101.882C24.1359 101.891 24.2997 101.891 24.4632 101.882C26.3952 101.786 28.406 100.695 30.4301 98.6396C32.141 96.9003 33.5504 94.8902 34.6007 92.6912C35.429 90.807 36.0659 88.845 36.5021 86.8344C36.6423 86.2715 36.7868 85.7041 36.9402 85.1455C37.4177 83.3562 38.2851 80.7813 40.2434 79.1578C40.9043 78.6092 41.6804 78.2154 42.5145 78.0054C43.3486 77.7954 44.2193 77.7746 45.0625 77.9446C46.3716 78.209 47.6121 78.7387 48.7072 79.5007C49.8022 80.2627 50.7283 81.2408 51.428 82.3742C52.5256 84.1964 52.921 86.3538 52.5408 88.4448C52.0753 90.7048 50.9736 92.7862 49.3646 94.4456C47.6891 96.1632 45.7034 97.5506 43.5116 98.5349C42.5829 98.9713 41.3518 99.5517 40.0901 100.014L39.3672 100.281C38.4472 100.617 37.5009 100.957 36.5941 101.354C36.5353 101.382 36.4888 101.431 36.4629 101.491C36.4371 101.55 36.4337 101.617 36.4534 101.679C36.4731 101.741 36.5145 101.794 36.5701 101.828C36.6257 101.862 36.6918 101.875 36.7562 101.865C37.3914 101.729 38.0179 101.555 38.6006 101.385C42.8282 100.176 48.0941 98.2206 51.3054 93.8084C52.7567 91.8964 53.5991 89.5949 53.7237 87.201C53.781 85.0048 53.0959 82.8531 51.7785 81.0912C50.1208 78.8214 47.6385 77.2867 44.861 76.8142C43.9469 76.6644 43.0117 76.7033 42.1134 76.9285C41.2151 77.1537 40.3728 77.5605 39.6389 78.1235C38.0179 79.376 36.8263 81.3705 35.9983 84.2334C35.7705 85.0102 35.5602 85.8045 35.3718 86.5726C34.9538 88.4314 34.3673 90.2485 33.6194 92.0016C32.5612 94.2878 31.0996 96.3661 29.3041 98.1377C27.8365 99.5779 25.5496 101.293 22.978 101.297C22.919 101.294 22.8608 101.313 22.8159 101.351C22.7709 101.39 22.7426 101.444 22.7371 101.503Z" fill="#263238"/>
<path id="Vector_45" d="M21.8961 95.2531C22.4427 95.3759 23.0108 95.3687 23.5542 95.2323C24.0976 95.0958 24.6011 94.8338 25.0241 94.4675C25.9835 93.7038 26.4786 92.4338 26.8728 91.3078C27.7885 88.6893 28.4982 85.9835 29.4094 83.3519C30.8245 79.2496 32.9142 75.0599 36.6249 72.5898C38.2936 71.4972 40.1774 70.7723 42.1501 70.4637C44.1229 70.1552 46.139 70.27 48.0636 70.8005C50.1939 71.4011 52.1251 72.5565 53.6581 74.1478C55.0639 75.7004 56.1783 77.492 56.9482 79.4372C57.3556 80.4148 57.7061 81.4098 58.0172 82.4223C58.3016 83.4936 58.6409 84.5496 59.0336 85.5864C59.752 87.3059 61.5614 89.3701 63.6467 88.5191C63.6805 88.5028 63.708 88.4759 63.7249 88.4425C63.7418 88.409 63.7472 88.371 63.7402 88.3342C63.7333 88.2975 63.7143 88.264 63.6863 88.2391C63.6583 88.2141 63.6228 88.199 63.5854 88.1962C63.0046 88.1423 62.4424 87.9634 61.9379 87.6718C61.4333 87.3802 60.9984 86.9828 60.6633 86.5072C59.9229 85.4685 59.6381 84.1855 59.3008 82.9766C58.7105 80.7185 57.8393 78.5429 56.7073 76.5001C55.6981 74.6929 54.3243 73.1134 52.6724 71.861C50.8842 70.5733 48.8208 69.7159 46.6442 69.3559C44.6522 69.032 42.6153 69.1079 40.6532 69.5794C38.6911 70.0508 36.8433 70.9081 35.2186 72.101C31.6131 74.785 29.5584 78.9921 28.1521 83.1424C27.3591 85.4729 26.7458 87.8514 26.0186 90.1993C25.4665 91.9887 24.4896 95 22.0362 94.6028C21.9554 94.5974 21.8752 94.6212 21.8105 94.6698C21.7458 94.7184 21.7008 94.7886 21.6838 94.8675C21.6668 94.9465 21.6789 95.0289 21.7178 95.0997C21.7568 95.1705 21.8201 95.2249 21.8961 95.2531Z" fill="#263238"/>
<path id="Vector_46" d="M21.7167 96.9638C22.0049 97.2873 22.3529 97.5525 22.7418 97.7449C23.5479 98.1465 24.7264 98.0155 25.5325 97.6926C26.5232 97.241 27.3549 96.5037 27.9201 95.5759C28.538 94.5843 29.0602 93.5365 29.4798 92.4468C29.9836 91.2379 30.4217 89.9941 30.851 88.7547C31.7272 86.2627 32.5114 83.749 33.4796 81.2876C34.3207 79.1055 35.3678 77.0237 37.1289 75.4352C38.6969 74.002 40.6436 73.0454 42.7394 72.6781C44.8352 72.3108 46.9927 72.5481 48.9576 73.3622C50.9731 74.2056 52.6873 75.6334 53.8774 77.4601C55.1917 79.4546 55.7875 81.7807 56.3658 84.0545C56.8827 86.0794 57.2989 88.2659 58.6001 89.9636C59.6822 91.3819 61.9866 92.5035 63.5068 91.0284C63.5228 91.0145 63.5332 90.9952 63.536 90.9742C63.5388 90.9532 63.5338 90.9319 63.522 90.9143C63.5102 90.8967 63.4924 90.8839 63.4719 90.8784C63.4513 90.8729 63.4295 90.8751 63.4104 90.8844C62.3239 91.4212 61.0491 91.0546 60.1422 90.3214C59.307 89.5926 58.6811 88.6558 58.3285 87.6069C57.4304 85.2895 57.0755 82.8063 56.2519 80.4453C55.5778 78.3522 54.4019 76.4544 52.826 74.9158C51.3129 73.4759 49.4688 72.4271 47.4549 71.8609C45.4112 71.3331 43.2651 71.341 41.2254 71.884C39.1857 72.427 37.3217 73.4865 35.8147 74.9595C34.1455 76.631 33.0985 78.7389 32.2529 80.9166C31.3329 83.3038 30.5882 85.7565 29.7558 88.1786C29.3177 89.4181 28.8796 90.6488 28.3933 91.8751C28.0235 92.9315 27.5617 93.9537 27.0133 94.93C26.5078 95.8395 25.7167 96.5585 24.7615 96.9768C24.3165 97.173 23.8272 97.2476 23.3437 97.1932C22.8602 97.1387 22.4 96.9571 22.0102 96.667C21.8087 96.5142 21.5677 96.7979 21.7167 96.9638Z" fill="#263238"/>
<path id="Vector_47" d="M64.0237 84.3687C64.0565 83.8018 64.0565 83.2335 64.0237 82.6666C63.5682 77.9879 61.5648 73.5927 58.3284 70.1719C55.3307 66.9362 51.3371 64.7866 46.9773 64.062C42.6934 63.4111 38.3121 64.0812 34.4214 65.9823C30.55 67.8864 27.363 70.9347 25.2959 74.7107C23.1697 78.4331 22.21 82.704 22.5402 86.9741C22.5402 87.0657 22.6892 87.0483 22.6936 86.9741C22.971 82.3659 24.4723 77.9139 27.0439 74.0735C29.3313 70.7221 32.5496 68.1076 36.3053 66.5496C40.0528 65.0181 44.1829 64.6738 48.1339 65.5633C52.2035 66.5701 55.8285 68.8808 58.4511 72.1402C59.8357 73.8687 60.9521 75.7944 61.7631 77.8529C62.5644 79.9829 63.1986 82.1715 63.66 84.3992C63.7258 84.5651 64.0105 84.5651 64.0237 84.3687Z" fill="#263238"/>
<path id="Vector_48" d="M57.334 100.11C57.8159 99.4033 58.8498 100.027 59.3843 100.324C60.186 100.761 61.0491 101.358 62.0129 101.197C62.0286 101.192 62.0457 101.193 62.0605 101.2C62.0753 101.208 62.0865 101.221 62.0917 101.236C62.097 101.252 62.0958 101.269 62.0884 101.284C62.081 101.298 62.068 101.31 62.0523 101.315C61.7397 101.469 61.3964 101.551 61.0477 101.556C60.6989 101.56 60.3536 101.487 60.0371 101.341C59.696 101.202 59.3625 101.044 59.0382 100.87C58.731 100.693 58.4028 100.555 58.0612 100.459C57.9988 100.451 57.9354 100.451 57.8729 100.459C57.8071 100.459 57.8247 100.459 57.8159 100.481C57.7546 100.595 57.851 100.835 57.886 100.948C57.9671 101.243 58.0802 101.529 58.2233 101.799C58.5276 102.356 58.9129 102.865 59.3668 103.309C59.6221 103.569 59.8928 103.814 60.1773 104.042C60.4664 104.274 60.8081 104.448 61.0841 104.693C61.1068 104.705 61.1237 104.725 61.1311 104.75C61.1384 104.775 61.1357 104.801 61.1235 104.824C61.1113 104.846 61.0906 104.863 61.066 104.87C61.0414 104.878 61.0148 104.875 60.9921 104.863C60.6587 104.76 60.3405 104.613 60.0458 104.426C59.7377 104.247 59.4447 104.042 59.1696 103.815C58.6137 103.36 58.1461 102.806 57.7896 102.183C57.6106 101.873 57.4639 101.546 57.3515 101.206C57.2626 101.037 57.2146 100.85 57.2116 100.66C57.2085 100.47 57.2505 100.281 57.334 100.11Z" fill="#263238"/>
<path id="Vector_49" d="M58.8014 101.463C59.3242 101.702 59.812 102.01 60.2515 102.38C60.4472 102.543 60.6487 102.695 60.856 102.838C60.9568 102.908 61.0663 102.973 61.1715 103.034C61.2792 103.089 61.3905 103.137 61.5044 103.178C61.5261 103.185 61.5452 103.198 61.5587 103.216C61.5722 103.234 61.5795 103.256 61.5795 103.279C61.5795 103.301 61.5722 103.323 61.5587 103.341C61.5452 103.359 61.5261 103.373 61.5044 103.379C60.9831 103.506 60.4355 103.165 60.0412 102.868C59.5438 102.509 59.1011 102.08 58.7269 101.594C58.6656 101.55 58.7181 101.463 58.8014 101.463Z" fill="#263238"/>
<path id="Vector_50" d="M24.5553 103.065C24.5532 103.075 24.5532 103.085 24.5553 103.095C24.5583 103.131 24.5727 103.165 24.5964 103.191C24.62 103.218 24.6517 103.236 24.6867 103.244C24.8159 103.277 24.9479 103.297 25.081 103.305C25.5441 103.312 26.0059 103.253 26.4523 103.13C27.0773 102.983 27.6851 102.771 28.266 102.498C29.4015 101.951 30.452 101.244 31.3852 100.398C34.5614 97.6315 36.7957 93.6906 38.0268 88.6761C38.1057 88.3445 38.1889 88.0084 38.2677 87.6768C38.7058 85.8656 39.1439 83.9977 40.1516 82.4397C40.6814 81.6162 41.4027 80.932 42.2544 80.4453C43.1417 80.0018 44.1279 79.7915 45.1196 79.8343C45.1707 79.832 45.2195 79.813 45.2586 79.7802C45.2977 79.7474 45.3249 79.7026 45.3359 79.6529C45.3469 79.6032 45.3411 79.5512 45.3194 79.5051C45.2977 79.459 45.2614 79.4213 45.216 79.3979C44.0813 78.8436 42.6706 79.3673 42.1186 79.6161C41.1398 80.079 40.282 80.7617 39.6127 81.6105C38.2984 83.2296 37.8077 85.307 37.3346 87.3145L37.2119 87.8164C36.7065 90.0846 35.9253 92.2829 34.8856 94.3627C33.8168 96.404 32.3843 98.2348 30.658 99.7656C29.8223 100.53 28.8918 101.184 27.8892 101.712C27.3743 101.97 26.8414 102.19 26.2946 102.371C26.1106 102.432 25.9222 102.48 25.7338 102.532C25.3635 102.619 25.0037 102.745 24.6604 102.908C24.6303 102.922 24.6045 102.944 24.586 102.972C24.5675 103 24.5569 103.032 24.5553 103.065Z" fill="#263238"/>
<path id="Vector_51" d="M35.5471 100.59C35.5446 100.624 35.5514 100.658 35.5669 100.688C35.5823 100.718 35.6058 100.743 35.6347 100.761C35.6603 100.779 35.6908 100.79 35.7223 100.791C35.7543 100.793 35.786 100.786 35.8144 100.771C35.8428 100.757 35.867 100.735 35.8844 100.708C36.2685 100.236 36.7743 99.877 37.3477 99.6695C37.8646 99.4295 38.4035 99.2331 38.9248 99.0193L39.1614 98.9232C40.594 98.3646 41.7593 97.8671 42.8283 97.3565C47.5685 95.0915 50.3942 92.1587 51.2397 88.6281C51.7199 86.7453 51.4826 84.752 50.5738 83.0332C50.1613 82.2151 49.582 81.4917 48.8729 80.9094C48.1638 80.327 47.3405 79.8984 46.4557 79.6509C46.4034 79.6374 46.348 79.6432 46.2996 79.6673C46.2513 79.6914 46.2134 79.7321 46.1929 79.7819C46.172 79.8274 46.169 79.879 46.1844 79.9267C46.1998 79.9743 46.2325 80.0145 46.2761 80.0394C47.974 81.019 49.3011 82.5281 50.0525 84.3337C51.0119 86.865 50.5475 91.0022 46.0702 94.3496C44.396 95.5274 42.5926 96.5114 40.6947 97.2823C39.7485 97.6969 38.6795 98.1551 37.6543 98.7094C37.2298 98.9218 36.8252 99.1716 36.4452 99.4557C36.0959 99.7496 35.7995 100.101 35.569 100.494C35.5516 100.523 35.5439 100.557 35.5471 100.59Z" fill="#263238"/>
<path id="Vector_52" d="M23.1534 103.951C23.7973 104.336 24.5277 104.555 25.2782 104.588C26.6521 104.609 28.0089 104.281 29.221 103.637C31.0242 102.687 32.6594 101.45 34.062 99.975C34.1978 99.8354 34.3249 99.6913 34.4563 99.5386L34.5746 99.412C34.606 99.3971 34.6342 99.3764 34.6578 99.3509C35.7662 98.2511 37.2864 97.6402 38.7453 97.0466C39.2535 96.8415 39.7836 96.6102 40.2786 96.4007C42.7276 95.266 44.3967 94.1401 45.6847 92.7435C46.9908 91.3953 47.8145 89.656 48.0285 87.7945C48.1819 86.1798 47.8007 83.9278 46.2367 82.8804C44.6727 81.833 42.6925 82.5793 41.5316 83.8406C40.1822 85.3113 39.4944 87.3887 38.938 89.0776L38.7453 89.6668C38.2392 91.3546 37.5914 92.9969 36.8089 94.5765C35.9436 96.2085 34.8604 97.7162 33.5889 99.0585C32.3241 100.393 30.8826 101.55 29.3043 102.498C27.2277 103.733 25.2037 104.108 23.298 103.628H23.2629C23.2232 103.626 23.184 103.637 23.1504 103.658C23.1168 103.679 23.0904 103.709 23.0745 103.746C23.0621 103.784 23.0632 103.825 23.0775 103.862C23.0919 103.899 23.1186 103.931 23.1534 103.951ZM36.4277 97.099C36.7432 96.6626 37.0192 96.2262 37.2645 95.7897C38.1792 94.1707 38.9137 92.4571 39.455 90.6793C39.547 90.3956 39.6346 90.1119 39.731 89.8064C40.2348 88.2179 40.7561 86.5726 41.6805 85.1847C42.1229 84.4435 42.7859 83.8579 43.5775 83.5089C43.9382 83.3674 44.3249 83.3034 44.7121 83.3212C45.1746 83.3385 45.6158 83.5196 45.9563 83.8318C47.2706 85.0538 47.3539 87.2926 46.8325 88.9685C46.2389 90.6514 45.1543 92.1194 43.7177 93.1843C42.0923 94.4718 40.1691 95.3315 38.4605 96.0909L38.2984 96.1607C37.6894 96.4793 37.0367 96.7717 36.4277 97.099Z" fill="#263238"/>
<path id="Vector_53" d="M39.2797 94.1924C39.2692 94.231 39.2702 94.2718 39.2827 94.3098C39.2951 94.3478 39.3184 94.3813 39.3498 94.4063C39.382 94.4327 39.422 94.4481 39.4637 94.4499C39.4915 94.4517 39.5194 94.4471 39.5452 94.4365C39.571 94.4259 39.5941 94.4096 39.6126 94.3888C39.709 94.2928 40.4187 93.7866 40.7604 93.5553C40.87 93.4811 40.9839 93.4113 41.0934 93.3327C41.3256 93.18 41.5665 93.0228 41.7943 92.8483C42.4775 92.3331 43.119 91.7655 43.7132 91.1506C44.861 89.9504 45.3999 88.7503 45.3035 87.5763C45.3019 87.2866 45.219 87.0031 45.0641 86.7579C44.9093 86.5127 44.6887 86.3155 44.4273 86.1885C44.1092 86.0823 43.7655 86.0796 43.4457 86.1808C43.126 86.282 42.8468 86.4818 42.6486 86.7515C42.2501 87.2805 41.9395 87.8699 41.7286 88.4972C41.5271 89.0034 41.3475 89.5315 41.1679 90.0377L41.0233 90.448C40.5305 91.6695 39.9553 92.8563 39.3016 94.0004C39.2808 94.0274 39.2678 94.0596 39.2639 94.0934C39.26 94.1272 39.2655 94.1615 39.2797 94.1924ZM41.5183 91.1724C41.9318 90.0965 42.4177 89.0496 42.9728 88.0389L42.9991 87.9953C43.1481 87.7334 43.5029 87.1224 43.8446 87.0526H43.9191C43.9912 87.0587 44.0599 87.086 44.1163 87.1312C44.4142 87.3625 44.3704 88.004 44.2302 88.4884C43.906 89.6493 42.9159 90.5876 42.1448 91.3426L41.5315 91.9274C41.3212 92.1238 41.1153 92.3246 40.9094 92.5253C41.1722 92.0409 41.3606 91.5652 41.5183 91.1724Z" fill="#263238"/>
<path id="Vector_54" d="M42.0484 113.884C41.2916 115.381 40.6131 116.916 40.0156 118.484C40.0142 118.494 40.016 118.504 40.0209 118.513C40.0257 118.522 40.0334 118.529 40.0427 118.534C40.052 118.538 40.0625 118.54 40.0726 118.538C40.0827 118.536 40.0919 118.53 40.0989 118.523C40.9532 117.257 41.6629 115.904 42.4646 114.595C42.9903 113.753 43.941 111.785 45.2246 112.103C45.7635 112.234 46.149 112.828 46.4469 113.251C46.8375 113.836 47.2617 114.399 47.7174 114.936C48.4183 115.73 49.7326 116.768 50.8804 116.489C50.933 116.489 50.9637 116.393 50.9111 116.367C50.6044 116.205 50.2803 116.105 49.978 115.931C49.6448 115.743 49.3358 115.516 49.058 115.254C48.5218 114.709 48.0487 114.106 47.6473 113.456C46.9901 112.444 46.2235 111.108 44.7953 111.274C43.4722 111.427 42.5697 112.81 42.0484 113.884Z" fill="#263238"/>
<path id="Vector_55" d="M23.092 105.081C24.4808 106.901 26.9648 106.578 28.761 105.609C29.7961 105.01 30.7729 104.316 31.6787 103.536C32.6369 102.731 33.6629 102.01 34.7454 101.38C34.7587 101.376 34.7699 101.367 34.7765 101.355C34.7831 101.342 34.7845 101.328 34.7804 101.315C34.7764 101.301 34.7672 101.29 34.7548 101.284C34.7425 101.277 34.7281 101.276 34.7147 101.28C32.4936 101.633 30.8901 103.462 29.0808 104.614C27.381 105.705 24.9145 106.36 23.1621 104.981C23.1183 104.928 23.0482 105.024 23.092 105.081Z" fill="#263238"/>
<path id="Vector_56" d="M59.2614 108.529C59.4016 108.529 59.4586 108.319 59.314 108.285C57.0709 107.73 55.301 106.054 54.2145 104.06C53.2319 102.242 52.6649 100.23 52.5541 98.1683C52.4528 96.6177 52.6828 95.0633 53.2288 93.6077C53.3731 93.1221 53.6245 92.6747 53.9648 92.2984C54.0419 92.201 54.139 92.1211 54.2496 92.064C54.3602 92.0069 54.4817 91.974 54.6061 91.9674C54.7305 91.9608 54.8548 91.9807 54.9709 92.0257C55.0869 92.0707 55.192 92.1399 55.2791 92.2286C55.5188 92.5603 55.734 92.9089 55.9231 93.2717C56.4388 94.042 57.1253 94.6841 57.9296 95.1483C58.7299 95.6119 59.6329 95.8713 60.5582 95.9033C61.5405 95.9286 62.5104 95.6791 63.3576 95.1832C63.4146 95.1483 63.3883 95.0392 63.3182 95.061C62.1505 95.4162 60.9035 95.4192 59.7341 95.0697C58.5647 94.7203 57.5253 94.0339 56.7467 93.0971C56.2123 92.4119 55.9231 91.3514 54.9023 91.2729C53.8816 91.1943 53.1719 92.006 52.7688 92.8483C51.8716 94.8669 51.5765 97.1001 51.9189 99.2812C52.4578 103.126 54.7797 108.324 59.2614 108.529Z" fill="#263238"/>
<path id="Vector_57" d="M43.0517 117.035C42.9111 117.432 42.8472 117.853 42.8633 118.274C42.8665 118.287 42.8732 118.298 42.8826 118.307C42.892 118.316 42.9037 118.322 42.9165 118.325C42.9292 118.328 42.9425 118.327 42.9547 118.323C42.967 118.318 42.9778 118.311 42.9859 118.3C43.1892 117.983 43.3443 117.637 43.4459 117.275C43.5818 116.899 43.7219 116.524 43.884 116.158C44.0438 115.789 44.2312 115.433 44.4448 115.093C44.5151 114.943 44.6098 114.806 44.7252 114.687L44.7559 114.665L44.826 114.735C44.8918 114.798 44.9533 114.865 45.01 114.936C45.4548 115.545 45.9346 116.127 46.4469 116.681C46.885 117.087 47.5816 117.528 48.1993 117.388C48.2077 117.384 48.2148 117.378 48.2198 117.371C48.2248 117.363 48.2274 117.354 48.2274 117.345C48.2274 117.335 48.2248 117.326 48.2198 117.319C48.2148 117.311 48.2077 117.305 48.1993 117.301C47.8476 117.121 47.5219 116.895 47.2311 116.629C46.96 116.349 46.7151 116.045 46.4995 115.721C46.2498 115.381 46.0263 115.019 45.7547 114.691C45.4831 114.364 45.1808 113.941 44.7471 113.941C44.3134 113.941 44.1075 114.329 43.9366 114.639C43.7287 115.009 43.5528 115.396 43.4109 115.795C43.2926 116.206 43.1612 116.616 43.0517 117.035Z" fill="#263238"/>
<path id="Vector_58" d="M60.3085 106.176C60.3254 106.182 60.3435 106.181 60.3597 106.174C60.376 106.167 60.3892 106.154 60.3971 106.139C60.405 106.123 60.407 106.105 60.4028 106.088C60.3986 106.071 60.3885 106.056 60.3742 106.046C59.8359 105.593 59.3375 105.095 58.8847 104.557C58.4534 103.997 58.0527 103.415 57.6843 102.812C56.9508 101.774 56.3227 100.666 55.8093 99.5036C55.5441 98.9395 55.4065 98.3242 55.4062 97.7012C55.4894 96.8284 56.37 97.4656 56.7512 97.7929C57.1752 98.2066 57.6291 98.5887 58.1093 98.9363C59.0632 99.5478 60.1955 99.8229 61.3249 99.7175C61.8681 99.6211 62.391 99.4337 62.8714 99.1632C62.9809 99.1152 62.902 98.9668 62.7925 99.0017C62.3628 99.1066 61.92 99.1478 61.4782 99.124C61.1149 99.1307 60.7516 99.1088 60.3917 99.0585C59.6434 98.9421 58.9317 98.657 58.3108 98.2249C57.566 97.6969 56.1992 95.925 55.1565 96.7804C54.254 97.5179 54.9506 99.2331 55.3142 100.071C55.9159 101.343 56.6501 102.548 57.5047 103.667C58.2056 104.627 59.1344 105.775 60.3085 106.176Z" fill="#263238"/>
<path id="Vector_59" d="M25.8871 109.515C26.8419 109.704 27.8333 109.538 28.6734 109.048C28.853 108.952 29.0195 108.843 29.1947 108.734C29.1027 108.839 29.0151 108.939 28.9319 109.044C28.3301 109.776 27.9529 110.665 27.8454 111.606C27.8451 111.619 27.8488 111.631 27.8561 111.642C27.8634 111.652 27.8738 111.66 27.8859 111.665C27.8981 111.669 27.9112 111.669 27.9236 111.666C27.936 111.662 27.947 111.655 27.9549 111.645C28.4456 110.899 28.9494 110.148 29.5102 109.463C30.0709 108.778 30.7237 108.101 31.2626 107.381C31.2835 107.349 31.2946 107.312 31.2946 107.274C31.2946 107.236 31.2835 107.198 31.2626 107.166C31.2417 107.135 31.2119 107.109 31.1769 107.094C31.1419 107.079 31.1032 107.074 31.0654 107.08C30.1366 107.289 29.4401 107.953 28.6164 108.389C27.745 108.844 26.8251 109.2 25.874 109.45C25.8389 109.45 25.8389 109.507 25.8871 109.515Z" fill="#263238"/>
<path id="Vector_60" d="M36.0554 113.6C35.5571 114.524 35.1182 115.479 34.7411 116.459C34.7289 116.482 34.7266 116.51 34.7349 116.535C34.7431 116.561 34.7611 116.582 34.7849 116.594C34.8087 116.606 34.8364 116.608 34.8619 116.6C34.8873 116.592 34.9085 116.574 34.9207 116.55C35.6655 115.551 36.2657 114.442 36.9578 113.404C37.65 112.365 38.3379 111.422 39.0914 110.475C40.2893 108.934 41.741 107.606 43.3847 106.548C43.8061 106.28 44.2452 106.041 44.699 105.832C45.1669 105.568 45.6909 105.419 46.228 105.395C47.2006 105.448 47.8314 106.377 48.2651 107.097C49.3122 108.843 50.2059 110.685 51.8269 112.016C52.5368 112.632 53.3936 113.056 54.3153 113.247C54.7078 113.36 55.1261 113.348 55.5113 113.212C55.6295 113.138 55.704 113.028 55.5857 112.924C55.5463 112.893 55.485 112.924 55.5113 112.985C55.5375 113.046 54.9461 112.928 54.9198 112.919L54.5431 112.815C54.2784 112.733 54.0218 112.628 53.7764 112.5C53.3082 112.257 52.8676 111.964 52.4621 111.627C51.5971 110.857 50.871 109.945 50.3154 108.93C49.8116 108.079 49.3648 107.185 48.804 106.369C48.3675 105.632 47.7014 105.057 46.907 104.732C45.9082 104.409 44.8962 104.767 43.9937 105.168C43.1231 105.561 42.2988 106.048 41.536 106.622C39.98 107.797 38.6452 109.238 37.5931 110.877C37.0331 111.757 36.5199 112.666 36.0554 113.6Z" fill="#263238"/>
<path id="Vector_61" d="M38.5656 115.547C38.2577 116.275 38.0399 117.039 37.9172 117.82C37.9161 117.833 37.9193 117.846 37.9263 117.856C37.9333 117.867 37.9438 117.875 37.9559 117.879C37.9681 117.883 37.9813 117.883 37.9933 117.879C38.0054 117.874 38.0156 117.866 38.0224 117.855C38.4605 117.096 38.7671 116.254 39.2227 115.494C39.6784 114.735 40.0989 113.984 40.537 113.255C41.3567 111.946 42.3063 110.722 43.3715 109.602C43.8753 109.092 44.4668 108.655 45.2028 108.73C45.8931 108.869 46.5129 109.244 46.9552 109.79C47.9453 110.894 48.4009 112.409 49.4216 113.491C49.874 113.985 50.4386 114.364 51.0682 114.597C51.6977 114.829 52.3739 114.908 53.0403 114.826C53.0841 114.826 53.0973 114.735 53.0403 114.722C52.1825 114.517 51.3788 114.132 50.6834 113.591C50.0055 113.012 49.4475 112.306 49.0405 111.514C48.287 110.205 47.5554 108.782 46.1315 108.127C45.5071 107.829 44.7902 107.785 44.1338 108.005C43.4497 108.302 42.8483 108.761 42.3814 109.341C41.2685 110.543 40.3104 111.878 39.5294 113.316C39.1554 114.036 38.8333 114.781 38.5656 115.547Z" fill="#263238"/>
<path id="Vector_62" d="M32.2266 114.809C32.216 114.844 32.2187 114.881 32.234 114.914C32.2494 114.947 32.2763 114.973 32.3098 114.988H32.3668C32.3917 114.988 32.4163 114.982 32.4384 114.971C32.4605 114.959 32.4796 114.943 32.4938 114.922C33.1566 113.89 33.8747 112.893 34.6449 111.937C35.4541 110.957 36.3186 110.023 37.234 109.14C38.7509 107.596 40.3712 106.157 42.0837 104.832C42.9288 104.191 43.8463 103.651 44.8175 103.222C45.7419 102.821 47.008 102.275 47.8842 103.052C48.3928 103.577 48.7957 104.195 49.0714 104.872C49.1941 105.125 49.3167 105.369 49.4438 105.601C49.9763 106.586 50.6027 107.519 51.3145 108.385C52.0055 109.23 52.8332 109.954 53.7634 110.528C54.6529 111.086 55.6674 111.416 56.7162 111.488C56.7521 111.492 56.788 111.481 56.8166 111.46C56.8451 111.438 56.8641 111.405 56.8695 111.37C56.879 111.336 56.8747 111.299 56.8575 111.268C56.8403 111.237 56.8116 111.214 56.7775 111.204C53.8642 110.187 51.9935 107.966 50.9421 106.281C50.6485 105.81 50.3813 105.299 50.1316 104.811C49.8819 104.322 49.6234 103.829 49.3255 103.357C48.6903 102.332 47.8754 101.808 46.9203 101.777C45.7725 101.747 44.5809 102.244 43.674 102.672C42.6776 103.152 41.736 103.737 40.8658 104.418C39.1057 105.844 37.4634 107.408 35.9548 109.096C34.3908 110.776 32.8487 112.636 32.2266 114.809Z" fill="#263238"/>
<path id="Vector_63" d="M59.5725 107.612C59.7171 107.682 59.8047 107.468 59.6952 107.381C58.2281 106.269 56.9627 104.916 55.9539 103.379C55.1277 102.04 54.5573 100.56 54.2716 99.0148C54.1202 98.2235 54.0425 97.42 54.0394 96.6145C54.0394 96.0253 53.886 94.5371 54.7535 94.5328C55.6209 94.5284 56.0984 95.5671 56.6022 96.0646C57.1778 96.6465 57.8566 97.1171 58.6043 97.4524C59.3459 97.7985 60.1713 97.9261 60.9832 97.8201C61.7952 97.7142 62.5598 97.3791 63.1868 96.8545C63.1968 96.8464 63.2035 96.8348 63.2055 96.8221C63.2074 96.8093 63.2046 96.7963 63.1976 96.7855C63.1905 96.7747 63.1797 96.7668 63.1672 96.7635C63.1547 96.7601 63.1414 96.7614 63.1299 96.7672C61.2023 97.8365 58.6744 97.0029 57.1849 95.5715C56.5803 94.9954 56.0897 94.1618 55.231 93.9305C55.0573 93.863 54.8712 93.833 54.6851 93.8426C54.4989 93.8522 54.3169 93.9011 54.1512 93.9861C53.9854 94.0711 53.8397 94.1903 53.7238 94.3357C53.6078 94.4812 53.5242 94.6495 53.4786 94.8295C53.3041 95.6333 53.2538 96.459 53.3297 97.2779C53.3695 98.1077 53.4957 98.9311 53.7064 99.7349C54.5695 102.929 56.5584 106.094 59.5725 107.612Z" fill="#263238"/>
<path id="Vector_64" d="M30.9908 111.706C30.6404 112.309 30.3792 112.958 30.2154 113.635C30.1982 113.715 30.2094 113.799 30.2468 113.872C30.2843 113.945 30.3459 114.003 30.4213 114.037C30.4539 114.048 30.4877 114.055 30.522 114.058C30.5761 114.061 30.6298 114.049 30.6776 114.023C30.7254 113.998 30.7655 113.96 30.7936 113.914C31.0521 113.517 31.2974 113.111 31.5428 112.71C32.0652 111.807 32.6508 110.942 33.2952 110.122C34.255 108.966 35.2975 107.881 36.4144 106.875C38.671 104.997 41.0333 103.248 43.4897 101.638C46.9945 99.3161 49.3996 98.0898 49.9516 98.3429C50.3284 98.5175 50.3459 99.1416 50.3634 99.6522C50.3635 99.7979 50.3708 99.9436 50.3853 100.089C50.4752 100.803 50.6039 101.513 50.7709 102.214C51.0648 103.557 51.5721 104.845 52.2735 106.028C52.9184 107.105 53.7934 108.028 54.8364 108.73C55.4059 109.101 56.8823 109.934 58.2404 109.677C58.2758 109.663 58.3064 109.639 58.3286 109.608C58.3508 109.578 58.3636 109.541 58.3654 109.503C58.3673 109.466 58.3581 109.428 58.339 109.395C58.32 109.363 58.2918 109.336 58.258 109.319C58.0345 109.232 57.8199 109.153 57.5964 109.074C57.1267 108.916 56.6685 108.725 56.2252 108.503C55.585 108.158 54.9954 107.728 54.4728 107.224C53.4105 106.159 52.6111 104.862 52.1377 103.436C51.6964 102.046 51.4027 100.614 51.2615 99.1634C51.2577 98.8541 51.1836 98.5497 51.0448 98.273C50.9059 97.9964 50.7059 97.7547 50.4598 97.5661C49.9429 97.23 49.0535 97.4613 48.6154 97.649C46.1008 98.7226 38.0222 103.864 34.8022 106.84C33.8006 107.788 32.8979 108.835 32.1079 109.965C31.7035 110.524 31.3306 111.106 30.9908 111.706Z" fill="#263238"/>
<path id="Vector_65" d="M24.5946 107.599C26.2812 108.328 28.279 107.599 29.8167 106.84C31.3544 106.081 32.6205 105.055 34.0618 104.221C34.4342 104.012 34.8066 103.816 35.1921 103.637C35.3849 103.549 35.582 103.466 35.7792 103.392C35.8799 103.353 35.9982 103.279 36.1034 103.314C36.2085 103.349 36.2304 103.314 36.1472 103.397C36.0639 103.479 36.0946 103.471 36.0639 103.506C35.5645 104.125 34.7803 104.571 34.1801 105.085C32.9525 106.119 31.8366 107.277 30.8506 108.542C29.9218 109.742 28.9536 111.121 28.6601 112.636C28.6601 112.71 28.7477 112.736 28.7872 112.684C29.3786 111.881 29.8736 111.008 30.4607 110.2C31.0372 109.413 31.6744 108.672 32.3664 107.983C32.9841 107.364 33.6281 106.766 34.2809 106.185C34.9337 105.605 35.6215 105.107 36.2085 104.492C36.6159 104.056 37.3432 103.183 36.5459 102.746C35.9019 102.397 34.9468 102.995 34.3773 103.279C32.7651 104.082 31.3106 105.168 29.7422 106.033C28.9352 106.486 28.0781 106.845 27.1881 107.102C26.3394 107.318 25.47 107.444 24.5946 107.477C24.5245 107.481 24.5245 107.573 24.5946 107.599Z" fill="#263238"/>
<path id="Vector_66" d="M44.7124 116.109C44.7116 116.093 44.7116 116.077 44.7124 116.061C44.7177 116.046 44.7264 116.033 44.7378 116.021C44.7492 116.01 44.7631 116.002 44.7783 115.997C44.7935 115.992 44.8097 115.99 44.8256 115.992C44.8415 115.994 44.8567 116 44.8701 116.009L44.9051 116.031C45.0585 116.088 45.1592 116.31 45.2162 116.441C45.2731 116.572 45.3607 116.768 45.4352 116.926C45.5798 117.24 45.7068 117.563 45.8733 117.873C45.8823 117.886 45.8859 117.902 45.8835 117.918C45.8811 117.934 45.8729 117.949 45.8604 117.959C45.8479 117.969 45.832 117.975 45.8157 117.974C45.7995 117.973 45.7841 117.967 45.7726 117.955C45.4621 117.745 45.1969 117.475 44.9927 117.161C44.9011 117.009 44.8206 116.85 44.7518 116.685C44.7088 116.582 44.6807 116.474 44.6685 116.363C44.6556 116.276 44.6709 116.187 44.7124 116.109Z" fill="#263238"/>
<path id="Vector_67" d="M10.3958 69.0285H9.08154V53.7277H24.4412V55.0369H10.3958V69.0285Z" fill="#7A2D93"/>
<path id="Vector_68" d="M76.6102 120.993H61.2505V119.684H75.2959V105.692H76.6102V120.993Z" fill="#7A2D93"/>
<path id="Vector_69" d="M24.4412 120.993H9.08154V105.692H10.3958V119.684H24.4412V120.993Z" fill="#7A2D93"/>
<path id="Vector_70" d="M76.6102 69.0285H75.2959V55.0369H61.2505V53.7277H76.6102V69.0285Z" fill="#7A2D93"/>
<path id="Vector_71" d="M79.9924 124.367H78.9541V124.039H79.6638V123.332H79.9924V124.367Z" fill="#7A2D93"/>
<path id="Vector_72" d="M77.1928 124.367H75.4404V124.039H77.1928V124.367ZM73.688 124.367H71.9356V124.039H73.688V124.367ZM70.1832 124.367H68.4308V124.039H70.1832V124.367ZM66.6784 124.367H64.9261V124.039H66.6784V124.367ZM63.1737 124.367H61.4213V124.039H63.1737V124.367ZM59.6689 124.367H57.9165V124.039H59.6689V124.367ZM56.1641 124.367H54.4117V124.039H56.1641V124.367ZM52.6593 124.367H50.9069V124.039H52.6593V124.367ZM49.1546 124.367H47.4022V124.039H49.1546V124.367ZM45.6498 124.367H43.8974V124.039H45.6498V124.367ZM42.145 124.367H40.3926V124.039H42.145V124.367ZM38.6402 124.367H36.8878V124.039H38.6402V124.367ZM35.1354 124.367H33.3831V124.039H35.1354V124.367ZM31.6307 124.367H29.8783V124.039H31.6307V124.367ZM28.1259 124.367H26.3735V124.039H28.1259V124.367ZM24.6211 124.367H22.8687V124.039H24.6211V124.367ZM21.1163 124.367H19.3639V124.039H21.1163V124.367ZM17.6116 124.367H15.8592V124.039H17.6116V124.367ZM14.1068 124.367H12.3544V124.039H14.1068V124.367ZM10.602 124.367H8.84961V124.039H10.602V124.367Z" fill="#7A2D93"/>
<path id="Vector_73" d="M6.738 124.367H5.69971V123.332H6.02828V124.039H6.738V124.367Z" fill="#7A2D93"/>
<path id="Vector_74" d="M6.02824 121.573H5.68652V119.828H6.0151L6.02824 121.573ZM6.02824 118.082H5.68652V116.336H6.0151L6.02824 118.082ZM6.02824 114.591H5.68652V112.845H6.0151L6.02824 114.591ZM6.02824 111.099H5.68652V109.354H6.0151L6.02824 111.099ZM6.02824 107.608H5.68652V105.862H6.0151L6.02824 107.608ZM6.02824 104.117H5.68652V102.371H6.0151L6.02824 104.117ZM6.02824 100.625H5.68652V98.8796H6.0151L6.02824 100.625ZM6.02824 97.134H5.68652V95.3883H6.0151L6.02824 97.134ZM6.02824 93.6426H5.68652V91.8969H6.0151L6.02824 93.6426ZM6.02824 90.1512H5.68652V88.4056H6.0151L6.02824 90.1512ZM6.02824 86.6599H5.68652V84.9142H6.0151L6.02824 86.6599ZM6.02824 83.1685H5.68652V81.4228H6.0151L6.02824 83.1685ZM6.02824 79.6772H5.68652V77.9315H6.0151L6.02824 79.6772ZM6.02824 76.1858H5.68652V74.4401H6.0151L6.02824 76.1858ZM6.02824 72.6945H5.68652V70.9488H6.0151L6.02824 72.6945ZM6.02824 69.1813H5.68652V67.4356H6.0151L6.02824 69.1813ZM6.02824 65.6899H5.68652V63.9442H6.0151L6.02824 65.6899ZM6.02824 62.1986H5.68652V60.4529H6.0151L6.02824 62.1986ZM6.02824 58.7072H5.68652V56.9615H6.0151L6.02824 58.7072ZM6.02824 55.2158H5.68652V53.4702H6.0151L6.02824 55.2158Z" fill="#7A2D93"/>
<path id="Vector_75" d="M6.02828 51.3928H5.69971V50.3585H6.738V50.6858H6.02828V51.3928Z" fill="#7A2D93"/>
<path id="Vector_76" d="M77.1928 50.6858H75.4404V50.3585H77.1928V50.6858ZM73.688 50.6858H71.9356V50.3585H73.688V50.6858ZM70.1832 50.6858H68.4308V50.3585H70.1832V50.6858ZM66.6784 50.6858H64.9261V50.3585H66.6784V50.6858ZM63.1737 50.6858H61.4213V50.3585H63.1737V50.6858ZM59.6689 50.6858H57.9165V50.3585H59.6689V50.6858ZM56.1641 50.6858H54.4117V50.3585H56.1641V50.6858ZM52.6593 50.6858H50.9069V50.3585H52.6593V50.6858ZM49.1546 50.6858H47.4022V50.3585H49.1546V50.6858ZM45.6498 50.6858H43.8974V50.3585H45.6498V50.6858ZM42.145 50.6858H40.3926V50.3585H42.145V50.6858ZM38.6402 50.6858H36.8878V50.3585H38.6402V50.6858ZM35.1354 50.6858H33.3831V50.3585H35.1354V50.6858ZM31.6307 50.6858H29.8783V50.3585H31.6307V50.6858ZM28.1259 50.6858H26.3735V50.3585H28.1259V50.6858ZM24.6211 50.6858H22.8687V50.3585H24.6211V50.6858ZM21.1163 50.6858H19.3639V50.3585H21.1163V50.6858ZM17.6116 50.6858H15.8592V50.3585H17.6116V50.6858ZM14.1068 50.6858H12.3544V50.3585H14.1068V50.6858ZM10.602 50.6858H8.84961V50.3585H10.602V50.6858Z" fill="#7A2D93"/>
<path id="Vector_77" d="M79.9924 51.3928H79.6638V50.6858H78.9541V50.3585H79.9924V51.3928Z" fill="#7A2D93"/>
<path id="Vector_78" d="M79.9921 121.573H79.6636V119.828H79.9921V121.573ZM79.9921 118.082H79.6636V116.336H79.9921V118.082ZM79.9921 114.591H79.6636V112.845H79.9921V114.591ZM79.9921 111.099H79.6636V109.354H79.9921V111.099ZM79.9921 107.608H79.6636V105.862H79.9921V107.608ZM79.9921 104.117H79.6636V102.371H79.9921V104.117ZM79.9921 100.625H79.6636V98.8796H79.9921V100.625ZM79.9921 97.134H79.6636V95.3883H79.9921V97.134ZM79.9921 93.6426H79.6636V91.8969H79.9921V93.6426ZM79.9921 90.1512H79.6636V88.4056H79.9921V90.1512ZM79.9921 86.6599H79.6636V84.9142H79.9921V86.6599ZM79.9921 83.1685H79.6636V81.4228H79.9921V83.1685ZM79.9921 79.6772H79.6636V77.9315H79.9921V79.6772ZM79.9921 76.1858H79.6636V74.4401H79.9921V76.1858ZM79.9921 72.6945H79.6636V70.9488H79.9921V72.6945ZM79.9921 69.1813H79.6636V67.4356H79.9921V69.1813ZM79.9921 65.6899H79.6636V63.9442H79.9921V65.6899ZM79.9921 62.1986H79.6636V60.4529H79.9921V62.1986ZM79.9921 58.7072H79.6636V56.9615H79.9921V58.7072ZM79.9921 55.2158H79.6636V53.4702H79.9921V55.2158Z" fill="#7A2D93"/>
</g>
<g id="Character">
<path id="Vector_79" d="M101.354 174.782H141.807C142.14 173.473 142.46 172.207 142.784 170.95C143.152 169.495 143.513 168.086 143.866 166.721C143.941 166.416 144.024 166.11 144.103 165.809C144.37 164.757 144.629 163.732 144.887 162.754C145.041 162.143 145.194 161.545 145.325 160.956C145.457 160.367 145.632 159.76 145.763 159.184C145.803 159.031 145.842 158.874 145.882 158.748C145.921 158.621 145.965 158.412 146.004 158.25L146.158 157.652C146.215 157.443 146.267 157.238 146.315 157.033C146.421 156.644 146.517 156.265 146.609 155.889C146.754 155.339 146.889 154.798 147.025 154.27C147.082 154.043 147.143 153.812 147.2 153.589C147.297 153.218 147.389 152.86 147.476 152.511C147.538 152.276 147.595 152.044 147.652 151.822C147.893 150.897 148.112 150.028 148.318 149.203C148.374 148.989 148.423 148.767 148.48 148.575C148.567 148.221 148.655 147.885 148.738 147.558C148.795 147.353 148.843 147.156 148.891 146.96C149.071 146.266 149.233 145.651 149.373 145.079C149.413 144.931 149.448 144.787 149.487 144.643L149.737 143.656C149.768 143.543 149.794 143.429 149.825 143.325C149.855 143.22 149.882 143.102 149.903 143.006C149.925 142.91 149.943 142.862 149.956 142.801C149.969 142.74 150.009 142.605 150.03 142.526C150.037 142.484 150.047 142.444 150.061 142.404L150.153 142.037H110.83C110.83 142.037 109.515 146.493 107.456 153.672C107.018 155.134 106.58 156.727 106.094 158.386C104.696 163.129 103.088 168.716 101.354 174.782Z" fill="#37474F"/>
<path id="Vector_80" d="M135.184 174.782H136.191C137.69 168.608 139.141 162.424 140.546 156.23C140.885 154.722 141.219 153.214 141.549 151.704L141.641 151.267C141.644 151.252 141.64 151.237 141.632 151.224C141.624 151.211 141.611 151.202 141.596 151.198C141.581 151.194 141.565 151.196 141.552 151.203C141.538 151.211 141.528 151.223 141.523 151.237L141.483 151.377C141.028 152.994 140.575 154.616 140.125 156.243C138.43 162.396 136.783 168.576 135.184 174.782Z" fill="#263238"/>
<path id="Vector_81" d="M112.087 141.998L113.839 150.665L115.25 157.761L117.677 169.872L117.927 171.116L118.343 173.184L118.654 174.751H141.812C142.14 173.442 142.465 172.172 142.784 170.919C143.152 169.465 143.513 168.055 143.866 166.691C143.941 166.385 144.024 166.08 144.103 165.778C144.37 164.727 144.629 163.701 144.887 162.724C145.041 162.113 145.194 161.515 145.325 160.925C145.457 160.336 145.632 159.73 145.763 159.154C145.803 159.001 145.842 158.844 145.882 158.717C145.921 158.591 145.965 158.381 146.004 158.22L146.158 157.622C146.215 157.412 146.267 157.207 146.315 157.002C146.421 156.614 146.517 156.234 146.609 155.859C146.754 155.309 146.889 154.768 147.025 154.239C147.086 154.008 147.143 153.781 147.2 153.559C147.297 153.188 147.389 152.83 147.476 152.481C147.538 152.245 147.595 152.014 147.652 151.791C147.893 150.866 148.112 149.998 148.318 149.173C148.375 148.959 148.423 148.736 148.48 148.544C148.567 148.191 148.655 147.855 148.738 147.527C148.795 147.322 148.843 147.126 148.891 146.929C149.071 146.236 149.233 145.62 149.373 145.048C149.413 144.9 149.448 144.756 149.487 144.612L149.737 143.626C149.768 143.512 149.794 143.399 149.825 143.294C149.855 143.189 149.882 143.072 149.903 142.976C149.925 142.879 149.943 142.831 149.956 142.77C149.969 142.709 150.009 142.574 150.031 142.495C150.037 142.454 150.047 142.413 150.061 142.373L150.153 142.007L112.087 141.998Z" fill="#263238"/>
<path id="Vector_82" d="M112.083 141.985C112.083 142.203 112.249 144.542 112.626 148.095C112.735 149.138 112.862 150.277 113.011 151.508C113.243 153.445 113.528 155.579 113.887 157.836C114.492 161.763 115.281 166.067 116.306 170.265C116.669 171.775 117.072 173.272 117.497 174.738H168.317C167.716 167.022 167.169 160.044 166.735 154.545C166.122 146.803 165.736 141.954 165.736 141.954H119.631L112.083 141.985Z" fill="#37474F"/>
<path id="Vector_83" d="M112.192 146.637C112.249 148.448 112.324 150.259 112.442 152.062C112.565 154.017 112.744 155.968 113.003 157.918C113.008 157.99 113.016 158.062 113.029 158.132C113.272 159.959 113.546 161.782 113.853 163.601C114.146 165.294 114.361 167.123 115.114 168.694C115.4 169.299 115.804 169.842 116.302 170.291C116.761 170.707 117.321 170.996 117.927 171.129C118.026 171.154 118.127 171.17 118.229 171.177C118.256 171.177 118.286 171.177 118.317 171.177C118.298 171.187 118.282 171.202 118.272 171.22C118.262 171.239 118.258 171.261 118.26 171.282C118.282 171.888 118.26 172.508 118.335 173.11C118.335 173.136 118.335 173.163 118.335 173.189C118.396 173.713 118.492 174.232 118.589 174.756H119.465C119.465 174.756 119.465 174.756 119.465 174.725C119.311 174.153 119.184 173.577 119.027 172.979C118.869 172.381 118.676 171.818 118.54 171.234C118.534 171.21 118.518 171.19 118.497 171.177C119.051 171.205 119.6 171.062 120.07 170.769C120.54 170.475 120.909 170.045 121.125 169.536C121.345 168.76 121.361 167.941 121.169 167.157L120.696 164.046C120.398 162.143 120.017 160.258 119.675 158.372C119.627 158.084 119.574 157.796 119.522 157.5C118.843 153.646 118.129 149.788 117.274 145.969C117.244 145.812 117.204 145.655 117.169 145.494C117.134 145.332 116.976 145.419 116.985 145.52C117.011 145.777 117.038 146.035 117.068 146.292C117.217 147.759 117.393 149.216 117.594 150.656C117.839 152.367 118.01 154.087 118.251 155.797L118.501 157.543C118.895 160.358 119.307 163.173 119.789 165.975C120.017 167.284 120.832 169.61 118.948 170.016C118.517 170.111 118.066 170.054 117.673 169.855C116.843 169.363 116.22 168.587 115.921 167.672C115.386 166.18 115.198 164.539 114.922 162.985C114.609 161.272 114.335 159.554 114.098 157.831C113.791 155.684 113.476 153.537 113.134 151.394C112.968 150.299 112.793 149.212 112.617 148.112C112.538 147.61 112.455 147.104 112.372 146.598C112.359 146.497 112.192 146.528 112.192 146.637Z" fill="#263238"/>
<path id="Vector_84" d="M157.167 160.096C155.051 160.076 152.945 159.794 150.898 159.258C149.952 159.014 149.018 158.713 148.094 158.412C147.176 158.157 146.316 157.727 145.562 157.146C144.138 155.92 143.472 153.991 142.854 152.28C142.178 150.349 141.63 148.377 141.212 146.375C141.19 146.275 141.045 146.305 141.041 146.401C141.001 148.668 141.296 150.928 141.917 153.109C142.429 154.96 143.117 157.037 144.62 158.346C146.197 159.708 148.344 160.188 150.363 160.437C152.636 160.701 154.933 160.67 157.198 160.345C157.214 160.343 157.23 160.338 157.244 160.33C157.259 160.322 157.271 160.311 157.282 160.298C157.292 160.285 157.299 160.27 157.304 160.254C157.308 160.238 157.309 160.222 157.307 160.205C157.305 160.189 157.3 160.173 157.292 160.159C157.284 160.145 157.273 160.132 157.26 160.122C157.247 160.112 157.232 160.104 157.216 160.1C157.2 160.095 157.183 160.094 157.167 160.096Z" fill="#263238"/>
<path id="Vector_85" d="M160.689 146.414C160.803 149.251 160.923 152.088 161.049 154.925C161.341 161.532 161.661 168.139 162.008 174.747H162.963C162.525 168.122 162.065 161.504 161.583 154.894C161.373 152.06 161.157 149.232 160.935 146.41C160.934 146.378 160.921 146.347 160.897 146.324C160.874 146.302 160.842 146.289 160.81 146.29C160.777 146.291 160.746 146.304 160.724 146.327C160.701 146.351 160.689 146.382 160.689 146.414Z" fill="#263238"/>
<path id="Vector_86" d="M117.725 83.6398C97.7043 101.616 79.1422 121.303 77.6877 131.349C75.6768 145.262 84.2591 149.125 88.1144 149.16C98.5937 149.264 117.638 106.958 124.262 90.8059C130.693 75.1209 122.124 79.6902 117.725 83.6398Z" fill="#D3766A"/>
<path id="Vector_87" d="M87.5054 112.409L109.769 124.463C109.769 124.463 123.609 98.9931 126.798 87.188C129.988 75.3828 125.226 75.7145 114.773 84.9055C104.32 94.0965 87.5054 112.409 87.5054 112.409Z" fill="#C7C7C7"/>
<path id="Vector_88" d="M87.5054 112.409L109.769 124.463C109.769 124.463 123.609 98.9931 126.798 87.188C129.988 75.3828 125.226 75.7145 114.773 84.9055C104.32 94.0965 87.5054 112.409 87.5054 112.409Z" fill="#7A2D93"/>
<path id="Vector_89" opacity="0.1" d="M126.798 87.1836C123.609 98.9931 109.765 124.467 109.765 124.467L89.4941 113.487L126.829 78.5294C128.073 79.4808 128.126 82.287 126.798 87.1836Z" fill="black"/>
<path id="Vector_90" d="M92.0878 109.009C100.67 114.796 108.99 118.554 110.659 119.509C110.738 119.557 110.803 119.426 110.72 119.383C109.033 118.532 99.899 112.867 92.1535 108.869C92.0658 108.821 91.9914 108.952 92.0878 109.009Z" fill="#263238"/>
<path id="Vector_91" d="M104.749 157.722L169.942 157.91C169.942 157.91 164.247 109.031 140.318 80.179C134.78 73.4975 125.861 77.1241 122.097 80.6766C112.547 89.6799 104.565 157.486 104.749 157.722Z" fill="#7A2D93"/>
<path id="Vector_92" d="M127.175 77.5212C128.739 78.6603 130.242 79.9172 131.744 81.0824L136.125 84.4647C137.44 85.4903 138.754 86.6468 140.248 87.4542C141.593 88.1873 143.157 88.5147 144.598 87.86C144.95 87.6972 145.282 87.492 145.584 87.249L145.733 87.4803C144.999 88.0885 144.092 88.4518 143.139 88.519C141.698 88.6019 140.353 87.9473 139.196 87.1618C137.733 86.1754 136.371 85.0364 134.973 83.9584C132.261 81.868 129.585 79.6859 126.798 77.6871C126.908 77.6303 127.039 77.5736 127.175 77.5212ZM153.176 116.402C155.483 116.388 157.786 116.591 160.054 117.009C160.002 116.856 159.945 116.699 159.883 116.546C157.89 116.182 155.868 115.994 153.842 115.983C147.941 115.874 140.046 116.24 136.48 110.48C135.074 108.21 134.618 105.195 136.165 102.869C137.527 100.817 140.073 99.9314 142.46 99.9532C143.705 99.9608 144.938 100.204 146.092 100.669C147.455 101.288 148.713 102.116 149.82 103.122C151.941 104.92 153.916 107.028 156.571 108.027L156.361 107.521C155.571 107.182 154.821 106.756 154.127 106.251C151.66 104.475 149.667 102.013 146.924 100.625C144.825 99.5705 142.419 99.2847 140.13 99.8179C137.939 100.346 135.99 101.764 135.179 103.925C134.277 106.334 134.982 109.092 136.423 111.147C140.13 116.415 147.424 116.328 153.176 116.402ZM143.17 93.9437C144.895 93.1201 146.678 92.4244 148.506 91.862C148.427 91.7354 148.348 91.6001 148.265 91.4736C144.059 92.6476 140.173 95.2966 135.836 96.0385C130.573 96.8697 125.186 95.7636 120.682 92.9269C119.448 92.1581 118.297 91.2645 117.248 90.2603C117.195 90.4 117.147 90.5396 117.099 90.6968C118.102 91.636 119.19 92.4805 120.349 93.2193C124.699 95.9949 129.875 97.1939 135.008 96.6146C137.886 96.2262 140.533 95.1308 143.17 93.9437ZM147.113 140.313C150.327 141.471 153.612 142.424 156.948 143.168C160.646 144.04 165.219 144.774 168.207 147.266C168.168 147.052 168.124 146.829 168.08 146.624C165.097 144.359 160.816 143.634 157.255 142.805C153.909 142.055 150.613 141.102 147.384 139.951C144.611 138.934 141.869 137.568 139.84 135.364C138.966 134.432 138.29 133.332 137.855 132.132C137.42 130.931 137.234 129.656 137.308 128.382C137.479 125.807 138.951 123.463 141.496 122.66C144.226 121.787 147.271 122.813 149.549 124.362C152.151 126.138 154.022 128.805 156.024 131.179C157.921 133.444 160.024 135.543 162.797 136.687C163.837 137.126 164.946 137.384 166.074 137.45C166.043 137.324 166.017 137.189 165.982 137.058C163.769 136.918 161.601 135.836 159.883 134.509C157.356 132.563 155.542 129.852 153.461 127.469C151.555 125.287 149.373 123.35 146.561 122.442C144.125 121.656 141.326 121.735 139.266 123.406C137.47 124.873 136.756 127.247 136.879 129.494C137.028 131.952 138.079 134.27 139.832 136.006C141.838 138.026 144.458 139.327 147.108 140.305L147.113 140.313ZM139.188 151.429C138.723 153.537 138.942 155.693 138.815 157.822H139.218C139.372 155.204 138.955 152.468 140.046 150.002C140.307 149.371 140.701 148.804 141.203 148.34C141.704 147.876 142.3 147.526 142.951 147.313C144.407 146.94 145.951 147.112 147.288 147.798C150.118 149.177 151.63 152.162 153.005 154.816C153.54 155.832 154.087 156.884 154.718 157.87H155.191C153.632 155.514 152.637 152.825 150.955 150.539C149.33 148.357 146.885 146.55 144.015 146.742C141.356 146.921 139.718 148.981 139.183 151.429H139.188ZM113.629 157.761H114.146C114.729 156.738 115.146 155.629 115.381 154.475C116.012 151.577 115.82 148.579 115.618 145.646C115.136 138.851 113.958 131.912 115.452 125.161C116.023 122.396 117.104 119.76 118.641 117.388C120.253 114.988 122.584 112.732 125.401 111.815C126.142 111.541 126.931 111.419 127.72 111.455C128.51 111.492 129.284 111.687 129.996 112.029C131.196 112.702 132.146 113.743 132.704 114.997C134.128 118.017 133.247 121.434 131.889 124.305C129.23 129.909 124.914 134.631 122.772 140.505C121.825 143.129 121.428 145.918 121.608 148.7C121.787 151.482 122.538 154.198 123.815 156.679C124.008 157.05 124.209 157.417 124.424 157.779H124.901C123.848 156.055 123.062 154.182 122.571 152.223C121.852 149.437 121.76 146.526 122.299 143.7C122.895 140.645 124.257 137.839 125.804 135.185C127.35 132.532 129.195 129.948 130.767 127.238C132.34 124.528 133.865 121.486 133.834 118.252C133.803 115.756 132.638 113.111 130.421 111.806C127.793 110.253 124.643 111.309 122.343 112.941C117.817 116.157 115.522 121.556 114.68 126.88C113.585 133.828 114.956 140.846 115.285 147.802C115.421 150.578 115.412 153.445 114.435 156.094C114.229 156.678 113.958 157.237 113.629 157.761ZM120.165 99.1066C118.758 97.9192 116.992 97.2368 115.149 97.1689C115.119 97.2823 115.088 97.4045 115.053 97.518C115.494 97.5394 115.934 97.5933 116.367 97.6795C119.057 98.2119 121.782 100.298 121.813 103.244C121.852 106.452 119.118 108.834 116.472 110.161C114.921 110.938 113.296 111.54 111.706 112.208C111.68 112.348 111.649 112.483 111.623 112.644C112.63 112.208 113.655 111.833 114.689 111.414C117.427 110.296 120.187 108.795 121.55 106.046C122.152 104.904 122.343 103.591 122.091 102.326C121.839 101.061 121.16 99.9198 120.165 99.0935V99.1066Z" fill="white"/>
<path id="Vector_93" d="M144.896 82.3611C163.883 96.8808 183.681 121.539 183.992 135.757C184.286 149.81 176.36 148.413 175.029 147.977C160.922 143.613 143.924 104.619 137.624 88.7459C131.368 73.0043 140.182 78.7694 144.896 82.3611Z" fill="#D3766A"/>
<path id="Vector_94" d="M175.401 110.685L153.356 123.136C153.356 123.136 139.056 97.9151 135.657 86.1667C132.257 74.4183 137.028 74.6758 147.665 83.6704C158.302 92.665 175.401 110.685 175.401 110.685Z" fill="#7A2D93"/>
<path id="Vector_95" d="M170.757 107.368C162.275 113.303 154.026 117.214 152.357 118.196C152.278 118.244 152.212 118.113 152.291 118.069C153.96 117.196 162.994 111.361 170.665 107.228C170.774 107.18 170.849 107.311 170.757 107.368Z" fill="#263238"/>
<path id="Vector_96" d="M154.771 122.276C154.322 122.448 153.884 122.645 153.457 122.865C151.341 118.671 151.726 119.631 149.566 115.446C148.512 113.409 147.455 111.363 146.395 109.306C145.299 107.176 144.318 104.941 143.109 102.89C143.103 102.878 143.091 102.868 143.078 102.863C143.064 102.859 143.049 102.86 143.037 102.866C143.024 102.873 143.014 102.884 143.01 102.897C143.005 102.911 143.006 102.926 143.013 102.938C143.713 104.955 144.664 106.91 145.562 108.856C145.365 108.555 145.177 108.245 144.958 107.953C144.471 107.302 143.994 106.643 143.565 105.963C143.494 105.858 143.319 105.941 143.385 106.05C143.823 106.705 144.165 107.381 144.528 108.071C144.892 108.76 145.291 109.41 145.698 110.074C146.105 110.737 146.53 111.313 146.969 111.92L147.126 112.147C147.705 113.364 148.265 114.586 148.879 115.791C150.999 120.011 153.181 123.332 153.26 123.31C153.817 123.045 154.352 122.736 154.859 122.385C154.894 122.35 154.832 122.272 154.771 122.276Z" fill="#263238"/>
<path id="Vector_97" d="M89.0825 148.666C95.6189 147.715 99.3209 135.622 106.576 116.371C107.846 112.993 90.9751 93.6469 88.6838 96.7586C85.7968 100.686 78.1695 122.416 77.3897 128.325C75.887 139.968 81.4772 149.779 89.0825 148.666Z" fill="#D3766A"/>
<path id="Vector_98" d="M99.1367 135.849C99.7238 134.212 100.346 132.589 100.972 130.965L102.869 126.108C103.526 124.497 104.157 122.878 104.793 121.264C105.117 120.455 105.429 119.644 105.73 118.833C106.041 118.021 106.343 117.205 106.576 116.367C106.212 118.071 105.722 119.746 105.108 121.377C104.534 123.022 103.899 124.646 103.277 126.269C102.655 127.893 101.962 129.494 101.279 131.092C100.596 132.689 99.8771 134.282 99.1367 135.849Z" fill="#263238"/>
<path id="Vector_99" d="M82.6294 110.711C83.545 104.104 85.4157 94.8864 87.7858 92.9531C90.2742 90.9281 99.3121 84.1505 101.919 83.2515C104.525 82.3524 116.161 77.9402 118.299 79.1709C120.012 80.1572 117.984 84.6393 112.451 86.7908C107.583 88.6762 105.077 90.4393 103.689 91.0372C102.3 91.6351 98.8696 96.2262 99.7897 98.2512C100.337 99.4426 103.825 100.844 105.993 99.866C108.162 98.8884 108.696 94.6289 111.171 92.5996C113.647 90.5702 118.019 90.8277 118.273 92.0017C118.527 93.1756 117.081 93.7255 114.847 97.7231C113.41 100.289 113.314 106.452 110.054 110.877C108.416 113.098 105.573 119.007 105.573 119.007L82.6294 110.711Z" fill="#D3766A"/>
<path id="Vector_100" d="M113.485 90.7753C114.285 90.6604 115.035 90.3214 115.649 89.7978C115.896 89.5613 116.068 89.2578 116.144 88.9249C116.172 88.7427 116.172 88.5572 116.144 88.375C116.138 88.18 116.063 87.9932 115.934 87.847C115.89 87.8164 115.956 87.764 115.977 87.8077C116.037 87.8996 116.103 87.9871 116.175 88.0695C116.226 88.1478 116.268 88.2312 116.302 88.3183C116.367 88.4911 116.398 88.6748 116.394 88.8595C116.376 89.2634 116.222 89.6495 115.956 89.9549C115.636 90.2809 115.245 90.5293 114.814 90.6806C114.382 90.832 113.921 90.8823 113.467 90.8277C113.458 90.8408 113.458 90.7841 113.485 90.7753Z" fill="#263238"/>
<path id="Vector_101" d="M87.7856 92.953C89.8929 89.658 95.2859 83.7052 100.631 81.6628C104.241 80.2793 116.674 86.3019 116.315 88.6673C115.955 91.0327 113.831 91.0458 110.685 90.6749C109.542 90.5396 103.483 88.3749 102.449 89.6406C100.968 91.4648 99.0842 97.6838 99.0842 97.6838L87.7856 92.953Z" fill="#D3766A"/>
<path id="Vector_102" d="M116.004 87.7421C114.466 85.2109 111.092 83.8623 107.732 82.7975C107.68 82.7975 107.649 82.8586 107.702 82.876C108.556 83.1466 114.032 85.6517 115.969 87.7858C115.99 87.8076 116.021 87.7683 116.004 87.7421Z" fill="#263238"/>
<path id="Vector_103" d="M87.7856 92.953C89.8929 89.6581 95.2859 83.7053 100.631 81.6628C104.241 80.2794 114.08 87.9866 113.717 90.3563C113.353 92.7261 110.308 92.9137 106.935 91.7485C105.844 91.3688 102.19 88.8114 101.156 90.077C99.6756 91.8969 96.0613 96.4182 96.0613 96.4182L87.7856 92.953Z" fill="#D3766A"/>
<path id="Vector_104" d="M98.125 93.6077C98.4667 93.0884 98.5631 92.9051 98.9267 92.3901C99.2903 91.8751 99.6276 91.3689 100.013 90.8845C100.313 90.4329 100.689 90.0371 101.126 89.7149C101.577 89.4585 102.1 89.3544 102.615 89.4181C103.785 89.5272 104.841 90.2647 105.835 90.8321C106.944 91.4649 109.239 92.4905 111.001 92.3028C111.485 92.2748 111.958 92.147 112.389 91.9275C112.716 91.7784 113.001 91.5504 113.217 91.2642C113.98 89.9549 113.025 88.506 112.052 87.4629C110.234 85.5209 107.789 84.1156 105.419 82.9591C104.837 82.6754 104.25 82.4092 103.667 82.1386C103.007 81.7875 102.28 81.5807 101.533 81.532C100.311 81.532 98.309 82.7627 97.6912 83.138C97.6431 83.1642 97.608 83.09 97.6518 83.0595C98.4053 82.5925 100.28 81.0737 102.234 81.1698C102.954 81.2782 103.65 81.5116 104.289 81.8593C104.977 82.1517 105.656 82.4703 106.326 82.802C107.634 83.4424 108.891 84.1821 110.085 85.0146C111.207 85.8133 112.403 86.7603 113.152 87.9081C113.501 88.4162 113.706 89.009 113.744 89.6237C113.783 90.2383 113.654 90.852 113.371 91.3994C112.832 92.2723 111.68 92.5079 111.154 92.5778C110.638 92.6454 110.115 92.6454 109.599 92.5778C108.449 92.3307 107.319 92.0026 106.217 91.5958C105.148 91.1594 104.184 90.4524 103.084 90.1207C102.825 90.0321 102.55 89.9961 102.276 90.0148C102.002 90.0336 101.735 90.1067 101.49 90.2298C101.04 90.5291 100.638 90.894 100.298 91.3122C99.5626 92.0326 98.8967 92.8202 98.309 93.6645C98.1644 93.9089 98.0023 93.8347 98.125 93.6077Z" fill="#263238"/>
<path id="Vector_105" d="M86.2261 95.8334C86.9971 94.2623 88.2983 87.7946 89.5512 85.7958C90.8042 83.797 96.517 76.9495 99.1894 77.2463C102.55 77.6173 99.0536 83.6442 97.2968 86.1274C95.54 88.6107 95.8423 92.8309 95.8423 92.8309L86.2261 95.8334Z" fill="#D3766A"/>
<path id="Vector_106" d="M99.7459 82.0294C99.1194 82.8149 98.5674 83.6878 98.0242 84.5301C97.465 85.3129 96.9642 86.1356 96.5259 86.9915C96.1583 87.8676 95.9377 88.7979 95.8731 89.7453C95.8293 90.2123 95.8162 90.6749 95.8118 91.1418C95.8074 91.6088 95.8556 92.1674 95.8468 92.6737C95.8447 92.6802 95.8441 92.6872 95.8452 92.694C95.8463 92.7008 95.8489 92.7073 95.853 92.7129C95.857 92.7185 95.8624 92.723 95.8685 92.7262C95.8747 92.7293 95.8815 92.7309 95.8885 92.7309C95.8954 92.7309 95.9022 92.7293 95.9084 92.7262C95.9146 92.723 95.9199 92.7185 95.924 92.7129C95.928 92.7073 95.9307 92.7008 95.9318 92.694C95.9328 92.6872 95.9322 92.6802 95.9301 92.6737C95.9897 91.7429 96.1112 90.8171 96.2937 89.9024C96.4569 88.9506 96.738 88.0227 97.1305 87.1399C97.9147 85.3942 99.0625 83.8231 99.8598 82.0817C99.8773 82.0163 99.7897 81.9726 99.7459 82.0294Z" fill="#263238"/>
<path id="Vector_107" d="M95.8819 93.5553C95.9309 94.3386 96.0947 95.1105 96.3682 95.8465C96.6172 96.5941 96.9187 97.3233 97.2707 98.0286C97.6108 98.7326 97.9896 99.4173 98.4054 100.08C98.8084 100.747 99.2815 101.35 99.7766 101.987C100.784 103.231 101.586 104.626 102.155 106.12C102.689 107.614 102.956 109.19 102.944 110.776C102.798 109.214 102.429 107.679 101.849 106.22C101.226 104.786 100.411 103.443 99.4261 102.227C98.9252 101.608 98.4629 100.96 98.0417 100.285C97.63 99.6013 97.2641 98.8913 96.9465 98.1595C96.3419 96.7062 95.7812 95.1526 95.8819 93.5553Z" fill="#263238"/>
<path id="Vector_108" d="M119.85 84.3206C119.945 85.3456 120.091 86.3652 120.288 87.3756C120.443 88.2957 120.682 89.1999 121.002 90.077C121.629 91.6525 122.825 93.1319 124.669 93.5378C125.527 93.7017 126.409 93.6923 127.263 93.5101C128.117 93.3279 128.926 92.9767 129.641 92.4773C131.17 91.4735 132.362 90.0508 133.453 88.6674C134.133 87.812 134.772 86.9304 135.367 86.0227C135.665 85.5601 135.972 85.1062 136.244 84.6305C136.515 84.1548 136.774 83.6747 137.08 83.2208C137.107 83.1816 137.185 83.2208 137.164 83.2514C136.568 84.325 134.78 87.7291 134.185 88.5714C133.094 90.1076 131.906 91.6743 130.325 92.809C128.81 93.9574 126.906 94.4739 125.015 94.2492C124.109 94.1079 123.254 93.7382 122.532 93.1753C121.81 92.6124 121.244 91.8748 120.888 91.0328C120.47 90.027 120.203 88.9653 120.095 87.8818C119.946 86.6947 119.868 85.499 119.815 84.3075C119.824 84.3075 119.85 84.3075 119.85 84.3206Z" fill="#263238"/>
<path id="Vector_109" d="M126.163 90.5746C130.185 90.4655 135.144 82.9983 136.467 77.6609C136.555 77.2943 131.814 64.8694 131.131 62.3077C130.982 61.784 116.03 70.4774 116.03 70.4774C116.03 70.4774 119.048 75.4221 120.209 79.891C120.301 80.2663 122.273 90.6793 126.163 90.5746Z" fill="#D3766A"/>
<path id="Vector_110" d="M116.03 70.4774C116.03 70.4774 119.048 75.422 120.209 79.8953C120.209 79.9826 120.358 80.6329 120.59 81.5755C128.069 78.8392 131.701 72.8472 133.365 68.819C132.345 65.9997 131.403 63.3507 131.131 62.3163C130.982 61.7839 116.03 70.4774 116.03 70.4774Z" fill="#263238"/>
<path id="Vector_111" d="M107.443 41.521C106.484 41.6825 103.264 49.3024 103.732 52.6366C104.201 55.9709 106.387 62.4299 107.386 62.3993C108.385 62.3688 108.201 41.3945 107.443 41.521Z" fill="#263238"/>
<path id="Vector_112" d="M130.452 44.4755C133.755 49.682 135.249 66.9119 132.205 71.6776C127.775 78.5861 118.273 81.7152 111.811 75.9152C105.542 70.2854 103.991 47.7967 107.614 43.2361C112.941 36.5196 125.572 36.7858 130.452 44.4755Z" fill="#D3766A"/>
<path id="Vector_113" d="M118.023 55.4777C118.533 55.5489 119.047 55.5941 119.561 55.6129C120.153 55.6566 120.621 55.757 121.16 55.4558C121.303 55.3531 121.408 55.2064 121.458 55.0383C121.509 54.8703 121.503 54.6904 121.441 54.5263C121.134 53.8411 120.424 53.6054 119.714 53.5225C119.003 53.4113 118.276 53.5668 117.673 53.9589C117.538 54.0565 117.435 54.1915 117.376 54.347C117.318 54.5026 117.307 54.6719 117.344 54.8338C117.381 54.9957 117.466 55.143 117.586 55.2575C117.707 55.372 117.859 55.4486 118.023 55.4777Z" fill="#263238"/>
<path id="Vector_114" d="M118.715 59.2396C118.715 59.1916 118.812 59.2833 118.816 59.3313C118.899 60.4965 119.193 61.8145 120.284 62.0938C120.319 62.0938 120.323 62.1593 120.284 62.1593C118.961 62.1113 118.588 60.3525 118.715 59.2396Z" fill="#263238"/>
<path id="Vector_115" d="M119.614 57.9216C121.476 57.5855 122.006 61.3169 120.284 61.6224C118.562 61.9279 118.058 58.2009 119.614 57.9216Z" fill="#263238"/>
<path id="Vector_116" d="M112.004 60.0033C112.004 59.9597 111.92 60.0732 111.929 60.1168C112.131 61.269 112.166 62.6175 111.171 63.1499C111.141 63.1499 111.171 63.2241 111.171 63.2154C112.446 62.8706 112.376 61.0769 112.004 60.0033Z" fill="#263238"/>
<path id="Vector_117" d="M110.795 58.9603C108.911 59.0869 109.296 62.8313 111.04 62.7179C112.784 62.6044 112.376 58.8599 110.795 58.9603Z" fill="#263238"/>
<path id="Vector_118" d="M109.077 56.9746C109.565 56.8012 110.043 56.6031 110.51 56.3811C111.058 56.1454 111.518 56.0145 111.855 55.5082C111.933 55.3508 111.958 55.1721 111.925 54.9994C111.892 54.8268 111.802 54.6698 111.671 54.5525C111.079 54.0855 110.335 54.2077 109.664 54.4608C108.98 54.6963 108.409 55.1771 108.061 55.8094C107.992 55.9574 107.968 56.122 107.991 56.2834C108.015 56.4447 108.084 56.596 108.191 56.7191C108.299 56.8421 108.439 56.9317 108.596 56.977C108.754 57.0223 108.921 57.0215 109.077 56.9746Z" fill="#263238"/>
<path id="Vector_119" d="M121.107 68.6837C120.871 68.9936 120.669 69.4038 120.231 69.4999C119.799 69.5536 119.36 69.515 118.943 69.3864C118.939 69.3835 118.934 69.3815 118.929 69.3805C118.924 69.3795 118.919 69.3795 118.914 69.3805C118.909 69.3816 118.904 69.3836 118.899 69.3864C118.895 69.3893 118.891 69.393 118.888 69.3973C118.886 69.4016 118.884 69.4064 118.883 69.4115C118.882 69.4166 118.882 69.4218 118.883 69.4268C118.884 69.4319 118.886 69.4367 118.889 69.441C118.891 69.4453 118.895 69.449 118.899 69.4518C119.096 69.6591 119.345 69.8092 119.621 69.886C119.896 69.9629 120.188 69.9637 120.463 69.8883C120.691 69.7936 120.885 69.6341 121.021 69.4299C121.157 69.2256 121.23 68.9858 121.23 68.7405C121.234 68.6532 121.142 68.6401 121.107 68.6837Z" fill="#263238"/>
<path id="Vector_120" d="M119.399 65.3975C119.169 65.8966 118.839 66.3431 118.428 66.7089C118.017 67.0746 117.535 67.3518 117.011 67.5229C116.556 67.6775 116.081 67.7672 115.6 67.7891C115.509 67.7978 115.416 67.7978 115.324 67.7891C115.238 67.7934 115.152 67.7934 115.066 67.7891C115.002 67.7859 114.941 67.762 114.892 67.7211C114.843 67.6801 114.809 67.6243 114.794 67.5621C114.79 67.523 114.79 67.4835 114.794 67.4443V67.3439C114.641 66.4711 114.536 65.092 114.536 65.092C114.234 65.3015 112.674 66.2791 112.634 65.8121C112.319 61.9323 111.964 57.6205 112.468 53.6971C112.473 53.6724 112.486 53.6502 112.506 53.6343C112.526 53.6184 112.55 53.6097 112.575 53.6097C112.601 53.6097 112.625 53.6184 112.645 53.6343C112.664 53.6502 112.678 53.6724 112.683 53.6971C113.121 57.4154 112.932 61.186 113.331 64.9218C113.883 64.5642 114.484 64.2864 115.114 64.097C115.246 64.097 115.272 66.7155 115.373 67.1301C115.369 67.143 115.369 67.1565 115.373 67.1694C116.897 67.1694 117.966 66.5365 119.276 65.3277C119.351 65.2404 119.451 65.2971 119.399 65.3975Z" fill="#263238"/>
<path id="Vector_121" d="M132.48 59.2658C129.466 59.9423 127.512 56.7608 125.83 52.174C124.844 49.49 124.84 43.882 124.84 43.882C124.84 43.882 117.533 48.5605 113.06 48.7612C108.587 48.962 104.298 45.6757 104.035 42.2149C103.811 39.2254 108.311 34.7041 114.873 33.5432C119.451 32.7359 127.723 35.3762 131.819 39.8495C131.819 39.8495 137.983 41.8352 137.707 46.3085C137.431 50.7818 135.902 58.4977 132.48 59.2658Z" fill="#263238"/>
<path id="Vector_122" d="M132.218 58.9472C128.314 60.3307 125.379 54.583 124.858 51.4626C124.314 48.2113 125.129 44.7417 125.269 41.4817H125.243C124.402 45.5273 123.587 50.6116 125.453 54.4739C126.628 56.9091 129.068 60.8675 132.297 59.1611C132.406 59.1 132.34 58.9036 132.218 58.9472Z" fill="#263238"/>
<path id="Vector_123" d="M138.43 44.8595C137.505 42.241 134.075 40.0109 131.42 39.7272C131.394 39.7272 131.385 39.7665 131.42 39.7709C134.653 40.4779 138.701 43.5459 138.206 47.1202C137.808 49.9744 136.966 53.7756 135.376 56.2108C135.337 56.2719 135.429 56.3286 135.472 56.2719C136.76 54.6004 137.15 52.5885 137.663 50.5985C138.088 48.8397 139.052 46.6707 138.43 44.8595Z" fill="#263238"/>
<path id="Vector_124" d="M132.458 40.1637C128.13 35.4504 119.486 30.5974 113.002 33.085C113.002 33.085 113.002 33.1242 113.002 33.1155C119.968 31.0862 127.197 36.2577 132.239 40.4125C132.397 40.5346 132.581 40.2946 132.458 40.1637Z" fill="#263238"/>
<path id="Vector_125" d="M130.544 59.7066C130.544 59.7066 132.888 53.4091 135.665 54.103C138.443 54.7969 137.654 63.2678 135.083 65.044C134.769 65.2971 134.407 65.4844 134.019 65.5947C133.631 65.705 133.224 65.7361 132.823 65.6859C132.423 65.6358 132.036 65.5055 131.688 65.303C131.339 65.1004 131.035 64.8298 130.794 64.5072L130.544 59.7066Z" fill="#D3766A"/>
<path id="Vector_126" d="M135.394 56.512C135.442 56.512 135.464 56.5557 135.429 56.5862C133.646 57.8955 133.076 60.0296 132.844 62.1331C133.243 61.2603 133.948 60.6275 135.122 61.0726C135.183 61.0944 135.157 61.1904 135.096 61.1904C134.715 61.1711 134.338 61.2693 134.016 61.4716C133.694 61.6739 133.442 61.9705 133.295 62.3208C133.058 62.909 132.883 63.5205 132.774 64.145C132.726 64.3501 132.38 64.337 132.393 64.1145C132.391 64.0985 132.391 64.0824 132.393 64.0665C131.679 61.5527 132.734 57.4896 135.394 56.512Z" fill="#263238"/>
<path id="Vector_127" d="M122.531 87.6505L131.731 114.975C132.091 115.769 131.731 116.463 130.925 116.524L116.486 117.611C116.045 117.613 115.613 117.492 115.238 117.26C114.864 117.028 114.563 116.696 114.37 116.302L105.17 88.9773C104.81 88.1786 105.17 87.4847 105.976 87.4236L120.407 86.3195C120.851 86.3184 121.286 86.4429 121.662 86.6785C122.039 86.9141 122.34 87.2512 122.531 87.6505Z" fill="#37474F"/>
<path id="Vector_128" d="M120.814 87.7641L130.014 115.088C130.373 115.883 130.014 116.581 129.208 116.642L114.773 117.746C114.33 117.746 113.896 117.62 113.522 117.385C113.147 117.149 112.847 116.813 112.657 116.415L103.457 89.0908C103.093 88.2965 103.457 87.6026 104.263 87.5415L118.716 86.4374C119.155 86.4398 119.585 86.5655 119.956 86.8002C120.327 87.0348 120.625 87.3689 120.814 87.7641Z" fill="#455A64"/>
<path id="Vector_129" d="M116.963 89.3395C116.987 89.581 117.082 89.81 117.236 89.9976C117.39 90.1852 117.597 90.323 117.83 90.3935C118.063 90.464 118.312 90.4641 118.545 90.3937C118.778 90.3234 118.985 90.1857 119.14 89.9982C119.294 89.8107 119.389 89.5817 119.413 89.3403C119.437 89.0988 119.389 88.8558 119.274 88.6418C119.159 88.4279 118.983 88.2527 118.768 88.1384C118.553 88.0241 118.309 87.9758 118.067 87.9997C117.742 88.0317 117.444 88.1908 117.237 88.442C117.03 88.6933 116.931 89.0161 116.963 89.3395Z" fill="#263238"/>
<path id="Vector_130" d="M178.007 148.16C171.725 149.072 163.796 144.276 143.249 129.682C140.401 127.648 149.312 103.833 152.449 105.827C156.414 108.346 171.252 118.986 172.238 119.902C180.575 127.648 182.279 147.506 178.007 148.16Z" fill="#D3766A"/>
<path id="Vector_131" d="M159.822 112.928C159.822 112.928 153.925 104.88 149.513 101.603C143.604 97.2387 136.69 95.8596 133.742 95.4624C127.609 94.6332 112.275 96.8459 112.122 101.367C111.999 105.461 127.595 102.406 127.595 102.406C127.595 102.406 111.18 102.903 111.942 107.857C112.705 112.81 130.614 108.245 130.614 108.245C130.614 108.245 113.756 109.118 115.355 114.119C116.564 117.886 133.015 114.656 133.015 114.656C133.015 114.656 118.531 115.529 119.605 119.457C120.796 123.795 136.165 121.765 136.165 121.765C140.62 131.279 146.622 134.016 151.134 135.452C152.225 135.796 159.822 112.928 159.822 112.928Z" fill="#D3766A"/>
<path id="Vector_132" d="M133.282 101.874C131.35 101.874 129.396 101.839 127.473 101.996C125.55 102.153 123.626 102.384 121.725 102.72C117.059 103.549 114.277 104.798 114.453 104.736C118.728 103.362 125.607 102.681 127.534 102.519C129.462 102.358 131.368 102.105 133.291 101.943C133.339 101.939 133.326 101.874 133.282 101.874Z" fill="#263238"/>
<path id="Vector_133" d="M133.988 108.786C131.521 108.878 129.072 108.878 126.61 109.079C124.148 109.28 121.852 109.685 119.421 110.052C119.232 110.078 119.311 110.17 119.5 110.148C121.94 109.877 124.222 109.816 126.667 109.576C129.112 109.336 131.552 108.996 133.996 108.843C134.049 108.843 134.049 108.786 133.988 108.786Z" fill="#263238"/>
<path id="Vector_134" d="M135.665 114.613C131.889 114.56 128.108 115.202 124.415 115.922C124.231 115.957 124.345 116.066 124.533 116.04C128.266 115.533 131.188 115.11 135.665 114.73C135.731 114.735 135.744 114.613 135.665 114.613Z" fill="#263238"/>
<path id="Vector_135" d="M166.578 115.704C168.207 116.773 169.776 117.929 171.296 119.156C172.058 119.763 172.79 120.408 173.486 121.089C174.208 121.766 174.842 122.53 175.375 123.363C176.386 125.039 177.236 126.807 177.911 128.643C178.612 130.464 179.109 132.357 179.392 134.286C179.182 133.34 178.919 132.406 178.603 131.489C178.301 130.568 177.968 129.66 177.596 128.766C176.884 126.971 176.016 125.243 175.002 123.598C174.502 122.783 173.899 122.034 173.206 121.373C172.527 120.688 171.795 120.063 171.068 119.409C170.341 118.754 169.587 118.152 168.834 117.537C168.08 116.921 167.344 116.302 166.578 115.704Z" fill="#263238"/>
</g>
<g id="Icons">
<path id="Vector_136" d="M104.376 30.1653C104.376 30.1653 102.576 44.5236 99.6142 47.7574C96.0613 51.6328 93.4809 51.0655 92.0483 53.0643C90.6113 51.0611 88.0353 51.6328 84.478 47.7531C81.5208 44.5236 79.7246 30.1653 79.7246 30.1653C87.5227 26.3947 92.0527 22.1658 92.0527 22.1658C92.1885 22.3011 96.6965 26.4514 104.376 30.1653Z" fill="#7A2D93"/>
<path id="Vector_137" opacity="0.2" d="M92.0483 22.1701V53.0643C90.6113 51.0611 88.0353 51.6328 84.478 47.7531C81.5208 44.5236 79.7246 30.1653 79.7246 30.1653C87.5227 26.3947 92.0527 22.1658 92.0527 22.1658L92.0483 22.1701Z" fill="black"/>
<path id="Vector_138" opacity="0.1" d="M104.376 30.1654C104.376 30.1654 102.576 44.5236 99.6143 47.7575C96.0613 51.6329 93.4809 51.0655 92.0483 53.0643V22.1702C92.1885 22.3011 96.6965 26.4514 104.376 30.1654Z" fill="black"/>
<path id="Vector_139" d="M102.462 31.3219C102.462 31.3219 100.942 43.4544 98.4402 46.182C95.4392 49.4639 93.2575 48.9794 92.0483 50.6684C90.8348 48.9794 88.6575 49.4639 85.6521 46.182C83.1506 43.4544 81.6348 31.3219 81.6348 31.3219C88.2062 28.136 92.0483 24.5661 92.0483 24.5661C92.0483 24.5661 95.8729 28.1447 102.462 31.3219Z" fill="#7A2D93"/>
<path id="Vector_140" opacity="0.1" d="M92.0484 24.5704V50.6683C90.8392 48.9794 88.6575 49.4595 85.6565 46.1819C83.155 43.45 81.6392 31.3175 81.6392 31.3175C88.2106 28.1316 92.0484 24.5617 92.0484 24.5617V24.5704Z" fill="black"/>
<path id="Vector_141" d="M96.7143 35.3064H87.3828V43.738H96.7143V35.3064Z" fill="white"/>
<path id="Vector_142" d="M95.7811 37.9118H94.8304V34.1455C94.8304 33.4105 94.5373 32.7057 94.0156 32.1859C93.4939 31.6662 92.7863 31.3743 92.0485 31.3743C91.3107 31.3743 90.6031 31.6662 90.0814 32.1859C89.5597 32.7057 89.2666 33.4105 89.2666 34.1455V37.9118H88.3159V34.1455C88.2809 33.637 88.3512 33.1267 88.5224 32.6463C88.6937 32.166 88.9623 31.7259 89.3115 31.3533C89.6607 30.9807 90.0831 30.6836 90.5524 30.4805C91.0218 30.2774 91.528 30.1726 92.0397 30.1726C92.5514 30.1726 93.0577 30.2774 93.527 30.4805C93.9963 30.6836 94.4187 30.9807 94.7679 31.3533C95.1171 31.7259 95.3857 32.166 95.557 32.6463C95.7283 33.1267 95.7986 33.637 95.7635 34.1455L95.7811 37.9118Z" fill="white"/>
<path id="Vector_143" d="M92.3422 39.6662L92.6445 41.0889H91.3652L91.6675 39.6662C91.5494 39.5931 91.4584 39.4837 91.4082 39.3545C91.3581 39.2253 91.3516 39.0833 91.3898 38.9501C91.4279 38.8169 91.5086 38.6997 91.6195 38.6163C91.7305 38.5328 91.8658 38.4877 92.0049 38.4877C92.1439 38.4877 92.2792 38.5328 92.3902 38.6163C92.5012 38.6997 92.5818 38.8169 92.62 38.9501C92.6581 39.0833 92.6516 39.2253 92.6015 39.3545C92.5514 39.4837 92.4603 39.5931 92.3422 39.6662Z" fill="#37474F"/>
<path id="Vector_144" d="M92.2107 86.9567H90.3444V86.625H92.0486V86.7385H92.2107V86.9567ZM88.592 86.9567H86.8396V86.625H88.592V86.9567ZM85.0872 86.9567H83.3349V86.625H85.0872V86.9567ZM81.5825 86.9567H79.8301V86.625H81.5825V86.9567ZM92.2107 84.9972H91.8821V83.2515H92.2107V84.9972ZM92.2107 81.5058H91.8821V79.7601H92.2107V81.5058ZM92.2107 78.0145H91.8821V76.2688H92.2107V78.0145ZM92.2107 74.5231H91.8821V72.7774H92.2107V74.5231ZM92.2107 71.0317H91.8821V69.2861H92.2107V71.0317ZM92.2107 67.5404H91.8821V65.7947H92.2107V67.5404ZM92.2107 64.049H91.8821V62.3033H92.2107V64.049ZM92.2107 60.5577H91.8821V58.812H92.2107V60.5577ZM92.2107 57.0663H91.8821V55.3206H92.2107V57.0663Z" fill="#7A2D93"/>
<path id="Vector_145" d="M92.7889 54.9628C92.7889 54.8169 92.7455 54.6743 92.6641 54.553C92.5827 54.4317 92.4671 54.3372 92.3318 54.2814C92.1965 54.2255 92.0477 54.2109 91.904 54.2394C91.7604 54.2679 91.6285 54.3381 91.525 54.4412C91.4214 54.5444 91.3509 54.6758 91.3223 54.8189C91.2938 54.962 91.3084 55.1102 91.3645 55.245C91.4205 55.3798 91.5154 55.495 91.6372 55.576C91.7589 55.6571 91.9021 55.7003 92.0485 55.7003C92.2449 55.7003 92.4332 55.6226 92.572 55.4843C92.7109 55.346 92.7889 55.1584 92.7889 54.9628Z" fill="#7A2D93"/>
<path id="Vector_146" d="M28.2703 35.4897H5.7915V6.74268H22.483L28.2703 12.2241V35.4897Z" fill="#EBEBEB"/>
<path id="Vector_147" d="M22.4829 6.74268L28.2702 12.2241H22.4829V6.74268Z" fill="#DBDBDB"/>
<path id="Vector_148" d="M7.98644 12.3027L20.4854 12.3027V11.5651L7.98644 11.5651V12.3027Z" fill="#DBDBDB"/>
<path id="Vector_149" d="M7.98644 14.1662L20.4854 14.1662V13.4286L7.98644 13.4286V14.1662Z" fill="#DBDBDB"/>
<path id="Vector_150" d="M7.98644 16.0341H20.4854V15.2965L7.98644 15.2965V16.0341Z" fill="#DBDBDB"/>
<path id="Vector_151" d="M7.98637 17.8976L26.2988 17.8976V17.16L7.98637 17.16V17.8976Z" fill="#DBDBDB"/>
<path id="Vector_152" d="M7.98637 19.7611L26.2988 19.7611V19.0236L7.98637 19.0236V19.7611Z" fill="#DBDBDB"/>
<path id="Vector_153" d="M7.98637 21.6246L26.2988 21.6246V20.887L7.98637 20.887V21.6246Z" fill="#DBDBDB"/>
<path id="Vector_154" d="M7.98637 23.4882L26.2988 23.4882V22.7506L7.98637 22.7506V23.4882Z" fill="#DBDBDB"/>
<path id="Vector_155" d="M7.98637 25.3473L26.2988 25.3473V24.6097L7.98637 24.6097V25.3473Z" fill="#DBDBDB"/>
<path id="Vector_156" d="M7.98637 27.2108L26.2988 27.2108V26.4733L7.98637 26.4733V27.2108Z" fill="#DBDBDB"/>
<path id="Vector_157" d="M7.98637 29.0743L26.2988 29.0743V28.3367L7.98637 28.3367V29.0743Z" fill="#DBDBDB"/>
<path id="Vector_158" d="M7.98637 30.9378L26.2988 30.9378V30.2003L7.98637 30.2003V30.9378Z" fill="#DBDBDB"/>
<path id="Vector_159" d="M7.98637 32.8013H26.2988V32.0638H7.98637V32.8013Z" fill="#DBDBDB"/>
<path id="Vector_160" d="M29.7888 38.1062C31.7987 37.2716 32.7489 34.9718 31.911 32.9695C31.0731 30.9673 28.7645 30.0208 26.7545 30.8555C24.7446 31.6902 23.7945 33.99 24.6324 35.9922C25.4703 37.9944 27.7789 38.9409 29.7888 38.1062Z" fill="#263238"/>
<path id="Vector_161" d="M30.2242 33.4908H26.3164V37.0258H30.2242V33.4908Z" fill="white"/>
<path id="Vector_162" d="M29.8341 34.5776H29.4354V33.0021C29.4354 32.6942 29.3126 32.399 29.0941 32.1812C28.8756 31.9635 28.5792 31.8412 28.2701 31.8412C27.961 31.8412 27.6646 31.9635 27.4461 32.1812C27.2275 32.399 27.1047 32.6942 27.1047 33.0021V34.5776H26.7148V33.0021C26.7148 32.5889 26.8796 32.1926 27.1729 31.9004C27.4662 31.6082 27.8641 31.4441 28.2789 31.4441C28.6937 31.4441 29.0915 31.6082 29.3848 31.9004C29.6781 32.1926 29.8429 32.5889 29.8429 33.0021L29.8341 34.5776Z" fill="white"/>
<path id="Vector_163" d="M28.4368 35.2976L28.5989 36.0744H27.9067L28.0688 35.2976C28.0052 35.2578 27.9563 35.1985 27.9295 35.1287C27.9027 35.0588 27.8995 34.9821 27.9202 34.9102C27.941 34.8383 27.9847 34.7751 28.0447 34.7301C28.1047 34.6852 28.1777 34.6608 28.2528 34.6608C28.3279 34.6608 28.401 34.6852 28.461 34.7301C28.521 34.7751 28.5647 34.8383 28.5854 34.9102C28.6062 34.9821 28.6029 35.0588 28.5761 35.1287C28.5493 35.1985 28.5004 35.2578 28.4368 35.2976Z" fill="#263238"/>
<path id="Vector_164" d="M43.674 50.52H43.3629V48.7743H43.6915L43.674 50.52ZM43.674 47.0286H43.3629V45.283H43.6915L43.674 47.0286ZM43.674 43.5373H43.3629V41.7916H43.6915L43.674 43.5373ZM43.674 40.0459H43.3629V38.3002H43.6915L43.674 40.0459ZM43.674 36.5546H43.3629V34.8089H43.6915L43.674 36.5546ZM43.674 33.0632H43.3629V31.3175H43.6915L43.674 33.0632ZM43.674 29.5718H43.3629V27.8262H43.6915L43.674 29.5718ZM43.674 26.0805H43.3629V24.3348H43.6915L43.674 26.0805ZM42.0486 24.217H40.2962V23.8896H42.0486V24.217ZM38.5438 24.217H36.7914V23.8896H38.5438V24.217ZM35.0391 24.217H33.2867V23.8896H35.0391V24.217ZM31.5343 24.217H30.7764V23.8896H31.5343V24.217Z" fill="#7A2D93"/>
<path id="Vector_165" d="M30.7939 23.3441C30.6456 23.3433 30.5005 23.3866 30.3771 23.4683C30.2537 23.5501 30.1576 23.6667 30.1011 23.8033C30.0446 23.9398 30.0303 24.09 30.06 24.2346C30.0897 24.3793 30.1621 24.5118 30.2678 24.6153C30.3735 24.7188 30.5079 24.7885 30.6536 24.8155C30.7993 24.8424 30.9498 24.8255 31.0858 24.7668C31.2218 24.7081 31.3372 24.6103 31.417 24.4859C31.4969 24.3615 31.5377 24.2162 31.5342 24.0686C31.5297 23.8756 31.4498 23.692 31.3116 23.5567C31.1733 23.4215 30.9876 23.3452 30.7939 23.3441Z" fill="#7A2D93"/>
<path id="Vector_166" d="M56.2691 147.597H55.2396V147.287H56.2691V147.597ZM53.4872 147.597H51.7348V147.287H53.4872V147.597ZM49.9824 147.597H48.2301V147.287H49.9824V147.597ZM46.4777 147.597H44.7253V147.287H46.4777V147.597ZM43.6738 146.899H43.3628V145.153H43.6914L43.6738 146.899ZM43.6738 143.408H43.3628V141.662H43.6914L43.6738 143.408ZM43.6738 139.916H43.3628V138.171H43.6914L43.6738 139.916ZM43.6738 136.425H43.3628V134.679H43.6914L43.6738 136.425ZM43.6738 132.933H43.3628V131.188H43.6914L43.6738 132.933ZM43.6738 129.442H43.3628V127.696H43.6914L43.6738 129.442ZM43.6738 125.951H43.3628V124.205H43.6914L43.6738 125.951Z" fill="#7A2D93"/>
<path id="Vector_167" d="M56.2296 148.173C56.6385 148.173 56.97 147.843 56.97 147.436C56.97 147.028 56.6385 146.698 56.2296 146.698C55.8207 146.698 55.4893 147.028 55.4893 147.436C55.4893 147.843 55.8207 148.173 56.2296 148.173Z" fill="#7A2D93"/>
<path id="Vector_168" d="M86.8133 142.648H58.8188V159.477H86.8133V142.648Z" fill="#455A64"/>
<path id="Vector_169" d="M68.8425 144.765H61.0181V154.733H68.8425V144.765Z" fill="white"/>
<path id="Vector_170" d="M64.9303 150.6C65.9538 150.6 66.7835 149.773 66.7835 148.754C66.7835 147.734 65.9538 146.908 64.9303 146.908C63.9068 146.908 63.0771 147.734 63.0771 148.754C63.0771 149.773 63.9068 150.6 64.9303 150.6Z" fill="#455A64"/>
<path id="Vector_171" d="M68.8425 154.733H61.0181C61.0181 154.733 61.2327 152.873 61.6139 152.319C61.995 151.765 63.0026 151.141 64.9303 151.141C66.8579 151.141 67.8655 151.765 68.2467 152.319C68.6278 152.873 68.8425 154.733 68.8425 154.733Z" fill="#455A64"/>
<path id="Vector_172" d="M83.7463 144.765H70.8662V145.249H83.7463V144.765Z" fill="white"/>
<path id="Vector_173" d="M83.7463 149.504H70.8662V149.989H83.7463V149.504Z" fill="white"/>
<path id="Vector_174" d="M83.7463 150.901H70.8662V151.385H83.7463V150.901Z" fill="white"/>
<path id="Vector_175" d="M83.7463 152.293H70.8662V152.778H83.7463V152.293Z" fill="white"/>
<path id="Vector_176" d="M83.7463 153.69H70.8662V154.174H83.7463V153.69Z" fill="white"/>
<path id="Vector_177" d="M83.7463 155.082H70.8662V155.566H83.7463V155.082Z" fill="white"/>
<path id="Vector_178" d="M81.2973 146.161H70.8662V146.646H81.2973V146.161Z" fill="white"/>
<path id="Vector_179" d="M88.3303 163.106C90.3402 162.271 91.2904 159.972 90.4525 157.969C89.6146 155.967 87.306 155.021 85.296 155.855C83.2861 156.69 82.336 158.99 83.1739 160.992C84.0118 162.994 86.3204 163.941 88.3303 163.106Z" fill="#263238"/>
<path id="Vector_180" d="M88.7672 158.486H84.8594V162.021H88.7672V158.486Z" fill="white"/>
<path id="Vector_181" d="M88.377 159.573H87.9784V157.997C87.9784 157.689 87.8556 157.394 87.637 157.176C87.4185 156.959 87.1221 156.836 86.813 156.836C86.504 156.836 86.2076 156.959 85.989 157.176C85.7705 157.394 85.6477 157.689 85.6477 157.997V159.573H85.249V157.997C85.249 157.584 85.4138 157.188 85.7071 156.895C86.0004 156.603 86.3982 156.439 86.813 156.439C87.2278 156.439 87.6256 156.603 87.919 156.895C88.2123 157.188 88.377 157.584 88.377 157.997V159.573Z" fill="white"/>
<path id="Vector_182" d="M86.9798 160.293L87.1419 161.069H86.4453L86.6118 160.293C86.5608 160.261 86.5191 160.216 86.4906 160.163C86.4622 160.11 86.4482 160.051 86.4498 159.991C86.4515 159.931 86.4688 159.873 86.5001 159.822C86.5313 159.77 86.5755 159.728 86.6281 159.699C86.6808 159.67 86.7402 159.655 86.8003 159.656C86.8605 159.657 86.9195 159.673 86.9713 159.704C87.0232 159.734 87.0662 159.777 87.0961 159.829C87.1261 159.881 87.1418 159.94 87.1419 160C87.142 160.059 87.1271 160.116 87.0988 160.167C87.0704 160.218 87.0295 160.262 86.9798 160.293Z" fill="#263238"/>
</g>
<g id="Table">
<path id="Vector_183" d="M183.983 174.782L160.988 174.887L137.987 174.926L91.9916 175L45.9958 174.926L23.0001 174.887L0 174.782L23.0001 174.673L45.9958 174.638L91.9916 174.564L137.987 174.638L160.988 174.677L183.983 174.782Z" fill="#263238"/>
</g>
</g>
</g>
</svg>
