<svg width="200" height="150" viewBox="0 0 200 150" fill="none" xmlns="http://www.w3.org/2000/svg">
<g id="Group 418">
<g id="done/rafiki">
<g id="background-complete">
<path id="Vector" d="M200 130.96H0V131.06H200V130.96Z" fill="#EBEBEB"/>
<path id="Vector_2" d="M179.96 137.396H166.712V137.496H179.96V137.396Z" fill="#EBEBEB"/>
<path id="Vector_3" d="M132.488 138.484H129.012V138.584H132.488V138.484Z" fill="#EBEBEB"/>
<path id="Vector_4" d="M166.312 133.684H158.636V133.784H166.312V133.684Z" fill="#EBEBEB"/>
<path id="Vector_5" d="M38.2599 134.356H20.9839V134.456H38.2599V134.356Z" fill="#EBEBEB"/>
<path id="Vector_6" d="M44.356 134.356H41.824V134.456H44.356V134.356Z" fill="#EBEBEB"/>
<path id="Vector_7" d="M90.0599 136.044H52.5879V136.144H90.0599V136.044Z" fill="#EBEBEB"/>
<path id="Vector_8" d="M94.7999 113.12H17.5639C16.9589 113.119 16.379 112.878 15.9515 112.45C15.524 112.021 15.2839 111.441 15.2839 110.836V2.264C15.2892 1.66241 15.5316 1.08719 15.9585 0.663287C16.3854 0.239383 16.9623 0.00103056 17.5639 0H94.7999C95.4057 0 95.9866 0.240635 96.415 0.668968C96.8433 1.0973 97.0839 1.67825 97.0839 2.284V110.836C97.0839 111.442 96.8433 112.023 96.415 112.451C95.9866 112.879 95.4057 113.12 94.7999 113.12ZM17.5639 0.0800003C16.9854 0.0810599 16.4309 0.311626 16.0222 0.721091C15.6135 1.13056 15.3839 1.68546 15.3839 2.264V110.836C15.3839 111.415 15.6135 111.969 16.0222 112.379C16.4309 112.788 16.9854 113.019 17.5639 113.02H94.7999C95.3788 113.019 95.9337 112.789 96.3431 112.379C96.7524 111.97 96.9829 111.415 96.9839 110.836V2.264C96.9829 1.68509 96.7524 1.1302 96.3431 0.720847C95.9337 0.311496 95.3788 0.0810577 94.7999 0.0800003H17.5639Z" fill="#EBEBEB"/>
<path id="Vector_9" d="M181.324 113.12H104.084C103.479 113.119 102.898 112.878 102.47 112.45C102.042 112.022 101.801 111.441 101.8 110.836V2.264C101.806 1.66205 102.05 1.08683 102.477 0.663037C102.905 0.239243 103.482 0.00101932 104.084 0H181.324C181.925 0.0020818 182.501 0.2409 182.927 0.664691C183.353 1.08848 183.595 1.6631 183.6 2.264V110.836C183.6 111.44 183.361 112.02 182.934 112.448C182.507 112.876 181.928 113.118 181.324 113.12ZM104.084 0.0800003C103.505 0.0810577 102.95 0.311496 102.541 0.720847C102.132 1.1302 101.901 1.68509 101.9 2.264V110.836C101.901 111.415 102.132 111.97 102.541 112.379C102.95 112.789 103.505 113.019 104.084 113.02H181.324C181.903 113.019 182.458 112.789 182.867 112.379C183.277 111.97 183.507 111.415 183.508 110.836V2.264C183.507 1.68509 183.277 1.1302 182.867 0.720847C182.458 0.311496 181.903 0.0810577 181.324 0.0800003H104.084Z" fill="#EBEBEB"/>
<path id="Vector_10" d="M65.7959 4.29999H37.2959V100.984H65.7959V4.29999Z" fill="#FAFAFA"/>
<path id="Vector_11" d="M61.552 4.29999H59.888L49.948 100.984H51.612L61.552 4.29999Z" fill="#F5F5F5"/>
<path id="Vector_12" d="M65.2921 4.672H37.1121V5.524H65.2921V4.672Z" fill="#E0E0E0"/>
<path id="Vector_13" d="M65.2921 100.136H37.1121V101.96H65.2921V100.136Z" fill="#EBEBEB"/>
<path id="Vector_14" d="M64.824 101.88H38.196V101.96H64.824V101.88Z" fill="#EBEBEB"/>
<path id="Vector_15" d="M38.1961 4.672H64.8241V101.88H66.4201V3.476H36.6001V101.88H38.1961V4.672Z" fill="#EBEBEB"/>
<path id="Vector_16" d="M97.512 4.29999H69.012V100.984H97.512V4.29999Z" fill="#FAFAFA"/>
<path id="Vector_17" d="M89.6041 4.29999H80.5201L70.5801 100.984H79.6641L89.6041 4.29999Z" fill="#F5F5F5"/>
<path id="Vector_18" d="M97.8081 4.672H68.8281V5.524H97.8081V4.672Z" fill="#E0E0E0"/>
<path id="Vector_19" d="M97.8081 100.136H68.8281V101.96H97.8081V100.136Z" fill="#EBEBEB"/>
<path id="Vector_20" d="M96.5401 101.88H69.9121V101.96H96.5401V101.88Z" fill="#EBEBEB"/>
<path id="Vector_21" d="M69.9119 4.672H96.5399V101.88H98.1319V3.476H68.3159V101.88H69.9119V4.672Z" fill="#EBEBEB"/>
<path id="Vector_22" d="M128.424 4.29999H100.724V100.984H128.424V4.29999Z" fill="#FAFAFA"/>
<path id="Vector_23" d="M116.42 4.29999H114.756L104.816 100.984H106.48L116.42 4.29999Z" fill="#F5F5F5"/>
<path id="Vector_24" d="M128.724 4.672H100.544V5.524H128.724V4.672Z" fill="#E0E0E0"/>
<path id="Vector_25" d="M128.724 100.136H100.544V101.96H128.724V100.136Z" fill="#EBEBEB"/>
<path id="Vector_26" d="M128.256 101.88H101.628V101.96H128.256V101.88Z" fill="#EBEBEB"/>
<path id="Vector_27" d="M101.628 4.672H128.252V101.88H129.848V3.476H100.032V101.88H101.628V4.672Z" fill="#EBEBEB"/>
<path id="Vector_28" d="M160.94 4.29999H132.44V100.984H160.94V4.29999Z" fill="#FAFAFA"/>
<path id="Vector_29" d="M158.152 4.29999H149.068L139.124 100.984H148.212L158.152 4.29999Z" fill="#F5F5F5"/>
<path id="Vector_30" d="M160.436 4.672H132.256V5.524H160.436V4.672Z" fill="#E0E0E0"/>
<path id="Vector_31" d="M160.436 100.136H132.256V101.96H160.436V100.136Z" fill="#EBEBEB"/>
<path id="Vector_32" d="M133.34 4.672H159.968V101.88H161.564V3.476H131.748V101.88H133.34V4.672Z" fill="#EBEBEB"/>
<path id="Vector_33" d="M159.968 101.88H133.34V101.96H159.968V101.88Z" fill="#EBEBEB"/>
<path id="Vector_34" d="M58.976 78.744H46.604V100.14H58.976V78.744Z" fill="#EBEBEB"/>
<path id="Vector_35" d="M56.6 75.752V81.12H55.628H49.956H48.98V75.752H56.6Z" fill="#EBEBEB"/>
<path id="Vector_36" d="M56.6001 81.12H58.1841V79.536H56.6001V81.12Z" fill="#FAFAFA"/>
<path id="Vector_37" d="M53.5361 81.12H55.1201V79.536H53.5361V81.12Z" fill="#FAFAFA"/>
<path id="Vector_38" d="M50.468 81.12H52.052V79.536H50.468V81.12Z" fill="#FAFAFA"/>
<path id="Vector_39" d="M47.3999 81.12H48.9839V79.536H47.3999V81.12Z" fill="#F0F0F0"/>
<path id="Vector_40" d="M56.6001 83.996H58.1841V82.412H56.6001V83.996Z" fill="#F0F0F0"/>
<path id="Vector_41" d="M53.5361 83.996H55.1201V82.412H53.5361V83.996Z" fill="#F0F0F0"/>
<path id="Vector_42" d="M50.468 83.996H52.052V82.412H50.468V83.996Z" fill="#FAFAFA"/>
<path id="Vector_43" d="M47.3999 83.996H48.9839V82.412H47.3999V83.996Z" fill="#FAFAFA"/>
<path id="Vector_44" d="M56.6001 86.876H58.1841V85.292H56.6001V86.876Z" fill="#F0F0F0"/>
<path id="Vector_45" d="M53.5361 86.876H55.1201V85.292H53.5361V86.876Z" fill="#FAFAFA"/>
<path id="Vector_46" d="M50.468 86.876H52.052V85.292H50.468V86.876Z" fill="#FAFAFA"/>
<path id="Vector_47" d="M53.5361 78.632H55.1201V77.048H53.5361V78.632Z" fill="#FAFAFA"/>
<path id="Vector_48" d="M50.468 78.632H52.052V77.048H50.468V78.632Z" fill="#F0F0F0"/>
<path id="Vector_49" d="M47.3999 86.876H48.9839V85.292H47.3999V86.876Z" fill="#F0F0F0"/>
<path id="Vector_50" d="M56.6001 89.756H58.1841V88.172H56.6001V89.756Z" fill="#FAFAFA"/>
<path id="Vector_51" d="M53.5361 89.756H55.1201V88.172H53.5361V89.756Z" fill="#F0F0F0"/>
<path id="Vector_52" d="M50.468 89.756H52.052V88.172H50.468V89.756Z" fill="#F0F0F0"/>
<path id="Vector_53" d="M47.3999 89.756H48.9839V88.172H47.3999V89.756Z" fill="#FAFAFA"/>
<path id="Vector_54" d="M56.6001 92.636H58.1841V91.052H56.6001V92.636Z" fill="#F0F0F0"/>
<path id="Vector_55" d="M53.5361 92.636H55.1201V91.052H53.5361V92.636Z" fill="#FAFAFA"/>
<path id="Vector_56" d="M50.468 92.636H52.052V91.052H50.468V92.636Z" fill="#FAFAFA"/>
<path id="Vector_57" d="M47.3999 92.636H48.9839V91.052H47.3999V92.636Z" fill="#F0F0F0"/>
<path id="Vector_58" d="M56.6001 95.512H58.1841V93.928H56.6001V95.512Z" fill="#F0F0F0"/>
<path id="Vector_59" d="M53.5361 95.512H55.1201V93.928H53.5361V95.512Z" fill="#FAFAFA"/>
<path id="Vector_60" d="M50.468 95.512H52.052V93.928H50.468V95.512Z" fill="#F0F0F0"/>
<path id="Vector_61" d="M47.3999 95.512H48.9839V93.928H47.3999V95.512Z" fill="#FAFAFA"/>
<path id="Vector_62" d="M56.6001 98.392H58.1841V96.808H56.6001V98.392Z" fill="#FAFAFA"/>
<path id="Vector_63" d="M53.5361 98.392H55.1201V96.808H53.5361V98.392Z" fill="#FAFAFA"/>
<path id="Vector_64" d="M50.468 98.392H52.052V96.808H50.468V98.392Z" fill="#F0F0F0"/>
<path id="Vector_65" d="M47.3999 98.392H48.9839V96.808H47.3999V98.392Z" fill="#F0F0F0"/>
<path id="Vector_66" d="M146.136 86.536H135.052V100.136H146.136V86.536Z" fill="#F0F0F0"/>
<path id="Vector_67" d="M136.016 88.048H138.592H139.304H140.012V89.464H139.304H138.592H136.016V88.048Z" fill="#E6E6E6"/>
<path id="Vector_68" d="M136.016 90.796H138.592H139.304H140.012V92.216H139.304H138.592H136.016V90.796Z" fill="#FAFAFA"/>
<path id="Vector_69" d="M136.016 93.544H138.592H139.304H140.012V94.964H139.304H138.592H136.016V93.544Z" fill="#E6E6E6"/>
<path id="Vector_70" d="M136.016 96.292H138.592H139.688H140.012V97.712H139.688H138.592H136.016V96.292Z" fill="#FAFAFA"/>
<path id="Vector_71" d="M141.172 88.048H143.752H144.46H145.168V89.464H144.46H143.752H141.172V88.048Z" fill="#FAFAFA"/>
<path id="Vector_72" d="M141.172 90.796H143.752H144.752H145.168V92.216H144.752H143.752H141.172V90.796Z" fill="#FAFAFA"/>
<path id="Vector_73" d="M141.172 93.544H143.752H144.46H145.168V94.964H144.46H143.752H141.172V93.544Z" fill="#E6E6E6"/>
<path id="Vector_74" d="M141.172 96.292H143.752H144.46H145.168V97.712H144.46H143.752H141.172V96.292Z" fill="#FAFAFA"/>
<path id="Vector_75" d="M92.7241 91.688H82.6521V100.14H92.7241V91.688Z" fill="#F0F0F0"/>
<path id="Vector_76" d="M90.7921 94.032H92.0801V92.744H90.7921V94.032Z" fill="#FAFAFA"/>
<path id="Vector_77" d="M88.296 94.032H89.584V92.744H88.296V94.032Z" fill="#FAFAFA"/>
<path id="Vector_78" d="M85.796 94.032H87.084V92.744H85.796V94.032Z" fill="#FAFAFA"/>
<path id="Vector_79" d="M83.2999 94.032H84.5879V92.744H83.2999V94.032Z" fill="#FAFAFA"/>
<path id="Vector_80" d="M90.7921 96.372H92.0801V95.084H90.7921V96.372Z" fill="#FAFAFA"/>
<path id="Vector_81" d="M88.296 96.372H89.584V95.084H88.296V96.372Z" fill="#FAFAFA"/>
<path id="Vector_82" d="M85.796 96.372H87.084V95.084H85.796V96.372Z" fill="#FAFAFA"/>
<path id="Vector_83" d="M83.2999 96.372H84.5879V95.084H83.2999V96.372Z" fill="#E6E6E6"/>
<path id="Vector_84" d="M90.7921 98.716H92.0801V97.428H90.7921V98.716Z" fill="#E6E6E6"/>
<path id="Vector_85" d="M88.296 98.716H89.584V97.428H88.296V98.716Z" fill="#E6E6E6"/>
<path id="Vector_86" d="M85.796 98.716H87.084V97.428H85.796V98.716Z" fill="#FAFAFA"/>
<path id="Vector_87" d="M83.2999 98.716H84.5879V97.428H83.2999V98.716Z" fill="#E6E6E6"/>
<path id="Vector_88" d="M81.2881 85.44H71.2161V100.14H81.2881V85.44Z" fill="#F0F0F0"/>
<path id="Vector_89" d="M80.644 86.084H76.856V89.716H80.644V86.084Z" fill="#FAFAFA"/>
<path id="Vector_90" d="M75.6481 86.084H71.8601V89.716H75.6481V86.084Z" fill="#FAFAFA"/>
<path id="Vector_91" d="M80.644 90.768H76.856V94.4H80.644V90.768Z" fill="#FAFAFA"/>
<path id="Vector_92" d="M75.6481 90.768H71.8601V94.4H75.6481V90.768Z" fill="#FAFAFA"/>
<path id="Vector_93" d="M80.644 95.452H76.856V99.084H80.644V95.452Z" fill="#FAFAFA"/>
<path id="Vector_94" d="M75.6481 95.452H71.8601V99.084H75.6481V95.452Z" fill="#FAFAFA"/>
</g>
<g id="Shadow">
<path id="path" d="M100 149.024C142.833 149.024 177.556 146.997 177.556 144.496C177.556 141.995 142.833 139.968 100 139.968C57.1671 139.968 22.4441 141.995 22.4441 144.496C22.4441 146.997 57.1671 149.024 100 149.024Z" fill="#F5F5F5"/>
</g>
<g id="Sheet">
<path id="Vector_95" d="M177.828 9.84399V97.94L167.228 108.54H105.864V9.84399H177.828Z" fill="#7A2D93"/>
<path id="Vector_96" opacity="0.8" d="M177.828 9.84399V97.94L167.228 108.54H105.864V9.84399H177.828Z" fill="white"/>
<path id="Vector_97" opacity="0.2" d="M167.228 108.54V98.252H177.828L167.436 108.644" fill="black"/>
<path id="Vector_98" opacity="0.1" d="M133.096 18.4H113.248C112.969 18.4 112.701 18.2892 112.504 18.0919C112.307 17.8946 112.196 17.627 112.196 17.348C112.196 17.2095 112.222 17.0723 112.275 16.9442C112.328 16.8161 112.405 16.6996 112.503 16.6015C112.601 16.5034 112.717 16.4256 112.845 16.3725C112.972 16.3193 113.11 16.292 113.248 16.292H133.096C133.375 16.2931 133.643 16.4048 133.84 16.6027C134.037 16.8006 134.148 17.0686 134.148 17.348C134.148 17.627 134.037 17.8946 133.84 18.0919C133.643 18.2892 133.375 18.4 133.096 18.4Z" fill="black"/>
<path id="Vector_99" opacity="0.1" d="M169.096 26.936H121.248C121.11 26.936 120.972 26.9086 120.845 26.8555C120.717 26.8024 120.601 26.7246 120.503 26.6265C120.405 26.5283 120.328 26.4119 120.275 26.2838C120.222 26.1557 120.196 26.0185 120.196 25.88C120.196 25.601 120.307 25.3334 120.504 25.1361C120.701 24.9388 120.969 24.828 121.248 24.828H169.096C169.375 24.828 169.643 24.9388 169.84 25.1361C170.037 25.3334 170.148 25.601 170.148 25.88C170.148 26.1594 170.037 26.4274 169.84 26.6253C169.643 26.8232 169.375 26.9349 169.096 26.936Z" fill="black"/>
<path id="Vector_100" opacity="0.1" d="M169.096 31.084H113.248C112.969 31.084 112.701 30.9732 112.504 30.7759C112.307 30.5786 112.196 30.311 112.196 30.032C112.196 29.8935 112.222 29.7563 112.275 29.6282C112.328 29.5001 112.405 29.3836 112.503 29.2855C112.601 29.1874 112.717 29.1096 112.845 29.0565C112.972 29.0033 113.11 28.976 113.248 28.976H169.096C169.375 28.9771 169.643 29.0888 169.84 29.2867C170.037 29.4846 170.148 29.7526 170.148 30.032C170.148 30.311 170.037 30.5786 169.84 30.7759C169.643 30.9732 169.375 31.084 169.096 31.084Z" fill="black"/>
<path id="Vector_101" opacity="0.1" d="M169.096 35.772H113.248C113.11 35.772 112.972 35.7447 112.845 35.6915C112.717 35.6384 112.601 35.5606 112.503 35.4625C112.405 35.3644 112.328 35.2479 112.275 35.1198C112.222 34.9917 112.196 34.8545 112.196 34.716C112.196 34.437 112.307 34.1694 112.504 33.9721C112.701 33.7748 112.969 33.664 113.248 33.664H169.096C169.375 33.664 169.643 33.7748 169.84 33.9721C170.037 34.1694 170.148 34.437 170.148 34.716C170.148 34.9954 170.037 35.2634 169.84 35.4613C169.643 35.6592 169.375 35.7709 169.096 35.772Z" fill="black"/>
<path id="Vector_102" opacity="0.1" d="M169.096 40.456H113.248C112.969 40.456 112.701 40.3452 112.504 40.1479C112.307 39.9506 112.196 39.683 112.196 39.404C112.196 39.125 112.307 38.8574 112.504 38.6601C112.701 38.4628 112.969 38.352 113.248 38.352H169.096C169.375 38.352 169.643 38.4628 169.84 38.6601C170.037 38.8574 170.148 39.125 170.148 39.404C170.148 39.683 170.037 39.9506 169.84 40.1479C169.643 40.3452 169.375 40.456 169.096 40.456Z" fill="black"/>
<path id="Vector_103" opacity="0.1" d="M169.096 45.144H113.248C112.969 45.144 112.701 45.0332 112.504 44.8359C112.307 44.6386 112.196 44.371 112.196 44.092C112.196 43.9537 112.222 43.8167 112.275 43.6888C112.328 43.5609 112.405 43.4447 112.503 43.3469C112.601 43.2491 112.717 43.1717 112.845 43.119C112.973 43.0663 113.11 43.0395 113.248 43.04H169.096C169.375 43.04 169.643 43.1508 169.84 43.3481C170.037 43.5454 170.148 43.813 170.148 44.092C170.148 44.371 170.037 44.6386 169.84 44.8359C169.643 45.0332 169.375 45.144 169.096 45.144Z" fill="black"/>
<path id="Vector_104" opacity="0.1" d="M169.096 49.832H113.248C112.969 49.832 112.701 49.7212 112.504 49.5239C112.307 49.3266 112.196 49.059 112.196 48.78C112.196 48.6415 112.222 48.5043 112.275 48.3762C112.328 48.2481 112.405 48.1317 112.503 48.0335C112.601 47.9354 112.717 47.8576 112.845 47.8045C112.972 47.7513 113.11 47.724 113.248 47.724H169.096C169.375 47.7251 169.643 47.8368 169.84 48.0347C170.037 48.2326 170.148 48.5006 170.148 48.78C170.148 49.059 170.037 49.3266 169.84 49.5239C169.643 49.7212 169.375 49.832 169.096 49.832Z" fill="black"/>
<path id="Vector_105" opacity="0.1" d="M169.1 52.412H113.248C112.667 52.412 112.196 52.883 112.196 53.464V53.468C112.196 54.049 112.667 54.52 113.248 54.52H169.1C169.681 54.52 170.152 54.049 170.152 53.468V53.464C170.152 52.883 169.681 52.412 169.1 52.412Z" fill="black"/>
<path id="Vector_106" opacity="0.1" d="M169.096 59.2H113.248C112.969 59.2 112.701 59.0892 112.504 58.8919C112.307 58.6946 112.196 58.427 112.196 58.148C112.196 57.869 112.307 57.6014 112.504 57.4041C112.701 57.2068 112.969 57.096 113.248 57.096H169.096C169.375 57.096 169.643 57.2068 169.84 57.4041C170.037 57.6014 170.148 57.869 170.148 58.148C170.148 58.427 170.037 58.6946 169.84 58.8919C169.643 59.0892 169.375 59.2 169.096 59.2Z" fill="black"/>
<path id="Vector_107" opacity="0.1" d="M169.096 63.892H113.248C112.969 63.892 112.701 63.7812 112.504 63.5839C112.307 63.3866 112.196 63.119 112.196 62.84C112.196 62.7017 112.222 62.5647 112.275 62.4368C112.328 62.3089 112.405 62.1927 112.503 62.0949C112.601 61.9972 112.717 61.9197 112.845 61.867C112.973 61.8143 113.11 61.7875 113.248 61.788H169.096C169.375 61.788 169.643 61.8988 169.84 62.0961C170.037 62.2934 170.148 62.561 170.148 62.84C170.148 63.119 170.037 63.3866 169.84 63.5839C169.643 63.7812 169.375 63.892 169.096 63.892Z" fill="black"/>
<path id="Vector_108" opacity="0.1" d="M169.096 68.58H113.248C112.969 68.58 112.701 68.4692 112.504 68.2719C112.307 68.0746 112.196 67.807 112.196 67.528C112.196 67.3895 112.222 67.2523 112.275 67.1242C112.328 66.9961 112.405 66.8796 112.503 66.7815C112.601 66.6834 112.717 66.6056 112.845 66.5524C112.972 66.4993 113.11 66.472 113.248 66.472H169.096C169.375 66.473 169.643 66.5848 169.84 66.7827C170.037 66.9806 170.148 67.2486 170.148 67.528C170.148 67.807 170.037 68.0746 169.84 68.2719C169.643 68.4692 169.375 68.58 169.096 68.58Z" fill="black"/>
<path id="Vector_109" opacity="0.1" d="M169.096 73.268H113.248C113.11 73.268 112.972 73.2407 112.845 73.1875C112.717 73.1344 112.601 73.0566 112.503 72.9585C112.405 72.8603 112.328 72.7439 112.275 72.6158C112.222 72.4877 112.196 72.3505 112.196 72.212C112.196 71.933 112.307 71.6654 112.504 71.4681C112.701 71.2708 112.969 71.16 113.248 71.16H169.096C169.375 71.16 169.643 71.2708 169.84 71.4681C170.037 71.6654 170.148 71.933 170.148 72.212C170.148 72.4914 170.037 72.7594 169.84 72.9573C169.643 73.1552 169.375 73.2669 169.096 73.268Z" fill="black"/>
<path id="Vector_110" opacity="0.1" d="M137.096 77.952H113.248C112.969 77.952 112.701 77.8412 112.504 77.6439C112.307 77.4466 112.196 77.179 112.196 76.9C112.196 76.621 112.307 76.3534 112.504 76.1561C112.701 75.9588 112.969 75.848 113.248 75.848H137.096C137.375 75.848 137.643 75.9588 137.84 76.1561C138.037 76.3534 138.148 76.621 138.148 76.9C138.148 77.179 138.037 77.4466 137.84 77.6439C137.643 77.8412 137.375 77.952 137.096 77.952Z" fill="black"/>
<path id="Vector_111" d="M164.8 31.432L164.724 31.368C164.508 31.204 164.384 31.26 164.284 30.944C164.212 30.716 164.284 30.46 164.2 30.224C164.01 29.8177 163.792 29.4249 163.548 29.048L162.564 27.276C162.344 26.8836 161.978 26.5943 161.546 26.4713C161.113 26.3484 160.649 26.4018 160.256 26.62L151.196 31.668C151.16 31.972 150.908 32.18 150.856 32.468C150.838 32.5531 150.843 32.6414 150.869 32.7242C150.896 32.8069 150.944 32.8813 151.008 32.94C150.906 32.938 150.808 32.9029 150.728 32.84C150.188 32.54 150.044 32.3 149.488 32.604C149.248 32.732 149.012 32.868 148.776 33.004L146.376 34.344L138.856 38.532L130.056 43.444L122.724 47.528C121.724 48.084 120.512 48.572 119.62 49.28C119.868 49.408 119.912 49.604 119.692 49.796L119.292 50.16C119.292 50.26 119.436 50.26 119.528 50.22L120.024 50.008C119.68 50.4455 119.265 50.8227 118.796 51.124C118.01 51.5806 117.164 51.9278 116.284 52.156L116.708 51.624C116.74 51.58 116.78 51.524 116.752 51.472C116.724 51.42 116.672 51.416 116.624 51.412C116.412 51.388 116.2 51.412 116.044 51.256C114.676 52.056 113.244 52.816 111.852 53.592C111.46 53.8117 111.17 54.1779 111.047 54.6105C110.924 55.0431 110.978 55.5068 111.196 55.9L120.332 72.3C120.44 72.4945 120.585 72.6659 120.76 72.8042C120.934 72.9425 121.134 73.045 121.348 73.1059C121.562 73.1669 121.786 73.185 122.007 73.1593C122.228 73.1335 122.442 73.0645 122.636 72.956L125.04 71.6C125.04 71.316 125.264 71 125.096 70.74C125.072 70.7084 125.057 70.6712 125.052 70.632C125.052 70.58 125.1 70.54 125.144 70.512C125.39 70.3555 125.673 70.2647 125.964 70.248C126.064 70.248 126.196 70.292 126.18 70.388C126.18 70.3 126.696 70.116 126.78 70.088C126.82 70.304 126.672 70.536 126.924 70.58C127.176 70.624 127.56 70.18 127.724 70.1L130.124 68.76L137.724 64.532L146.06 59.888L151.6 56.8C151.8 56.684 152.036 56.548 152.228 56.452C152.298 56.0852 152.476 55.7478 152.74 55.484C153.14 55.208 153.772 55.512 154.104 55.12C154.168 55.044 154.208 54.952 154.264 54.872C154.376 54.7419 154.512 54.6346 154.664 54.556C154.761 54.4801 154.878 54.4342 155 54.424C155.12 54.424 155.248 54.524 155.232 54.644C156.056 54.452 156.8 53.896 157.528 53.484C157.792 53.336 160.108 52.248 160.1 52.076C160.068 51.544 160.392 51.088 160.376 50.54C160.376 50.436 160.172 49.74 160.264 49.688C158.184 50.928 156.024 52.056 153.904 53.232C153.832 53.276 153.56 53.368 153.504 53.448C153.504 53.448 153.484 53.484 153.476 53.504L153.416 53.636V53.668C153.33 53.9402 153.229 54.2073 153.112 54.468C153.112 54.504 152.66 55.064 152.624 54.932C152.448 54.288 152.224 54.188 151.732 54.452L151.028 54.852L148.792 56.096L141.26 60.296L132.384 65.24L124.988 69.36L121.888 71.084C121.269 69.964 120.647 68.8453 120.02 67.728L118.82 65.572C118.699 65.2731 118.519 65.0012 118.292 64.772C118.12 64.644 117.828 64.676 117.676 64.56C117.304 64.276 117.036 63.76 116.684 63.428C116.444 63.204 116.08 62.532 116.18 62.16C116.3 62.208 116.42 62.26 116.54 62.296C116.477 62.0497 116.491 61.7901 116.58 61.552C115.38 59.532 114.276 57.42 113.128 55.356L113.052 55.224L115.852 53.664L117.896 52.524C118.316 52.3433 118.718 52.1223 119.096 51.864C119.356 51.64 119.62 51.36 119.896 51.12C120.081 50.9791 120.283 50.8609 120.496 50.768L121.252 50.4C121.291 50.3766 121.335 50.3629 121.38 50.36C121.425 50.3649 121.47 50.3757 121.512 50.392C121.912 50.476 122.904 49.736 123.264 49.536L125.592 48.24L132.616 44.324L141.368 39.452L150.128 34.568L157.176 30.644L160.776 28.644L160.944 28.552L164.836 35.54C165.077 36.011 165.462 36.3924 165.936 36.628C166.096 36.68 166.276 36.792 166.256 36.956C166.236 37.12 165.996 37.256 166.052 37.424C166.108 37.592 166.416 37.528 166.488 37.68C166.56 37.832 166.364 38.08 166.388 38.288C166.471 38.537 166.594 38.7708 166.752 38.98L167.884 41.016C168.516 42.144 169.144 43.276 169.78 44.416L162.86 48.272C162.894 48.2996 162.923 48.3335 162.944 48.372L162.98 48.464C163.118 48.5127 163.251 48.5715 163.38 48.64C163.435 48.6708 163.481 48.7162 163.512 48.7713C163.543 48.8263 163.558 48.8888 163.556 48.952C163.555 49.0144 163.538 49.0755 163.505 49.1289C163.473 49.1823 163.427 49.2262 163.372 49.256L162.948 49.496C162.933 49.5887 162.89 49.6747 162.825 49.7426C162.76 49.8104 162.676 49.857 162.584 49.876C162.535 49.8801 162.485 49.8801 162.436 49.876C162.394 49.9068 162.346 49.9282 162.295 49.9385C162.244 49.9489 162.191 49.948 162.14 49.936C162.05 49.9081 161.973 49.8464 161.927 49.7637C161.881 49.681 161.868 49.5837 161.892 49.492C161.909 49.4508 161.93 49.4119 161.956 49.376C161.926 49.3177 161.912 49.2522 161.916 49.1866C161.92 49.1211 161.943 49.0579 161.98 49.004H161.852C161.78 49.004 161.716 48.964 161.648 48.944C161.288 49.1662 161.008 49.4967 160.848 49.888C160.831 49.9093 160.822 49.9365 160.824 49.964C160.824 50.02 160.912 50.024 160.964 50.048C161.084 50.104 161.056 50.28 160.996 50.396C160.936 50.512 160.864 50.66 160.944 50.764C160.974 50.799 161.008 50.8311 161.044 50.86C161.216 51.056 160.952 51.624 161.372 51.392C161.343 51.2685 161.361 51.1383 161.424 51.028C161.495 50.9166 161.605 50.8354 161.732 50.8C162.043 50.7245 162.361 50.679 162.68 50.664L171.02 46C171.412 45.7803 171.702 45.414 171.825 44.9815C171.948 44.5489 171.894 44.0852 171.676 43.692L171.628 43.608L167.86 36.844L165.684 32.932C165.472 32.56 165.284 32.172 165.052 31.804C164.988 31.6674 164.903 31.5419 164.8 31.432Z" fill="#7A2D93"/>
<path id="Vector_112" d="M126.264 53.532C125.988 53.196 126.072 53.188 126.02 52.828C126.02 52.828 126.02 52.828 126.02 52.804L125.988 52.768L125.94 52.712C125.752 52.796 125.564 52.888 125.376 52.992L121.692 55.044L123.176 57.704C122.968 57.336 123.704 57.444 123.732 57.44C123.81 57.417 123.891 57.4036 123.972 57.4C124.052 57.417 124.122 57.4643 124.168 57.532C124.322 57.801 124.368 58.1185 124.296 58.42C124.252 58.82 124.464 59.22 124.236 59.62C124.432 59.94 126.204 63.164 126.212 63.16L129.896 61.108C130.108 60.988 130.612 60.776 130.736 60.564C130.86 60.352 130.664 60.02 130.884 59.92C130.967 59.8896 131.056 59.8781 131.144 59.8865C131.231 59.8948 131.316 59.9226 131.392 59.968C132.094 59.2733 132.545 58.3652 132.674 57.3864C132.804 56.4075 132.605 55.4134 132.108 54.56C131.072 52.7 128.72 51.592 126.66 52.456C126.516 52.516 126.708 53.16 126.364 53.232C126.43 53.103 126.524 52.9908 126.64 52.904M128.936 59.6L127.22 60.556C127.08 60.304 126.944 60.052 126.8 59.808C126.98 60.112 126.484 60.016 126.38 59.948C126.128 59.78 126.06 59.296 126.052 59.024C126.046 58.5575 125.907 58.1025 125.652 57.712C125.249 56.984 124.849 56.256 124.452 55.528L126.168 54.572C127.768 53.676 129.368 54.048 130.232 55.6C131.096 57.152 130.548 58.716 128.936 59.6Z" fill="#7A2D93"/>
<path id="Vector_113" d="M138.444 46.72C138.531 46.91 138.557 47.1228 138.516 47.328C138.496 47.44 138.316 47.728 138.34 47.8C138.404 47.96 138.468 48.12 138.528 48.28C138.539 48.3062 138.554 48.3305 138.572 48.352C138.603 48.3727 138.639 48.3838 138.676 48.384C139.312 48.44 139.284 48.504 139.324 49.04C139.36 49.5 139.756 49.764 139.98 50.164C140.281 50.6896 140.412 51.2954 140.354 51.8982C140.297 52.501 140.054 53.0713 139.66 53.5307C139.265 53.9901 138.738 54.3161 138.151 54.4639C137.564 54.6117 136.945 54.574 136.38 54.356C136.365 54.3705 136.349 54.3839 136.332 54.396C136.248 54.4383 136.152 54.4497 136.06 54.428C135.852 54.3691 135.664 54.2551 135.515 54.0981C135.367 53.9411 135.263 53.7469 135.216 53.536C135.21 53.5043 135.21 53.4717 135.216 53.44C135.103 53.2999 135.002 53.15 134.916 52.992C134.71 52.6615 134.575 52.2921 134.519 51.907C134.463 51.5218 134.487 51.1292 134.589 50.7538C134.692 50.3783 134.871 50.028 135.115 49.7249C135.359 49.4217 135.663 49.1722 136.008 48.992C136.508 48.7067 137.082 48.5759 137.656 48.616L137.624 48.568C137.28 48.112 138.52 47.928 137.96 47.62C137.724 47.492 137.764 46.912 137.704 46.676C136.795 46.6965 135.906 46.9425 135.116 47.392C132.556 48.82 131.672 51.648 133.016 54.06C133.581 55.0977 134.517 55.8845 135.636 56.264C135.899 56.3786 136.181 56.4437 136.468 56.456C136.796 56.428 136.636 56.456 136.776 56.26C136.916 56.064 136.832 55.98 137.044 55.772C137.256 55.564 137.504 55.44 137.548 55.12C137.548 55.264 137.708 55.368 137.708 55.52C137.708 55.564 137.708 55.608 137.708 55.648C137.717 55.7003 137.74 55.7489 137.776 55.788C137.912 55.972 138.14 56.188 138.144 56.4C138.729 56.3029 139.291 56.0967 139.8 55.792C142.348 54.372 143.252 51.548 141.9 49.128C141.2 47.892 139.884 46.8 138.444 46.72Z" fill="#7A2D93"/>
<path id="Vector_114" d="M146.624 41.152L149.368 46.076L142.592 43.396L141.04 44.264C142.088 46.144 143.2 48.004 144.184 49.92C144.252 49.712 144.412 49.672 144.604 49.644C144.964 49.596 144.952 49.776 145.148 50.132C145.172 50.176 145.2 50.22 145.244 50.228C145.288 50.236 145.376 50.164 145.448 50.172C145.52 50.18 145.548 50.268 145.528 50.336C145.503 50.4026 145.469 50.4658 145.428 50.524C145.312 50.744 145.504 50.884 145.48 51.084C145.48 51.188 145.132 51.612 145.172 51.684L145.572 52.372L147.428 51.34L146.932 50.452H146.84C146.3 50.524 146.54 49.816 146.42 49.524C146.226 49.1104 146.005 48.7095 145.76 48.324L144.668 46.4L150.176 48.568C150.162 48.4098 150.181 48.2504 150.232 48.1C150.276 48.016 150.632 47.86 150.632 47.78C150.653 48.038 150.773 48.2777 150.968 48.448C151.18 48.636 151.18 48.608 151.14 48.94L151.468 49.072L153.012 48.212L148.492 40.104L146.624 41.152Z" fill="#7A2D93"/>
<path id="Vector_115" d="M155.948 44.612L154.9 42.736L158.668 40.636L157.868 39.176L154.104 41.276L153.124 39.512L155.668 38.096C155.776 37.9574 155.912 37.8441 156.068 37.764C156.147 37.7234 156.238 37.7134 156.324 37.736L157.4 37.14C157.4 37.14 156.636 35.776 156.564 35.632C156.196 35.8 156.564 36.264 156.192 36.488C156.268 36.568 156.38 36.852 156.192 36.888C156.084 36.888 156.004 36.752 155.896 36.764C155.788 36.776 155.784 36.828 155.728 36.812C155.711 36.8072 155.695 36.7986 155.682 36.7868C155.669 36.775 155.659 36.7604 155.652 36.744C155.6 36.6234 155.535 36.5092 155.456 36.404C155.204 36.16 152.904 37.692 152.584 37.872L150.444 39.072L154.96 47.18L156.764 46.176L156.8 46.128C156.932 45.96 157.06 45.788 157.2 45.632C157.257 45.578 157.33 45.5437 157.407 45.5343C157.485 45.525 157.564 45.541 157.632 45.58C157.664 45.5968 157.693 45.6199 157.716 45.648L161.24 43.684L160.4 42.176L155.948 44.612Z" fill="#7A2D93"/>
</g>
<g id="Plant">
<path id="Vector_116" d="M160.76 130.884C160.76 130.884 158.128 125.148 161.132 119.488C164.136 113.828 165.012 112.496 163.096 111.34C161.18 110.184 160.296 115.864 160.296 115.864C160.296 115.864 158.696 111.952 160.012 107.864C161.328 103.776 162.184 97.104 160.364 96.388C158.544 95.672 160.016 104.704 158.436 107.784C157.63 105.622 157.11 103.364 156.888 101.068C156.672 97.78 157.012 92.532 155.572 91.184C154.132 89.836 153.216 90.784 154.628 98.024C155.477 102.36 155.947 106.762 156.032 111.18C156.032 111.18 152.908 101.66 150.832 101.384C148.756 101.108 148.74 104.184 150.536 106.86C152.332 109.536 155.772 114.32 156.336 116.8C156.336 116.8 152.912 109.64 149.828 111.832C146.744 114.024 152.512 118.356 155.08 119.92C157.648 121.484 159.436 131.28 159.436 131.28L160.76 130.884Z" fill="#7A2D93"/>
<path id="Vector_117" opacity="0.2" d="M160.76 130.884C160.76 130.884 158.128 125.148 161.132 119.488C164.136 113.828 165.012 112.496 163.096 111.34C161.18 110.184 160.296 115.864 160.296 115.864C160.296 115.864 158.696 111.952 160.012 107.864C161.328 103.776 162.184 97.104 160.364 96.388C158.544 95.672 160.016 104.704 158.436 107.784C157.63 105.622 157.11 103.364 156.888 101.068C156.672 97.78 157.012 92.532 155.572 91.184C154.132 89.836 153.216 90.784 154.628 98.024C155.477 102.36 155.947 106.762 156.032 111.18C156.032 111.18 152.908 101.66 150.832 101.384C148.756 101.108 148.74 104.184 150.536 106.86C152.332 109.536 155.772 114.32 156.336 116.8C156.336 116.8 152.912 109.64 149.828 111.832C146.744 114.024 152.512 118.356 155.08 119.92C157.648 121.484 159.436 131.28 159.436 131.28L160.76 130.884Z" fill="black"/>
<path id="Vector_118" d="M158.68 133.24C158.68 133.24 161.244 127.46 158.172 121.848C155.1 116.236 154.208 114.916 156.112 113.728C158.016 112.54 158.96 118.212 158.96 118.212C158.96 118.212 160.528 114.28 159.148 110.212C157.768 106.144 156.848 99.484 158.66 98.744C160.472 98.004 159.108 107.056 160.724 110.108C161.504 107.936 161.996 105.672 162.188 103.372C162.368 100.08 161.964 94.836 163.388 93.468C164.812 92.1 165.744 93.02 164.416 100.296C163.62 104.642 163.204 109.05 163.172 113.468C163.172 113.468 166.18 103.904 168.272 103.596C170.364 103.288 170.396 106.368 168.636 109.068C166.876 111.768 163.476 116.608 162.936 119.068C162.936 119.068 166.276 111.868 169.384 114.008C172.492 116.148 166.78 120.568 164.232 122.168C161.684 123.768 160 133.6 160 133.6L158.68 133.24Z" fill="#7A2D93"/>
<path id="Vector_119" d="M170.496 129.12H149.336L151.048 144.264H168.784L170.496 129.12Z" fill="#263238"/>
</g>
<g id="speech-bubble">
<path id="Vector_120" d="M62.252 33.9H48.288C47.7502 33.9 47.2343 34.1137 46.854 34.494C46.4737 34.8743 46.26 35.3901 46.26 35.928V49.504C46.26 50.0419 46.4737 50.5577 46.854 50.938C47.2343 51.3183 47.7502 51.532 48.288 51.532H52.756L49.748 55.62L54.948 51.532H62.248C62.7859 51.532 63.3017 51.3183 63.682 50.938C64.0623 50.5577 64.276 50.0419 64.276 49.504V35.928C64.276 35.3908 64.0629 34.8756 63.6834 34.4954C63.304 34.1152 62.7892 33.9011 62.252 33.9Z" fill="#7A2D93"/>
<path id="Vector_121" opacity="0.6" d="M62.252 33.9H48.288C47.7502 33.9 47.2343 34.1137 46.854 34.494C46.4737 34.8743 46.26 35.3901 46.26 35.928V49.504C46.26 50.0419 46.4737 50.5577 46.854 50.938C47.2343 51.3183 47.7502 51.532 48.288 51.532H52.756L49.748 55.62L54.948 51.532H62.248C62.7859 51.532 63.3017 51.3183 63.682 50.938C64.0623 50.5577 64.276 50.0419 64.276 49.504V35.928C64.276 35.3908 64.0629 34.8756 63.6834 34.4954C63.304 34.1152 62.7892 33.9011 62.252 33.9Z" fill="white"/>
<path id="Vector_122" d="M55.2721 49.056C58.7736 49.056 61.6121 46.2175 61.6121 42.716C61.6121 39.2145 58.7736 36.376 55.2721 36.376C51.7706 36.376 48.9321 39.2145 48.9321 42.716C48.9321 46.2175 51.7706 49.056 55.2721 49.056Z" fill="#7A2D93"/>
<path id="Vector_123" opacity="0.2" d="M60.5607 43.9606C61.2503 41.0387 59.4407 38.1109 56.5188 37.4213C53.5968 36.7316 50.6691 38.5413 49.9794 41.4632C49.2898 44.3852 51.0994 47.3129 54.0213 48.0026C56.9433 48.6922 59.8711 46.8826 60.5607 43.9606Z" fill="black"/>
<path id="Vector_124" d="M54.596 45.312C54.5224 45.3136 54.4491 45.3006 54.3805 45.2739C54.3118 45.2471 54.2492 45.207 54.196 45.156L51.888 42.896C51.7819 42.7931 51.7211 42.6523 51.7188 42.5045C51.7166 42.3567 51.7731 42.2141 51.876 42.108C51.9789 42.0019 52.1198 41.941 52.2675 41.9388C52.4153 41.9365 52.5579 41.9931 52.664 42.096L54.556 43.948L57.828 40.296C57.9283 40.1949 58.0637 40.1361 58.206 40.1319C58.3484 40.1276 58.487 40.1781 58.5932 40.273C58.6994 40.368 58.7651 40.5 58.7768 40.642C58.7885 40.784 58.7453 40.925 58.656 41.036L54.996 45.12C54.9455 45.1765 54.884 45.2219 54.8152 45.2536C54.7463 45.2853 54.6717 45.3024 54.596 45.304V45.312Z" fill="white"/>
</g>
<g id="Character">
<path id="Vector_125" d="M37.16 135.168L48.684 134.032V121.036H53.252V134.028L64.824 135.168C65.3785 135.222 65.8931 135.48 66.2673 135.893C66.6416 136.306 66.8486 136.843 66.848 137.4V139.132H35.136V137.4C35.1354 136.843 35.3424 136.306 35.7166 135.893C36.0909 135.48 36.6055 135.222 37.16 135.168Z" fill="#263238"/>
<path id="Vector_126" opacity="0.1" d="M37.16 135.168L48.684 134.032V121.036H53.252V134.028L64.824 135.168C65.3785 135.222 65.8931 135.48 66.2673 135.893C66.6416 136.306 66.8486 136.843 66.848 137.4V139.132H35.136V137.4C35.1354 136.843 35.3424 136.306 35.7166 135.893C36.0909 135.48 36.6055 135.222 37.16 135.168Z" fill="white"/>
<path id="Vector_127" d="M65.6279 144.264C67.2781 144.264 68.6159 142.926 68.6159 141.276C68.6159 139.626 67.2781 138.288 65.6279 138.288C63.9777 138.288 62.6399 139.626 62.6399 141.276C62.6399 142.926 63.9777 144.264 65.6279 144.264Z" fill="#263238"/>
<path id="Vector_128" d="M36.3559 144.264C38.0061 144.264 39.3439 142.926 39.3439 141.276C39.3439 139.626 38.0061 138.288 36.3559 138.288C34.7057 138.288 33.3679 139.626 33.3679 141.276C33.3679 142.926 34.7057 144.264 36.3559 144.264Z" fill="#263238"/>
<path id="Vector_129" d="M52.3839 124.516H49.5359C49.0978 124.516 48.6776 124.342 48.3677 124.032C48.0579 123.722 47.8839 123.302 47.8839 122.864V110.088H54.0359V122.864C54.0359 123.302 53.8618 123.722 53.552 124.032C53.2422 124.342 52.822 124.516 52.3839 124.516Z" fill="#263238"/>
<path id="Vector_130" opacity="0.2" d="M52.3839 124.516H49.5359C49.0978 124.516 48.6776 124.342 48.3677 124.032C48.0579 123.722 47.8839 123.302 47.8839 122.864V110.088H54.0359V122.864C54.0359 123.302 53.8618 123.722 53.552 124.032C53.2422 124.342 52.822 124.516 52.3839 124.516Z" fill="white"/>
<path id="Vector_131" d="M35.016 85.048C35.016 85.048 38.44 106.4 45.2 110.092H38.328C38.328 110.092 31.528 102.812 29.48 85.048H35.016Z" fill="#263238"/>
<path id="Vector_132" opacity="0.1" d="M35.016 85.048C35.016 85.048 38.44 106.4 45.2 110.092H38.328C38.328 110.092 31.528 102.812 29.48 85.048H35.016Z" fill="white"/>
<path id="Vector_133" d="M38 107.072H64.768C65.2984 107.072 65.8071 107.283 66.1822 107.658C66.5573 108.033 66.768 108.542 66.768 109.072V111.748H36V109.072C36 108.542 36.2107 108.033 36.5858 107.658C36.9609 107.283 37.4696 107.072 38 107.072Z" fill="#7A2D93"/>
<path id="Vector_134" d="M67.2321 109.408H35.5081C35.0641 109.408 34.7041 109.768 34.7041 110.212V110.94C34.7041 111.384 35.0641 111.744 35.5081 111.744H67.2321C67.6761 111.744 68.0361 111.384 68.0361 110.94V110.212C68.0361 109.768 67.6761 109.408 67.2321 109.408Z" fill="#263238"/>
<path id="Vector_135" opacity="0.6" d="M67.2321 109.408H35.5081C35.0641 109.408 34.7041 109.768 34.7041 110.212V110.94C34.7041 111.384 35.0641 111.744 35.5081 111.744H67.2321C67.6761 111.744 68.0361 111.384 68.0361 110.94V110.212C68.0361 109.768 67.6761 109.408 67.2321 109.408Z" fill="white"/>
<path id="Vector_136" d="M28.668 89.392H39.664C42.888 89.392 44.98 86.808 44.34 83.62L43.484 79.364C42.844 76.164 39.712 73.596 36.492 73.596H25.496C22.272 73.596 20.18 76.18 20.82 79.364L21.676 83.62C22.316 86.8 25.444 89.392 28.668 89.392Z" fill="#7A2D93"/>
<path id="Vector_137" d="M87.0159 125.156L84.4959 126.144L82.6839 122.728L81.0359 119.62L83.8279 117.948L85.5159 121.76L87.0159 125.156Z" fill="#E4897B"/>
<path id="Vector_138" opacity="0.2" d="M85.5159 121.76L82.6839 122.728L81.0359 119.62L83.8279 117.948L85.5159 121.76Z" fill="black"/>
<path id="Vector_139" d="M84.992 119.896L81.564 121.736C81.564 121.736 68.608 98.956 66.616 99.148C64.624 99.34 45.724 111.38 39.96 106.932C34.196 102.484 39.804 89.092 39.804 89.092C39.804 89.092 51.728 85.684 53.004 88.292C53.3403 89.0729 53.6263 89.8745 53.86 90.692C54.112 91.512 54.304 92.204 54.304 92.204C54.668 92.056 66.444 87.228 71.7 89.804C77.064 92.452 84.992 119.896 84.992 119.896Z" fill="#263238"/>
<path id="Vector_140" opacity="0.3" d="M84.992 119.896L81.564 121.736C81.564 121.736 68.608 98.956 66.616 99.148C64.624 99.34 45.724 111.38 39.96 106.932C34.196 102.484 39.804 89.092 39.804 89.092C39.804 89.092 51.728 85.684 53.004 88.292C53.3403 89.0729 53.6263 89.8745 53.86 90.692C54.112 91.512 54.304 92.204 54.304 92.204C54.668 92.056 66.444 87.228 71.7 89.804C77.064 92.452 84.992 119.896 84.992 119.896Z" fill="white"/>
<path id="Vector_141" d="M66.3679 138.472L63.6799 138.164L63.6639 134.372L63.6599 130.892L66.9119 130.74L66.6239 134.832L66.3679 138.472Z" fill="#E4897B"/>
<path id="Vector_142" opacity="0.2" d="M66.616 134.916L63.656 134.444V130.928L66.908 130.756L66.616 134.916Z" fill="black"/>
<path id="Vector_143" d="M79.8879 120.604L84.9039 118.092L85.4279 120.22L81.6279 122.18L79.8879 120.604Z" fill="#7A2D93"/>
<path id="Vector_144" d="M48.864 106.968C48.864 106.968 49.688 106.876 62.364 104.528C62.364 104.528 62.652 120.736 63.252 132.82L67.156 132.944C67.156 132.944 72.756 106.144 72.096 102.08C71.436 98.016 66.62 97.484 66.62 97.484C66.62 97.484 58.256 104 48.864 106.968Z" fill="#263238"/>
<path id="Vector_145" opacity="0.4" d="M48.864 106.968C48.864 106.968 49.688 106.876 62.364 104.528C62.364 104.528 62.652 120.736 63.252 132.82L67.156 132.944C67.156 132.944 72.756 106.144 72.096 102.08C71.436 98.016 66.62 97.484 66.62 97.484C66.62 97.484 58.256 104 48.864 106.968Z" fill="white"/>
<path id="Vector_146" opacity="0.3" d="M48.864 106.968C48.864 106.968 49.688 106.876 62.364 104.528C62.364 104.528 62.652 120.736 63.252 132.82L67.156 132.944C67.156 132.944 72.756 106.144 72.096 102.08C71.436 98.016 66.62 97.484 66.62 97.484C66.62 97.484 58.256 104 48.864 106.968Z" fill="black"/>
<path id="Vector_147" d="M62.5359 131.74L67.8599 131.616L67.1319 133.808L62.8119 133.848L62.5359 131.74Z" fill="#7A2D93"/>
<path id="Vector_148" opacity="0.3" d="M54.3201 92.212L47.4121 94.672C47.4121 94.672 51.0441 91.96 53.8761 90.7C54.1281 91.52 54.3201 92.212 54.3201 92.212Z" fill="black"/>
<path id="Vector_149" d="M39.0039 88.268L39.2599 90.184L52.2079 87.436L51.9079 85.172L39.0039 88.268Z" fill="#263238"/>
<path id="Vector_150" opacity="0.2" d="M39.0039 88.268L39.2599 90.184L52.2079 87.436L51.9079 85.172L39.0039 88.268Z" fill="black"/>
<path id="Vector_151" d="M43.2942 86.8759L42.6492 86.9956L43.2584 90.2795L43.9034 90.1599L43.2942 86.8759Z" fill="#263238"/>
<path id="Vector_152" d="M48.9399 86.0448L46.1147 86.6814L46.5975 88.8237L49.4227 88.187L48.9399 86.0448Z" fill="white"/>
<path id="Vector_153" d="M50.7566 84.707L50.1138 84.825L50.715 88.0982L51.3578 87.9802L50.7566 84.707Z" fill="#263238"/>
<path id="Vector_154" opacity="0.3" d="M43.2942 86.8759L42.6492 86.9956L43.2584 90.2795L43.9034 90.1599L43.2942 86.8759Z" fill="white"/>
<path id="Vector_155" opacity="0.3" d="M50.7566 84.707L50.1138 84.825L50.715 88.0982L51.3578 87.9802L50.7566 84.707Z" fill="white"/>
<path id="Vector_156" d="M92.0239 129.628C91.6034 129.499 91.1627 129.449 90.7239 129.48C90.7239 129.48 89.0959 128.8 87.1239 125.564L85.444 125.784C85.1612 125.826 84.8984 125.955 84.6909 126.152C84.4834 126.348 84.3414 126.604 84.284 126.884C84.2719 126.964 84.2719 127.044 84.284 127.124C84.3563 127.53 84.4552 127.931 84.5799 128.324C85.0107 129.624 85.5196 130.897 86.1039 132.136L86.376 132.024L85.508 129.6C85.22 128.772 86.224 129.472 86.756 130.272C87.288 131.072 88.044 131.848 89.84 131.168C91.928 130.352 92.7559 129.92 92.0239 129.628Z" fill="#263238"/>
<path id="Vector_157" d="M86.7039 124.704C86.7039 124.704 89.3999 128.8 90.7239 129.48C90.7239 129.48 89.2399 130.68 87.2599 128.752C84.7039 126.276 84.2759 127.124 84.2759 127.124C84.2531 126.639 84.2759 126.153 84.3439 125.672C84.5479 124.732 86.7039 124.704 86.7039 124.704Z" fill="#E4897B"/>
<path id="Vector_158" d="M70.4001 143.24C70.0169 143.019 69.5967 142.87 69.1601 142.8C69.1601 142.8 67.7401 141.756 66.6001 138.148L64.9161 137.964C64.6303 137.937 64.3432 137.999 64.0945 138.143C63.8459 138.286 63.6479 138.503 63.5281 138.764C63.4922 138.836 63.4679 138.913 63.4561 138.992C63.4281 139.401 63.4281 139.811 63.4561 140.22C63.5646 141.585 63.7569 142.942 64.0321 144.284L64.3241 144.24L64.0641 141.672C63.9801 140.8 64.7921 141.72 65.1201 142.624C65.4481 143.528 65.9961 144.46 67.9001 144.224C70.1241 143.924 71.0281 143.7 70.4001 143.24Z" fill="#263238"/>
<path id="Vector_159" d="M66.3997 137.2C66.3997 137.2 68.0477 141.82 69.1717 142.8C69.1717 142.8 67.4477 143.6 65.9717 141.272C64.0717 138.26 63.4597 138.984 63.4597 138.984C63.5492 138.508 63.6831 138.042 63.8597 137.592C64.2837 136.712 66.3997 137.2 66.3997 137.2Z" fill="#E4897B"/>
<path id="Vector_160" d="M36.1839 55.6L32.7999 56.28C32.6677 56.3914 32.5115 56.4706 32.3436 56.5116C32.1757 56.5525 32.0005 56.554 31.8319 56.516C30.8239 56.116 29.3719 54.944 29.1879 54.516C28.9159 53.912 29.1879 52.14 29.8999 51.82C30.6119 51.5 33.0639 54.46 33.0639 54.46L36.6999 53.64L36.1839 55.6Z" fill="#E4897B"/>
<path id="Vector_161" d="M46.856 66.848C46.856 66.848 46.548 55.884 45.28 55.416C44.012 54.948 34.48 56.256 34.48 56.256L34.248 53.752C34.248 53.752 45.34 52.044 47.488 53.056C49.636 54.068 50.344 70.408 49.952 73.556L46.856 66.848Z" fill="#7A2D93"/>
<path id="Vector_162" opacity="0.6" d="M46.856 66.848C46.856 66.848 46.548 55.884 45.28 55.416C44.012 54.948 34.48 56.256 34.48 56.256L34.248 53.752C34.248 53.752 45.34 52.044 47.488 53.056C49.636 54.068 50.344 70.408 49.952 73.556L46.856 66.848Z" fill="white"/>
<path id="Vector_163" d="M34.644 56.496L33.98 53.744L34.932 53.4L35.536 56.58L34.644 56.496Z" fill="#7A2D93"/>
<path id="Vector_164" opacity="0.7" d="M34.644 56.496L33.98 53.744L34.932 53.4L35.536 56.58L34.644 56.496Z" fill="white"/>
<path id="Vector_165" d="M46.8 65.48C46.8 65.48 45.948 68.816 41.844 69.88C37.74 70.944 33.2 68.164 33.2 68.164L34.104 76.124L39.128 88.664L51.968 85.316C51.968 85.316 51.2 70.728 46.8 65.48Z" fill="#7A2D93"/>
<path id="Vector_166" opacity="0.7" d="M46.8 65.48C46.8 65.48 45.948 68.816 41.844 69.88C37.74 70.944 33.2 68.164 33.2 68.164L34.104 76.124L39.128 88.664L51.968 85.316C51.968 85.316 51.2 70.728 46.8 65.48Z" fill="white"/>
<path id="Vector_167" opacity="0.6" d="M49.0316 78.7078L50.5346 78.2336C50.701 78.1811 50.7934 78.0036 50.7409 77.8372L49.8455 74.9991C49.793 74.8327 49.6155 74.7403 49.449 74.7928L47.9461 75.267C47.7796 75.3195 47.6873 75.497 47.7398 75.6634L48.6352 78.5015C48.6877 78.668 48.8652 78.7603 49.0316 78.7078Z" fill="#7A2D93"/>
<path id="Vector_168" opacity="0.2" d="M48.7254 77.8426L50.4343 77.3035L49.6966 74.9651L47.9876 75.5042L48.7254 77.8426Z" fill="black"/>
<path id="Vector_169" d="M48.6679 74.1197L48.2903 74.2388L48.7247 75.6159L49.1024 75.4968L48.6679 74.1197Z" fill="#263238"/>
<path id="Vector_170" d="M38.0721 53.02C34.9081 53.02 32.8201 56.372 33.5601 61.688C34.3001 67.004 37.2641 68.536 37.2641 68.536L37.0761 67.252C40.3665 67.9987 43.7589 68.188 47.1121 67.812C47.1121 67.812 45.5841 63.476 46.0801 59.048C46.0801 59.048 47.0841 53.012 38.0721 53.02Z" fill="#263238"/>
<path id="Vector_171" opacity="0.2" d="M44.3559 68.8L45.6479 73.6L43.3759 71.868C43.3759 71.868 45.5879 76.924 46.1759 79.868C46.1759 79.868 44.2639 74.856 42.6159 72.108L41.6519 74.86L37.7759 70.912C37.7759 70.912 41.1999 68.288 44.3559 68.8Z" fill="black"/>
<path id="Vector_172" d="M42.4681 70.348L38.5241 70.468C40.2721 68.232 37.1121 64.336 37.1121 64.336L41.0081 65.18C41.9361 69.036 43.5401 69.152 43.5401 69.152L42.4681 70.348Z" fill="#E4897B"/>
<path id="Vector_173" opacity="0.2" d="M42.0961 67.948C40.5911 67.8221 39.1914 67.1251 38.1841 66C37.8728 65.422 37.5143 64.8708 37.1121 64.352L41.0081 65.2C41.2144 66.1704 41.5822 67.0993 42.0961 67.948Z" fill="black"/>
<path id="Vector_174" d="M41.0039 54.648C44.3999 54.932 45.3439 56.84 45.2999 60.364C45.2479 64.764 44.0159 67.792 39.8479 66.504C34.1839 64.756 35.3599 54.176 41.0039 54.648Z" fill="#E4897B"/>
<path id="Vector_175" d="M43.12 60C43.3499 60.5304 43.6427 61.0313 43.992 61.492C43.8801 61.6232 43.7345 61.7212 43.5709 61.7755C43.4074 61.8298 43.232 61.8383 43.064 61.8L43.12 60Z" fill="#DE5753"/>
<path id="Vector_176" d="M40.8201 59.432L41.5561 59.192C41.5561 59.192 41.1641 59.776 40.8201 59.432Z" fill="#263238"/>
<path id="Vector_177" d="M41.0759 59.348C40.939 59.2807 40.7824 59.2656 40.6352 59.3053C40.488 59.3451 40.3603 59.437 40.2759 59.564C40.4015 59.5067 40.5379 59.4771 40.6759 59.4771C40.8139 59.4771 40.9503 59.5067 41.0759 59.564V59.348Z" fill="#263238"/>
<path id="Vector_178" d="M39.7081 57.728C39.6702 57.727 39.6343 57.7112 39.6081 57.684C39.5941 57.6709 39.583 57.6551 39.5755 57.6376C39.5679 57.62 39.564 57.6011 39.564 57.582C39.564 57.5629 39.5679 57.544 39.5755 57.5264C39.583 57.5089 39.5941 57.4931 39.6081 57.48C39.8311 57.2849 40.0965 57.1443 40.3832 57.0693C40.6699 56.9944 40.9701 56.9871 41.2601 57.048C41.2977 57.0559 41.3307 57.0785 41.3517 57.1108C41.3727 57.1431 41.38 57.1823 41.3721 57.22C41.3641 57.2577 41.3415 57.2906 41.3093 57.3116C41.277 57.3326 41.2377 57.3399 41.2001 57.332C40.958 57.2826 40.708 57.2882 40.4684 57.3484C40.2289 57.4087 40.0059 57.522 39.8161 57.68C39.8027 57.6954 39.786 57.7077 39.7674 57.7159C39.7487 57.7242 39.7285 57.7284 39.7081 57.728Z" fill="#263238"/>
<path id="Vector_179" d="M45.036 57.788C45.0043 57.7892 44.9732 57.7793 44.948 57.76C44.7879 57.6133 44.5972 57.5041 44.3896 57.4405C44.182 57.3768 43.9628 57.3602 43.748 57.392C43.7296 57.397 43.7104 57.3983 43.6915 57.3959C43.6726 57.3934 43.6544 57.3873 43.6379 57.3779C43.6214 57.3684 43.6069 57.3557 43.5952 57.3407C43.5836 57.3256 43.575 57.3084 43.57 57.29C43.565 57.2716 43.5637 57.2524 43.5661 57.2335C43.5685 57.2146 43.5747 57.1964 43.5841 57.1799C43.5936 57.1633 43.6062 57.1488 43.6213 57.1372C43.6364 57.1255 43.6536 57.117 43.672 57.112C43.9313 57.0661 44.1976 57.0801 44.4506 57.1529C44.7037 57.2257 44.9367 57.3554 45.132 57.532C45.1616 57.5563 45.1807 57.5911 45.1852 57.6291C45.1896 57.6672 45.1792 57.7055 45.156 57.736C45.1415 57.7535 45.1231 57.7674 45.1022 57.7764C45.0814 57.7854 45.0587 57.7894 45.036 57.788Z" fill="#263238"/>
<path id="Vector_180" d="M36.8 60.064C36.8 60.064 38.62 57.408 38.56 55.232C38.56 55.232 45.524 53.04 45.288 59.904C45.288 59.904 46.448 53.904 40.62 53.268C34.792 52.632 34.116 61.2 36.92 64C36.92 64 35.684 61.728 36.8 60.064Z" fill="#263238"/>
<path id="Vector_181" d="M37.3081 60.828C37.3081 60.4319 37.151 60.052 36.8713 59.7716C36.5916 59.4911 36.2121 59.3331 35.8161 59.332C34.7521 59.36 34.0721 61.48 36.6481 62.22C37.0161 62.324 37.2601 61.976 37.3081 60.828Z" fill="#E4897B"/>
<path id="Vector_182" d="M43.092 62.8C42.8429 63.1346 42.6196 63.4876 42.424 63.856C42.356 63.832 42.284 63.812 42.216 63.784C41.276 63.452 40.948 62.984 40.872 62.584C40.8362 62.3808 40.8513 62.1719 40.916 61.976C40.9493 61.8633 40.9977 61.7557 41.06 61.656C41.5487 62.1205 42.133 62.4727 42.772 62.688C42.964 62.76 43.092 62.8 43.092 62.8Z" fill="#263238"/>
<path id="Vector_183" d="M42.772 62.68L42.568 62.988C41.68 62.672 41.1 62.332 40.916 61.968C40.9493 61.8553 40.9978 61.7477 41.06 61.648C41.5488 62.1125 42.133 62.4647 42.772 62.68Z" fill="white"/>
<path id="Vector_184" d="M42.2161 63.784C41.2761 63.452 40.9481 62.984 40.8721 62.584C41.2277 62.715 41.5569 62.9087 41.8441 63.156C42.0303 63.3216 42.1603 63.5411 42.2161 63.784Z" fill="#DE5753"/>
<path id="Vector_185" d="M40.912 54.9C40.912 54.9 39.076 60.376 35.564 60C32.052 59.624 38.072 53.008 38.072 53.008C38.072 53.008 43.996 51.316 46.576 54.608C49.156 57.9 45.3 59.896 45.3 59.896C45.3 59.896 45.876 55.6 40.912 54.9Z" fill="#263238"/>
<path id="Vector_186" d="M38.1119 59.56C38.0916 59.559 38.0719 59.5526 38.055 59.5413C38.0381 59.53 38.0246 59.5144 38.0159 59.496C38.0067 59.4705 38.0079 59.4425 38.0191 59.4178C38.0303 59.3932 38.0507 59.3739 38.0759 59.364C40.8759 58.296 40.8119 54.54 40.8119 54.5C40.8107 54.4869 40.8124 54.4737 40.8167 54.4613C40.8211 54.449 40.8281 54.4376 40.8372 54.4282C40.8463 54.4187 40.8573 54.4113 40.8695 54.4064C40.8817 54.4016 40.8948 54.3994 40.9079 54.4C40.9339 54.4008 40.9587 54.4109 40.9778 54.4286C40.9969 54.4462 41.009 54.4702 41.0119 54.496C41.0119 54.536 41.0759 58.432 38.1479 59.552L38.1119 59.56Z" fill="#263238"/>
<path id="Vector_187" d="M44.2681 59.764L45.0041 59.528C45.0041 59.528 44.6081 60.108 44.2681 59.764Z" fill="#263238"/>
<path id="Vector_188" d="M44.5239 59.68C44.3867 59.6122 44.2295 59.5972 44.082 59.6378C43.9345 59.6783 43.8071 59.7716 43.7239 59.9C43.8476 59.8384 43.9831 59.8044 44.1212 59.8002C44.2594 59.7961 44.3967 59.8219 44.5239 59.876V59.68Z" fill="#263238"/>
<path id="Vector_189" d="M39.0801 68.852L42.0521 70.364L42.0041 73.376L37.7561 70.9L39.0801 68.852Z" fill="#7A2D93"/>
<path id="Vector_190" d="M42.5039 68.284L42.6799 70.112L44.6199 72.164L44.3559 68.788L42.5039 68.284Z" fill="#7A2D93"/>
<path id="Vector_191" d="M28.772 47.6L27.532 44.4C27.5546 44.2289 27.5371 44.0549 27.4809 43.8918C27.4247 43.7286 27.3312 43.5808 27.208 43.46C26.344 42.816 24.56 42.232 24.112 42.3C23.46 42.396 22.112 43.576 22.228 44.348C22.344 45.12 26.152 45.596 26.152 45.596L27.416 49.104L28.772 47.6Z" fill="#E4897B"/>
<path id="Vector_192" d="M34.112 76.124C34.112 76.124 36.512 74.216 35.556 70L32.976 58.336L28.544 46.288L26.376 47.384C26.376 47.384 30.016 59.156 30.352 59.952C30.524 60.352 31.208 66.46 32.14 70.552C32.996 74.32 34.112 76.124 34.112 76.124Z" fill="#7A2D93"/>
<path id="Vector_193" opacity="0.6" d="M34.112 76.124C34.112 76.124 36.512 74.216 35.556 70L32.976 58.336L28.544 46.288L26.376 47.384C26.376 47.384 30.016 59.156 30.352 59.952C30.524 60.352 31.208 66.46 32.14 70.552C32.996 74.32 34.112 76.124 34.112 76.124Z" fill="white"/>
<path id="Vector_194" d="M25.9961 47.04L28.5281 45.772L29.0801 46.616L26.1201 47.928L25.9961 47.04Z" fill="#7A2D93"/>
<path id="Vector_195" opacity="0.7" d="M25.9961 47.04L28.5281 45.772L29.0801 46.616L26.1201 47.928L25.9961 47.04Z" fill="white"/>
<path id="Vector_196" opacity="0.6" d="M39.0801 68.852L42.0521 70.364L42.0041 73.376L37.7561 70.9L39.0801 68.852Z" fill="white"/>
<path id="Vector_197" opacity="0.6" d="M42.5039 68.284L42.6799 70.112L44.6199 72.164L44.3559 68.788L42.5039 68.284Z" fill="white"/>
</g>
<g id="Desk">
<path id="Vector_198" d="M126.904 62.564H114.92V71.876H126.904V62.564Z" fill="white"/>
<path id="Vector_199" opacity="0.1" d="M126.904 62.564H123.832V71.876H126.904V62.564Z" fill="black"/>
<path id="Vector_200" d="M114.232 80.1H127.78V63.2H123.416L114.232 67.596V80.1Z" fill="#7A2D93"/>
<path id="Vector_201" opacity="0.2" d="M127.78 63.2H123.416V80.1H127.78V63.2Z" fill="black"/>
<path id="Vector_202" opacity="0.7" d="M121.972 70.928H115.628V73.968H121.972V70.928Z" fill="white"/>
<path id="Vector_203" opacity="0.7" d="M121.972 74.984H115.628V75.42H121.972V74.984Z" fill="white"/>
<path id="Vector_204" opacity="0.7" d="M127.356 76.26H123.832V78.84H127.356V76.26Z" fill="white"/>
<path id="Vector_205" d="M121.812 62.056H109.828V71.876H121.812V62.056Z" fill="white"/>
<path id="Vector_206" opacity="0.1" d="M121.812 62.056H118.74V71.876H121.812V62.056Z" fill="black"/>
<path id="Vector_207" d="M109.14 80.1H122.688V63.2H118.324L109.14 67.596V80.1Z" fill="#7A2D93"/>
<path id="Vector_208" opacity="0.2" d="M122.688 63.2H118.324V80.1H122.688V63.2Z" fill="black"/>
<path id="Vector_209" opacity="0.7" d="M116.88 70.928H110.536V73.968H116.88V70.928Z" fill="white"/>
<path id="Vector_210" opacity="0.7" d="M116.88 74.984H110.536V75.42H116.88V74.984Z" fill="white"/>
<path id="Vector_211" opacity="0.7" d="M122.264 76.26H118.74V78.84H122.264V76.26Z" fill="white"/>
<path id="Vector_212" d="M100.724 144.264H103.176L107.576 82.964H104.324L100.724 144.264Z" fill="#263238"/>
<path id="Vector_213" opacity="0.1" d="M100.724 144.264H103.176L107.36 86.008L107.576 83.064H104.324L104.152 86.008L100.724 144.264Z" fill="white"/>
<path id="Vector_214" opacity="0.2" d="M104.152 85.864H107.36L107.576 83.064H104.324L104.152 85.864Z" fill="black"/>
<path id="Vector_215" d="M82.7401 144.264H85.1921L85.5921 82.964H82.3401L82.7401 144.264Z" fill="#263238"/>
<path id="Vector_216" opacity="0.1" d="M82.3359 83.064L82.4039 92.952L82.7359 144.264H85.1879L85.5239 92.952L85.5879 83.064H82.3359Z" fill="white"/>
<path id="Vector_217" opacity="0.2" d="M82.3359 83.064L82.4039 93.064H85.5239L85.5879 83.064H82.3359Z" fill="black"/>
<path id="Vector_218" d="M56.7241 144.264H59.1761L63.5761 82.964H60.3241L56.7241 144.264Z" fill="#263238"/>
<path id="Vector_219" opacity="0.1" d="M56.7241 144.264H59.1761L63.3641 86.008L63.5761 83.064H60.3241L60.1521 86.008L56.7241 144.264Z" fill="white"/>
<path id="Vector_220" opacity="0.2" d="M60.1521 85.864H63.3641L63.5761 83.064H60.3241L60.1521 85.864Z" fill="black"/>
<path id="Vector_221" d="M128.756 144.264H131.208L127.604 82.964H124.352L128.756 144.264Z" fill="#263238"/>
<path id="Vector_222" opacity="0.1" d="M124.352 83.064L124.572 86.008L128.756 144.264H131.204L127.78 86.008L127.604 83.064H124.352Z" fill="white"/>
<path id="Vector_223" opacity="0.2" d="M127.604 83.064H124.352L124.572 85.864H127.78L127.604 83.064Z" fill="black"/>
<path id="Vector_224" d="M129.32 84.5L58.6161 84.5C58.5026 84.5 58.3903 84.4777 58.2854 84.4342C58.1806 84.3908 58.0854 84.3272 58.0051 84.2469C57.9249 84.1667 57.8613 84.0715 57.8178 83.9666C57.7744 83.8618 57.7521 83.7495 57.7521 83.636V81.432L130.184 81.432V83.636C130.184 83.7495 130.162 83.8618 130.118 83.9666C130.075 84.0715 130.011 84.1667 129.931 84.2469C129.851 84.3272 129.756 84.3908 129.651 84.4342C129.546 84.4777 129.434 84.5 129.32 84.5Z" fill="#7A2D93"/>
<path id="Vector_225" opacity="0.4" d="M129.32 84.5L58.6161 84.5C58.5026 84.5 58.3903 84.4777 58.2854 84.4342C58.1806 84.3908 58.0854 84.3272 58.0051 84.2469C57.9249 84.1667 57.8613 84.0715 57.8178 83.9666C57.7744 83.8618 57.7521 83.7495 57.7521 83.636V81.432L130.184 81.432V83.636C130.184 83.7495 130.162 83.8618 130.118 83.9666C130.075 84.0715 130.011 84.1667 129.931 84.2469C129.851 84.3272 129.756 84.3908 129.651 84.4342C129.546 84.4777 129.434 84.5 129.32 84.5Z" fill="white"/>
<path id="Vector_226" opacity="0.2" d="M57.7521 82.964L130.184 82.964V81.428L57.7521 81.428V82.964Z" fill="black"/>
<path id="Vector_227" d="M56.232 81.828H131.7C131.814 81.8285 131.926 81.8065 132.031 81.7633C132.136 81.7201 132.232 81.6565 132.312 81.5761C132.392 81.4958 132.456 81.4003 132.499 81.2953C132.543 81.1902 132.565 81.0776 132.564 80.964C132.564 80.7349 132.473 80.5151 132.311 80.3531C132.149 80.191 131.929 80.1 131.7 80.1H56.232C56.0025 80.1 55.7823 80.1909 55.6197 80.3528C55.457 80.5147 55.3651 80.7345 55.364 80.964C55.364 81.0778 55.3865 81.1905 55.4302 81.2956C55.4738 81.4007 55.5378 81.4961 55.6185 81.5764C55.6991 81.6566 55.7949 81.7202 55.9001 81.7634C56.0054 81.8066 56.1182 81.8285 56.232 81.828Z" fill="#7A2D93"/>
<path id="Vector_228" opacity="0.4" d="M56.232 81.828H131.7C131.814 81.8285 131.926 81.8065 132.031 81.7633C132.136 81.7201 132.232 81.6565 132.312 81.5761C132.392 81.4958 132.456 81.4003 132.499 81.2953C132.543 81.1902 132.565 81.0776 132.564 80.964C132.564 80.7349 132.473 80.5151 132.311 80.3531C132.149 80.191 131.929 80.1 131.7 80.1H56.232C56.0025 80.1 55.7823 80.1909 55.6197 80.3528C55.457 80.5147 55.3651 80.7345 55.364 80.964C55.364 81.0778 55.3865 81.1905 55.4302 81.2956C55.4738 81.4007 55.5378 81.4961 55.6185 81.5764C55.6991 81.6566 55.7949 81.7202 55.9001 81.7634C56.0054 81.8066 56.1182 81.8285 56.232 81.828Z" fill="white"/>
<path id="Vector_229" d="M115.484 80.092V78.74H116.392L115.484 78.212H116.164L115.256 77.62H114.396V76.94H115.396L114.396 76.544V75.068H115.396V74.104H116.392L115.396 73.768V73.08H116.108L115.524 72.5L115.02 71.992H99.5641V72.684H98.5441L99.6801 73.196V73.768H97.5961V74.832H96.6721L97.5961 75.296V76.484H98.2521V77.052H99.5641V78.74H98.8281L99.4321 79.344V80.1L115.484 80.092Z" fill="#7A2D93"/>
<path id="Vector_230" opacity="0.7" d="M115.484 80.092V78.74H116.392L115.484 78.212H116.164L115.256 77.62H114.396V76.94H115.396L114.396 76.544V75.068H115.396V74.104H116.392L115.396 73.768V73.08H116.108L115.524 72.5L115.02 71.992H99.5641V72.684H98.5441L99.6801 73.196V73.768H97.5961V74.832H96.6721L97.5961 75.296V76.484H98.2521V77.052H99.5641V78.74H98.8281L99.4321 79.344V80.1L115.484 80.092Z" fill="white"/>
<path id="Vector_231" opacity="0.1" d="M115.484 80.092V78.74H116.392L115.484 78.212H116.164L115.256 77.62H114.396V76.94H115.396L114.396 76.544V75.068H115.396V74.104H116.392L115.396 73.768V73.08H116.108L115.524 72.5L115.02 71.992H106.88V72.684H105.86L106.992 73.196V73.768H104.908V74.832H103.984L104.908 75.296V76.484H105.564V77.052H106.88V78.74H106.144L106.744 79.344V80.1L115.484 80.092Z" fill="black"/>
<path id="Vector_232" opacity="0.1" d="M99.6799 73.768H106.992L99.6799 73.504V73.768Z" fill="black"/>
<path id="Vector_233" opacity="0.1" d="M99.564 77.052H106.88L106.912 77.564L99.564 77.052Z" fill="black"/>
<path id="Vector_234" opacity="0.1" d="M98.252 76.484H105.564L98.252 76.74V76.484Z" fill="black"/>
<path id="Vector_235" opacity="0.1" d="M99.564 78.74H106.88L99.564 78.472V78.74Z" fill="black"/>
<path id="Vector_236" opacity="0.1" d="M99.4321 79.344H106.744V79.624L99.4321 79.344Z" fill="black"/>
<path id="Vector_237" opacity="0.1" d="M97.5959 74.832H104.908L97.5959 74.6V74.832Z" fill="black"/>
<path id="Vector_238" opacity="0.1" d="M99.564 72.684H106.88L99.564 72.428V72.684Z" fill="black"/>
<path id="Vector_239" opacity="0.1" d="M115.396 73.08H107.976L115.396 73.308V73.08Z" fill="black"/>
<path id="Vector_240" opacity="0.1" d="M106.992 73.768H115.396L107.776 74.016L106.992 73.768Z" fill="black"/>
<path id="Vector_241" opacity="0.1" d="M104.908 74.832L115.396 75.068V74.832H104.908Z" fill="black"/>
<path id="Vector_242" opacity="0.1" d="M104.908 75.296H110.096L104.908 75.548V75.296Z" fill="black"/>
<path id="Vector_243" opacity="0.1" d="M114.396 76.544L106.88 76.484L114.396 76.316V76.544Z" fill="black"/>
<path id="Vector_244" opacity="0.1" d="M114.396 76.94H106.744L114.396 77.196V76.94Z" fill="black"/>
<path id="Vector_245" opacity="0.1" d="M115.484 78.212H106.992V78.472L115.484 78.212Z" fill="black"/>
<path id="Vector_246" opacity="0.1" d="M115.484 78.74H109.332L115.484 78.912V78.74Z" fill="black"/>
<path id="Vector_247" d="M95.8041 78.348V79.632C95.8041 79.96 95.4041 80.096 95.0881 80.096H69.4401C69.1121 80.096 68.7161 79.96 68.7161 79.632V78.348H95.8041Z" fill="#263238"/>
<path id="Vector_248" opacity="0.4" d="M95.8041 78.348V79.632C95.8041 79.96 95.4041 80.096 95.0881 80.096H69.4401C69.1121 80.096 68.7161 79.96 68.7161 79.632V78.348H95.8041Z" fill="white"/>
<path id="Vector_249" opacity="0.2" d="M95.8039 78.348V79.632C95.8039 79.96 95.4039 80.096 95.0879 80.096H78.1719C77.8439 80.096 77.4519 79.96 77.4519 79.632V78.348H95.8039Z" fill="black"/>
<path id="Vector_250" d="M100.096 65.02L97.0401 78.872C96.9875 79.0968 96.8614 79.2976 96.6817 79.4426C96.5019 79.5875 96.279 79.6683 96.0481 79.672H79.3721C79.2683 79.6697 79.1665 79.6434 79.0746 79.5952C78.9827 79.547 78.9032 79.4781 78.8424 79.3941C78.7816 79.31 78.741 79.2129 78.724 79.1106C78.7069 79.0082 78.7138 78.9033 78.7441 78.804L81.7921 65.06C81.8546 64.8502 81.9872 64.6682 82.1678 64.5445C82.3483 64.4207 82.5659 64.3626 82.7841 64.38H99.4641C99.9121 64.364 100.192 64.568 100.096 65.02Z" fill="#263238"/>
<path id="Vector_251" opacity="0.4" d="M100.096 65.02L97.0401 78.872C96.9875 79.0968 96.8614 79.2976 96.6816 79.4426C96.5019 79.5875 96.2789 79.6683 96.0481 79.672H79.9361C79.8323 79.6697 79.7305 79.6434 79.6386 79.5952C79.5467 79.547 79.4672 79.4782 79.4064 79.3941C79.3455 79.31 79.305 79.2129 79.2879 79.1106C79.2709 79.0082 79.2778 78.9033 79.3081 78.804L82.3601 65.06C82.4219 64.8498 82.5544 64.6674 82.7351 64.5435C82.9158 64.4196 83.1337 64.3619 83.3521 64.38H99.4641C99.9121 64.364 100.192 64.568 100.096 65.02Z" fill="white"/>
<path id="Vector_252" opacity="0.2" d="M91.8721 72.06C91.8721 73.26 90.6001 74.208 89.6681 74.208C88.7361 74.208 88.1841 73.244 88.4681 72.06C88.7521 70.876 89.6681 69.952 90.5721 69.916C90.3081 71.116 90.8761 72.06 91.8041 72.06H91.8721Z" fill="black"/>
</g>
</g>
</g>
</svg>
