<svg width="30" height="30" viewBox="0 0 30 30" fill="none" xmlns="http://www.w3.org/2000/svg">
<g id="ic:twotone-cyclone">
<path id="Vector" opacity="0.3" d="M15 7.5C10.8625 7.5 7.5 10.8625 7.5 15C7.5 19.1375 10.8625 22.5 15 22.5C19.1375 22.5 22.5 19.1375 22.5 15C22.5 10.8625 19.1375 7.5 15 7.5ZM15 20C12.2375 20 10 17.7625 10 15C10 12.2375 12.2375 10 15 10C17.7625 10 20 12.2375 20 15C20 17.7625 17.7625 20 15 20Z" fill="#7A2D93"/>
<path id="Vector_2" opacity="0.3" d="M15 17.5C16.3807 17.5 17.5 16.3807 17.5 15C17.5 13.6193 16.3807 12.5 15 12.5C13.6193 12.5 12.5 13.6193 12.5 15C12.5 16.3807 13.6193 17.5 15 17.5Z" fill="#7A2D93"/>
<path id="Vector_3" d="M15 10C12.2375 10 10 12.2375 10 15C10 17.7625 12.2375 20 15 20C17.7625 20 20 17.7625 20 15C20 12.2375 17.7625 10 15 10ZM15 17.5C13.625 17.5 12.5 16.375 12.5 15C12.5 13.625 13.625 12.5 15 12.5C16.375 12.5 17.5 13.625 17.5 15C17.5 16.375 16.375 17.5 15 17.5Z" fill="#7A2D93"/>
<path id="Vector_4" d="M27.5 6.6875C25.0625 5.9625 20.7 5 15 5C12.3125 5 9.8625 6.075 8.075 7.8C8.2375 6.7375 8.575 4.8 9.3375 2.5H6.6875C5.9625 4.9375 5 9.3 5 15C5 17.6875 6.075 20.1375 7.8 21.925C6.7375 21.75 4.8 21.425 2.5 20.6625V23.3125C4.9375 24.0375 9.3 25 15 25C17.6875 25 20.1375 23.925 21.925 22.2C21.75 23.2625 21.425 25.2 20.6625 27.5H23.3125C24.0375 25.0625 25 20.7 25 15C25 12.3125 23.925 9.8625 22.2 8.075C23.2625 8.25 25.2 8.575 27.5 9.3375V6.6875ZM22.5 15C22.5 19.1375 19.1375 22.5 15 22.5C10.8625 22.5 7.5 19.1375 7.5 15C7.5 10.8625 10.8625 7.5 15 7.5C19.1375 7.5 22.5 10.8625 22.5 15Z" fill="#7A2D93"/>
</g>
</svg>
