<svg width="24" height="24" viewBox="0 0 10 10" fill="none" xmlns="http://www.w3.org/2000/svg">
<g id="vuesax/bulk/location">
<g id="location">
<path id="Vector" opacity="0.4" d="M8.59165 3.52083C8.15415 1.59583 6.47498 0.729164 4.99998 0.729164C4.99998 0.729164 4.99998 0.729164 4.99581 0.729164C3.52498 0.729164 1.84165 1.59166 1.40415 3.51666C0.916645 5.66666 2.23331 7.4875 3.42498 8.63333C3.86665 9.05833 4.43331 9.27083 4.99998 9.27083C5.56665 9.27083 6.13331 9.05833 6.57081 8.63333C7.76248 7.4875 9.07915 5.67083 8.59165 3.52083Z" fill="#7A2D93"/>
<path id="Vector_2" d="M5 5.60833C5.72487 5.60833 6.3125 5.0207 6.3125 4.29583C6.3125 3.57096 5.72487 2.98333 5 2.98333C4.27513 2.98333 3.6875 3.57096 3.6875 4.29583C3.6875 5.0207 4.27513 5.60833 5 5.60833Z" fill="#7A2D93"/>
</g>
</g>
</svg>
