<svg width="30" height="30" viewBox="0 0 30 30" fill="none" xmlns="http://www.w3.org/2000/svg">
<g id="vuesax/bulk/people">
<g id="people">
<path id="Vector" opacity="0.4" d="M21.9125 9.71251C21.825 9.70001 21.7375 9.70001 21.65 9.71251C19.7125 9.65001 18.175 8.0625 18.175 6.1125C18.175 4.125 19.7875 2.5 21.7875 2.5C23.775 2.5 25.4 4.1125 25.4 6.1125C25.3875 8.0625 23.85 9.65001 21.9125 9.71251Z" fill="black"/>
<path id="Vector_2" opacity="0.4" d="M25.9875 18.375C24.5875 19.3125 22.625 19.6625 20.8125 19.425C21.2875 18.4 21.5375 17.2625 21.55 16.0625C21.55 14.8125 21.275 13.625 20.75 12.5875C22.6 12.3375 24.5625 12.6875 25.975 13.625C27.95 14.925 27.95 17.0625 25.9875 18.375Z" fill="black"/>
<path id="Vector_3" opacity="0.4" d="M8.05 9.71251C8.1375 9.70001 8.225 9.70001 8.3125 9.71251C10.25 9.65001 11.7875 8.0625 11.7875 6.1125C11.7875 4.125 10.175 2.5 8.175 2.5C6.1875 2.5 4.5625 4.1125 4.5625 6.1125C4.575 8.0625 6.1125 9.65001 8.05 9.71251Z" fill="black"/>
<path id="Vector_4" opacity="0.4" d="M8.1874 16.0625C8.1874 17.275 8.4499 18.425 8.9249 19.4625C7.1624 19.65 5.3249 19.275 3.9749 18.3875C1.9999 17.075 1.9999 14.9375 3.9749 13.625C5.3124 12.725 7.1999 12.3625 8.9749 12.5625C8.4624 13.6125 8.1874 14.8 8.1874 16.0625Z" fill="black"/>
<path id="Vector_5" d="M15.15 19.8375C15.05 19.825 14.9375 19.825 14.825 19.8375C12.525 19.7625 10.6875 17.875 10.6875 15.55C10.6875 13.175 12.6 11.25 14.9875 11.25C17.3625 11.25 19.2875 13.175 19.2875 15.55C19.2875 17.875 17.4625 19.7625 15.15 19.8375Z" fill="black"/>
<path id="Vector_6" d="M11.0875 22.425C9.2 23.6875 9.2 25.7625 11.0875 27.0125C13.2375 28.45 16.7625 28.45 18.9125 27.0125C20.8 25.75 20.8 23.675 18.9125 22.425C16.775 20.9875 13.25 20.9875 11.0875 22.425Z" fill="black"/>
</g>
</g>
</svg>
