<svg width="30" height="30" viewBox="0 0 30 30" fill="none" xmlns="http://www.w3.org/2000/svg">
<g id="ph:link-duotone">
<g id="Group">
<path id="Vector" opacity="0.2" d="M24.6022 13.3524L21.3209 16.6337C20.4796 17.4777 19.3908 18.0311 18.2131 18.2134C18.0308 19.3911 17.4774 20.4798 16.6334 21.3212L13.3522 24.6024C12.2944 25.6431 10.8682 26.2237 9.38432 26.2176C7.90043 26.2116 6.47903 25.6194 5.42975 24.5702C4.38047 23.5209 3.78832 22.0995 3.78227 20.6156C3.77623 19.1317 4.35679 17.7055 5.39749 16.6477L8.67874 13.3665C9.52008 12.5225 10.6089 11.9691 11.7866 11.7868C11.9688 10.6091 12.5222 9.52033 13.3662 8.67899L16.6475 5.39774C17.7053 4.35703 19.1315 3.77648 20.6153 3.78252C22.0992 3.78856 23.5206 4.38071 24.5699 5.43C25.6192 6.47928 26.2114 7.90067 26.2174 9.38457C26.2234 10.8685 25.6429 12.2946 24.6022 13.3524Z" fill="#7A2D93"/>
<path id="Vector_2" d="M16.1178 21.8391C16.2935 22.0149 16.3922 22.2532 16.3922 22.5018C16.3922 22.7503 16.2935 22.9887 16.1178 23.1645L14.0155 25.2738C13.4055 25.8834 12.6815 26.3669 11.8847 26.6966C11.0879 27.0264 10.234 27.1959 9.37162 27.1957C7.63006 27.1951 5.96005 26.5028 4.72897 25.2709C3.49789 24.0391 2.80658 22.3686 2.80713 20.627C2.80768 18.8855 3.50004 17.2155 4.7319 15.9844L8.02721 12.6902C9.21028 11.5059 10.8012 10.8185 12.4745 10.7686C14.1478 10.7187 15.7769 11.3101 17.0284 12.4219C17.2149 12.5872 17.328 12.8199 17.343 13.0687C17.3579 13.3174 17.2734 13.562 17.1081 13.7485C16.9427 13.9349 16.7101 14.0481 16.4613 14.063C16.2125 14.078 15.968 13.9935 15.7815 13.8281C14.8877 13.0344 13.7245 12.6122 12.5297 12.6477C11.3349 12.6832 10.1988 13.1738 9.35377 14.0192L6.05846 17.311C5.1792 18.1902 4.68524 19.3827 4.68524 20.6262C4.68524 21.8696 5.1792 23.0622 6.05846 23.9414C6.93771 24.8207 8.13024 25.3146 9.37369 25.3146C10.6171 25.3146 11.8097 24.8207 12.6889 23.9414L14.7913 21.8391C14.8783 21.7519 14.9817 21.6828 15.0955 21.6356C15.2094 21.5884 15.3314 21.5641 15.4546 21.5641C15.5778 21.5641 15.6997 21.5884 15.8136 21.6356C15.9274 21.6828 16.0308 21.7519 16.1178 21.8391ZM25.2678 4.7297C24.0358 3.50043 22.3664 2.81006 20.626 2.81006C18.8856 2.81006 17.2163 3.50043 15.9842 4.7297L13.8819 6.83556C13.7061 7.01147 13.6075 7.25 13.6076 7.49867C13.6077 7.74734 13.7066 7.98578 13.8825 8.16154C14.0584 8.3373 14.2969 8.43597 14.5456 8.43586C14.7943 8.43575 15.0327 8.33686 15.2085 8.16095L17.3108 6.05861C18.1901 5.17935 19.3826 4.68539 20.626 4.68539C21.8695 4.68539 23.062 5.17935 23.9413 6.05861C24.8205 6.93786 25.3145 8.13039 25.3145 9.37384C25.3145 10.6173 24.8205 11.8098 23.9413 12.6891L20.646 15.9844C19.8004 16.8293 18.6641 17.3192 17.4693 17.3541C16.2745 17.3889 15.1116 16.9661 14.2182 16.1719C14.1259 16.09 14.0183 16.0271 13.9017 15.9868C13.7851 15.9465 13.6616 15.9296 13.5384 15.937C13.4153 15.9444 13.2947 15.976 13.1838 16.03C13.0728 16.0839 12.9735 16.1592 12.8917 16.2516C12.8098 16.3439 12.7469 16.4515 12.7066 16.5681C12.6663 16.6847 12.6494 16.8082 12.6568 16.9314C12.6642 17.0545 12.6958 17.1751 12.7497 17.286C12.8037 17.397 12.879 17.4963 12.9713 17.5781C14.2226 18.6902 15.8515 19.2821 17.5248 19.2326C19.198 19.1832 20.7891 18.4961 21.9725 17.3121L25.2678 14.018C26.4978 12.7858 27.1886 11.116 27.1886 9.37501C27.1886 7.63403 26.4978 5.96418 25.2678 4.73205V4.7297Z" fill="#7A2D93"/>
</g>
</g>
</svg>
