<svg width="30" height="30" viewBox="0 0 30 30" fill="none" xmlns="http://www.w3.org/2000/svg">
<g id="vuesax/bulk/play-cricle">
<g id="play-cricle">
<path id="Vector" opacity="0.4" d="M23.8375 24.775C23.6 24.775 23.3625 24.6875 23.175 24.5C22.8125 24.1375 22.8125 23.5375 23.175 23.175C27.6875 18.6625 27.6875 11.325 23.175 6.82502C22.8125 6.46252 22.8125 5.86252 23.175 5.50002C23.5375 5.13752 24.1375 5.13752 24.5 5.50002C29.7375 10.7375 29.7375 19.2625 24.5 24.5C24.3125 24.6875 24.075 24.775 23.8375 24.775Z" fill="white"/>
<path id="Vector_2" opacity="0.4" d="M6.16252 24.775C5.92502 24.775 5.68752 24.6875 5.50002 24.5C0.262524 19.2625 0.262524 10.7375 5.50002 5.50002C5.86252 5.13752 6.46252 5.13752 6.82502 5.50002C7.18752 5.86252 7.18752 6.46252 6.82502 6.82502C2.31252 11.3375 2.31252 18.675 6.82502 23.175C7.18752 23.5375 7.18752 24.1375 6.82502 24.5C6.63752 24.6875 6.40002 24.775 6.16252 24.775Z" fill="white"/>
<path id="Vector_3" opacity="0.4" d="M15 28.3875C13.4375 28.375 11.95 28.125 10.5625 27.6375C10.075 27.4625 9.8125 26.925 9.9875 26.4375C10.1625 25.95 10.6875 25.6875 11.1875 25.8625C12.3875 26.275 13.6625 26.5 15.0125 26.5C16.35 26.5 17.6375 26.275 18.825 25.8625C19.3125 25.7 19.85 25.95 20.025 26.4375C20.2 26.925 19.9375 27.4625 19.45 27.6375C18.05 28.125 16.5625 28.3875 15 28.3875Z" fill="white"/>
<path id="Vector_4" opacity="0.4" d="M19.125 4.17505C19.025 4.17505 18.9125 4.1625 18.8125 4.125C17.6125 3.7125 16.325 3.48749 14.9875 3.48749C13.65 3.48749 12.375 3.7125 11.175 4.125C10.6875 4.2875 10.15 4.03755 9.97499 3.55005C9.79999 3.06255 10.0625 2.52502 10.55 2.35002C11.9375 1.86252 13.4375 1.61249 14.9875 1.61249C16.5375 1.61249 18.0375 1.86252 19.425 2.35002C19.9125 2.52502 20.175 3.06255 20 3.55005C19.875 3.93755 19.5125 4.17505 19.125 4.17505Z" fill="white"/>
<path id="Vector_5" d="M10.925 15.0001V12.9126C10.925 10.3126 12.7625 9.25005 15.0125 10.5501L16.825 11.6001L18.6375 12.65C20.8875 13.95 20.8875 16.0751 18.6375 17.3751L16.825 18.425L15.0125 19.4751C12.7625 20.7751 10.925 19.7126 10.925 17.1126V15.0001Z" fill="white"/>
</g>
</g>
</svg>
