<svg width="24" height="24" viewBox="0 0 24 24" fill="none" xmlns="http://www.w3.org/2000/svg">
<path opacity="0.4" d="M18.38 12.8398V17.7698C18.38 19.0398 17.39 20.3998 16.2 20.7998L13.01 21.8598C12.45 22.0498 11.54 22.0498 10.99 21.8598L7.8 20.7998C6.6 20.3998 5.62 19.0398 5.62 17.7698L5.63 12.8398L10.05 15.7198C11.13 16.4298 12.91 16.4298 13.99 15.7198L18.38 12.8398Z" fill="black" fill-opacity="0.5"/>
<path d="M19.98 6.46006L13.99 2.53006C12.91 1.82006 11.13 1.82006 10.05 2.53006L4.03002 6.46006C2.10002 7.71006 2.10002 10.5401 4.03002 11.8001L5.63002 12.8401L10.05 15.7201C11.13 16.4301 12.91 16.4301 13.99 15.7201L18.38 12.8401L19.75 11.9401V15.0001C19.75 15.4101 20.09 15.7501 20.5 15.7501C20.91 15.7501 21.25 15.4101 21.25 15.0001V10.0801C21.65 8.79006 21.24 7.29006 19.98 6.46006Z" fill="black" fill-opacity="0.5"/>
</svg>
