<svg width="50" height="50" viewBox="0 0 50 50" fill="none" xmlns="http://www.w3.org/2000/svg">
<g id="solar:user-id-bold-duotone">
<path id="Vector" opacity="0.5" d="M29.1665 8.33337H20.8332C12.9769 8.33337 9.04775 8.33337 6.60817 10.775C4.1665 13.2146 4.1665 17.1438 4.1665 25C4.1665 32.8563 4.1665 36.7855 6.60817 39.225C9.04775 41.6667 12.9769 41.6667 20.8332 41.6667H29.1665C37.0228 41.6667 40.9519 41.6667 43.3915 39.225C45.8332 36.7855 45.8332 32.8563 45.8332 25C45.8332 17.1438 45.8332 13.2146 43.3915 10.775C40.9519 8.33337 37.0228 8.33337 29.1665 8.33337Z" fill="#7A2D93"/>
<path id="Vector_2" d="M27.604 18.75C27.604 18.3356 27.7686 17.9382 28.0616 17.6452C28.3547 17.3522 28.7521 17.1875 29.1665 17.1875H39.5832C39.9976 17.1875 40.395 17.3522 40.688 17.6452C40.9811 17.9382 41.1457 18.3356 41.1457 18.75C41.1457 19.1644 40.9811 19.5619 40.688 19.8549C40.395 20.1479 39.9976 20.3125 39.5832 20.3125H29.1665C28.7521 20.3125 28.3547 20.1479 28.0616 19.8549C27.7686 19.5619 27.604 19.1644 27.604 18.75ZM29.6873 25C29.6873 24.5856 29.852 24.1882 30.145 23.8952C30.438 23.6022 30.8354 23.4375 31.2498 23.4375H39.5832C39.9976 23.4375 40.395 23.6022 40.688 23.8952C40.9811 24.1882 41.1457 24.5856 41.1457 25C41.1457 25.4144 40.9811 25.8119 40.688 26.1049C40.395 26.3979 39.9976 26.5625 39.5832 26.5625H31.2498C30.8354 26.5625 30.438 26.3979 30.145 26.1049C29.852 25.8119 29.6873 25.4144 29.6873 25ZM31.7707 31.25C31.7707 30.8356 31.9353 30.4382 32.2283 30.1452C32.5213 29.8522 32.9188 29.6875 33.3332 29.6875H39.5832C39.9976 29.6875 40.395 29.8522 40.688 30.1452C40.9811 30.4382 41.1457 30.8356 41.1457 31.25C41.1457 31.6644 40.9811 32.0619 40.688 32.3549C40.395 32.6479 39.9976 32.8125 39.5832 32.8125H33.3332C32.9188 32.8125 32.5213 32.6479 32.2283 32.3549C31.9353 32.0619 31.7707 31.6644 31.7707 31.25ZM18.7498 22.9167C19.8549 22.9167 20.9147 22.4777 21.6961 21.6963C22.4775 20.9149 22.9165 19.8551 22.9165 18.75C22.9165 17.645 22.4775 16.5852 21.6961 15.8038C20.9147 15.0224 19.8549 14.5834 18.7498 14.5834C17.6448 14.5834 16.585 15.0224 15.8036 15.8038C15.0222 16.5852 14.5832 17.645 14.5832 18.75C14.5832 19.8551 15.0222 20.9149 15.8036 21.6963C16.585 22.4777 17.6448 22.9167 18.7498 22.9167ZM18.7498 35.4167C27.0832 35.4167 27.0832 33.5521 27.0832 31.25C27.0832 28.948 23.354 27.0834 18.7498 27.0834C14.1457 27.0834 10.4165 28.948 10.4165 31.25C10.4165 33.5521 10.4165 35.4167 18.7498 35.4167Z" fill="#7A2D93"/>
</g>
</svg>
