<svg width="30" height="30" viewBox="0 0 30 30" fill="none" xmlns="http://www.w3.org/2000/svg">
<g id="solar:share-line-duotone">
<g id="Group">
<path id="Vector" d="M11.25 14.375C11.25 15.2038 10.9208 15.9987 10.3347 16.5847C9.74866 17.1708 8.9538 17.5 8.125 17.5C7.2962 17.5 6.50134 17.1708 5.91529 16.5847C5.32924 15.9987 5 15.2038 5 14.375C5 13.5462 5.32924 12.7513 5.91529 12.1653C6.50134 11.5792 7.2962 11.25 8.125 11.25C8.9538 11.25 9.74866 11.5792 10.3347 12.1653C10.9208 12.7513 11.25 13.5462 11.25 14.375Z" stroke="#7A2D93" stroke-width="1.875"/>
<path id="Vector_2" opacity="0.5" d="M17.9 21.0025L11.25 16.6125M18.025 8.54999L11.375 12.94" stroke="#7A2D93" stroke-width="1.875" stroke-linecap="round"/>
<path id="Vector_3" d="M23.75 23.125C23.75 23.9538 23.4208 24.7487 22.8347 25.3347C22.2487 25.9208 21.4538 26.25 20.625 26.25C19.7962 26.25 19.0013 25.9208 18.4153 25.3347C17.8292 24.7487 17.5 23.9538 17.5 23.125C17.5 22.2962 17.8292 21.5013 18.4153 20.9153C19.0013 20.3292 19.7962 20 20.625 20C21.4538 20 22.2487 20.3292 22.8347 20.9153C23.4208 21.5013 23.75 22.2962 23.75 23.125ZM23.75 6.875C23.75 7.7038 23.4208 8.49866 22.8347 9.08471C22.2487 9.67076 21.4538 10 20.625 10C19.7962 10 19.0013 9.67076 18.4153 9.08471C17.8292 8.49866 17.5 7.7038 17.5 6.875C17.5 6.0462 17.8292 5.25134 18.4153 4.66529C19.0013 4.07924 19.7962 3.75 20.625 3.75C21.4538 3.75 22.2487 4.07924 22.8347 4.66529C23.4208 5.25134 23.75 6.0462 23.75 6.875Z" stroke="#7A2D93" stroke-width="1.875"/>
</g>
</g>
</svg>
