<svg width="50" height="50" viewBox="0 0 50 50" fill="none" xmlns="http://www.w3.org/2000/svg">
<g id="solar:card-2-bold-duotone">
<path id="Vector" opacity="0.5" d="M20.8336 41.6667H29.1669C37.0231 41.6667 40.9523 41.6667 43.3919 39.225C45.8336 36.7855 45.8336 32.8563 45.8336 25C45.8336 24.0792 45.8294 21.65 45.8252 20.8334H4.16689C4.16272 21.65 4.16689 24.0792 4.16689 25C4.16689 32.8563 4.16689 36.7855 6.60647 39.225C9.04814 41.6667 12.9794 41.6667 20.8336 41.6667Z" fill="#7A2D93"/>
<path id="Vector_2" d="M10.9375 28.125C10.9375 27.7106 11.1021 27.3132 11.3951 27.0201C11.6882 26.7271 12.0856 26.5625 12.5 26.5625H16.6667C17.0811 26.5625 17.4785 26.7271 17.7715 27.0201C18.0645 27.3132 18.2292 27.7106 18.2292 28.125C18.2292 28.5394 18.0645 28.9368 17.7715 29.2299C17.4785 29.5229 17.0811 29.6875 16.6667 29.6875H12.5C12.0856 29.6875 11.6882 29.5229 11.3951 29.2299C11.1021 28.9368 10.9375 28.5394 10.9375 28.125ZM10.9375 34.375C10.9375 33.9606 11.1021 33.5632 11.3951 33.2701C11.6882 32.9771 12.0856 32.8125 12.5 32.8125H20.8333C21.2477 32.8125 21.6452 32.9771 21.9382 33.2701C22.2312 33.5632 22.3958 33.9606 22.3958 34.375C22.3958 34.7894 22.2312 35.1868 21.9382 35.4799C21.6452 35.7729 21.2477 35.9375 20.8333 35.9375H12.5C12.0856 35.9375 11.6882 35.7729 11.3951 35.4799C11.1021 35.1868 10.9375 34.7894 10.9375 34.375Z" fill="#7A2D93"/>
<path id="Vector_3" fill-rule="evenodd" clip-rule="evenodd" d="M35.8269 25.6105C35.154 25.5209 34.3269 25.5209 33.4269 25.5209H33.2394C32.3373 25.5209 31.5103 25.5209 30.8394 25.6105C30.0978 25.7105 29.3165 25.9438 28.6728 26.5896C28.0269 27.2334 27.7936 28.0146 27.6936 28.7563C27.604 29.4292 27.604 30.2563 27.604 31.1563V31.3438C27.604 32.2459 27.604 33.073 27.6936 33.7438C27.7936 34.4855 28.0269 35.2667 28.6728 35.9105C29.3165 36.5563 30.0978 36.7896 30.8394 36.8896C31.5123 36.9792 32.3394 36.9792 33.2394 36.9792H33.4269C34.329 36.9792 35.1561 36.9792 35.8269 36.8896C36.5686 36.7896 37.3498 36.5563 37.9936 35.9105C38.6394 35.2667 38.8728 34.4855 38.9728 33.7438C39.0623 33.0709 39.0623 32.2438 39.0623 31.3438V31.1563C39.0623 30.2542 39.0623 29.4271 38.9728 28.7563C38.8728 28.0146 38.6394 27.2334 37.9936 26.5896C37.3498 25.9438 36.5686 25.7105 35.8269 25.6105ZM30.8873 28.7959L30.8811 28.798L30.879 28.8042C30.834 28.9228 30.8046 29.0468 30.7915 29.173C30.7332 29.6105 30.729 30.223 30.729 31.25C30.729 32.2771 30.7332 32.8896 30.7915 33.3271C30.8046 33.4533 30.834 33.5773 30.879 33.6959L30.8811 33.7021L30.8873 33.7042C31.0059 33.7492 31.1299 33.7787 31.2561 33.7917C31.6936 33.85 32.3061 33.8542 33.3332 33.8542C34.3603 33.8542 34.9728 33.85 35.4103 33.7917C35.5364 33.7787 35.6604 33.7492 35.779 33.7042L35.7853 33.7021L35.7873 33.6959C35.8324 33.5773 35.8618 33.4533 35.8748 33.3271C35.9332 32.8896 35.9373 32.2771 35.9373 31.25C35.9373 30.223 35.9332 29.6105 35.8748 29.173C35.8618 29.0468 35.8323 28.9228 35.7873 28.8042L35.7853 28.798L35.779 28.7959C35.6604 28.7508 35.5364 28.7214 35.4103 28.7084C34.9728 28.65 34.3603 28.6459 33.3332 28.6459C32.3061 28.6459 31.6936 28.65 31.2561 28.7084C31.1299 28.7214 31.0059 28.7508 30.8873 28.7959Z" fill="#7A2D93"/>
<path id="Vector_4" d="M20.8228 8.33337H29.1769C37.054 8.33337 40.9936 8.33337 43.4394 10.6584C45.2019 12.3313 45.6957 14.7417 45.8332 18.75V20.8334H4.1665V18.75C4.304 14.7396 4.79775 12.3334 6.56025 10.6584C9.00609 8.33337 12.9457 8.33337 20.8228 8.33337Z" fill="#7A2D93"/>
</g>
</svg>
