<svg width="100" height="100" viewBox="0 0 100 100" fill="none" xmlns="http://www.w3.org/2000/svg">
<g id="solar:user-id-bold-duotone">
<path id="Vector" opacity="0.5" d="M58.3335 16.6667H41.6668C25.9543 16.6667 18.096 16.6667 13.2168 21.55C8.3335 26.4292 8.3335 34.2875 8.3335 50C8.3335 65.7125 8.3335 73.5708 13.2168 78.45C18.096 83.3334 25.9543 83.3334 41.6668 83.3334H58.3335C74.046 83.3334 81.9043 83.3334 86.7835 78.45C91.6668 73.5708 91.6668 65.7125 91.6668 50C91.6668 34.2875 91.6668 26.4292 86.7835 21.55C81.9043 16.6667 74.046 16.6667 58.3335 16.6667Z" fill="#7A2D93" fill-opacity="0.5"/>
<path id="Vector_2" d="M55.2085 37.5C55.2085 36.6712 55.5377 35.8764 56.1238 35.2903C56.7098 34.7043 57.5047 34.375 58.3335 34.375H79.1668C79.9956 34.375 80.7905 34.7043 81.3765 35.2903C81.9626 35.8764 82.2918 36.6712 82.2918 37.5C82.2918 38.3288 81.9626 39.1237 81.3765 39.7097C80.7905 40.2958 79.9956 40.625 79.1668 40.625H58.3335C57.5047 40.625 56.7098 40.2958 56.1238 39.7097C55.5377 39.1237 55.2085 38.3288 55.2085 37.5ZM59.3752 50C59.3752 49.1712 59.7044 48.3764 60.2905 47.7903C60.8765 47.2043 61.6714 46.875 62.5002 46.875H79.1668C79.9956 46.875 80.7905 47.2043 81.3765 47.7903C81.9626 48.3764 82.2918 49.1712 82.2918 50C82.2918 50.8288 81.9626 51.6237 81.3765 52.2097C80.7905 52.7958 79.9956 53.125 79.1668 53.125H62.5002C61.6714 53.125 60.8765 52.7958 60.2905 52.2097C59.7044 51.6237 59.3752 50.8288 59.3752 50ZM63.5418 62.5C63.5418 61.6712 63.8711 60.8764 64.4571 60.2903C65.0432 59.7043 65.838 59.375 66.6668 59.375H79.1668C79.9956 59.375 80.7905 59.7043 81.3765 60.2903C81.9626 60.8764 82.2918 61.6712 82.2918 62.5C82.2918 63.3288 81.9626 64.1237 81.3765 64.7097C80.7905 65.2958 79.9956 65.625 79.1668 65.625H66.6668C65.838 65.625 65.0432 65.2958 64.4571 64.7097C63.8711 64.1237 63.5418 63.3288 63.5418 62.5ZM37.5002 45.8334C39.7103 45.8334 41.8299 44.9554 43.3927 43.3926C44.9555 41.8298 45.8335 39.7102 45.8335 37.5C45.8335 35.2899 44.9555 33.1703 43.3927 31.6075C41.8299 30.0447 39.7103 29.1667 37.5002 29.1667C35.29 29.1667 33.1704 30.0447 31.6076 31.6075C30.0448 33.1703 29.1668 35.2899 29.1668 37.5C29.1668 39.7102 30.0448 41.8298 31.6076 43.3926C33.1704 44.9554 35.29 45.8334 37.5002 45.8334ZM37.5002 70.8334C54.1668 70.8334 54.1668 67.1042 54.1668 62.5C54.1668 57.8959 46.7085 54.1667 37.5002 54.1667C28.2918 54.1667 20.8335 57.8959 20.8335 62.5C20.8335 67.1042 20.8335 70.8334 37.5002 70.8334Z" fill="#7A2D93" fill-opacity="0.5"/>
</g>
</svg>
