<svg width="100" height="100" viewBox="0 0 100 100" fill="none" xmlns="http://www.w3.org/2000/svg">
<g id="solar:card-bold-duotone">
<path id="Vector" opacity="0.5" d="M41.6666 83.3333H58.3333C74.0458 83.3333 81.9041 83.3333 86.7833 78.45C91.6666 73.5708 91.6666 65.7125 91.6666 50C91.6666 48.1583 91.6583 43.3 91.65 41.6666H8.33329C8.32496 43.3 8.33329 48.1583 8.33329 50C8.33329 65.7125 8.33329 73.5708 13.2125 78.45C18.0958 83.3333 25.9583 83.3333 41.6666 83.3333Z" fill="#7A2D93" fill-opacity="0.5"/>
<path id="Vector_2" d="M41.646 16.6666H58.3543C74.1085 16.6666 81.9877 16.6666 86.8793 21.3166C90.4043 24.6625 91.3918 29.4833 91.6668 37.5V41.6666H8.3335V37.5C8.6085 29.4791 9.596 24.6666 13.121 21.3166C18.0127 16.6666 25.8918 16.6666 41.646 16.6666ZM52.0835 63.5416C51.2547 63.5416 50.4598 63.8709 49.8738 64.4569C49.2877 65.043 48.9585 65.8378 48.9585 66.6666C48.9585 67.4954 49.2877 68.2903 49.8738 68.8763C50.4598 69.4624 51.2547 69.7916 52.0835 69.7916H58.3335C59.1623 69.7916 59.9572 69.4624 60.5432 68.8763C61.1293 68.2903 61.4585 67.4954 61.4585 66.6666C61.4585 65.8378 61.1293 65.043 60.5432 64.4569C59.9572 63.8709 59.1623 63.5416 58.3335 63.5416H52.0835ZM25.0002 63.5416C24.1714 63.5416 23.3765 63.8709 22.7905 64.4569C22.2044 65.043 21.8752 65.8378 21.8752 66.6666C21.8752 67.4954 22.2044 68.2903 22.7905 68.8763C23.3765 69.4624 24.1714 69.7916 25.0002 69.7916H41.6668C42.4956 69.7916 43.2905 69.4624 43.8765 68.8763C44.4626 68.2903 44.7918 67.4954 44.7918 66.6666C44.7918 65.8378 44.4626 65.043 43.8765 64.4569C43.2905 63.8709 42.4956 63.5416 41.6668 63.5416H25.0002Z" fill="#7A2D93" fill-opacity="0.5"/>
</g>
</svg>
