<svg width="30" height="30" viewBox="0 0 30 30" fill="none" xmlns="http://www.w3.org/2000/svg">
<g id="vuesax/bulk/user-add">
<g id="user-add">
<path id="Vector" opacity="0.4" d="M26.3624 26.875C26.3624 27.225 26.0874 27.5 25.7374 27.5H4.26245C3.91245 27.5 3.63745 27.225 3.63745 26.875C3.63745 21.7 8.73745 17.5 14.9999 17.5C16.2874 17.5 17.5375 17.675 18.6875 18.0125C17.95 18.8875 17.4999 20.025 17.4999 21.25C17.4999 22.1875 17.7624 23.075 18.2249 23.825C18.4749 24.25 18.7999 24.6375 19.1749 24.9625C20.0499 25.7625 21.2124 26.25 22.4999 26.25C23.8999 26.25 25.1625 25.675 26.0625 24.75C26.2625 25.425 26.3624 26.1375 26.3624 26.875Z" fill="black" fill-opacity="0.5"/>
<path id="Vector_2" d="M26.2125 17.9125C25.3125 16.8875 23.975 16.25 22.5 16.25C21.1 16.25 19.825 16.825 18.9125 17.7625C18.0375 18.6625 17.5 19.9 17.5 21.25C17.5 22.1875 17.7625 23.075 18.225 23.825C18.475 24.25 18.8 24.6375 19.175 24.9625C20.05 25.7625 21.2125 26.25 22.5 26.25C24.325 26.25 25.9125 25.275 26.775 23.825C27.0375 23.4 27.2375 22.9125 27.35 22.4125C27.45 22.0375 27.5 21.65 27.5 21.25C27.5 19.975 27.0125 18.8 26.2125 17.9125ZM24.375 22.1625H23.4375V23.1375C23.4375 23.65 23.0125 24.075 22.5 24.075C21.9875 24.075 21.5625 23.65 21.5625 23.1375V22.1625H20.625C20.1125 22.1625 19.6875 21.7375 19.6875 21.225C19.6875 20.7125 20.1125 20.2875 20.625 20.2875H21.5625V19.4C21.5625 18.8875 21.9875 18.4625 22.5 18.4625C23.0125 18.4625 23.4375 18.8875 23.4375 19.4V20.2875H24.375C24.8875 20.2875 25.3125 20.7125 25.3125 21.225C25.3125 21.7375 24.8875 22.1625 24.375 22.1625Z" fill="black" fill-opacity="0.5"/>
<path id="Vector_3" d="M15 15C18.4518 15 21.25 12.2018 21.25 8.75C21.25 5.29822 18.4518 2.5 15 2.5C11.5482 2.5 8.75 5.29822 8.75 8.75C8.75 12.2018 11.5482 15 15 15Z" fill="black" fill-opacity="0.5"/>
</g>
</g>
</svg>
