<svg width="360" height="296" viewBox="0 0 360 296" fill="none" xmlns="http://www.w3.org/2000/svg">
<path d="M-191 35.3974C-191 17.7953 -172.026 6.72455 -156.702 15.3858C-149.473 19.4716 -140.603 19.3413 -133.497 15.0449L-123.065 8.73686C-109.982 0.826577 -93.7239 0.303578 -80.1602 7.35671L-74.825 10.131C-60.6076 17.524 -43.4562 17.0636 -29.581 9.04678C-15.6403 0.992196 1.62773 0.673353 15.7845 8.34162L21.2167 11.2841C33.3375 17.8495 48.13 16.9897 59.4086 9.06424C70.7822 1.07197 85.7192 0.270222 97.883 6.99912L103.412 10.0579C116.911 17.5251 133.236 17.8012 146.979 10.7949L153.998 7.21692C167.866 0.146689 184.236 -0.0608461 198.28 6.65552L219.88 16.986C235.421 24.4189 253.749 22.9848 267.946 13.2249L269.884 11.8925C284.005 2.18384 302.451 1.46069 317.29 10.034C330.22 17.5046 346.037 17.9814 359.394 11.3032L369.628 6.18591C382.57 -0.284834 397.68 -0.832139 411.055 4.68535L449.107 20.3818C462.039 25.7159 476.832 23.7568 487.929 15.2405C502.562 4.01047 523.044 4.49893 537.125 16.4138L537.756 16.947C546.79 24.5913 552 35.8253 552 47.6595V296H-191V35.3974Z" fill="#7A2D93"/>
</svg> 