<svg width="30" height="30" viewBox="0 0 30 30" fill="none" xmlns="http://www.w3.org/2000/svg">
<g id="vuesax/bulk/arrow-square-left">
<g id="arrow-square-left">
<path id="Vector" opacity="0.4" d="M20.2375 2.5H9.7625C5.2125 2.5 2.5 5.2125 2.5 9.7625V20.225C2.5 24.7875 5.2125 27.5 9.7625 27.5H20.225C24.775 27.5 27.4875 24.7875 27.4875 20.2375V9.7625C27.5 5.2125 24.7875 2.5 20.2375 2.5Z" fill="#7A2D93"/>
<path id="Vector_2" d="M16.575 20.35C16.3375 20.35 16.1 20.2625 15.9125 20.075L11.5 15.6625C11.1375 15.3 11.1375 14.7 11.5 14.3375L15.9125 9.925C16.275 9.5625 16.875 9.5625 17.2375 9.925C17.6 10.2875 17.6 10.8875 17.2375 11.25L13.4875 15L17.2375 18.75C17.6 19.1125 17.6 19.7125 17.2375 20.075C17.0625 20.2625 16.825 20.35 16.575 20.35Z" fill="#7A2D93"/>
</g>
</g>
</svg>
