<svg width="24" height="24" viewBox="0 0 24 24" fill="none" xmlns="http://www.w3.org/2000/svg">
  <path d="M5.38858 9.76456C6.34285 6.93865 9.06027 4.90911 12.279 4.90911C14.0092 4.90911 15.572 5.50911 16.7999 6.49093L20.372 3.00001C18.1953 1.14546 15.4046 0 12.279 0C7.43905 0 3.27203 2.69831 1.26874 6.65004L5.38858 9.76456Z" fill="#EA4335"/>
  <path d="M16.4138 18.0124C15.2986 18.7161 13.8816 19.0907 12.2791 19.0907C9.07267 19.0907 6.36374 17.0767 5.39969 14.2677L1.26624 17.3348C3.26703 21.2935 7.43395 23.9999 12.2791 23.9999C15.2801 23.9999 18.1478 22.9572 20.2954 20.9994L16.4138 18.0124Z" fill="#34A853"/>
  <path d="M20.2953 20.9995C22.5413 18.9521 23.9999 15.9036 23.9999 11.9999C23.9999 11.2908 23.8882 10.5272 23.7208 9.81812H12.2789V14.4545H18.865C18.54 16.0136 17.6677 17.2212 16.4136 18.0125L20.2953 20.9995Z" fill="#4A90E2"/>
  <path d="M5.3997 14.268C5.15549 13.5565 5.02325 12.7939 5.02325 12.0001C5.02325 11.2184 5.15151 10.4669 5.38867 9.76466L1.26883 6.65015C0.44674 8.26056 0 10.0755 0 12.0001C0 13.9197 0.455124 15.7303 1.26624 17.3351L5.3997 14.268Z" fill="#FBBC05"/>
</svg>