<svg width="8" height="9" viewBox="0 0 8 9" fill="none" xmlns="http://www.w3.org/2000/svg">
<g id="vuesax/bulk/personalcard">
<g id="personalcard">
<g id="personalcard_2">
<path id="Vector" opacity="0.4" d="M5.875 1.6875H2.125C1.43438 1.6875 0.875 2.24375 0.875 2.92812V6.07188C0.875 6.75625 1.43438 7.3125 2.125 7.3125H5.875C6.56563 7.3125 7.125 6.75625 7.125 6.07188V2.92812C7.125 2.24375 6.56563 1.6875 5.875 1.6875Z" fill="white"/>
<path id="Vector_2" d="M6.1875 3.48438H4.625C4.49688 3.48438 4.39062 3.37813 4.39062 3.25C4.39062 3.12188 4.49688 3.01562 4.625 3.01562H6.1875C6.31563 3.01562 6.42188 3.12188 6.42188 3.25C6.42188 3.37813 6.31563 3.48438 6.1875 3.48438Z" fill="white"/>
<path id="Vector_3" d="M6.1875 4.73438H4.9375C4.80938 4.73438 4.70312 4.62813 4.70312 4.5C4.70312 4.37188 4.80938 4.26562 4.9375 4.26562H6.1875C6.31562 4.26562 6.42188 4.37188 6.42188 4.5C6.42188 4.62813 6.31562 4.73438 6.1875 4.73438Z" fill="white"/>
<path id="Vector_4" d="M6.1875 5.98438H5.5625C5.43438 5.98438 5.32812 5.87813 5.32812 5.75C5.32812 5.62188 5.43438 5.51562 5.5625 5.51562H6.1875C6.31563 5.51562 6.42188 5.62188 6.42188 5.75C6.42188 5.87813 6.31563 5.98438 6.1875 5.98438Z" fill="white"/>
<path id="Vector_5" d="M2.90626 4.43438C3.30494 4.43438 3.62814 4.11119 3.62814 3.71251C3.62814 3.31383 3.30494 2.99063 2.90626 2.99063C2.50758 2.99063 2.18439 3.31383 2.18439 3.71251C2.18439 4.11119 2.50758 4.43438 2.90626 4.43438Z" fill="white"/>
<path id="Vector_6" d="M3.15623 4.84688C2.9906 4.83125 2.81873 4.83125 2.6531 4.84688C2.1281 4.89688 1.70623 5.3125 1.65623 5.8375C1.6531 5.88125 1.6656 5.925 1.69685 5.95625C1.7281 5.9875 1.76873 6.00938 1.81248 6.00938H3.99998C4.04373 6.00938 4.08748 5.99063 4.1156 5.95938C4.14373 5.92813 4.15935 5.88438 4.15623 5.84063C4.1031 5.3125 3.68435 4.89688 3.15623 4.84688Z" fill="white"/>
</g>
</g>
</g>
</svg>
